<?xml version="1.0" encoding="UTF-8" standalone="no"?>
<!-- Created with Inkscape (http://www.inkscape.org/) -->

<svg
   xmlns:dc="http://purl.org/dc/elements/1.1/"
   xmlns:cc="http://creativecommons.org/ns#"
   xmlns:rdf="http://www.w3.org/1999/02/22-rdf-syntax-ns#"
   xmlns:svg="http://www.w3.org/2000/svg"
   xmlns="http://www.w3.org/2000/svg"
   xmlns:sodipodi="http://sodipodi.sourceforge.net/DTD/sodipodi-0.dtd"
   xmlns:inkscape="http://www.inkscape.org/namespaces/inkscape"
   version="1.1"
   id="svg14509"
   xml:space="preserve"
   width="760.32288"
   height="748.91919"
   viewBox="0 0 760.32288 748.91919"
   sodipodi:docname="digital-services-illustration.svg"
   inkscape:version="0.92.5 (2060ec1f9f, 2020-04-08)"><metadata
     id="metadata14515"><rdf:RDF><cc:Work
         rdf:about=""><dc:format>image/svg+xml</dc:format><dc:type
           rdf:resource="http://purl.org/dc/dcmitype/StillImage" /><dc:title></dc:title></cc:Work></rdf:RDF></metadata><defs
     id="defs14513"><clipPath
       clipPathUnits="userSpaceOnUse"
       id="clipPath14525"><path
         d="M 0,0 H 6000 V 3406.25 H 0 Z"
         id="path14523"
         inkscape:connector-curvature="0"
         style="clip-rule:evenodd" /></clipPath><clipPath
       clipPathUnits="userSpaceOnUse"
       id="clipPath14539"><path
         d="M 0,0 H 6000 V 3375 H 0 Z"
         id="path14537"
         inkscape:connector-curvature="0"
         style="clip-rule:evenodd" /></clipPath><clipPath
       clipPathUnits="userSpaceOnUse"
       id="clipPath14551"><path
         d="M 0,0 H 6000 V 3375 H 0 Z"
         id="path14549"
         inkscape:connector-curvature="0"
         style="clip-rule:evenodd" /></clipPath><clipPath
       clipPathUnits="userSpaceOnUse"
       id="clipPath14563"><path
         d="M 0,0 H 6000 V 3406.25 H 0 Z"
         id="path14561"
         inkscape:connector-curvature="0" /></clipPath><clipPath
       clipPathUnits="userSpaceOnUse"
       id="clipPath14569"><path
         d="M 0,0 H 6000 V 3375 H 0 Z"
         id="path14567"
         inkscape:connector-curvature="0" /></clipPath><clipPath
       clipPathUnits="userSpaceOnUse"
       id="clipPath14575"><path
         d="m 5766.8379,202.59 h 109.375 v 109.375 h -109.375 z"
         id="path14573"
         inkscape:connector-curvature="0" /></clipPath><clipPath
       clipPathUnits="userSpaceOnUse"
       id="clipPath14581"><path
         d="m 5766.8379,202.59 h 109.375 v 109.375 h -109.375 z"
         id="path14579"
         inkscape:connector-curvature="0" /></clipPath><clipPath
       clipPathUnits="userSpaceOnUse"
       id="clipPath14587"><path
         d="m 5765.353,202.59 h 110.8599 V 313.44974 H 5765.353 Z"
         id="path14585"
         inkscape:connector-curvature="0" /></clipPath><clipPath
       clipPathUnits="userSpaceOnUse"
       id="clipPath14599"><path
         d="M 0,0 H 6000 V 3375 H 0 Z"
         id="path14597"
         inkscape:connector-curvature="0"
         style="clip-rule:evenodd" /></clipPath><clipPath
       clipPathUnits="userSpaceOnUse"
       id="clipPath14613"><path
         d="M 0,0 H 6000 V 3406.25 H 0 Z"
         id="path14611"
         inkscape:connector-curvature="0" /></clipPath><clipPath
       clipPathUnits="userSpaceOnUse"
       id="clipPath14619"><path
         d="M 0,0 H 6000 V 3375 H 0 Z"
         id="path14617"
         inkscape:connector-curvature="0" /></clipPath><clipPath
       clipPathUnits="userSpaceOnUse"
       id="clipPath14625"><path
         d="m 5624.958,1636.0297 h 106.25 v 9.375 h -106.25 z"
         id="path14623"
         inkscape:connector-curvature="0" /></clipPath><clipPath
       clipPathUnits="userSpaceOnUse"
       id="clipPath14637"><path
         d="m 5741.3203,3133.938 h 126.7246 v 87.5 h -126.7246 z"
         id="path14635"
         inkscape:connector-curvature="0"
         style="clip-rule:evenodd" /></clipPath><clipPath
       clipPathUnits="userSpaceOnUse"
       id="clipPath14649"><path
         d="M 1676.8679,435.63162 H 4323.7431 V 2938.7566 H 1676.8679 Z"
         id="path14647"
         inkscape:connector-curvature="0"
         style="clip-rule:evenodd" /></clipPath></defs><sodipodi:namedview
     pagecolor="#ffffff"
     bordercolor="#666666"
     borderopacity="1"
     objecttolerance="10"
     gridtolerance="10"
     guidetolerance="10"
     inkscape:pageopacity="0"
     inkscape:pageshadow="2"
     inkscape:window-width="1366"
     inkscape:window-height="705"
     id="namedview14511"
     showgrid="false"
     inkscape:zoom="0.42083333"
     inkscape:cx="404.0549"
     inkscape:cy="489.56196"
     inkscape:window-x="-8"
     inkscape:window-y="-8"
     inkscape:window-maximized="1"
     inkscape:current-layer="g14517" /><g
     id="g14517"
     inkscape:groupmode="layer"
     inkscape:label="Panx Services Catalogue"
     transform="matrix(0.31999998,0,0,0.31999998,-579.93625,-160.12325)"><g
       id="g14593"><g
         id="g14595"
         clip-path="url(#clipPath14599)"><g
           id="g14601"
           transform="matrix(3.7172935,0,0,3.7172935,5730.2847,1590.8503)"><text
             transform="translate(16.59375,20)"
             style="font-variant:normal;font-weight:normal;font-size:0px;font-family:Arial;-inkscape-font-specification:Arial;writing-mode:lr-tb;fill:#000000;fill-opacity:1;fill-rule:nonzero;stroke:none"
             id="text14605"><tspan
               x="0 8.941268"
               y="0"
               sodipodi:role="line"
               id="tspan14603">17</tspan></text>
</g></g></g><g
       id="g14607"><g
         id="g14609"
         clip-path="url(#clipPath14613)"><g
           id="g14615"
           clip-path="url(#clipPath14619)"><g
             id="g14621"
             clip-path="url(#clipPath14625)"><g
               id="g14627"
               transform="matrix(0,-3.125,3.125,0,5624.958,1645.4047)"><path
                 d="M 0,0 H 3 V 34 H 0 Z"
                 style="fill:#000000;fill-opacity:1;fill-rule:nonzero;stroke:none"
                 id="path14629"
                 inkscape:connector-curvature="0" /></g></g></g></g></g><g
       id="g14643"><g
         id="g14645"
         clip-path="url(#clipPath14649)"><g
           id="g14651"
           transform="matrix(4.7520199,0,0,4.7497683,1812.3005,483.1279)"><path
             d="m 454.94922,267.09375 c 28.53516,49.45703 73.55078,188.97266 20.30859,223.28516 -12.84375,8.27343 -36.38672,9.70312 -55.95312,-6.95703 -41.52735,-35.35547 -54.53516,-162.27344 -62.48047,-214.24219 -8.37109,-54.75781 66.44922,-56.99219 98.125,-2.08594"
             style="fill:#ff2f4c;fill-opacity:1;fill-rule:nonzero;stroke:none"
             id="path14653"
             inkscape:connector-curvature="0" /><path
             d="M 45.050781,267.09375 C 16.515625,316.55078 -28.5,456.06641 24.742188,490.37891 c 12.84375,8.27343 36.386718,9.70312 55.953125,-6.95703 41.527347,-35.35547 54.535157,-162.27344 62.480467,-214.24219 8.37109,-54.75781 -66.449217,-56.99219 -98.124999,-2.08594"
             style="fill:#ff2f4c;fill-opacity:1;fill-rule:nonzero;stroke:none"
             id="path14655"
             inkscape:connector-curvature="0" /><path
             d="M 145.17187,193.30469 H 354.82813 L 415.13672,470.94922 84.863281,471.37891 145.17187,193.30469"
             style="fill:#fcd880;fill-opacity:1;fill-rule:nonzero;stroke:none"
             id="path14657"
             inkscape:connector-curvature="0" /><path
             d="m 151.96484,193.14063 v 143.73828 h 27.9961 V 193.14063 h -27.9961"
             style="fill:#1e1548;fill-opacity:1;fill-rule:nonzero;stroke:none"
             id="path14659"
             inkscape:connector-curvature="0" /><path
             d="m 319.71484,193.14063 v 143.73828 h 27.9961 V 193.14063 h -27.9961"
             style="fill:#1e1548;fill-opacity:1;fill-rule:nonzero;stroke:none"
             id="path14661"
             inkscape:connector-curvature="0" /><path
             d="M 356.17578,336.86328 H 143.82422 L 84.863281,480.42188 415.13672,479.99219 356.17578,336.86328"
             style="fill:#1e1548;fill-opacity:1;fill-rule:nonzero;stroke:none"
             id="path14663"
             inkscape:connector-curvature="0" /><path
             d="m 354.82813,193.30469 c 29.58203,0 83.42578,19.40234 115.75781,104.77734 L 360.44141,315.0625 354.82813,193.30469"
             style="fill:#fcd880;fill-opacity:1;fill-rule:nonzero;stroke:none"
             id="path14665"
             inkscape:connector-curvature="0" /><path
             d="m 460.37891,274.26172 -80.85157,12.77734 0.15625,0.98828 80.85157,-12.77734"
             style="fill:#1e1548;fill-opacity:1;fill-rule:nonzero;stroke:none"
             id="path14667"
             inkscape:connector-curvature="0" /><path
             d="m 384.38672,292.66406 c 0,0 -34.34766,-46.05859 -47.37891,-45.19922 -7.80078,0.51172 1.42578,31.23047 1.42578,31.23047 l 45.95313,13.96875"
             style="fill:#ff2f4c;fill-opacity:1;fill-rule:nonzero;stroke:none"
             id="path14669"
             inkscape:connector-curvature="0" /><path
             d="m 250,230.89453 c 31.92188,0 58.21094,-16.4414 61.70703,-37.58984 H 188.29297 c 3.49609,21.14844 29.78516,37.58984 61.70703,37.58984"
             style="fill:#1e1548;fill-opacity:1;fill-rule:nonzero;stroke:none"
             id="path14671"
             inkscape:connector-curvature="0" /><path
             d="m 208.76172,111.69531 0.043,81.60938 h 82.46484 v -38.35938 l -82.50781,-43.25"
             style="fill:#ff2f4c;fill-opacity:1;fill-rule:nonzero;stroke:none"
             id="path14673"
             inkscape:connector-curvature="0" /><path
             d="m 291.28516,193.30469 c 0,11.5039 -18.48438,20.83203 -41.28516,20.83203 -22.80078,0 -41.28516,-9.32813 -41.28516,-20.83203 0,-11.50781 18.48438,-20.83203 41.28516,-20.83203 22.80078,0 41.28516,9.32422 41.28516,20.83203"
             style="fill:#ff2f4c;fill-opacity:1;fill-rule:nonzero;stroke:none"
             id="path14675"
             inkscape:connector-curvature="0" /><path
             d="m 145.17187,193.30469 c -29.58203,0 -83.425776,19.40234 -115.757807,104.77734 l 110.144527,16.98047 5.61328,-121.75781"
             style="fill:#fcd880;fill-opacity:1;fill-rule:nonzero;stroke:none"
             id="path14677"
             inkscape:connector-curvature="0" /><path
             d="m 115.61328,292.66406 c 0,0 34.34766,-46.05859 47.37891,-45.19922 7.80078,0.51172 -1.42578,31.23047 -1.42578,31.23047 l -45.95313,13.96875"
             style="fill:#ff2f4c;fill-opacity:1;fill-rule:nonzero;stroke:none"
             id="path14679"
             inkscape:connector-curvature="0" /><path
             d="M 344.19531,357.78516 H 162.69922 c -5.74219,0 -10.39453,-4.65235 -10.39453,-10.39453 V 237.88281 c 0,-5.73828 4.65234,-10.39453 10.39453,-10.39453 h 181.49609 c 5.74219,0 10.39453,4.65625 10.39453,10.39453 v 109.50782 c 0,5.74218 -4.65234,10.39453 -10.39453,10.39453"
             style="fill:#2f9ab1;fill-opacity:1;fill-rule:nonzero;stroke:none"
             id="path14681"
             inkscape:connector-curvature="0" /><path
             d="m 15.898438,439.29688 c 0,0 19.933593,77.61718 63.351562,45.28125 31.67578,-23.59375 88.46875,-131.98438 88.46875,-131.98438 0,0 29.10547,-0.90625 18.97266,-15.55469 0,0 24.54297,-9.70312 -0.28516,-19.26172 0,0 31.53516,1.28125 14.12891,-16.26562 0,0 19.97656,-0.23828 5.99218,-16.98047 -7.23046,-8.65625 -43.5664,-27.875 -63.35156,-16.26562 C 97.199219,295.23047 15.898438,439.29688 15.898438,439.29688"
             style="fill:#ff2f4c;fill-opacity:1;fill-rule:nonzero;stroke:none"
             id="path14683"
             inkscape:connector-curvature="0" /><path
             d="m 200.74219,301.05469 -40.23828,-18.41406 -0.41407,0.91015 40.23438,18.41406"
             style="fill:#1e1548;fill-opacity:1;fill-rule:nonzero;stroke:none"
             id="path14685"
             inkscape:connector-curvature="0" /><path
             d="m 186.58594,317.30859 -34.86328,-13.36328 -0.35547,0.9336 34.86328,13.36328"
             style="fill:#1e1548;fill-opacity:1;fill-rule:nonzero;stroke:none"
             id="path14687"
             inkscape:connector-curvature="0" /><path
             d="m 186.85938,336.56641 -35.14844,-12.46094 -0.33203,0.94531 35.14843,12.46094"
             style="fill:#1e1548;fill-opacity:1;fill-rule:nonzero;stroke:none"
             id="path14689"
             inkscape:connector-curvature="0" /><path
             d="m 196.90234,281.14453 v 0.5 c 0.67579,0 1.60157,0.28906 2.56641,0.80469 1.45703,0.77344 3.01563,2.03516 4.19141,3.39453 1.17968,1.35156 1.94531,2.82031 1.93359,3.875 -0.008,0.54688 -0.16797,0.97266 -0.57031,1.35547 -0.40235,0.37891 -1.09375,0.71484 -2.16406,0.89844 -0.32813,0.0547 -0.69922,0.082 -1.09766,0.082 -1.625,0.004 -3.71484,-0.46875 -5.50391,-1.22266 -0.89453,-0.3789 -1.71093,-0.82422 -2.35937,-1.30078 -0.65235,-0.48047 -1.1211,-0.99609 -1.34766,-1.46875 -0.14453,-0.30078 -0.21875,-0.66797 -0.21875,-1.08594 -0.008,-1.08593 0.52735,-2.46875 1.39063,-3.53515 0.86328,-1.07032 2.01562,-1.80078 3.17968,-1.79688 v -1 c -1.58984,0.008 -2.97265,0.94922 -3.95703,2.17188 -0.98828,1.23047 -1.60937,2.76562 -1.61328,4.16015 0,0.53516 0.0937,1.05469 0.31641,1.51953 0.33594,0.69141 0.92187,1.29297 1.65234,1.83985 2.19922,1.60937 5.75,2.71094 8.46094,2.71875 0.44922,0 0.87109,-0.0312 1.26562,-0.0977 1.19532,-0.20312 2.07813,-0.58984 2.6836,-1.15625 0.60547,-0.5625 0.88672,-1.3164 0.88281,-2.08203 -0.004,-0.99609 -0.42187,-2.02734 -1.0625,-3.03906 -0.95703,-1.51563 -2.4375,-2.9961 -4.00781,-4.1211 -1.57422,-1.11718 -3.21094,-1.89843 -4.61719,-1.91406 l -0.004,0.5"
             style="fill:#1e1548;fill-opacity:1;fill-rule:nonzero;stroke:none"
             id="path14691"
             inkscape:connector-curvature="0" /><path
             d="m 188.96094,299.01953 0.0703,0.4961 c 0.14453,-0.0195 0.30078,-0.0312 0.46484,-0.0312 0.78907,0 1.82032,0.24218 2.89844,0.66406 1.61719,0.63281 3.34766,1.66797 4.64844,2.79297 0.64844,0.5625 1.1875,1.14843 1.55469,1.70312 0.37109,0.55078 0.55468,1.07031 0.55078,1.48438 -0.004,0.3789 -0.125,0.6914 -0.46875,1.02343 -0.34766,0.32813 -0.94531,0.65235 -1.85938,0.89844 -0.80078,0.21485 -1.74218,0.32031 -2.73047,0.32031 -1.64843,0.004 -3.41796,-0.29296 -4.88671,-0.8164 -1.47266,-0.51563 -2.625,-1.28125 -3.07422,-2.07422 -0.20313,-0.35156 -0.30078,-0.76563 -0.30078,-1.23828 -0.004,-0.97656 0.44531,-2.14844 1.10156,-3.07422 0.64062,-0.93359 1.5039,-1.58203 2.10156,-1.65234 l -0.0703,-0.4961 -0.0703,-0.49219 c -1.07032,0.16797 -2.02735,1.00782 -2.78125,2.06641 -0.7461,1.06641 -1.27735,2.38281 -1.28125,3.64844 0,0.60937 0.1289,1.20703 0.4375,1.73828 0.67187,1.14062 2.01171,1.94531 3.60156,2.51562 1.59375,0.56641 3.45703,0.875 5.22265,0.875 1.0586,0 2.08204,-0.10937 2.99219,-0.35546 1.01172,-0.27344 1.76172,-0.64454 2.28516,-1.13672 0.51953,-0.48438 0.78515,-1.11719 0.78125,-1.75 -0.008,-0.9336 -0.49219,-1.83203 -1.20703,-2.69141 -1.07422,-1.28516 -2.71485,-2.5 -4.44532,-3.41797 -1.73046,-0.91015 -3.53125,-1.53125 -5,-1.53515 -0.20703,0 -0.41015,0.0117 -0.60546,0.043 l 0.0703,0.49219"
             style="fill:#1e1548;fill-opacity:1;fill-rule:nonzero;stroke:none"
             id="path14693"
             inkscape:connector-curvature="0" /><path
             d="m 179.37891,315.08203 -0.14453,0.47656 c 1.68359,0.5 4.63281,1.77344 6.99609,2.6836 1.78125,0.6875 3.11719,1.44531 3.98047,2.17578 0.42969,0.36719 0.74219,0.72266 0.9414,1.04687 0.19532,0.32813 0.27735,0.61719 0.27735,0.86719 0,0.3086 -0.11328,0.59375 -0.40235,0.90235 -0.29296,0.30468 -0.77343,0.61718 -1.46093,0.875 -0.875,0.33593 -2.21485,0.51171 -3.69532,0.50781 -1.80078,0 -3.8125,-0.25 -5.5039,-0.69531 -0.84375,-0.22266 -1.60938,-0.49219 -2.22266,-0.79688 -0.61328,-0.30469 -1.07031,-0.64453 -1.30859,-0.96094 -0.40235,-0.52343 -0.58594,-1.1875 -0.58594,-1.92187 -0.004,-1.09766 0.42188,-2.33203 1.01953,-3.25 0.29297,-0.46094 0.62891,-0.84375 0.95313,-1.09375 0.32422,-0.25391 0.62109,-0.36719 0.83203,-0.36328 l 0.17969,0.0234 0.14453,-0.47656 0.14062,-0.48047 c -0.15234,-0.0469 -0.30859,-0.0664 -0.46484,-0.0664 -0.52735,0.004 -1.01563,0.23828 -1.44922,0.57422 -0.65234,0.51562 -1.22266,1.29687 -1.65234,2.19921 -0.42579,0.89844 -0.69922,1.92188 -0.70313,2.9336 0,0.89844 0.22656,1.79297 0.79297,2.53125 0.38672,0.5039 0.96094,0.90234 1.65625,1.24609 2.08594,1.02735 5.33203,1.59375 8.17187,1.59766 1.5586,0 2.98047,-0.16797 4.05079,-0.57031 0.78125,-0.30079 1.39062,-0.66797 1.82812,-1.1211 0.43359,-0.44922 0.68359,-1.00781 0.67969,-1.59375 0,-0.47265 -0.15235,-0.9375 -0.42188,-1.38281 -0.82031,-1.32813 -2.64062,-2.5625 -5.41797,-3.64063 -2.34375,-0.89843 -5.27734,-2.17187 -7.07031,-2.70703 l -0.14062,0.48047"
             style="fill:#1e1548;fill-opacity:1;fill-rule:nonzero;stroke:none"
             id="path14695"
             inkscape:connector-curvature="0" /><path
             d="m 173.35156,332.30859 -0.16797,0.46875 c 3.03907,1.07813 5.47266,2.13282 7.11329,3.125 0.82031,0.4961 1.4375,0.97657 1.83203,1.41407 0.39843,0.4375 0.54687,0.80859 0.54687,1.10156 0,0.19531 -0.0586,0.38281 -0.20703,0.60547 -0.15234,0.22265 -0.40625,0.47265 -0.78125,0.72656 -0.91016,0.62891 -2.63281,1.0625 -4.47266,1.05469 -2.29687,0.004 -4.76562,-0.64844 -6.24218,-2.09375 -0.55078,-0.53906 -0.76953,-1.19531 -0.77344,-1.92578 -0.004,-0.94922 0.41406,-2.00782 0.99609,-2.79297 0.28907,-0.39453 0.61719,-0.71875 0.92969,-0.9336 0.31641,-0.21875 0.61328,-0.32031 0.82813,-0.3164 l 0.23046,0.0351 0.16797,-0.46875 0.16407,-0.47265 c -0.1836,-0.0625 -0.375,-0.0937 -0.5625,-0.0937 -0.4961,0 -0.96485,0.19922 -1.39454,0.49219 -0.64062,0.4414 -1.21484,1.12109 -1.64843,1.91796 -0.42578,0.79297 -0.71094,1.71094 -0.71094,2.63282 -0.004,0.9375 0.3125,1.90234 1.07812,2.64062 1.77344,1.71485 4.46485,2.375 6.9375,2.37891 1.99219,-0.004 3.84375,-0.42578 5.03516,-1.23047 0.44531,-0.30078 0.79688,-0.625 1.04297,-0.98438 0.24609,-0.35546 0.38281,-0.76171 0.38281,-1.17187 0,-0.64063 -0.3164,-1.23047 -0.80469,-1.77344 -0.74218,-0.8164 -1.92187,-1.59375 -3.5,-2.39062 -1.57812,-0.79297 -3.54687,-1.59766 -5.85546,-2.41797 l -0.16407,0.47265"
             style="fill:#1e1548;fill-opacity:1;fill-rule:nonzero;stroke:none"
             id="path14697"
             inkscape:connector-curvature="0" /><path
             d="m 271.19141,8.3398438 c 32.3789,-4.6679688 69.625,16.0664062 68.42968,69.4609372 -0.32031,14.425782 -0.63281,43.308589 -1.69531,57.699219 -1.55469,20.98828 -8.21094,46.50391 -59.33984,46.50391 l -69.82422,-70.3086 c 0,0 -3.97266,-93.785154 62.42969,-103.3554662"
             style="fill:#ff2f4c;fill-opacity:1;fill-rule:nonzero;stroke:none"
             id="path14699"
             inkscape:connector-curvature="0" /><path
             d="m 233.98828,106.65625 11.49219,-0.14453 7.84766,-49.425782 h 84.6914 c 0,0 -8.21094,-66.9687505 -88.11719,-50.9882822 C 217.85938,12.503906 157.47656,60.082031 208.80469,144.53906 l -0.043,-23.42187 7.96094,-21.417971 17.26562,6.957031"
             style="fill:#1e1548;fill-opacity:1;fill-rule:nonzero;stroke:none"
             id="path14701"
             inkscape:connector-curvature="0" /><path
             d="m 299.95313,106.50781 -0.31641,26.79297 c -0.004,0.27734 0.21484,0.50391 0.49219,0.50781 0.27734,0 0.5039,-0.21875 0.50781,-0.49609 l 0.31641,-26.79297 c 0.004,-0.27734 -0.21875,-0.5039 -0.49219,-0.50781 -0.27735,-0.004 -0.50391,0.21875 -0.50781,0.49609"
             style="fill:#1e1548;fill-opacity:1;fill-rule:nonzero;stroke:none"
             id="path14703"
             inkscape:connector-curvature="0" /><path
             d="m 269.19531,112.16406 c -0.2539,2.94141 1.14063,5.59766 3.11719,5.92969 1.98047,0.33203 3.78906,-1.78516 4.04297,-4.73047 0.25391,-2.9414 -1.14063,-5.59765 -3.11719,-5.92969 -1.97656,-0.33203 -3.78906,1.78907 -4.04297,4.73047"
             style="fill:#1e1548;fill-opacity:1;fill-rule:nonzero;stroke:none"
             id="path14705"
             inkscape:connector-curvature="0" /><path
             d="m 308.13672,113.25781 c -0.25781,2.94141 1.14062,5.59766 3.11719,5.92969 1.97656,0.33203 3.78515,-1.78516 4.04297,-4.73047 0.2539,-2.9414 -1.14454,-5.59766 -3.1211,-5.92969 -1.97656,-0.33203 -3.78515,1.78516 -4.03906,4.73047"
             style="fill:#1e1548;fill-opacity:1;fill-rule:nonzero;stroke:none"
             id="path14707"
             inkscape:connector-curvature="0" /><path
             d="m 233.98828,106.65625 c 0,0 -3.34765,-28.519531 -25.18359,-19.292969 -9.54688,4.03125 -15.83203,22.449219 -0.043,33.753909 l 25.22656,-14.46094"
             style="fill:#ff2f4c;fill-opacity:1;fill-rule:nonzero;stroke:none"
             id="path14709"
             inkscape:connector-curvature="0" /><path
             d="M 228.57422,109.65234 209.18359,87.035156 c -0.17968,-0.207031 -0.49609,-0.230468 -0.70312,-0.05078 -0.21094,0.175781 -0.23438,0.492188 -0.0547,0.703125 l 19.39063,22.613279 c 0.17968,0.21094 0.49609,0.23438 0.70703,0.0547 0.20703,-0.17969 0.23047,-0.4961 0.0508,-0.70313"
             style="fill:#1e1548;fill-opacity:1;fill-rule:nonzero;stroke:none"
             id="path14711"
             inkscape:connector-curvature="0" /><path
             d="m 291.26172,181.07422 -22.10547,0.42969 c -0.27734,0.004 -0.49609,0.23437 -0.49219,0.50781 0.008,0.27734 0.23438,0.49609 0.51172,0.49219 l 22.10547,-0.42969 c 0.27344,-0.008 0.49609,-0.23438 0.48828,-0.51172 -0.004,-0.27344 -0.23437,-0.49609 -0.50781,-0.48828"
             style="fill:#1e1548;fill-opacity:1;fill-rule:nonzero;stroke:none"
             id="path14713"
             inkscape:connector-curvature="0" /><path
             d="m 276.13672,142.69531 c 0.004,0.0469 0.14453,2 1.39062,4 0.6211,0.9961 1.53125,2.00391 2.82813,2.75781 1.30078,0.75782 2.98828,1.2461 5.13672,1.2461 1.01562,0 2.13281,-0.10547 3.36719,-0.34766 0.26953,-0.0508 0.44921,-0.3164 0.39453,-0.58594 -0.0508,-0.26953 -0.31641,-0.44921 -0.58594,-0.39453 -1.17969,0.22657 -2.23047,0.32813 -3.17578,0.32813 -2,0 -3.49219,-0.44922 -4.63281,-1.10938 -1.70704,-0.98828 -2.63672,-2.47265 -3.14844,-3.73047 -0.25391,-0.6289 -0.39844,-1.19531 -0.48047,-1.60156 -0.043,-0.20312 -0.0664,-0.36719 -0.082,-0.47656 l -0.0117,-0.125 -0.004,-0.0352 c -0.0195,-0.27343 -0.26172,-0.48047 -0.53515,-0.46093 -0.27735,0.0195 -0.48438,0.26171 -0.46094,0.53515"
             style="fill:#1e1548;fill-opacity:1;fill-rule:nonzero;stroke:none"
             id="path14715"
             inkscape:connector-curvature="0" /><path
             d="m 267.39063,292.63672 h -0.5 c 0,3.71484 -1.50391,7.07031 -3.9375,9.50391 -2.4336,2.43359 -5.79297,3.9375 -9.50391,3.9375 -3.71484,0 -7.07031,-1.50391 -9.50781,-3.9375 -2.42969,-2.4336 -3.9336,-5.78907 -3.9336,-9.50391 0,-3.71094 1.50391,-7.07031 3.9336,-9.50391 2.4375,-2.43359 5.79297,-3.9375 9.50781,-3.9375 3.71094,0 7.07031,1.50391 9.50391,3.9375 2.43359,2.4336 3.9375,5.79297 3.9375,9.50391 h 1 c 0,-7.97656 -6.46485,-14.44141 -14.44141,-14.44141 -7.97656,0 -14.44141,6.46485 -14.44141,14.44141 0,7.97656 6.46485,14.44141 14.44141,14.44141 7.97656,0 14.44141,-6.46485 14.44141,-14.44141 h -0.5"
             style="fill:#1e1548;fill-opacity:1;fill-rule:nonzero;stroke:none"
             id="path14717"
             inkscape:connector-curvature="0" /><path
             d="m 46.644531,389.08594 c 15.796875,-25.11328 35.847657,-55.22266 55.339849,-79.5625 l -0.78125,-0.625 c -19.531255,24.39062 -39.597661,54.52344 -55.402349,79.65625 l 0.84375,0.53125"
             style="fill:#1e1548;fill-opacity:1;fill-rule:nonzero;stroke:none"
             id="path14719"
             inkscape:connector-curvature="0" /><path
             d="m 39.464844,275.25 80.851566,12.77734 0.15625,-0.98828 -80.851566,-12.77734"
             style="fill:#1e1548;fill-opacity:1;fill-rule:nonzero;stroke:none"
             id="path14721"
             inkscape:connector-curvature="0" /><path
             d="m 484.10547,439.29688 c 0,0 -19.9375,77.61718 -63.35547,45.28125 -31.67578,-23.59375 -88.46875,-131.98438 -88.46875,-131.98438 0,0 -29.10547,-0.90625 -18.97266,-15.55469 0,0 -24.54296,-9.70312 0.28516,-19.26172 0,0 -31.53516,1.28125 -14.12891,-16.26562 0,0 -19.97656,-0.23828 -5.99218,-16.98047 7.23047,-8.65625 43.5664,-27.875 63.35156,-16.26562 45.97656,26.96484 127.28125,171.03125 127.28125,171.03125"
             style="fill:#ff2f4c;fill-opacity:1;fill-rule:nonzero;stroke:none"
             id="path14723"
             inkscape:connector-curvature="0" /><path
             d="m 299.67578,301.96484 40.23438,-18.41406 -0.41407,-0.91015 -40.23828,18.41406"
             style="fill:#1e1548;fill-opacity:1;fill-rule:nonzero;stroke:none"
             id="path14725"
             inkscape:connector-curvature="0" /><path
             d="m 313.76953,318.24219 34.86328,-13.36328 -0.35547,-0.9336 -34.86328,13.36328"
             style="fill:#1e1548;fill-opacity:1;fill-rule:nonzero;stroke:none"
             id="path14727"
             inkscape:connector-curvature="0" /><path
             d="m 313.47266,337.51172 35.14843,-12.46094 -0.33203,-0.94531 -35.14843,12.46094"
             style="fill:#1e1548;fill-opacity:1;fill-rule:nonzero;stroke:none"
             id="path14729"
             inkscape:connector-curvature="0" /><path
             d="m 303.09766,281.14453 -0.004,-0.5 c -0.94141,0.004 -1.97656,0.36328 -3.03125,0.92188 -1.58594,0.84375 -3.21875,2.16406 -4.48047,3.62109 -1.25,1.46094 -2.16015,3.03906 -2.17578,4.53125 -0.004,0.76563 0.27734,1.51953 0.88281,2.08203 0.60547,0.56641 1.48828,0.95313 2.6836,1.15625 0.39453,0.0664 0.8164,0.0977 1.26562,0.0977 1.8086,0 3.98438,-0.5 5.89063,-1.30078 0.95312,-0.40235 1.83593,-0.87891 2.5664,-1.41797 0.73047,-0.54688 1.32032,-1.14844 1.65625,-1.83985 0.22266,-0.46484 0.31641,-0.98437 0.31641,-1.51953 -0.008,-1.39453 -0.62891,-2.92968 -1.61328,-4.16015 -0.98438,-1.22266 -2.36719,-2.16407 -3.95703,-2.17188 v 1 c 1.16406,-0.004 2.3164,0.72656 3.17968,1.79688 0.85938,1.0664 1.39454,2.44922 1.39063,3.53515 0,0.41797 -0.0742,0.78516 -0.21875,1.08594 -0.22656,0.47266 -0.69531,0.98828 -1.34766,1.46875 -1.94531,1.44922 -5.42578,2.53516 -7.86328,2.52344 -0.40234,0 -0.76953,-0.0274 -1.09765,-0.082 -1.07422,-0.1836 -1.76172,-0.51953 -2.16407,-0.89844 -0.40234,-0.38281 -0.5625,-0.80859 -0.57031,-1.35547 -0.004,-0.69922 0.32422,-1.58984 0.90625,-2.50391 0.86328,-1.37109 2.27344,-2.78906 3.74609,-3.84375 1.46485,-1.05859 3.01954,-1.73437 4.03907,-1.72656 v -0.5"
             style="fill:#1e1548;fill-opacity:1;fill-rule:nonzero;stroke:none"
             id="path14731"
             inkscape:connector-curvature="0" /><path
             d="m 311.03906,299.01953 0.0703,-0.49219 c -0.19532,-0.0312 -0.39844,-0.043 -0.60938,-0.043 -0.98047,0 -2.10156,0.28125 -3.25781,0.73437 -1.73438,0.67969 -3.53906,1.75391 -4.94141,2.96484 -0.69922,0.60938 -1.29687,1.25 -1.73437,1.90625 -0.4336,0.65625 -0.71485,1.33985 -0.71485,2.03907 -0.008,0.63281 0.25782,1.26562 0.78125,1.75 0.51953,0.49218 1.26953,0.86328 2.28516,1.13672 0.91016,0.24609 1.93359,0.35546 2.99219,0.35546 1.76562,0 3.625,-0.30859 5.22265,-0.875 1.58985,-0.5664 2.92969,-1.375 3.60157,-2.51562 0.30859,-0.53125 0.4375,-1.12891 0.4375,-1.73828 -0.008,-1.26563 -0.53907,-2.58203 -1.28125,-3.64844 -0.75782,-1.05859 -1.71094,-1.89844 -2.78125,-2.06641 l -0.0703,0.49219 -0.0703,0.4961 c 0.59766,0.0703 1.45703,0.71875 2.10156,1.65234 0.65235,0.92578 1.10547,2.09766 1.10157,3.07422 0,0.47265 -0.0977,0.89062 -0.30079,1.23828 -0.44921,0.79297 -1.60156,1.55859 -3.07421,2.07422 -1.46875,0.52344 -3.24219,0.82031 -4.88672,0.8164 -0.98828,0 -1.92969,-0.10546 -2.73047,-0.32031 -0.91406,-0.24609 -1.51563,-0.57031 -1.85938,-0.89844 -0.34375,-0.33203 -0.46484,-0.64453 -0.46875,-1.02343 -0.008,-0.55078 0.33203,-1.28907 0.97266,-2.05078 0.94922,-1.14063 2.51172,-2.3125 4.14453,-3.17579 1.63281,-0.86718 3.34766,-1.42187 4.53125,-1.41796 0.16797,0 0.32422,0.0117 0.46875,0.0312 l 0.0703,-0.4961"
             style="fill:#1e1548;fill-opacity:1;fill-rule:nonzero;stroke:none"
             id="path14733"
             inkscape:connector-curvature="0" /><path
             d="m 320.62109,315.08203 -0.14062,-0.48047 c -1.79297,0.53516 -4.72656,1.8086 -7.07031,2.70703 -1.85547,0.71485 -3.27735,1.51172 -4.26563,2.34766 -0.49609,0.41797 -0.88281,0.84766 -1.15234,1.29297 -0.26953,0.44531 -0.42188,0.91016 -0.42188,1.38281 -0.004,0.58594 0.2461,1.14453 0.67969,1.59375 0.43359,0.45313 1.04688,0.82031 1.82813,1.1211 1.0664,0.40234 2.49218,0.57031 4.05078,0.57031 1.89062,0 3.96875,-0.25781 5.75781,-0.72656 0.89453,-0.23438 1.71484,-0.52344 2.41406,-0.8711 0.69531,-0.34375 1.26953,-0.74219 1.65625,-1.24609 0.56641,-0.73828 0.79297,-1.63672 0.78906,-2.53125 0,-1.34766 -0.48828,-2.71875 -1.17578,-3.79297 -0.34375,-0.53516 -0.74218,-0.99609 -1.17578,-1.33984 -0.4375,-0.33594 -0.92187,-0.57032 -1.45312,-0.57422 -0.15235,0 -0.3086,0.0195 -0.46094,0.0664 l 0.14062,0.48047 0.14454,0.47656 0.17578,-0.0234 c 0.21093,-0.004 0.51172,0.10937 0.83593,0.36328 0.48438,0.3789 0.9961,1.04687 1.36329,1.83594 0.37109,0.78515 0.60937,1.68359 0.60546,2.50781 0,0.73437 -0.17968,1.39844 -0.58203,1.92187 -0.23828,0.31641 -0.69531,0.65625 -1.30859,0.96094 -1.84375,0.92188 -5.02734,1.49609 -7.72656,1.49219 -1.48047,0.004 -2.82422,-0.17188 -3.69532,-0.50781 -0.6875,-0.25782 -1.17187,-0.57032 -1.46093,-0.875 -0.29297,-0.3086 -0.40235,-0.59375 -0.40625,-0.90235 0,-0.25 0.082,-0.53906 0.28125,-0.86719 0.58593,-0.98437 2.25,-2.19921 4.92187,-3.22265 2.36328,-0.91016 5.3125,-2.1836 6.9961,-2.6836 l -0.14454,-0.47656"
             style="fill:#1e1548;fill-opacity:1;fill-rule:nonzero;stroke:none"
             id="path14735"
             inkscape:connector-curvature="0" /><path
             d="m 326.64844,332.30859 -0.16406,-0.47265 c -3.07813,1.09375 -5.55469,2.15625 -7.30079,3.21094 -0.87109,0.52734 -1.5625,1.05078 -2.05468,1.59765 -0.49219,0.54297 -0.80469,1.13281 -0.80469,1.77344 -0.004,0.41016 0.13672,0.81641 0.38281,1.17187 0.2461,0.35938 0.59766,0.6836 1.04297,0.98438 1.19141,0.80469 3.04297,1.22656 5.03516,1.23047 2.46875,-0.004 5.16406,-0.66797 6.9375,-2.37891 0.76562,-0.73828 1.08203,-1.70312 1.07812,-2.64062 -0.004,-1.23047 -0.5,-2.44532 -1.1914,-3.38672 -0.34375,-0.46875 -0.74219,-0.8711 -1.17188,-1.16406 -0.42578,-0.29297 -0.89453,-0.49219 -1.39062,-0.49219 -0.19141,0 -0.38282,0.0312 -0.56641,0.0937 l 0.16797,0.47265 0.17187,0.46875 0.22657,-0.0351 c 0.21484,-0.004 0.51171,0.0976 0.82421,0.3164 0.47657,0.32032 0.97266,0.89454 1.33594,1.56641 0.36328,0.67578 0.59375,1.44531 0.59375,2.16016 -0.004,0.73047 -0.22656,1.38672 -0.77734,1.92578 -1.47266,1.44531 -3.94531,2.09765 -6.23828,2.09375 -1.83985,0.008 -3.5625,-0.42578 -4.47266,-1.05469 -0.375,-0.25391 -0.62891,-0.50391 -0.78125,-0.72656 -0.15234,-0.22266 -0.20703,-0.41016 -0.20703,-0.60547 -0.004,-0.29297 0.14844,-0.66406 0.54687,-1.10156 0.58985,-0.65625 1.6875,-1.40625 3.20704,-2.16797 1.51953,-0.76563 3.45703,-1.5625 5.73828,-2.3711 l -0.16797,-0.46875"
             style="fill:#1e1548;fill-opacity:1;fill-rule:nonzero;stroke:none"
             id="path14737"
             inkscape:connector-curvature="0" /><path
             d="m 454.19922,388.55469 c -15.80469,-25.13281 -35.87109,-55.26563 -55.40234,-79.65625 l -0.78125,0.625 c 19.49218,24.33984 39.54296,54.44922 55.33984,79.5625 l 0.84375,-0.53125"
             style="fill:#1e1548;fill-opacity:1;fill-rule:nonzero;stroke:none"
             id="path14739"
             inkscape:connector-curvature="0" /><path
             d="m 29.414063,298.08203 72.179687,11.12891 -9.613281,12.49219 z"
             style="fill:#1e1548;fill-opacity:1;fill-rule:nonzero;stroke:none"
             id="path14741"
             inkscape:connector-curvature="0" /><path
             d="m 470.58594,298.08203 -62.63672,23.53125 -9.54297,-12.40234 z"
             style="fill:#1e1548;fill-opacity:1;fill-rule:nonzero;stroke:none"
             id="path14743"
             inkscape:connector-curvature="0" /><path
             d="m 279.64453,90.832031 c -1.37109,-2.367187 -3.92969,-3.96875 -6.86719,-3.96875 -2.9375,0 -5.5,1.601563 -6.87109,3.96875 -0.14062,0.238282 -0.0586,0.546875 0.17969,0.683594 0.23828,0.140625 0.54687,0.05859 0.68359,-0.179687 1.20313,-2.078125 3.4375,-3.472657 6.00781,-3.472657 2.56641,0 4.80079,1.394532 6.00391,3.472657 0.13672,0.238281 0.44531,0.320312 0.68359,0.179687 0.23829,-0.136719 0.32032,-0.445312 0.1836,-0.683594"
             style="fill:#1e1548;fill-opacity:1;fill-rule:nonzero;stroke:none"
             id="path14745"
             inkscape:connector-curvature="0" /><path
             d="m 319.07031,90.832031 c -1.37109,-2.367187 -3.92968,-3.96875 -6.87109,-3.96875 -2.9375,0 -5.49609,1.601563 -6.87109,3.96875 -0.13672,0.238282 -0.0547,0.546875 0.18359,0.683594 0.23828,0.140625 0.54687,0.05859 0.68359,-0.179687 1.20313,-2.078125 3.4375,-3.472657 6.00391,-3.472657 2.57031,0 4.80469,1.394532 6.00781,3.472657 0.13672,0.238281 0.44531,0.320312 0.6836,0.179687 0.23828,-0.136719 0.32031,-0.445312 0.17968,-0.683594"
             style="fill:#1e1548;fill-opacity:1;fill-rule:nonzero;stroke:none"
             id="path14747"
             inkscape:connector-curvature="0" /><path
             d="m 339.26563,70.253906 c 0.004,-0.01953 0.26953,-2.105468 0.26953,-5.53125 0,-6.726562 -1.02735,-18.625 -7.14453,-30.183593 -6.11329,-11.554688 -17.35938,-22.75 -37.64454,-27.9648442 -0.26562,-0.070312 -0.53906,0.089843 -0.60937,0.3593754 -0.0664,0.265625 0.0937,0.5390621 0.35937,0.6093746 20.03516,5.1601562 30.9961,16.1250002 37.01172,27.4648442 6.00782,11.34375 7.02735,23.085937 7.02735,29.714843 0,1.6875 -0.0664,3.042969 -0.12891,3.972657 -0.0352,0.464843 -0.0664,0.824218 -0.0937,1.066406 -0.0234,0.242187 -0.0391,0.363281 -0.0391,0.363281 -0.0352,0.273438 0.16015,0.523438 0.43359,0.558594 0.27344,0.03516 0.52344,-0.15625 0.5586,-0.429688"
             style="fill:#1e1548;fill-opacity:1;fill-rule:nonzero;stroke:none"
             id="path14749"
             inkscape:connector-curvature="0" /><path
             d="m 210.98438,145.08984 c 0,0 -0.082,-0.0898 -0.2461,-0.27343 -2.47656,-2.75 -22.4414,-26.03125 -22.42969,-57.820316 0,-9.542969 1.79297,-19.855469 6.39454,-30.636719 0.10937,-0.253906 -0.0117,-0.546875 -0.26563,-0.65625 -0.25,-0.109375 -0.54687,0.0078 -0.65625,0.261719 -4.65625,10.90625 -6.47266,21.363281 -6.47266,31.03125 0.0117,34.371096 22.91797,58.734376 22.94922,58.777346 0.1875,0.20312 0.50391,0.21093 0.70703,0.0234 0.19922,-0.1875 0.21094,-0.5039 0.0234,-0.70703"
             style="fill:#1e1548;fill-opacity:1;fill-rule:nonzero;stroke:none"
             id="path14751"
             inkscape:connector-curvature="0" /><path
             d="m 167.8125,352.58594 h -29.89063 c -0.27734,0 -0.5,0.22265 -0.5,0.5 0,0.27734 0.22266,0.5 0.5,0.5 h 29.89063 c 0.27734,0 0.5,-0.22266 0.5,-0.5 0,-0.27735 -0.22266,-0.5 -0.5,-0.5"
             style="fill:#1e1548;fill-opacity:1;fill-rule:nonzero;stroke:none"
             id="path14753"
             inkscape:connector-curvature="0" /><path
             d="m 331.49219,353.60156 h 33.85156 c 0.27734,0 0.5,-0.22265 0.5,-0.5 0,-0.27734 -0.22266,-0.5 -0.5,-0.5 h -33.85156 c -0.27344,0 -0.5,0.22266 -0.5,0.5 0,0.27735 0.22656,0.5 0.5,0.5"
             style="fill:#1e1548;fill-opacity:1;fill-rule:nonzero;stroke:none"
             id="path14755"
             inkscape:connector-curvature="0" /><path
             d="M 313.30859,370.1875 H 186.40625 v 31.25391 c 0,35.04297 28.41016,63.44922 63.44922,63.44922 35.04297,0 63.45312,-28.40625 63.45312,-63.44922 V 370.1875"
             style="fill:#fcd880;fill-opacity:1;fill-rule:nonzero;stroke:none"
             id="path14757"
             inkscape:connector-curvature="0" /><path
             d="m 186.40625,394.6875 h 126.90234 v -1 H 186.40625 Z"
             style="fill:#1e1548;fill-opacity:1;fill-rule:nonzero;stroke:none"
             id="path14759"
             inkscape:connector-curvature="0" /></g></g></g></g></svg>