<?xml version="1.0" encoding="UTF-8" standalone="no"?>
<!-- Created with Inkscape (http://www.inkscape.org/) -->

<svg
   xmlns:dc="http://purl.org/dc/elements/1.1/"
   xmlns:cc="http://creativecommons.org/ns#"
   xmlns:rdf="http://www.w3.org/1999/02/22-rdf-syntax-ns#"
   xmlns:svg="http://www.w3.org/2000/svg"
   xmlns="http://www.w3.org/2000/svg"
   xmlns:sodipodi="http://sodipodi.sourceforge.net/DTD/sodipodi-0.dtd"
   xmlns:inkscape="http://www.inkscape.org/namespaces/inkscape"
   version="1.1"
   id="svg16420"
   xml:space="preserve"
   width="672.19769"
   height="796.95007"
   viewBox="0 0 672.19769 796.95007"
   sodipodi:docname="digital-services-illustration3.svg"
   inkscape:version="0.92.5 (2060ec1f9f, 2020-04-08)"><metadata
     id="metadata16426"><rdf:RDF><cc:Work
         rdf:about=""><dc:format>image/svg+xml</dc:format><dc:type
           rdf:resource="http://purl.org/dc/dcmitype/StillImage" /><dc:title></dc:title></cc:Work></rdf:RDF></metadata><defs
     id="defs16424"><clipPath
       clipPathUnits="userSpaceOnUse"
       id="clipPath16436"><path
         d="M 0,0 H 6000 V 3406.25 H 0 Z"
         id="path16434"
         inkscape:connector-curvature="0"
         style="clip-rule:evenodd" /></clipPath><clipPath
       clipPathUnits="userSpaceOnUse"
       id="clipPath16450"><path
         d="M 0,0 H 6000 V 3375 H 0 Z"
         id="path16448"
         inkscape:connector-curvature="0"
         style="clip-rule:evenodd" /></clipPath><clipPath
       clipPathUnits="userSpaceOnUse"
       id="clipPath16462"><path
         d="M 1947.2449,442.30569 H 4052.7137 V 2932.9307 H 1947.2449 Z"
         id="path16460"
         inkscape:connector-curvature="0"
         style="clip-rule:evenodd" /></clipPath><clipPath
       clipPathUnits="userSpaceOnUse"
       id="clipPath16478"><path
         d="M 1949.3049,1224.3619 H 3815.7402 V 2848.2493 H 1949.3049 Z"
         id="path16476"
         inkscape:connector-curvature="0"
         style="clip-rule:evenodd" /></clipPath><clipPath
       clipPathUnits="userSpaceOnUse"
       id="clipPath16490"><path
         d="M 1947.2449,442.30569 H 4052.7137 V 2932.9307 H 1947.2449 Z"
         id="path16488"
         inkscape:connector-curvature="0"
         style="clip-rule:evenodd" /></clipPath><clipPath
       clipPathUnits="userSpaceOnUse"
       id="clipPath16530"><path
         d="m 3910.4097,2758.5869 h 139.5132 v 174.188 h -139.5132 z"
         id="path16528"
         inkscape:connector-curvature="0"
         style="clip-rule:evenodd" /></clipPath><clipPath
       clipPathUnits="userSpaceOnUse"
       id="clipPath16542"><path
         d="m 3825.7053,2758.5869 h 139.5132 v 174.188 h -139.5132 z"
         id="path16540"
         inkscape:connector-curvature="0"
         style="clip-rule:evenodd" /></clipPath><clipPath
       clipPathUnits="userSpaceOnUse"
       id="clipPath16554"><path
         d="m 3736.0183,2758.5869 h 139.5132 v 174.188 h -139.5132 z"
         id="path16552"
         inkscape:connector-curvature="0"
         style="clip-rule:evenodd" /></clipPath><clipPath
       clipPathUnits="userSpaceOnUse"
       id="clipPath16566"><path
         d="m 3646.3315,2758.5869 h 139.5129 v 174.188 h -139.5129 z"
         id="path16564"
         inkscape:connector-curvature="0"
         style="clip-rule:evenodd" /></clipPath><clipPath
       clipPathUnits="userSpaceOnUse"
       id="clipPath16578"><path
         d="m 3556.6445,2758.5869 h 139.5129 v 174.188 h -139.5129 z"
         id="path16576"
         inkscape:connector-curvature="0"
         style="clip-rule:evenodd" /></clipPath><clipPath
       clipPathUnits="userSpaceOnUse"
       id="clipPath16590"><path
         d="m 3466.9575,2758.5869 h 139.5129 v 174.188 h -139.5129 z"
         id="path16588"
         inkscape:connector-curvature="0"
         style="clip-rule:evenodd" /></clipPath><clipPath
       clipPathUnits="userSpaceOnUse"
       id="clipPath16602"><path
         d="m 3377.2705,2758.5869 h 144.4956 v 174.188 h -144.4956 z"
         id="path16600"
         inkscape:connector-curvature="0"
         style="clip-rule:evenodd" /></clipPath><clipPath
       clipPathUnits="userSpaceOnUse"
       id="clipPath16614"><path
         d="m 3292.5662,2758.5869 h 139.5129 v 174.188 h -139.5129 z"
         id="path16612"
         inkscape:connector-curvature="0"
         style="clip-rule:evenodd" /></clipPath><clipPath
       clipPathUnits="userSpaceOnUse"
       id="clipPath16626"><path
         d="M 1947.2449,442.30569 H 4052.7137 V 2932.9307 H 1947.2449 Z"
         id="path16624"
         inkscape:connector-curvature="0"
         style="clip-rule:evenodd" /></clipPath></defs><sodipodi:namedview
     pagecolor="#ffffff"
     bordercolor="#666666"
     borderopacity="1"
     objecttolerance="10"
     gridtolerance="10"
     guidetolerance="10"
     inkscape:pageopacity="0"
     inkscape:pageshadow="2"
     inkscape:window-width="1366"
     inkscape:window-height="705"
     id="namedview16422"
     showgrid="false"
     inkscape:zoom="0.21041667"
     inkscape:cx="336.22247"
     inkscape:cy="398.48796"
     inkscape:window-x="-8"
     inkscape:window-y="-8"
     inkscape:window-maximized="1"
     inkscape:current-layer="g16428" /><g
     id="g16428"
     inkscape:groupmode="layer"
     inkscape:label="Panx Services Catalogue"
     transform="matrix(0.31999998,0,0,0.31999998,-623.77753,-141.53781)"><g
       id="g16456"><g
         id="g16458"
         clip-path="url(#clipPath16462)"><g
           id="g16464"
           transform="matrix(-4.9826102,0,0,4.9812498,4049.9229,442.30569)"><path
             d="m 415.11328,140.13281 -8.07812,48.75391 h -66.83594 l 26.47656,-61.96484 48.4375,13.21093"
             style="fill:#1e1548;fill-opacity:1;fill-rule:nonzero;stroke:none"
             id="path16466"
             inkscape:connector-curvature="0" /><path
             d="m 410.62109,167.24609 -6.55078,48.8711 h -76.47656 l 23.78125,-53.38672 59.24609,4.51562"
             style="fill:#ff2f4c;fill-opacity:1;fill-rule:nonzero;stroke:none"
             id="path16468"
             inkscape:connector-curvature="0" /><path
             d="m 380.85938,407.73438 -13.19141,59.99609 25.53125,18.72266 -139.98828,2.23437 21.69922,-84.78125 105.94922,3.82813"
             style="fill:#fcd880;fill-opacity:1;fill-rule:nonzero;stroke:none"
             id="path16470"
             inkscape:connector-curvature="0" /></g></g></g><g
       id="g16472"><g
         id="g16474"
         clip-path="url(#clipPath16478)"><g
           id="g16480"
           transform="matrix(-4.9826102,0,0,4.9812498,4049.9229,442.30569)"><path
             d="m 51.542969,418.46094 c 12.394531,31.64453 34.300781,64.26172 101.648441,64.26172 0,0 80.77734,-10.87891 94.8164,-28.32422 l 23.07032,-38.15235 3.83203,-12.33984 105.94922,3.82813 c 0,0 25.10546,-100.84375 36.16796,-142.54297 11.0625,-41.69922 2.33204,-78.75391 -29.58203,-86.41407 -31.91406,-7.65625 -58.92187,4.29297 -58.92187,4.29297 0,0 -29.09766,-47.59375 -81.20313,-13.24218 C 196.26563,203.48828 78.15625,350.08984 67.253906,358.94141 49.621094,373.25781 43.257813,397.3125 51.542969,418.46094"
             style="fill:#2f9ab1;fill-opacity:1;fill-rule:nonzero;stroke:none"
             id="path16482"
             inkscape:connector-curvature="0" /></g></g></g><g
       id="g16484"><g
         id="g16486"
         clip-path="url(#clipPath16490)"><g
           id="g16492"
           transform="matrix(-4.9826102,0,0,4.9812498,4049.9229,442.30569)"><path
             d="m 182.02734,374.69141 -50.74218,97.35547 25.4414,-1.44141 z"
             style="fill:#000000;fill-opacity:1;fill-rule:nonzero;stroke:none"
             id="path16494"
             inkscape:connector-curvature="0" /><path
             d="m 181.72656,153.14453 -86.871091,1.95703 c -34.035156,0.76563 -56.402344,23.67578 -59.601563,63.25 -6.058593,74.98828 7.074219,166.51172 13.074219,191.0586 0,0 3.949219,-30.75 39.21875,-63.3711 0,0 39.777345,29.875 75.519535,-4.16406 35.74218,-34.03906 75.96093,-152.98828 75.96093,-152.98828 l -54.60937,-40.28125 -2.69141,4.53906"
             style="fill:#ff2f4c;fill-opacity:1;fill-rule:nonzero;stroke:none"
             id="path16496"
             inkscape:connector-curvature="0" /><path
             d="M 203.94141,121.40234 216.4375,104.86719 C 223.28516,95.804688 233.80078,90 245.16016,89.726563 c 2.9414,-0.07422 5.5664,0.277343 7.33984,1.339843 7.08984,4.257813 -13.47266,13.238284 -13.47266,13.238284 l -5.13671,16.07422 -29.94922,1.02343"
             style="fill:#1e1548;fill-opacity:1;fill-rule:nonzero;stroke:none"
             id="path16498"
             inkscape:connector-curvature="0" /><path
             d="M 381.26953,154.02734 H 241.24609 c -7.5,0 -12.96875,-7.09375 -11.07031,-14.34765 l 22.89063,-87.355471 c 1.3164,-5.035156 5.86718,-8.542969 11.07031,-8.542969 h 140.01953 c 7.5,0 12.97266,7.089844 11.07422,14.34375 l -22.89063,87.35937 c -1.3164,5.03125 -5.86718,8.54297 -11.07031,8.54297"
             style="fill:#000000;fill-opacity:1;fill-rule:nonzero;stroke:none"
             id="path16500"
             inkscape:connector-curvature="0" /><path
             d="m 247.34375,157.02734 c -3.10156,0 -5.83203,-1.26562 -7.79687,-3.26562 -1.96485,-2 -3.15235,-4.73047 -3.15235,-7.65625 0,-0.91797 0.11719,-1.85547 0.36328,-2.79688 l 22.88672,-87.359371 c 1.26172,-4.8125 5.61328,-8.167969 10.58985,-8.167969 h 140.01953 c 0.78125,0 1.53515,0.07813 2.26172,0.230469 0.26953,0.05469 0.53515,-0.117188 0.58984,-0.386719 0.0586,-0.269531 -0.11719,-0.535156 -0.38672,-0.589844 -0.79297,-0.167968 -1.61328,-0.253906 -2.46484,-0.253906 H 270.23438 c -5.4336,0 -10.17969,3.664063 -11.55469,8.917969 l -22.89063,87.355471 c -0.26953,1.02343 -0.39453,2.04687 -0.39453,3.05078 0,3.19922 1.29688,6.17578 3.4375,8.35547 2.14063,2.17968 5.13281,3.5664 8.51172,3.5664 0.27734,0 0.5,-0.22265 0.5,-0.5 0,-0.27734 -0.22266,-0.5 -0.5,-0.5"
             style="fill:#ff2f4c;fill-opacity:1;fill-rule:nonzero;stroke:none"
             id="path16502"
             inkscape:connector-curvature="0" /><path
             d="m 283.49609,68.964844 -0.49218,-0.08594 c -0.30078,1.707032 -1.27344,3.273438 -2.60938,4.410157 -1.33594,1.136718 -3.02344,1.832031 -4.72656,1.832031 -1.51953,-0.0039 -2.78125,-0.546875 -3.67188,-1.429688 -0.89062,-0.890625 -1.41406,-2.128906 -1.41796,-3.566406 0,-0.347656 0.0312,-0.707031 0.0976,-1.074219 0.29688,-1.707031 1.27344,-3.277343 2.60938,-4.414062 1.33593,-1.136719 3.02343,-1.832031 4.72656,-1.828125 1.51953,0 2.77734,0.542969 3.67187,1.429687 0.88672,0.886719 1.41407,2.125 1.41407,3.566407 0,0.34375 -0.0312,0.703125 -0.0937,1.074218 l 0.98437,0.171875 c 0.0742,-0.425781 0.10938,-0.839843 0.10938,-1.246093 0.004,-1.6875 -0.625,-3.195313 -1.71094,-4.277344 -1.08203,-1.078125 -2.61719,-1.722656 -4.375,-1.71875 -1.97656,0 -3.87891,0.792969 -5.375,2.066406 -1.49609,1.273438 -2.59766,3.035156 -2.94531,5.003906 -0.0781,0.421875 -0.11328,0.839844 -0.11328,1.246094 0,1.683594 0.6289,3.195313 1.71093,4.273438 1.08594,1.078125 2.61719,1.722656 4.37891,1.722656 1.97656,-0.0039 3.87891,-0.796875 5.375,-2.070313 1.49609,-1.273437 2.59766,-3.03125 2.94531,-5 l -0.49219,-0.08594"
             style="fill:#ff2f4c;fill-opacity:1;fill-rule:nonzero;stroke:none"
             id="path16504"
             inkscape:connector-curvature="0" /><path
             d="m 298.08203,68.964844 -0.49219,-0.08594 c -0.14062,0.796875 -0.59765,1.542969 -1.23437,2.082032 -0.63281,0.539062 -1.43359,0.863281 -2.22266,0.863281 -0.71093,0 -1.27734,-0.25 -1.67968,-0.648438 -0.40235,-0.402343 -0.64454,-0.960937 -0.64454,-1.625 0,-0.164062 0.0156,-0.328125 0.0469,-0.5 0.13672,-0.796875 0.59766,-1.542968 1.23047,-2.082031 0.63672,-0.539062 1.43359,-0.867187 2.22656,-0.863281 0.70703,0 1.27734,0.25 1.67969,0.648437 0.40234,0.398438 0.64062,0.957032 0.64062,1.625 0,0.15625 -0.0117,0.324219 -0.043,0.5 l 0.98438,0.171875 c 0.0391,-0.230468 0.0586,-0.453125 0.0586,-0.671875 0.004,-0.914062 -0.33984,-1.742187 -0.9375,-2.332031 -0.59375,-0.59375 -1.43359,-0.945312 -2.38281,-0.941406 -1.06641,0 -2.07812,0.425781 -2.87109,1.101562 -0.79688,0.675782 -1.38672,1.613282 -1.57422,2.671875 -0.0391,0.226563 -0.0586,0.449219 -0.0586,0.671875 0,0.910157 0.33985,1.738282 0.9375,2.332032 0.59375,0.59375 1.4375,0.941406 2.38672,0.941406 1.0625,0 2.07422,-0.425781 2.8711,-1.101563 0.79687,-0.679687 1.38281,-1.613281 1.57031,-2.671875 l -0.49219,-0.08594"
             style="fill:#ff2f4c;fill-opacity:1;fill-rule:nonzero;stroke:none"
             id="path16506"
             inkscape:connector-curvature="0" /><path
             d="m 184.41797,148.60547 26.24609,-36.71094 c 4.24219,-5.93359 11.05078,-9.50781 18.34766,-9.59765 13.04297,-0.15625 33.38672,0.32421 41.84766,4.44921 12.92187,6.30469 -8.82813,11.34766 -8.82813,11.34766 0,0 24.58594,-3.15234 27.73828,3.30859 3.15235,6.46485 -23.32422,12.76563 -23.32422,12.76563 0,0 12.92188,-1.25781 13.23828,5.04297 0.31641,6.30468 -17.65234,6.30468 -17.65234,6.30468 0,0 12.80469,1.69922 12.87891,6.6211 0.0742,4.91797 -23.59375,8.50781 -23.59375,8.50781 l -12.28907,28.24219 -54.60937,-40.28125"
             style="fill:#1e1548;fill-opacity:1;fill-rule:nonzero;stroke:none"
             id="path16508"
             inkscape:connector-curvature="0" /><path
             d="m 182.02734,374.69141 c 0,0 -29.04687,97.16015 -29.04687,120.17187 h 144.89844 l -37.86328,-25.42969 23.44921,-65.52734 -101.4375,-29.21484"
             style="fill:#fcd880;fill-opacity:1;fill-rule:nonzero;stroke:none"
             id="path16510"
             inkscape:connector-curvature="0" /><path
             d="m 417.26172,105.55859 c -0.74219,-7.753902 -7.61719,-24.15234 -14.65625,-27.492184 -8.83203,-4.191406 -39.94922,2.835938 -37.82031,9.929688 2.125,7.089844 29.07422,3.816406 29.07422,3.816406 l 4.73046,7.089844 c 0,0 -43.99609,0.0625 -36.80078,19.824216 0,0 -5.28125,1.75782 -5.75781,6.25 -0.46875,4.49219 8.26563,7.51172 14.125,7.51172 0,0 0.30078,5.15234 7.5,8.1875 7.47266,3.15235 35.72656,9.14453 37.45703,-0.54297 1.66406,-9.29297 2.89453,-26.80078 2.14844,-34.57422"
             style="fill:#1e1548;fill-opacity:1;fill-rule:nonzero;stroke:none"
             id="path16512"
             inkscape:connector-curvature="0" /><path
             d="M 411.73047,71.484375 417.26172,105.55859 407.03516,86.375 Z"
             style="fill:#1e1548;fill-opacity:1;fill-rule:nonzero;stroke:none"
             id="path16514"
             inkscape:connector-curvature="0" /><path
             d="m 406.86328,81.316406 6.11719,11.46875 0.88281,-0.46875 -6.11719,-11.472656 z m -11.57812,17.605469 15.62109,-0.308594 -0.0156,-1 -15.625,0.308594 0.0195,1 z m 1.99609,46.468745 c 0,0.008 -0.004,0.0781 -0.004,0.19922 0,0.58985 0.0742,2.41407 1.04688,4.15235 0.48828,0.86718 1.21094,1.71093 2.26172,2.33203 1.05078,0.62109 2.41015,1.01172 4.14844,1.00781 v -0.99609 c -1.58985,-0.004 -2.75782,-0.35157 -3.64063,-0.8711 -1.3125,-0.78125 -2.01562,-1.96875 -2.39453,-3.09375 -0.38281,-1.12109 -0.42578,-2.15625 -0.42188,-2.53125 v -0.14453 l -0.99609,-0.0547 z m -7.37891,-0.0898 15.8086,1.23828 0.0781,-0.99609 -15.80468,-1.23828 -0.082,0.99609 z m -20.85937,-11.61328 35.74609,-4.00781 -0.10937,-0.9961 -35.7461,4.00782 z m -10.53516,-14.16797 46.30078,-6.91797 -0.14843,-0.98828 -46.30078,6.91797 z m -105.98437,359.78125 0.0273,-0.0195 c 0.30469,-0.22656 3.23047,-2.28516 7.98047,-2.28516 2.40234,0.004 5.27344,0.52344 8.53516,2.08204 L 269.5,478.17578 c -3.39453,-1.62109 -6.42187,-2.17969 -8.96875,-2.17578 -5.38281,0 -8.57031,2.47266 -8.62109,2.51172 l 0.61328,0.78906 z m 98.39453,-10.64844 0.0273,-0.0195 c 0.31641,-0.24609 3.33594,-2.47265 8.21485,-2.47265 2.34765,0 5.13672,0.51172 8.29297,2.01953 l 0.42968,-0.90235 c -3.28125,-1.5664 -6.22656,-2.11718 -8.72265,-2.11718 -5.53907,0.004 -8.82422,2.67968 -8.875,2.71875 l 0.63281,0.77343 z m -68.28516,-51.23437 95.29297,4.05469 0.043,-1 -95.29297,-4.05078 z m -104.01562,-31.53516 104.83594,27.24219 0.2539,-0.96875 L 178.86719,384.9141 Z M 49.660156,289.13672 c 0.0039,0.008 4.6875,10.69922 11.71875,23.19922 7.039063,12.5 16.394532,26.80469 25.863282,34.09765 l 0.609375,-0.79296 C 78.609375,338.53906 69.25,324.29688 62.25,311.84375 c -3.5,-6.22656 -6.421875,-12.00391 -8.464844,-16.22656 -1.023437,-2.11328 -1.824218,-3.83203 -2.371093,-5.02735 -0.546875,-1.1914 -0.835938,-1.85156 -0.835938,-1.85546 z M 243,149.92578 l 23.70313,-3.85156 -0.16016,-0.98828 -23.70313,3.85156 z m -0.008,-12.01562 25.78906,-3.87891 -0.14844,-0.98828 -25.78515,3.8789 z m -3.25781,-15.61719 23.70312,-3.85547 -0.16016,-0.98828 -23.70312,3.85547 z m 30.9375,30.42187 0.48437,0.12891 c 0.0508,-0.19531 0.0781,-0.39453 0.0781,-0.58984 -0.004,-0.80469 -0.42579,-1.4961 -0.99219,-2.00782 -0.56641,-0.51172 -1.29688,-0.86328 -2.05078,-0.99218 -0.38282,-0.0625 -0.92969,-0.11329 -1.53907,-0.11329 -1.05078,0.008 -2.27343,0.125 -3.16015,0.71485 -0.55469,0.3789 -0.92969,0.90625 -1.15625,1.46484 -0.23047,0.5586 -0.32422,1.15235 -0.32422,1.70703 0.008,0.81641 0.17969,1.53907 0.55859,2.03907 0.29688,0.3789 0.69141,0.64062 1.125,0.80078 0.42969,0.16015 0.90235,0.22656 1.38672,0.22656 1.25,-0.004 2.61328,-0.42969 3.7461,-1.01953 0.57031,-0.29688 1.07421,-0.63672 1.48046,-1.00391 0.40235,-0.36719 0.71485,-0.75781 0.84766,-1.22656 l -0.96875,-0.25781 c -0.0391,0.16797 -0.22656,0.45312 -0.55078,0.74219 -0.96484,0.89453 -3.02734,1.77734 -4.55469,1.76562 -0.39453,0 -0.75,-0.0547 -1.03906,-0.16406 -0.28906,-0.10938 -0.51563,-0.26563 -0.6875,-0.48438 -0.16016,-0.17969 -0.35156,-0.77344 -0.34375,-1.41797 0,-0.4414 0.0781,-0.91406 0.24609,-1.32422 0.17188,-0.41406 0.42969,-0.76953 0.80078,-1.01953 0.53516,-0.38281 1.64063,-0.55078 2.59375,-0.54297 0.55469,0 1.0625,0.0469 1.375,0.10157 0.54688,0.0859 1.12891,0.36718 1.54688,0.74609 0.42187,0.37891 0.66016,0.83203 0.66016,1.26563 0,0.10937 -0.0156,0.21875 -0.0469,0.33203 l 0.48438,0.1289 z m 4.61718,-12.94531 0.48438,0.12891 c 0.0508,-0.19922 0.0781,-0.39453 0.0781,-0.58985 -0.004,-0.80468 -0.42578,-1.5 -0.99218,-2.00781 -0.57032,-0.51172 -1.29688,-0.86719 -2.05079,-0.99219 -0.38281,-0.0625 -0.92578,-0.11328 -1.53906,-0.11328 -1.04687,0.008 -2.27344,0.125 -3.15625,0.71485 -0.55469,0.3789 -0.92969,0.90625 -1.16015,1.46484 -0.23047,0.55859 -0.32422,1.14844 -0.32422,1.70312 0.008,0.82032 0.17968,1.54297 0.55859,2.04297 0.29688,0.375 0.69141,0.64063 1.125,0.80078 0.42969,0.16016 0.90234,0.22266 1.38672,0.22266 1.25,0 2.61328,-0.42578 3.75,-1.01562 0.56641,-0.30078 1.07422,-0.63672 1.47656,-1.00391 0.40235,-0.36719 0.71485,-0.75781 0.84766,-1.22656 l -0.96875,-0.25782 c -0.0391,0.16407 -0.22656,0.45313 -0.55078,0.74219 -0.96485,0.89453 -3.02735,1.77735 -4.55469,1.76563 -0.39453,0 -0.75,-0.0547 -1.03906,-0.16407 -0.28907,-0.10937 -0.51563,-0.26562 -0.6875,-0.48437 -0.16016,-0.17969 -0.35157,-0.77344 -0.34375,-1.42188 0,-0.4414 0.0781,-0.91015 0.25,-1.32421 0.16797,-0.41407 0.42578,-0.76563 0.79687,-1.01954 0.53516,-0.3789 1.64453,-0.54687 2.59375,-0.53906 0.55469,0 1.0586,0.0469 1.375,0.0977 0.55078,0.0898 1.12891,0.37109 1.54688,0.75 0.42187,0.3789 0.66015,0.83203 0.66015,1.26562 0,0.10938 -0.0156,0.21875 -0.0469,0.33203 l 0.48437,0.12891 z m 7.71485,-15.27734 0.48437,0.1289 c 0.0586,-0.22265 0.0859,-0.44531 0.0859,-0.66406 0,-0.90625 -0.47656,-1.69531 -1.125,-2.28125 -0.65234,-0.58594 -1.49219,-0.99219 -2.35156,-1.13672 -0.44141,-0.0703 -1.07422,-0.1289 -1.78125,-0.1289 -1.21485,0.008 -2.63282,0.14843 -3.63672,0.82031 -0.63281,0.42969 -1.0586,1.03125 -1.32031,1.66797 -0.26563,0.64062 -0.3711,1.32031 -0.3711,1.95703 0.008,0.94141 0.20703,1.77344 0.63281,2.33203 0.33594,0.42578 0.78516,0.72266 1.27344,0.90625 0.49219,0.17969 1.03125,0.25781 1.58985,0.25781 1.4375,-0.004 3.02343,-0.49609 4.33593,-1.17969 0.65235,-0.34374 1.24219,-0.73828 1.70703,-1.16015 0.46094,-0.42188 0.81641,-0.86719 0.96094,-1.38672 l -0.48437,-0.13281 -0.48047,-0.12891 c -0.0547,0.22266 -0.28516,0.56641 -0.66797,0.91016 -1.14844,1.05469 -3.55859,2.08984 -5.37109,2.07812 -0.46485,0 -0.89063,-0.0664 -1.23829,-0.19531 -0.35156,-0.13281 -0.6289,-0.32422 -0.83984,-0.58984 -0.20312,-0.23828 -0.42578,-0.94532 -0.41797,-1.71094 0,-0.52344 0.0899,-1.08203 0.29297,-1.57422 0.20703,-0.49609 0.51563,-0.92188 0.96094,-1.22656 0.65625,-0.46094 1.95703,-0.65235 3.07422,-0.64453 0.65234,0 1.24609,0.0547 1.61718,0.11718 0.66016,0.10547 1.34766,0.44141 1.84766,0.89063 0.5,0.45312 0.79688,1.00391 0.79297,1.53906 0,0.13281 -0.0156,0.26953 -0.0508,0.40625 l 0.48047,0.12891 z m -13.6211,-13.14844 0.48438,0.12891 c 0.0586,-0.22266 0.0859,-0.44532 0.0859,-0.66407 0,-0.91015 -0.47657,-1.69922 -1.125,-2.28125 -0.65235,-0.58984 -1.49219,-0.99609 -2.35157,-1.13671 -0.4414,-0.0742 -1.07422,-0.13282 -1.78125,-0.13282 -1.21484,0.008 -2.63281,0.14844 -3.63672,0.82032 -0.63281,0.42968 -1.05859,1.03124 -1.32421,1.66796 -0.26172,0.64063 -0.3711,1.32032 -0.3711,1.95704 0.008,0.9414 0.21094,1.77734 0.63672,2.33203 0.33594,0.42578 0.78125,0.72265 1.27344,0.90625 0.49219,0.18359 1.03125,0.25781 1.58984,0.25781 1.4375,-0.004 3.01953,-0.49609 4.33203,-1.17969 0.65625,-0.34375 1.24219,-0.73437 1.70703,-1.15625 0.46094,-0.42578 0.81641,-0.87109 0.96485,-1.39062 l -0.96875,-0.25782 c -0.0508,0.21875 -0.28125,0.5625 -0.66797,0.90625 -1.14453,1.0586 -3.55859,2.09375 -5.36719,2.07813 -0.46875,0 -0.89062,-0.0625 -1.24219,-0.19531 -0.34765,-0.13282 -0.625,-0.32032 -0.83593,-0.58985 -0.20313,-0.23828 -0.42969,-0.9414 -0.42188,-1.71093 0,-0.52344 0.0937,-1.08204 0.29688,-1.57422 0.20312,-0.49219 0.51562,-0.91797 0.96093,-1.22266 0.65625,-0.46484 1.95704,-0.65625 3.07422,-0.64844 0.65235,0 1.2461,0.0547 1.61719,0.11719 0.65625,0.10547 1.34766,0.44141 1.84375,0.89453 0.50391,0.45313 0.80078,1 0.79688,1.53906 0,0.13282 -0.0156,0.26563 -0.0547,0.40625 l 0.48437,0.12891 z m -38.22656,-7.83984 c 0,0 0.37109,-0.0391 0.99609,-0.0937 1.87891,-0.16797 6.05079,-0.50782 9.25782,-0.50782 0.52734,0 1.02734,0.0117 1.48828,0.0312 l 0.043,-1 c -0.47657,-0.0195 -0.99219,-0.0312 -1.53125,-0.0312 -4.35938,0 -10.34375,0.60547 -10.35157,0.60547 l 0.0977,0.9961 z m -49.83594,49.34765 -76.3164,105.05078 0.80859,0.58594 76.31641,-105.05078 z m 103.58203,251.32813 -16.18359,74.69922 28.91406,16.41797 0.49219,-0.86719 -28.27734,-16.05469 16.03125,-73.98437 z m -0.95312,-0.14453 c 0,0 0.54297,-2.0586 1.52344,-5.7461 6.83593,-25.80468 34.83593,-131.42578 45.30859,-169.75 1.58594,-5.79687 3.15625,-14.21484 3.15625,-22.96484 -0.004,-7.86328 -1.26953,-16.00781 -4.97656,-22.74609 l -0.875,0.48437 c 3.58984,6.51563 4.85156,14.5 4.85156,22.26172 0,8.63281 -1.55469,16.98047 -3.11719,22.70312 -11.97265,43.8086 -46.83593,175.5 -46.83593,175.5 z M 182.92188,374.93359 205.25,288.60547 l -0.96875,-0.25 -22.32812,86.32812 z"
             style="fill:#000000;fill-opacity:1;fill-rule:nonzero;stroke:none"
             id="path16516"
             inkscape:connector-curvature="0" /><path
             d="M 233.32422,468.96484 H 12.378906 v 27.51563 H 233.32422 v -27.51563"
             style="fill:#fcd880;fill-opacity:1;fill-rule:nonzero;stroke:none"
             id="path16518"
             inkscape:connector-curvature="0" /><path
             d="M 233.32422,472.04688 H 12.378906 v 21.35156 H 233.32422 v -21.35156"
             style="fill:#ff2f4c;fill-opacity:1;fill-rule:nonzero;stroke:none"
             id="path16520"
             inkscape:connector-curvature="0" /><path
             d="m 157.36328,493.39844 h 75.96094 v -21.35156 h -75.96094 v 21.35156"
             style="fill:#2f9ab1;fill-opacity:1;fill-rule:nonzero;stroke:none"
             id="path16522"
             inkscape:connector-curvature="0" /></g></g></g><g
       id="g16524"><g
         id="g16526"
         clip-path="url(#clipPath16530)"><g
           id="g16532"
           transform="matrix(-4.9826102,0,0,4.9812498,4049.9229,442.30569)"><path
             d="m 26.507813,496.07422 c -2.628907,1.82422 -5.820313,2.89453 -9.261719,2.89453 -4.488281,0 -8.5468752,-1.81641 -11.488282,-4.75781 C 2.816406,491.26953 1,487.21094 1,482.72266 c 0,-4.48828 1.816406,-8.54688 4.757812,-11.48828 2.9414068,-2.9375 7.000001,-4.75782 11.488282,-4.75782 3.367187,0 6.488281,1.02344 9.082031,2.77735 l 0.5625,-0.83203 C 24.136719,466.5625 20.816406,465.47656 17.246094,465.47656 7.7226558,465.47656 0,473.19922 0,482.72266 c 0,9.52734 7.7226558,17.24609 17.246094,17.24609 3.652344,0 7.042969,-1.13672 9.832031,-3.07422 l -0.570312,-0.82031"
             style="fill:#000000;fill-opacity:1;fill-rule:nonzero;stroke:none"
             id="path16534"
             inkscape:connector-curvature="0" /></g></g></g><g
       id="g16536"><g
         id="g16538"
         clip-path="url(#clipPath16542)"><g
           id="g16544"
           transform="matrix(-4.9826102,0,0,4.9812498,4049.9229,442.30569)"><path
             d="m 44.332031,496.07422 c -2.628906,1.82422 -5.816406,2.89453 -9.261718,2.89453 -4.488282,0 -8.546875,-1.81641 -11.488282,-4.75781 -2.9375,-2.94141 -4.757812,-7 -4.757812,-11.48828 0,-4.48828 1.820312,-8.54688 4.757812,-11.48828 2.941407,-2.9375 7,-4.75782 11.488282,-4.75782 3.367187,0 6.492187,1.02344 9.082031,2.77344 l 0.5625,-0.82812 c -2.753906,-1.85938 -6.074219,-2.94532 -9.644531,-2.94532 -9.523438,0 -17.246094,7.72266 -17.246094,17.2461 0,9.52734 7.722656,17.24609 17.246094,17.24609 3.652343,0 7.042968,-1.13672 9.832031,-3.07422 l -0.570313,-0.82031"
             style="fill:#000000;fill-opacity:1;fill-rule:nonzero;stroke:none"
             id="path16546"
             inkscape:connector-curvature="0" /></g></g></g><g
       id="g16548"><g
         id="g16550"
         clip-path="url(#clipPath16554)"><g
           id="g16556"
           transform="matrix(-4.9826102,0,0,4.9812498,4049.9229,442.30569)"><path
             d="m 62.15625,496.07422 c -2.625,1.82422 -5.816406,2.89453 -9.257812,2.89453 -4.488282,0 -8.546875,-1.81641 -11.488282,-4.75781 -2.941406,-2.94141 -4.757812,-7 -4.757812,-11.48828 0,-4.48828 1.816406,-8.54297 4.757812,-11.48828 2.941407,-2.9375 7,-4.75782 11.488282,-4.75782 3.367187,0 6.488281,1.02344 9.082031,2.77735 l 0.558594,-0.83203 c -2.75,-1.85938 -6.070313,-2.94532 -9.640625,-2.94532 -9.527344,0 -17.246094,7.72266 -17.246094,17.2461 0,9.52734 7.71875,17.24609 17.246094,17.24609 3.648437,0 7.042968,-1.13672 9.828125,-3.07422 l -0.570313,-0.82031"
             style="fill:#000000;fill-opacity:1;fill-rule:nonzero;stroke:none"
             id="path16558"
             inkscape:connector-curvature="0" /></g></g></g><g
       id="g16560"><g
         id="g16562"
         clip-path="url(#clipPath16566)"><g
           id="g16568"
           transform="matrix(-4.9826102,0,0,4.9812498,4049.9229,442.30569)"><path
             d="m 79.980469,496.07422 c -2.625,1.82422 -5.816406,2.89453 -9.257813,2.89453 -4.488281,0 -8.546875,-1.81641 -11.488281,-4.75781 -2.941406,-2.94141 -4.757812,-7 -4.757812,-11.48828 0,-4.48828 1.816406,-8.54688 4.757812,-11.48828 2.941406,-2.9375 7,-4.75782 11.488281,-4.75782 3.367188,0 6.488282,1.02344 9.082032,2.77735 l 0.558593,-0.83203 c -2.75,-1.85938 -6.070312,-2.94532 -9.640625,-2.94532 -9.523437,0 -17.246093,7.72266 -17.246093,17.2461 0,9.52734 7.722656,17.24609 17.246093,17.24609 3.652344,0 7.042969,-1.13672 9.832032,-3.07422 l -0.570313,-0.82031"
             style="fill:#000000;fill-opacity:1;fill-rule:nonzero;stroke:none"
             id="path16570"
             inkscape:connector-curvature="0" /></g></g></g><g
       id="g16572"><g
         id="g16574"
         clip-path="url(#clipPath16578)"><g
           id="g16580"
           transform="matrix(-4.9826102,0,0,4.9812498,4049.9229,442.30569)"><path
             d="m 97.808594,496.07422 c -2.628906,1.82422 -5.816406,2.89453 -9.261719,2.89453 -4.488281,0 -8.542969,-1.81641 -11.488281,-4.75781 -2.9375,-2.94141 -4.757813,-7 -4.757813,-11.48828 0,-4.48828 1.820313,-8.54297 4.757813,-11.48828 2.945312,-2.9375 7,-4.75782 11.488281,-4.75782 3.367188,0 6.492188,1.02344 9.085938,2.77735 l 0.558593,-0.83203 c -2.753906,-1.85938 -6.074218,-2.94532 -9.644531,-2.94532 -9.523437,0 -17.246094,7.72266 -17.246094,17.2461 0,9.52734 7.722657,17.24609 17.246094,17.24609 3.652344,0 7.042969,-1.13672 9.832031,-3.07422 l -0.570312,-0.82031"
             style="fill:#000000;fill-opacity:1;fill-rule:nonzero;stroke:none"
             id="path16582"
             inkscape:connector-curvature="0" /></g></g></g><g
       id="g16584"><g
         id="g16586"
         clip-path="url(#clipPath16590)"><g
           id="g16592"
           transform="matrix(-4.9826102,0,0,4.9812498,4049.9229,442.30569)"><path
             d="m 115.63281,496.07422 c -2.625,1.82422 -5.8164,2.89453 -9.25781,2.89453 -4.48828,0 -8.546875,-1.81641 -11.488281,-4.75781 -2.941406,-2.94141 -4.757813,-7 -4.757813,-11.48828 0,-4.48828 1.816407,-8.54688 4.757813,-11.48828 2.941406,-2.9375 7.000001,-4.75782 11.488281,-4.75782 3.36328,0 6.48828,1.02344 9.08203,2.77735 l 0.5586,-0.83203 c -2.75,-1.85938 -6.07032,-2.94532 -9.64063,-2.94532 -9.527344,0 -17.246094,7.72266 -17.246094,17.2461 0,9.52734 7.71875,17.24609 17.246094,17.24609 3.64844,0 7.03906,-1.13672 9.82813,-3.07422 l -0.57032,-0.82031"
             style="fill:#000000;fill-opacity:1;fill-rule:nonzero;stroke:none"
             id="path16594"
             inkscape:connector-curvature="0" /></g></g></g><g
       id="g16596"><g
         id="g16598"
         clip-path="url(#clipPath16602)"><g
           id="g16604"
           transform="matrix(-4.9826102,0,0,4.9812498,4049.9229,442.30569)"><path
             d="m 133.46094,496.07422 c -2.62891,1.82422 -5.81641,2.89453 -9.26172,2.89453 -4.48828,0 -8.54688,-1.81641 -11.48828,-4.75781 -2.94141,-2.94141 -4.75781,-7 -4.75781,-11.48828 0,-4.48828 1.8164,-8.54297 4.75781,-11.48828 2.9414,-2.9375 7,-4.75782 11.48828,-4.75782 3.36719,0 6.48828,1.02344 9.08203,2.77735 l 0.5625,-0.83203 c -2.75391,-1.85938 -6.07422,-2.94532 -9.64453,-2.94532 -9.52344,0 -17.24609,7.72266 -17.24609,17.2461 0,9.52734 7.72265,17.24609 17.24609,17.24609 3.65234,0 7.04297,-1.13672 9.83203,-3.07422 l -0.57031,-0.82031"
             style="fill:#000000;fill-opacity:1;fill-rule:nonzero;stroke:none"
             id="path16606"
             inkscape:connector-curvature="0" /></g></g></g><g
       id="g16608"><g
         id="g16610"
         clip-path="url(#clipPath16614)"><g
           id="g16616"
           transform="matrix(-4.9826102,0,0,4.9812498,4049.9229,442.30569)"><path
             d="m 151.28516,496.07422 c -2.62891,1.82422 -5.81641,2.89453 -9.25782,2.89453 -4.49218,0 -8.54687,-1.81641 -11.48828,-4.75781 -2.9414,-2.94141 -4.75781,-7 -4.76172,-11.48828 0.004,-4.48828 1.82032,-8.54688 4.76172,-11.48828 2.94141,-2.9375 6.9961,-4.75782 11.48828,-4.75782 3.36328,0 6.48828,1.02344 9.08203,2.77735 l 0.5586,-0.83203 c -2.75391,-1.85938 -6.07422,-2.94532 -9.64063,-2.94532 -9.52734,0 -17.24609,7.72266 -17.24609,17.2461 0,9.52734 7.71875,17.24609 17.24609,17.24609 3.64844,0 7.03907,-1.13672 9.82813,-3.07422 l -0.57031,-0.82031"
             style="fill:#000000;fill-opacity:1;fill-rule:nonzero;stroke:none"
             id="path16618"
             inkscape:connector-curvature="0" /></g></g></g><g
       id="g16620"><g
         id="g16622"
         clip-path="url(#clipPath16626)"><g
           id="g16628"
           transform="matrix(-4.9826102,0,0,4.9812498,4049.9229,442.30569)"><path
             d="m 123.56641,233.53906 -13.85938,-23.8125 -0.86328,0.5 13.85938,23.81641"
             style="fill:#000000;fill-opacity:1;fill-rule:nonzero;stroke:none"
             id="path16630"
             inkscape:connector-curvature="0" /><path
             d="m 83.511719,89.882813 c -2.558594,1.84375 -4.703125,4.78125 -6.214844,8.269531 -1.511719,3.488286 -2.394531,7.531246 -2.394531,11.601566 -0.0039,5.61718 1.6875,11.3125 5.777344,15.60546 4.09375,4.29297 10.5625,7.13672 19.960942,7.13282 1.25,0 2.54687,-0.0508 3.90625,-0.15235 l -0.0781,-0.99609 c -1.33203,0.0977 -2.60547,0.14844 -3.82812,0.14844 -9.207036,-0.004 -15.35938,-2.75782 -19.23438,-6.82032 -3.878906,-4.0664 -5.503906,-9.49218 -5.503906,-14.91796 -0.0039,-3.92578 0.851562,-7.84375 2.3125,-11.203129 1.453125,-3.359375 3.515625,-6.15625 5.882812,-7.855468 l -0.585937,-0.8125"
             style="fill:#000000;fill-opacity:1;fill-rule:nonzero;stroke:none"
             id="path16632"
             inkscape:connector-curvature="0" /><path
             d="m 220.97266,65.207031 c 0,10.691407 -8.66407,19.355469 -19.35547,19.355469 -10.6875,0 -19.35156,-8.664062 -19.35156,-19.355469 0,-10.6875 8.66406,-19.355468 19.35156,-19.355468 10.6914,0 19.35547,8.667968 19.35547,19.355468"
             style="fill:#000000;fill-opacity:1;fill-rule:nonzero;stroke:none"
             id="path16634"
             inkscape:connector-curvature="0" /><path
             d="m 217.87109,95.011719 c 0,10.691411 -8.66406,19.355471 -19.35156,19.355471 -10.6914,0 -19.35547,-8.66406 -19.35547,-19.355471 0,-10.6875 8.66407,-19.351563 19.35547,-19.351563 10.6875,0 19.35156,8.664063 19.35156,19.351563"
             style="fill:#000000;fill-opacity:1;fill-rule:nonzero;stroke:none"
             id="path16636"
             inkscape:connector-curvature="0" /><path
             d="m 212.08203,38.117188 c 0,10.691406 -8.66406,19.355468 -19.35156,19.355468 -10.69141,0 -19.35938,-8.664062 -19.35938,-19.355468 0,-10.6875 8.66797,-19.351563 19.35938,-19.351563 10.6875,0 19.35156,8.664063 19.35156,19.351563"
             style="fill:#000000;fill-opacity:1;fill-rule:nonzero;stroke:none"
             id="path16638"
             inkscape:connector-curvature="0" /><path
             d="m 136.35156,39.074219 c 0,12.488281 -10.125,22.613281 -22.61328,22.613281 -12.49219,0 -22.61328,-10.125 -22.61328,-22.613281 0,-12.488281 10.12109,-22.613282 22.61328,-22.613282 12.48828,0 22.61328,10.125001 22.61328,22.613282"
             style="fill:#000000;fill-opacity:1;fill-rule:nonzero;stroke:none"
             id="path16640"
             inkscape:connector-curvature="0" /><path
             d="m 123.24609,73.976563 c 0,12.488281 -10.12109,22.613281 -22.61328,22.613281 -12.488279,0 -22.613279,-10.125 -22.613279,-22.613281 0,-12.488282 10.125,-22.613282 22.613279,-22.613282 12.49219,0 22.61328,10.125 22.61328,22.613282"
             style="fill:#000000;fill-opacity:1;fill-rule:nonzero;stroke:none"
             id="path16642"
             inkscape:connector-curvature="0" /><path
             d="m 120.35547,106.76172 c 0,12.49219 -10.125,22.61328 -22.613282,22.61328 -12.488282,0 -22.613282,-10.12109 -22.613282,-22.61328 0,-12.488282 10.125,-22.613282 22.613282,-22.613282 12.488282,0 22.613282,10.125 22.613282,22.613282"
             style="fill:#000000;fill-opacity:1;fill-rule:nonzero;stroke:none"
             id="path16644"
             inkscape:connector-curvature="0" /><path
             d="m 182.26563,23.796875 c 0,13.144531 -10.65625,23.796875 -23.80079,23.796875 -13.14453,0 -23.80078,-10.652344 -23.80078,-23.796875 0,-13.144531 10.65625,-23.80078125 23.80078,-23.80078125 13.14454,0 23.80079,10.65625025 23.80079,23.80078125"
             style="fill:#000000;fill-opacity:1;fill-rule:nonzero;stroke:none"
             id="path16646"
             inkscape:connector-curvature="0" /><path
             d="m 104.49609,94.34375 0.0312,60.96875 h 61.61328 v -28.65625 l -61.64453,-32.3125"
             style="fill:#1e1548;fill-opacity:1;fill-rule:nonzero;stroke:none"
             id="path16648"
             inkscape:connector-curvature="0" /><path
             d="m 166.14844,155.3125 c 0,8.59766 -13.8086,15.5625 -30.84375,15.5625 -17.03125,0 -30.84375,-6.96484 -30.84375,-15.5625 0,-8.59766 13.8125,-15.56641 30.84375,-15.56641 17.03515,0 30.84375,6.96875 30.84375,15.56641"
             style="fill:#1e1548;fill-opacity:1;fill-rule:nonzero;stroke:none"
             id="path16650"
             inkscape:connector-curvature="0" /><path
             d="m 151.13672,24.621094 c 24.19141,-3.488281 52.01953,12.003906 51.12891,51.894531 -0.24219,10.777344 -0.47657,32.355465 -1.26954,43.105465 -1.16015,15.6836 -6.13281,34.7461 -44.33593,34.7461 l -52.16407,-52.52735 c 0,0 -2.96875,-70.070309 46.64063,-77.218746"
             style="fill:#1e1548;fill-opacity:1;fill-rule:nonzero;stroke:none"
             id="path16652"
             inkscape:connector-curvature="0" /><path
             d="m 116.91016,86.808594 c 0,0 14.45703,-4.359375 19.4414,-13.742188 6.04297,-11.378906 4.49219,-23.902343 4.49219,-23.902343 0,0 7.10937,10.519531 19.26172,6.175781 9.67187,-3.457031 9.54297,-13.089844 9.54297,-13.089844 0,0 7.67578,15.566406 16.8789,21.488281 10.375,6.664063 15.08985,1.46875 15.08985,1.46875 0,0 10.59375,-11.101562 2.6914,-29.625 -6.42187,-15.050781 -22.22265,-12.59375 -22.22265,-12.59375 0,0 -10.64844,-11.359375 -25.20703,-9.382812 -14.55469,1.976562 -22.70313,13.582031 -22.70313,13.582031 0,0 -6.91406,-6.421875 -21.23828,0.742188 -14.324219,7.160156 -16.050781,23.953125 -16.050781,23.953125 0,0 -11.359375,3.785156 -14.324219,14.898437 -2.964844,11.113281 8.644531,23.378906 8.644531,23.378906 0,0 -10.621093,15.082034 -4.695312,28.378904 6.179687,13.85547 22.789061,-11.80859 22.789061,-11.80859 l 7.60938,-19.921876"
             style="fill:#000000;fill-opacity:1;fill-rule:nonzero;stroke:none"
             id="path16654"
             inkscape:connector-curvature="0" /><path
             d="m 116.91016,86.808594 c 0,0 -15.26172,-15.078125 -23.695316,0.496094 -3.6875,6.804687 1.597656,20.199222 16.085936,19.425782 l 7.60938,-19.921876"
             style="fill:#1e1548;fill-opacity:1;fill-rule:nonzero;stroke:none"
             id="path16656"
             inkscape:connector-curvature="0" /><path
             d="M 115.17578,90.953125 93.308594,86.8125 l -0.1875,0.980469 21.867186,4.144531"
             style="fill:#000000;fill-opacity:1;fill-rule:nonzero;stroke:none"
             id="path16658"
             inkscape:connector-curvature="0" /><path
             d="m 178.66406,112.75 h 1 V 90.625 h -1 z"
             style="fill:#000000;fill-opacity:1;fill-rule:nonzero;stroke:none"
             id="path16660"
             inkscape:connector-curvature="0" /><path
             d="m 132.48047,144.44141 c 0.0586,0.0625 9.65625,10.07031 30.27734,10.07031 1.10547,0 2.2461,-0.0312 3.41797,-0.0898 l -0.0508,-1 c -1.15625,0.0586 -2.27734,0.0898 -3.36719,0.0898 -10.14453,0 -17.53906,-2.45703 -22.40234,-4.90625 -2.42969,-1.22266 -4.22266,-2.44531 -5.41016,-3.35547 -0.58984,-0.45703 -1.03125,-0.83594 -1.32031,-1.09766 -0.14453,-0.13281 -0.25,-0.23437 -0.32031,-0.30078 l -0.0781,-0.0781 -0.0195,-0.0234 -0.72656,0.69141"
             style="fill:#000000;fill-opacity:1;fill-rule:nonzero;stroke:none"
             id="path16662"
             inkscape:connector-curvature="0" /><path
             d="m 157.18359,121.89844 0.26953,0.87109 c 1.23438,3.95313 4.8711,6.41797 8.72657,6.41797 1.26953,0 2.5664,-0.26563 3.80469,-0.83594 l -0.41797,-0.90625 c -1.10547,0.50391 -2.25391,0.74219 -3.38672,0.74219 -3.4336,0 -6.67188,-2.19141 -7.76953,-5.71484 l -0.27344,-0.8711 -0.95313,0.29688"
             style="fill:#000000;fill-opacity:1;fill-rule:nonzero;stroke:none"
             id="path16664"
             inkscape:connector-curvature="0" /><path
             d="m 161.28906,94.085938 c -0.0859,1.96875 0.9336,3.613281 2.27344,3.671875 1.33984,0.05859 2.49609,-1.492188 2.58203,-3.460938 0.0859,-1.96875 -0.92969,-3.609375 -2.26953,-3.667969 -1.34375,-0.05859 -2.49609,1.488282 -2.58594,3.457032"
             style="fill:#000000;fill-opacity:1;fill-rule:nonzero;stroke:none"
             id="path16666"
             inkscape:connector-curvature="0" /><path
             d="m 186.79688,94.085938 c -0.0898,1.96875 0.92968,3.613281 2.26953,3.671875 1.33984,0.05859 2.49609,-1.492188 2.58203,-3.460938 0.0859,-1.96875 -0.92969,-3.609375 -2.26953,-3.667969 -1.34375,-0.05859 -2.4961,1.488282 -2.58203,3.457032"
             style="fill:#000000;fill-opacity:1;fill-rule:nonzero;stroke:none"
             id="path16668"
             inkscape:connector-curvature="0" /><path
             d="m 97.0625,51.414063 c -2.144531,-0.808594 -3.988281,-2.621094 -5.296875,-5.035157 -1.304687,-2.414062 -2.066406,-5.417968 -2.066406,-8.5625 0,-4.632812 1.644531,-9.546875 5.589844,-13.363281 3.941406,-3.8125 10.210937,-6.5625 19.550777,-6.777344 l -0.0234,-1 c -9.51953,0.214844 -16.06641,3.035157 -20.22266,7.058594 -4.160156,4.023438 -5.898437,9.21875 -5.894531,14.082031 0,3.304688 0.796875,6.464844 2.1875,9.039063 1.394531,2.570312 3.394531,4.570312 5.820312,5.492187 L 97.0625,51.414063"
             style="fill:#000000;fill-opacity:1;fill-rule:nonzero;stroke:none"
             id="path16670"
             inkscape:connector-curvature="0" /><path
             d="m 135.05859,28.078125 c -1.26562,-1.625 -1.9375,-3.957031 -1.9375,-6.59375 0,-4.332031 1.82032,-9.441406 5.57422,-13.4453135 3.75781,-4.0039057 9.42969,-6.9218735 17.22266,-6.9257805 1.58984,0 3.26953,0.121094 5.03515,0.382813 l 0.14844,-0.98828192 C 159.28516,0.23828101 157.55859,0.113281 155.91797,0.113281 147.87109,0.109375 141.89844,3.15625 137.96875,7.3554692 c -3.93359,4.1992188 -5.84375,9.5273438 -5.84766,14.1289058 0,2.800781 0.70704,5.347656 2.14844,7.207031 l 0.78906,-0.613281"
             style="fill:#000000;fill-opacity:1;fill-rule:nonzero;stroke:none"
             id="path16672"
             inkscape:connector-curvature="0" /><path
             d="m 169.17578,42.417969 c 0.008,0.01953 2.3125,6.550781 6.42969,13.113281 2.0625,3.28125 4.57422,6.574219 7.5,9.0625 2.92187,2.488281 6.28125,4.1875 10.00391,4.1875 2.78515,0 5.74218,-0.957031 8.80078,-3.167969 l -0.58594,-0.808593 c -2.92969,2.109375 -5.66016,2.976562 -8.21484,2.976562 -3.40625,0 -6.54297,-1.554687 -9.35547,-3.949219 -4.21875,-3.582031 -7.64844,-9.03125 -10,-13.574218 -1.17578,-2.273438 -2.08594,-4.320313 -2.70313,-5.796875 -0.30859,-0.738282 -0.53906,-1.332032 -0.69922,-1.746094 -0.15625,-0.410156 -0.23437,-0.628906 -0.23437,-0.628906 l -0.94141,0.332031"
             style="fill:#000000;fill-opacity:1;fill-rule:nonzero;stroke:none"
             id="path16674"
             inkscape:connector-curvature="0" /><path
             d="m 378.66797,82.324219 v -0.5 c -0.50391,0.0039 -1.19141,0.160156 -2.02344,0.417969 -1.23437,0.386718 -2.73047,1.003906 -3.94922,1.742187 -0.60937,0.371094 -1.14843,0.769531 -1.5625,1.207031 -0.40625,0.433594 -0.71093,0.925782 -0.71484,1.511719 -0.004,0.496094 0.25781,0.976563 0.69531,1.339844 0.4375,0.371094 1.0586,0.679687 1.90625,0.953125 1.60547,0.519531 3.61328,0.738281 5.29297,0.742187 0.69531,0 1.32813,-0.03906 1.86328,-0.117187 0.35156,-0.04687 0.66797,-0.207031 0.92188,-0.425781 0.3789,-0.328125 0.63672,-0.785157 0.80468,-1.292969 0.17188,-0.507813 0.25391,-1.078125 0.25391,-1.664063 -0.004,-1.011718 -0.24219,-2.074218 -0.80078,-2.925781 -0.54688,-0.855469 -1.48047,-1.496094 -2.6875,-1.488281 v 1 c 0.85937,0.0078 1.42187,0.398437 1.85156,1.035156 0.42188,0.636719 0.63672,1.53125 0.63672,2.378906 0,0.652344 -0.12891,1.273438 -0.34766,1.707032 -0.10937,0.214843 -0.23437,0.382812 -0.36328,0.496093 -0.13281,0.109375 -0.26172,0.167969 -0.41015,0.191407 -0.46875,0.06641 -1.06641,0.105468 -1.72266,0.105468 -1.58984,0 -3.53516,-0.222656 -4.98437,-0.691406 -0.77344,-0.25 -1.28516,-0.523437 -1.56641,-0.765625 -0.28516,-0.25 -0.33984,-0.417969 -0.34375,-0.578125 -0.004,-0.132812 0.0508,-0.300781 0.18359,-0.507812 0.23438,-0.359375 0.72266,-0.785157 1.33985,-1.1875 0.92968,-0.601563 2.14453,-1.160157 3.24218,-1.554688 0.55079,-0.199219 1.07032,-0.359375 1.50782,-0.46875 0.43359,-0.105469 0.79687,-0.160156 0.97656,-0.160156 v -0.5"
             style="fill:#000000;fill-opacity:1;fill-rule:nonzero;stroke:none"
             id="path16676"
             inkscape:connector-curvature="0" /><path
             d="m 372.78125,106.66016 0.008,-0.5 h -0.0586 c -1.78906,0.004 -3.61328,0.7539 -5.02344,1.79297 -0.70312,0.52343 -1.30859,1.12109 -1.74219,1.76171 -0.4375,0.63672 -0.71484,1.31641 -0.71875,2.01563 -0.004,0.65234 0.27344,1.30469 0.82422,1.79687 0.55078,0.4961 1.34766,0.85157 2.42188,1.07813 0.7539,0.16016 1.84375,0.23047 2.9375,0.23047 1.08203,0 2.14844,-0.0703 2.89453,-0.23047 0.94141,-0.19922 1.66406,-0.71484 2.125,-1.38672 0.46094,-0.66797 0.66406,-1.48047 0.66406,-2.29687 0,-1.12891 -0.38672,-2.28907 -1.12109,-3.19922 -0.73047,-0.90625 -1.84375,-1.55469 -3.20703,-1.5625 h 0.004 l -0.008,0.5 -0.004,0.5 c 1.05079,0.0117 1.85547,0.48047 2.4375,1.1914 0.58204,0.71094 0.90235,1.67188 0.89844,2.57032 0.004,0.65234 -0.16406,1.26171 -0.48828,1.73046 -0.32812,0.46875 -0.80078,0.82032 -1.51172,0.97657 -0.61719,0.13281 -1.65234,0.21093 -2.68359,0.21093 -1.04297,0 -2.10547,-0.0781 -2.73438,-0.21093 -0.96093,-0.20313 -1.58984,-0.51563 -1.95312,-0.84375 -0.36328,-0.33594 -0.48828,-0.66016 -0.4961,-1.05469 -0.004,-0.41797 0.17969,-0.92578 0.54297,-1.45313 0.53516,-0.78515 1.45313,-1.58203 2.52735,-2.16406 1.07031,-0.58594 2.28906,-0.95703 3.41406,-0.95312 h 0.0469 l 0.004,-0.5"
             style="fill:#000000;fill-opacity:1;fill-rule:nonzero;stroke:none"
             id="path16678"
             inkscape:connector-curvature="0" /><path
             d="m 371.86328,121.18359 0.0469,-0.5 c -0.12891,-0.0117 -0.26953,-0.0156 -0.42188,-0.0156 -1.27344,0.004 -3.43359,0.36719 -5.34765,1.05469 -0.95704,0.34765 -1.84375,0.76953 -2.53125,1.30078 -0.33985,0.26562 -0.63672,0.5625 -0.85157,0.90234 -0.21484,0.33594 -0.35156,0.72656 -0.34765,1.14063 0,0.77343 0.44531,1.51953 1.27734,2.23437 0.79297,0.67188 1.94531,1.12109 3.22656,1.43359 1.28516,0.30469 2.69532,0.45704 3.98047,0.45704 1.45703,-0.008 2.73438,-0.17579 3.57031,-0.63672 0.42969,-0.25 0.6875,-0.66406 0.85547,-1.125 0.16797,-0.46875 0.24219,-1.00781 0.24219,-1.58203 0,-1.07032 -0.26562,-2.25782 -0.84766,-3.25 -0.57421,-0.98829 -1.51953,-1.79688 -2.80468,-1.91407 l -0.0469,0.5 -0.043,0.4961 c 0.89844,0.0859 1.55469,0.62109 2.03516,1.42578 0.46875,0.79687 0.71094,1.84375 0.70703,2.74219 0.004,0.48047 -0.0664,0.91797 -0.18359,1.24218 -0.11719,0.33204 -0.27735,0.52344 -0.40625,0.59375 -0.51563,0.30469 -1.71875,0.51563 -3.07813,0.50782 -1.20703,0 -2.55469,-0.14454 -3.74609,-0.42969 -1.19531,-0.28516 -2.23438,-0.71875 -2.8086,-1.22266 -0.72265,-0.62109 -0.93359,-1.11328 -0.92968,-1.47265 0,-0.19922 0.0586,-0.39454 0.1914,-0.60547 0.23438,-0.3711 0.71094,-0.76563 1.34375,-1.11719 1.89453,-1.0625 5.10157,-1.6875 6.54297,-1.67578 0.125,0 0.23828,0.004 0.32813,0.0117 l 0.0469,-0.4961"
             style="fill:#000000;fill-opacity:1;fill-rule:nonzero;stroke:none"
             id="path16680"
             inkscape:connector-curvature="0" /><path
             d="m 385.07813,133.875 0.0781,-0.49609 c -0.12891,-0.0195 -0.26562,-0.0273 -0.41016,-0.0273 -0.96093,0.004 -2.50781,0.32813 -3.89453,0.89453 -0.6914,0.28907 -1.33593,0.63672 -1.83984,1.06641 -0.49609,0.42578 -0.88672,0.97266 -0.89063,1.64844 0,0.41406 0.15625,0.82812 0.44532,1.20703 0.28906,0.38281 0.70703,0.74219 1.27343,1.10156 1.4961,0.94141 3.45313,1.1875 4.86329,1.19141 0.66406,0 1.1914,-0.0547 1.55078,-0.14844 0.27343,-0.0742 0.48828,-0.24219 0.64453,-0.4375 0.46484,-0.59375 0.625,-1.46094 0.63672,-2.40625 -0.004,-0.85156 -0.15625,-1.75781 -0.51563,-2.52344 -0.17969,-0.38281 -0.41797,-0.73437 -0.72656,-1.01562 -0.30469,-0.27735 -0.69531,-0.48438 -1.14063,-0.55078 l -0.0742,0.49609 -0.0742,0.49219 c 0.23828,0.0391 0.43359,0.13672 0.61718,0.30468 0.28125,0.25 0.51954,0.66797 0.67579,1.17188 0.16015,0.5 0.23828,1.08203 0.23828,1.625 0,0.53516 -0.0781,1.03906 -0.20703,1.38672 -0.0625,0.17578 -0.13672,0.30859 -0.20313,0.38672 l -0.13281,0.10547 c -0.19922,0.0547 -0.69141,0.11718 -1.28906,0.11328 -1.28516,0.004 -3.11719,-0.26172 -4.32813,-1.03516 -0.49609,-0.31641 -0.82422,-0.61328 -1.01172,-0.85937 -0.1875,-0.25391 -0.24219,-0.44141 -0.24219,-0.60547 -0.004,-0.25 0.15625,-0.5586 0.54297,-0.89063 0.56641,-0.49219 1.55469,-0.94531 2.54297,-1.24609 0.98438,-0.3086 1.98438,-0.47266 2.53906,-0.47266 0.10547,0 0.19532,0.008 0.25782,0.0156 l 0.0742,-0.49219"
             style="fill:#000000;fill-opacity:1;fill-rule:nonzero;stroke:none"
             id="path16682"
             inkscape:connector-curvature="0" /><path
             d="m 109.30078,106.73047 -4.79687,21.61719 -3.8711,-23.14453 c 0,0 4.55078,1.93359 8.66797,1.52734"
             style="fill:#000000;fill-opacity:1;fill-rule:nonzero;stroke:none"
             id="path16684"
             inkscape:connector-curvature="0" /><path
             d="m 175.51953,161.67578 47.55078,35.00781 0.58985,-0.80468 -47.54688,-35.00782"
             style="fill:#000000;fill-opacity:1;fill-rule:nonzero;stroke:none"
             id="path16686"
             inkscape:connector-curvature="0" /><path
             d="m 184.82422,148.89453 15.74219,-22.01172 -0.8125,-0.58203 -15.74219,22.01172"
             style="fill:#000000;fill-opacity:1;fill-rule:nonzero;stroke:none"
             id="path16688"
             inkscape:connector-curvature="0" /><path
             d="m 61.984375,375.98828 c 0.01172,0.0195 4.792969,10.89063 12.871094,21.78516 4.042969,5.44922 8.910156,10.90625 14.4375,15.01562 5.523437,4.10938 11.726561,6.87891 18.414061,6.87891 1.08594,0 2.1836,-0.0742 3.29688,-0.22656 6.69531,-0.92578 14.08203,-5.05469 21.70703,-11.10157 22.85156,-18.15625 47.85156,-53.76953 60.61719,-73.73437 l -0.84375,-0.53906 c -8.48438,13.27734 -22.42188,33.51953 -37.4961,50.86718 -7.53125,8.67579 -15.35156,16.62891 -22.89844,22.6211 -7.54687,6 -14.82812,10.02344 -21.22265,10.89453 -1.06641,0.14844 -2.1211,0.21875 -3.16016,0.21875 -6.40234,0 -12.402342,-2.65625 -17.816405,-6.67969 -8.121094,-6.03515 -14.886719,-15.14062 -19.601562,-22.73828 -2.359375,-3.79687 -4.207032,-7.21875 -5.46875,-9.6875 -0.628907,-1.23437 -1.109375,-2.22656 -1.433594,-2.91406 -0.160156,-0.34375 -0.28125,-0.60938 -0.363281,-0.78906 -0.08203,-0.17969 -0.121094,-0.27344 -0.125,-0.27344 l -0.914063,0.40234"
             style="fill:#000000;fill-opacity:1;fill-rule:nonzero;stroke:none"
             id="path16690"
             inkscape:connector-curvature="0" /><path
             d="m 211.26563,383.07422 c 0,0 0.30859,-1.46484 0.86328,-4.08203 3.86328,-18.34375 19.6914,-93.42188 25.58593,-120.69141 0.80079,-3.70703 1.89844,-10.28515 1.89844,-16.875 -0.004,-4.9375 -0.60937,-9.88672 -2.47656,-13.66406 -0.93359,-1.89063 -2.1875,-3.49219 -3.85156,-4.61719 -1.66016,-1.125 -3.71875,-1.76172 -6.19532,-1.76172 h -0.17578 l 0.0273,1 h 0.14843 c 2.3086,0 4.14454,0.58203 5.63672,1.58985 2.23047,1.51172 3.71094,4.02343 4.625,7.10937 0.91797,3.07813 1.26172,6.70313 1.26172,10.34375 0,6.48047 -1.08594,13.01172 -1.8789,16.66406 C 230,289.26172 210.28906,382.86719 210.28906,382.86719 l 0.97657,0.20703"
             style="fill:#000000;fill-opacity:1;fill-rule:nonzero;stroke:none"
             id="path16692"
             inkscape:connector-curvature="0" /><path
             d="m 307.37109,405.17969 c 0,-0.004 25.77735,-105.40625 33.31641,-140.79688 1.52734,-7.16797 3.13672,-16.19922 3.13672,-24.14843 0,-5.10547 -0.66016,-9.76954 -2.48828,-13.23438 -0.91797,-1.73047 -2.13672,-3.16016 -3.71875,-4.15234 -1.58203,-0.9961 -3.51172,-1.54297 -5.80469,-1.5586 l -0.004,1 c 2.14063,0.0156 3.86719,0.51953 5.27735,1.40625 2.10937,1.32422 3.54687,3.54688 4.45703,6.41797 0.91016,2.86328 1.28125,6.35547 1.28125,10.1211 0,7.8164 -1.59375,16.80078 -3.11328,23.9375 -3.76563,17.67578 -12.09375,52.875 -19.48047,83.64453 -3.69531,15.38672 -7.15234,29.66797 -9.6875,40.10547 -1.26563,5.21484 -2.30469,9.47265 -3.02344,12.42187 -0.71875,2.95313 -1.12109,4.59375 -1.12109,4.59766 l 0.97265,0.23828"
             style="fill:#000000;fill-opacity:1;fill-rule:nonzero;stroke:none"
             id="path16694"
             inkscape:connector-curvature="0" /></g></g></g></g></svg>