<?xml version="1.0" encoding="UTF-8" standalone="no"?>
<!-- Created with Inkscape (http://www.inkscape.org/) -->

<svg
   xmlns:dc="http://purl.org/dc/elements/1.1/"
   xmlns:cc="http://creativecommons.org/ns#"
   xmlns:rdf="http://www.w3.org/1999/02/22-rdf-syntax-ns#"
   xmlns:svg="http://www.w3.org/2000/svg"
   xmlns="http://www.w3.org/2000/svg"
   xmlns:sodipodi="http://sodipodi.sourceforge.net/DTD/sodipodi-0.dtd"
   xmlns:inkscape="http://www.inkscape.org/namespaces/inkscape"
   version="1.1"
   id="svg15683"
   xml:space="preserve"
   width="391.32321"
   height="333.82449"
   viewBox="0 0 391.32321 333.82449"
   sodipodi:docname="digital-services-illustration6.svg"
   inkscape:version="0.92.5 (2060ec1f9f, 2020-04-08)"><metadata
     id="metadata15689"><rdf:RDF><cc:Work
         rdf:about=""><dc:format>image/svg+xml</dc:format><dc:type
           rdf:resource="http://purl.org/dc/dcmitype/StillImage" /><dc:title></dc:title></cc:Work></rdf:RDF></metadata><defs
     id="defs15687"><clipPath
       clipPathUnits="userSpaceOnUse"
       id="clipPath15699"><path
         d="M 0,0 H 6000 V 3406.25 H 0 Z"
         id="path15697"
         inkscape:connector-curvature="0"
         style="clip-rule:evenodd" /></clipPath><clipPath
       clipPathUnits="userSpaceOnUse"
       id="clipPath15713"><path
         d="M 0,0 H 6000 V 3375 H 0 Z"
         id="path15711"
         inkscape:connector-curvature="0"
         style="clip-rule:evenodd" /></clipPath><clipPath
       clipPathUnits="userSpaceOnUse"
       id="clipPath15725"><path
         d="m 2388.1326,1165.7441 h 1225 v 1043.75 h -1225 z"
         id="path15723"
         inkscape:connector-curvature="0"
         style="clip-rule:evenodd" /></clipPath><clipPath
       clipPathUnits="userSpaceOnUse"
       id="clipPath15739"><path
         d="m 2567.7312,1984.9083 h 1044.344 v 224.5343 h -1044.344 z"
         id="path15737"
         inkscape:connector-curvature="0"
         style="clip-rule:evenodd" /></clipPath><clipPath
       clipPathUnits="userSpaceOnUse"
       id="clipPath15751"><path
         d="m 3318.5825,2038.6721 h 46.4697 v 170.7705 h -46.4697 z"
         id="path15749"
         inkscape:connector-curvature="0"
         style="clip-rule:evenodd" /></clipPath><clipPath
       clipPathUnits="userSpaceOnUse"
       id="clipPath15763"><path
         d="m 2959.0544,1672.101 h 410.8894 v 537.3416 h -410.8894 z"
         id="path15761"
         inkscape:connector-curvature="0"
         style="clip-rule:evenodd" /></clipPath><clipPath
       clipPathUnits="userSpaceOnUse"
       id="clipPath15775"><path
         d="m 2388.1326,1165.7441 h 1225 v 1043.75 h -1225 z"
         id="path15773"
         inkscape:connector-curvature="0"
         style="clip-rule:evenodd" /></clipPath><clipPath
       clipPathUnits="userSpaceOnUse"
       id="clipPath15797"><path
         d="m 2418.5391,1674.5448 h 723.9482 v 534.8978 h -723.9482 z"
         id="path15795"
         inkscape:connector-curvature="0"
         style="clip-rule:evenodd" /></clipPath><clipPath
       clipPathUnits="userSpaceOnUse"
       id="clipPath15809"><path
         d="m 2388.1326,1165.7441 h 1225 v 1043.75 h -1225 z"
         id="path15807"
         inkscape:connector-curvature="0"
         style="clip-rule:evenodd" /></clipPath><clipPath
       clipPathUnits="userSpaceOnUse"
       id="clipPath15841"><path
         d="m 3347.9319,1984.9083 h 264.1433 v 224.5343 h -264.1433 z"
         id="path15839"
         inkscape:connector-curvature="0"
         style="clip-rule:evenodd" /></clipPath><clipPath
       clipPathUnits="userSpaceOnUse"
       id="clipPath15853"><path
         d="m 3034.8733,2002.0149 h 335.0706 v 207.4277 h -335.0706 z"
         id="path15851"
         inkscape:connector-curvature="0"
         style="clip-rule:evenodd" /></clipPath><clipPath
       clipPathUnits="userSpaceOnUse"
       id="clipPath15865"><path
         d="m 2388.1326,1165.7441 h 1225 v 1043.75 h -1225 z"
         id="path15863"
         inkscape:connector-curvature="0"
         style="clip-rule:evenodd" /></clipPath><clipPath
       clipPathUnits="userSpaceOnUse"
       id="clipPath15877"><path
         d="m 3499.5696,2168.1938 h 66.0359 v 41.2488 h -66.0359 z"
         id="path15875"
         inkscape:connector-curvature="0"
         style="clip-rule:evenodd" /></clipPath><clipPath
       clipPathUnits="userSpaceOnUse"
       id="clipPath15889"><path
         d="m 2388.1326,1165.7441 h 1225 v 1043.75 h -1225 z"
         id="path15887"
         inkscape:connector-curvature="0"
         style="clip-rule:evenodd" /></clipPath><clipPath
       clipPathUnits="userSpaceOnUse"
       id="clipPath15901"><path
         d="m 3391.9558,2041.1158 h 19.5662 v 168.3268 h -19.5662 z"
         id="path15899"
         inkscape:connector-curvature="0"
         style="clip-rule:evenodd" /></clipPath><clipPath
       clipPathUnits="userSpaceOnUse"
       id="clipPath15913"><path
         d="m 3294.125,2180.4128 h 26.9033 v 29.0298 h -26.9033 z"
         id="path15911"
         inkscape:connector-curvature="0"
         style="clip-rule:evenodd" /></clipPath><clipPath
       clipPathUnits="userSpaceOnUse"
       id="clipPath15925"><path
         d="m 3083.7886,2170.6377 h 58.6987 v 38.8049 h -58.6987 z"
         id="path15923"
         inkscape:connector-curvature="0"
         style="clip-rule:evenodd" /></clipPath><clipPath
       clipPathUnits="userSpaceOnUse"
       id="clipPath15937"><path
         d="m 2388.1326,1165.7441 h 1225 v 1043.75 h -1225 z"
         id="path15935"
         inkscape:connector-curvature="0"
         style="clip-rule:evenodd" /></clipPath><clipPath
       clipPathUnits="userSpaceOnUse"
       id="clipPath15981"><path
         d="m 3017.7529,1994.6836 h 83.1563 v 214.759 h -83.1563 z"
         id="path15979"
         inkscape:connector-curvature="0"
         style="clip-rule:evenodd" /></clipPath><clipPath
       clipPathUnits="userSpaceOnUse"
       id="clipPath15993"><path
         d="m 2388.1326,1165.7441 h 1225 v 1043.75 h -1225 z"
         id="path15991"
         inkscape:connector-curvature="0"
         style="clip-rule:evenodd" /></clipPath><clipPath
       clipPathUnits="userSpaceOnUse"
       id="clipPath16013"><path
         d="m 3330.8115,2185.3005 h 41.5781 v 24.1421 h -41.5781 z"
         id="path16011"
         inkscape:connector-curvature="0"
         style="clip-rule:evenodd" /></clipPath><clipPath
       clipPathUnits="userSpaceOnUse"
       id="clipPath16025"><path
         d="m 2388.1326,1165.7441 h 1225 v 1043.75 h -1225 z"
         id="path16023"
         inkscape:connector-curvature="0"
         style="clip-rule:evenodd" /></clipPath></defs><sodipodi:namedview
     pagecolor="#ffffff"
     bordercolor="#666666"
     borderopacity="1"
     objecttolerance="10"
     gridtolerance="10"
     guidetolerance="10"
     inkscape:pageopacity="0"
     inkscape:pageshadow="2"
     inkscape:window-width="1366"
     inkscape:window-height="705"
     id="namedview15685"
     showgrid="false"
     inkscape:zoom="0.21851852"
     inkscape:cx="195.45928"
     inkscape:cy="167.02164"
     inkscape:window-x="-8"
     inkscape:window-y="-8"
     inkscape:window-maximized="1"
     inkscape:current-layer="g15691" /><g
     id="g15691"
     inkscape:groupmode="layer"
     inkscape:label="Panx Services Catalogue (5)"
     transform="matrix(0.31999998,0,0,0.31999998,-764.54072,-373.19709)"><g
       id="g15719"><g
         id="g15721"
         clip-path="url(#clipPath15725)"><g
           id="g15727"
           transform="matrix(2.4457703,0,0,2.4438071,2389.1899,1166.2329)"><path
             d="m 94.175781,132.84766 c 32.707029,11.16015 106.644529,94.5039 106.644529,94.5039 l -57.7539,43.31641 c 0,0 -83.492191,-149.62109 -48.890629,-137.82031"
             style="fill:#fcd780;fill-opacity:1;fill-rule:nonzero;stroke:none"
             id="path15729"
             inkscape:connector-curvature="0" /><path
             d="m 244.29297,158.54687 18.05469,-33.49218 -23.33985,-4.1836 z"
             style="fill:#ff314e;fill-opacity:1;fill-rule:nonzero;stroke:none"
             id="path15731"
             inkscape:connector-curvature="0" /></g></g></g><g
       id="g15733"><g
         id="g15735"
         clip-path="url(#clipPath15739)"><g
           id="g15741"
           transform="matrix(2.4457703,0,0,2.4438071,2389.1899,1166.2329)"><path
             d="M 218.70313,335.14844 465.71094,365.17188 500,335.14844 476.375,426.20313 73.128906,426.65234 218.70313,335.14844"
             style="fill:#1b48ab;fill-opacity:1;fill-rule:nonzero;stroke:none"
             id="path15743"
             inkscape:connector-curvature="0" /></g></g></g><g
       id="g15745"><g
         id="g15747"
         clip-path="url(#clipPath15751)"><g
           id="g15753"
           transform="matrix(2.4457703,0,0,2.4438071,2389.1899,1166.2329)"><path
             d="m 398.52344,357.00391 -18.16406,69.25781 11.92968,-0.0586 6.23438,-69.19922 z"
             style="fill:#000000;fill-opacity:1;fill-rule:nonzero;stroke:none"
             id="path15755"
             inkscape:connector-curvature="0" /></g></g></g><g
       id="g15757"><g
         id="g15759"
         clip-path="url(#clipPath15763)"><g
           id="g15765"
           transform="matrix(2.4457703,0,0,2.4438071,2389.1899,1166.2329)"><path
             d="m 261.52344,208.32031 c 21.39062,-2.84765 45.74219,8.77735 60.87109,61.19922 9.875,34.19922 39.375,136.83203 39.375,136.83203 l 38.39453,19.9375 -109.32422,-0.0859 c 0,0 -35.22265,-87.44532 -46.70312,-123.70704 -13.71875,-43.30859 -18.95313,-89.33593 17.38672,-94.17578"
             style="fill:#1b48ab;fill-opacity:1;fill-rule:nonzero;stroke:none"
             id="path15767"
             inkscape:connector-curvature="0" /></g></g></g><g
       id="g15769"><g
         id="g15771"
         clip-path="url(#clipPath15775)"><g
           id="g15777"
           transform="matrix(2.4457703,0,0,2.4438071,2389.1899,1166.2329)"><path
             d="m 317.70313,49.445313 -99.75391,-7.5625 c -2.07422,-0.15625 -4.07031,0.816406 -5.22656,2.542968 l -53.7461,80.503909 c -1.16406,1.73828 -1.28906,3.96875 -0.33594,5.82812 l 0.0234,0.043 c 0.91016,1.77734 2.67969,2.95703 4.66797,3.11328 l 98.42578,7.77344 c 2.0586,0.16406 4.04688,-0.78906 5.21094,-2.49609 L 322.0273,58.433624 c 1.1875,-1.746094 1.32813,-4 0.36329,-5.875 -0.91407,-1.78125 -2.69141,-2.960938 -4.6875,-3.113281"
             style="fill:#000000;fill-opacity:1;fill-rule:nonzero;stroke:none"
             id="path15779"
             inkscape:connector-curvature="0" /><path
             d="m 251.10547,98.3125 -0.40625,-0.289062 c -2.41406,3.367192 -6.46094,5.531252 -9.73438,5.519532 -0.7539,0 -1.46484,-0.10938 -2.10937,-0.33984 -0.96875,-0.34376 -1.67578,-0.90625 -2.15625,-1.625 -0.47656,-0.71876 -0.73047,-1.605474 -0.73047,-2.60938 0,-1.558594 0.61328,-3.390625 1.91406,-5.191406 2.41797,-3.371094 6.46485,-5.535156 9.73828,-5.523438 0.75,0 1.46094,0.109375 2.10547,0.339844 0.96875,0.34375 1.67578,0.90625 2.15625,1.625 0.47657,0.71875 0.73047,1.605469 0.73047,2.609375 0,1.554688 -0.61328,3.390625 -1.91406,5.195313 l 0.40625,0.289062 0.40625,0.292969 c 1.39844,-1.941406 2.10156,-3.960938 2.10156,-5.777344 0,-1.171875 -0.29687,-2.261719 -0.89844,-3.164062 -0.59765,-0.902344 -1.5,-1.605469 -2.65234,-2.011719 -0.76562,-0.273438 -1.58984,-0.398438 -2.44141,-0.398438 -3.69531,0.01172 -7.93359,2.324219 -10.54687,5.9375 -1.40234,1.941407 -2.10156,3.960938 -2.10547,5.777344 0,1.17188 0.29688,2.26172 0.89844,3.16406 0.60156,0.90235 1.5039,1.60547 2.65625,2.01563 0.76172,0.26953 1.58984,0.39453 2.4414,0.39453 3.69141,-0.0117 7.9336,-2.32422 10.54688,-5.937501 L 251.10547,98.3125"
             style="fill:#000000;fill-opacity:1;fill-rule:nonzero;stroke:none"
             id="path15781"
             inkscape:connector-curvature="0" /><path
             d="m 170.96094,224.40625 c 0,0 21.14453,-76.83203 26.17969,-93.49609 5.02343,-16.62891 50.35937,3.97656 50.35937,3.97656 l -12.83984,94.70312 -63.69922,-5.18359"
             style="fill:#ff314e;fill-opacity:1;fill-rule:nonzero;stroke:none"
             id="path15783"
             inkscape:connector-curvature="0" /><path
             d="m 244.29297,158.54687 c -31.99609,10.32422 -54.25781,-2.83203 -54.25781,-2.83203 -8.02735,28.54688 -19.07422,68.69141 -19.07422,68.69141 l 63.69531,5.1875 9.63672,-71.04688"
             style="fill:#fcd780;fill-opacity:1;fill-rule:nonzero;stroke:none"
             id="path15785"
             inkscape:connector-curvature="0" /><path
             d="M 12.996094,352.15625 8.4726563,288.38672 186.71094,296.58984 Z"
             style="fill:#ff314e;fill-opacity:1;fill-rule:nonzero;stroke:none"
             id="path15787"
             inkscape:connector-curvature="0" /><path
             d="M 10.171875,165.37891 C 1.316406,197.98047 0,338.75781 0,338.75781 l 186.71094,-42.16797 c 0,0 -51.57422,-127.44531 -92.535159,-163.74218 -16.855468,-14.9336 -69.566406,-20.62891 -84.003906,32.53125"
             style="fill:#fcd780;fill-opacity:1;fill-rule:nonzero;stroke:none"
             id="path15789"
             inkscape:connector-curvature="0" /></g></g></g><g
       id="g15791"><g
         id="g15793"
         clip-path="url(#clipPath15797)"><g
           id="g15799"
           transform="matrix(2.4457703,0,0,2.4438071,2389.1899,1166.2329)"><path
             d="M 252.87109,210.54297 C 200.82031,227.35156 12.996094,352.15625 12.996094,352.15625 c 0,0 0.292967,17.28125 4.230469,37.95313 2.257812,11.85156 13.289062,36.12109 43.804687,36.53906 10.6875,0.14453 67.26953,-0.44531 67.26953,-0.44531 0,0 146.26563,-121.73829 169.97656,-150.28516 24.11719,-29.03906 -3.44921,-78.92578 -45.40625,-65.375"
             style="fill:#1b48ab;fill-opacity:1;fill-rule:nonzero;stroke:none"
             id="path15801"
             inkscape:connector-curvature="0" /></g></g></g><g
       id="g15803"><g
         id="g15805"
         clip-path="url(#clipPath15809)"><g
           id="g15811"
           transform="matrix(2.4457703,0,0,2.4438071,2389.1899,1166.2329)"><path
             d="M 40.925781,68.066406 41.5625,126.48047 c 0,0 51.046875,18.64453 51.046875,5.08984 0,-14.76562 0.410156,-30.13281 0.410156,-30.13281 L 40.925781,68.066406"
             style="fill:#ff314e;fill-opacity:1;fill-rule:nonzero;stroke:none"
             id="path15813"
             inkscape:connector-curvature="0" /><path
             d="m 89.035156,7.039062 c 15.835934,0.7304693 44.902344,11.003907 43.937504,45.722657 0,0 -1.6875,28.121094 -1.57422,37.507812 0.0937,7.652344 -0.37891,24.378909 -15.01172,26.683599 -9.46484,1.48828 -41.027345,0.89453 -41.027345,0.89453 L 47.601563,73.742188 c 0,0 -0.585938,-68.648438 41.433593,-66.703126"
             style="fill:#ff314e;fill-opacity:1;fill-rule:nonzero;stroke:none"
             id="path15815"
             inkscape:connector-curvature="0" /><path
             d="M 126.89844,73.929688 126.38281,90.4375 c -0.008,0.277344 0.21094,0.507813 0.48438,0.515625 0.27734,0.0078 0.50781,-0.210937 0.51562,-0.484375 l 0.51563,-16.507812 c 0.008,-0.277344 -0.20703,-0.507813 -0.48438,-0.515625 -0.27734,-0.0078 -0.50781,0.207031 -0.51562,0.484375"
             style="fill:#000000;fill-opacity:1;fill-rule:nonzero;stroke:none"
             id="path15817"
             inkscape:connector-curvature="0" /><path
             d="m 111.95313,72.183594 c -0.082,1.917969 0.90624,3.511719 2.20703,3.570312 1.30468,0.05859 2.42968,-1.449218 2.51171,-3.363281 0.0859,-1.914062 -0.90234,-3.507812 -2.20703,-3.566406 -1.30078,-0.05859 -2.42578,1.449219 -2.51171,3.359375"
             style="fill:#000000;fill-opacity:1;fill-rule:nonzero;stroke:none"
             id="path15819"
             inkscape:connector-curvature="0" /><path
             d="m 121.29688,100.62891 -0.0117,0.008 c -0.1211,0.0664 -1.42969,0.72656 -2.90625,0.71875 -0.69141,0 -1.41407,-0.13672 -2.10547,-0.51953 -0.6875,-0.38672 -1.35156,-1.02344 -1.92188,-2.08594 -0.13281,-0.242187 -0.4375,-0.335937 -0.67969,-0.203125 -0.24218,0.128906 -0.33203,0.433594 -0.20312,0.675781 0.64453,1.203124 1.45313,2.003904 2.31641,2.484374 0.86718,0.48438 1.76953,0.64844 2.59375,0.64844 1.8789,-0.004 3.35937,-0.83203 3.40234,-0.84766 0.23828,-0.13672 0.32812,-0.4414 0.19531,-0.67968 -0.13281,-0.24219 -0.4375,-0.33204 -0.67968,-0.19922"
             style="fill:#000000;fill-opacity:1;fill-rule:nonzero;stroke:none"
             id="path15821"
             inkscape:connector-curvature="0" /><path
             d="m 92.53125,117.46484 -10.234375,-0.0703 c -0.277344,0 -0.503906,0.22266 -0.503906,0.4961 -0.0039,0.27734 0.21875,0.5039 0.496094,0.5039 l 10.238281,0.0703 c 0.273437,0 0.5,-0.22265 0.503906,-0.49609 0,-0.27734 -0.222656,-0.50391 -0.5,-0.50391"
             style="fill:#000000;fill-opacity:1;fill-rule:nonzero;stroke:none"
             id="path15823"
             inkscape:connector-curvature="0" /><path
             d="m 11.539063,165.63281 c -6.0664067,16.96094 1.687498,48.76953 5.976562,69.76563 6.644531,32.55078 29.507813,93.28125 78.578125,80.03906 12.38281,-3.33984 17.26562,-17.97266 -1.929687,-80.03906 C 88.40625,216.78516 79.242188,182.00781 68.785156,160.92578 62.191406,147.63281 29.988281,114.0625 11.539063,165.63281"
             style="fill:#fcd780;fill-opacity:1;fill-rule:nonzero;stroke:none"
             id="path15825"
             inkscape:connector-curvature="0" /><path
             d="m 62.34375,244.41797 c 0,0 112.88281,-32.05078 150.61719,-42.33203 9.83984,-2.67969 27.97656,-7.38281 39.91015,8.45703 0,0 -101.91406,94.12109 -156.77734,104.89453 -19.292969,3.78906 -33.75,-71.01953 -33.75,-71.01953"
             style="fill:#fcd780;fill-opacity:1;fill-rule:nonzero;stroke:none"
             id="path15827"
             inkscape:connector-curvature="0" /><path
             d="M 80.164063,0.00390625 C 55.277344,0.07812501 17.183594,5.3320313 16.59375,76.605469 16.476562,90.210938 19.554688,120.54688 19.554688,120.54688 H 63.859375 L 56.503906,84.238281 59.730469,68.285156 77.054688,70.90625 87.410156,52.519531 90.296875,65.320313 h 33.699215 l 1.38282,-13 1.5039,13 h 10.14063 c 0,0 16.83984,-65.54687499 -56.859377,-65.31640675"
             style="fill:#000000;fill-opacity:1;fill-rule:nonzero;stroke:none"
             id="path15829"
             inkscape:connector-curvature="0" /><path
             d="m 77.054688,70.90625 c 0,0 -6.085938,-16.226562 -20.070313,-10.75 -5.605469,2.195313 -10.632812,13.585938 -0.480469,24.082031 L 77.054688,70.90625"
             style="fill:#ff314e;fill-opacity:1;fill-rule:nonzero;stroke:none"
             id="path15831"
             inkscape:connector-curvature="0" /><path
             d="M 70.679688,74.890625 55.28125,60.9375 c -0.203125,-0.183594 -0.519531,-0.167969 -0.707031,0.03516 -0.183594,0.203125 -0.167969,0.519532 0.03516,0.707032 l 15.398438,13.953125 c 0.203125,0.183593 0.519531,0.171875 0.707031,-0.03516 0.183594,-0.203125 0.167969,-0.519531 -0.03516,-0.707031"
             style="fill:#000000;fill-opacity:1;fill-rule:nonzero;stroke:none"
             id="path15833"
             inkscape:connector-curvature="0" /></g></g></g><g
       id="g15835"><g
         id="g15837"
         clip-path="url(#clipPath15841)"><g
           id="g15843"
           transform="matrix(2.4457703,0,0,2.4438071,2389.1899,1166.2329)"><path
             d="m 398.52344,357.00391 -6.23438,69.29687 84.08594,-0.0976 23.625,-91.05469 -34.28906,30.02344 -67.1875,-8.16797"
             style="fill:#fcd780;fill-opacity:1;fill-rule:nonzero;stroke:none"
             id="path15845"
             inkscape:connector-curvature="0" /></g></g></g><g
       id="g15847"><g
         id="g15849"
         clip-path="url(#clipPath15853)"><g
           id="g15855"
           transform="matrix(2.4457703,0,0,2.4438071,2389.1899,1166.2329)"><path
             d="m 264.57422,359.1875 78.86719,-16.57812 18.32812,63.74218 38.39453,19.9375 -109.24609,0.1211 -26.34375,-67.22266"
             style="fill:#fcd780;fill-opacity:1;fill-rule:nonzero;stroke:none"
             id="path15857"
             inkscape:connector-curvature="0" /></g></g></g><g
       id="g15859"><g
         id="g15861"
         clip-path="url(#clipPath15865)"><g
           id="g15867"
           transform="matrix(2.4457703,0,0,2.4438071,2389.1899,1166.2329)"><path
             d="m 167.41797,393.97266 65.98047,-56.69922 c 0.21094,-0.17969 0.23437,-0.4961 0.0547,-0.70703 -0.17969,-0.20703 -0.4961,-0.23438 -0.70704,-0.0508 l -65.98047,56.69531 c -0.21093,0.18359 -0.23437,0.49609 -0.0547,0.70703 0.17968,0.21094 0.49609,0.23437 0.70703,0.0547"
             style="fill:#000000;fill-opacity:1;fill-rule:nonzero;stroke:none"
             id="path15869"
             inkscape:connector-curvature="0" /></g></g></g><g
       id="g15871"><g
         id="g15873"
         clip-path="url(#clipPath15877)"><g
           id="g15879"
           transform="matrix(2.4457703,0,0,2.4438071,2389.1899,1166.2329)"><path
             d="m 455.52344,426.35547 0.008,-0.0352 c 0.13281,-0.39062 1.41016,-4.03515 4.80469,-7.55468 3.39453,-3.51954 8.875,-6.92969 17.54297,-6.9336 0.74218,0 1.50781,0.0234 2.30078,0.0781 0.27344,0.0156 0.51172,-0.19141 0.53125,-0.46875 0.0195,-0.27344 -0.1875,-0.51172 -0.46485,-0.53125 -0.8125,-0.0547 -1.60156,-0.0781 -2.36718,-0.0781 -9.23047,-0.008 -15.09766,3.79297 -18.60157,7.59766 -3.50781,3.80078 -4.69531,7.58203 -4.71093,7.625 -0.082,0.26562 0.0664,0.54687 0.32812,0.6289 0.26563,0.082 0.54688,-0.0664 0.62891,-0.32812"
             style="fill:#000000;fill-opacity:1;fill-rule:nonzero;stroke:none"
             id="path15881"
             inkscape:connector-curvature="0" /></g></g></g><g
       id="g15883"><g
         id="g15885"
         clip-path="url(#clipPath15889)"><g
           id="g15891"
           transform="matrix(2.4457703,0,0,2.4438071,2389.1899,1166.2329)"><path
             d="m 483.27734,349.51953 c 0.0156,0.0469 0.53125,1.6875 2.15625,3.53906 1.61719,1.84766 4.35547,3.89454 8.73438,4.70704 0.27344,0.0469 0.53125,-0.12891 0.58203,-0.40235 0.0508,-0.26953 -0.12891,-0.53125 -0.39844,-0.58203 -4.15234,-0.77344 -6.66797,-2.67578 -8.16797,-4.38281 -0.75,-0.85156 -1.23828,-1.65625 -1.54296,-2.2461 -0.15235,-0.29296 -0.25391,-0.53125 -0.32032,-0.6914 l -0.0703,-0.1836 -0.0156,-0.0469 -0.004,-0.008 c -0.082,-0.26563 -0.36328,-0.41016 -0.625,-0.32813 -0.26172,0.082 -0.41016,0.36328 -0.32813,0.625"
             style="fill:#000000;fill-opacity:1;fill-rule:nonzero;stroke:none"
             id="path15893"
             inkscape:connector-curvature="0" /></g></g></g><g
       id="g15895"><g
         id="g15897"
         clip-path="url(#clipPath15901)"><g
           id="g15903"
           transform="matrix(2.4457703,0,0,2.4438071,2389.1899,1166.2329)"><path
             d="m 416.89453,359.25 -6.5664,66.90625 c -0.0234,0.27344 0.17578,0.51953 0.44921,0.54688 0.27735,0.0273 0.52344,-0.17579 0.54688,-0.44922 l 6.56641,-66.90625 c 0.0234,-0.27735 -0.17579,-0.51953 -0.44922,-0.54688 -0.27735,-0.0273 -0.51953,0.17188 -0.54688,0.44922"
             style="fill:#000000;fill-opacity:1;fill-rule:nonzero;stroke:none"
             id="path15905"
             inkscape:connector-curvature="0" /></g></g></g><g
       id="g15907"><g
         id="g15909"
         clip-path="url(#clipPath15913)"><g
           id="g15915"
           transform="matrix(2.4457703,0,0,2.4438071,2389.1899,1166.2329)"><path
             d="m 380.31641,415.46484 c -0.0469,0.008 -2.17188,0.19141 -4.4336,1.63282 -2.26562,1.43359 -4.63672,4.18359 -5.05078,9.12109 -0.0234,0.27344 0.17969,0.51563 0.45313,0.53906 0.27734,0.0234 0.51953,-0.17968 0.54297,-0.45703 0.40625,-4.64453 2.54687,-7.04297 4.59375,-8.35937 1.02343,-0.65625 2.02734,-1.02735 2.77343,-1.23438 0.375,-0.10156 0.67969,-0.16406 0.89063,-0.19922 0.10547,-0.0195 0.1875,-0.0312 0.24219,-0.0391 l 0.0586,-0.008 h 0.0156 c 0.27344,-0.0234 0.47657,-0.26563 0.45313,-0.54297 -0.0234,-0.27344 -0.26563,-0.47656 -0.53906,-0.45313"
             style="fill:#000000;fill-opacity:1;fill-rule:nonzero;stroke:none"
             id="path15917"
             inkscape:connector-curvature="0" /></g></g></g><g
       id="g15919"><g
         id="g15921"
         clip-path="url(#clipPath15925)"><g
           id="g15927"
           transform="matrix(2.4457703,0,0,2.4438071,2389.1899,1166.2329)"><path
             d="m 285.20703,412.17578 c 0,0 0.0547,-0.004 0.17188,-0.004 0.91406,0 5.26953,0.10937 9.8789,1.96484 4.61328,1.86328 9.45703,5.42187 11.53125,12.38672 0.082,0.26562 0.35938,0.41406 0.625,0.33594 0.26563,-0.0781 0.41407,-0.35547 0.33594,-0.6211 -2.17187,-7.30859 -7.32422,-11.10547 -12.11719,-13.02734 -4.80078,-1.92969 -9.26562,-2.03516 -10.2539,-2.03906 -0.125,0 -0.19532,0.004 -0.20313,0.004 -0.27344,0.008 -0.49219,0.23828 -0.48437,0.51563 0.008,0.27343 0.23828,0.49218 0.51562,0.48437"
             style="fill:#000000;fill-opacity:1;fill-rule:nonzero;stroke:none"
             id="path15929"
             inkscape:connector-curvature="0" /></g></g></g><g
       id="g15931"><g
         id="g15933"
         clip-path="url(#clipPath15937)"><g
           id="g15939"
           transform="matrix(2.4457703,0,0,2.4438071,2389.1899,1166.2329)"><path
             d="m 270.80078,375.3125 77.53906,-15.52344 c 0.26954,-0.0547 0.44532,-0.32031 0.39063,-0.58984 -0.0547,-0.26953 -0.31641,-0.44531 -0.58594,-0.39063 l -77.54297,15.52344 c -0.26953,0.0547 -0.44531,0.31641 -0.39062,0.58594 0.0547,0.27344 0.3164,0.44922 0.58984,0.39453"
             style="fill:#000000;fill-opacity:1;fill-rule:nonzero;stroke:none"
             id="path15941"
             inkscape:connector-curvature="0" /><path
             d="M 42.378906,9.6015625 C 42.320313,9.625 35.074219,12.765625 27.839844,22.433594 c -7.238281,9.667969 -14.441405,25.863281 -14.4375,51.914062 0,12.773438 1.726562,27.914064 6.023437,45.828124 0.06641,0.26563 0.335938,0.43359 0.605469,0.36719 0.269531,-0.0625 0.433594,-0.33203 0.371094,-0.60156 -4.285156,-17.84766 -6,-32.91016 -6,-45.593754 0,-25.871093 7.136719,-41.820312 14.238281,-51.316406 3.550781,-4.746094 7.097656,-7.878906 9.75,-9.824219 1.328125,-0.972656 2.429688,-1.648437 3.199219,-2.078125 0.382812,-0.214843 0.683594,-0.371093 0.882812,-0.46875 0.101563,-0.05078 0.179688,-0.08594 0.230469,-0.109375 l 0.07031,-0.03125 c 0.253906,-0.109375 0.371093,-0.40625 0.261718,-0.660156 -0.109375,-0.25 -0.402343,-0.3671875 -0.65625,-0.2578125"
             style="fill:#000000;fill-opacity:1;fill-rule:nonzero;stroke:none"
             id="path15943"
             inkscape:connector-curvature="0" /><path
             d="m 54.46875,83.46875 c 0,0 2.941406,9.304688 5.917969,18.61719 1.484375,4.65234 2.980469,9.30859 4.121094,12.80078 0.570312,1.74609 1.050781,3.19922 1.398437,4.22265 0.175781,0.51172 0.316406,0.91407 0.417969,1.19141 0.05469,0.14063 0.09375,0.25 0.128906,0.33594 l 0.05859,0.12109 0.05469,0.0859 0.08594,0.0859 c 0.04687,0.0352 0.128906,0.10937 0.320312,0.11719 0.277344,0 0.5,-0.22266 0.5,-0.5 0,-0.27344 -0.222656,-0.5 -0.5,-0.5 v 0.49218 l 0.316407,-0.3789 c -0.04687,-0.0312 -0.125,-0.10547 -0.316407,-0.11328 v 0.49218 l 0.316407,-0.3789 -0.285157,0.34765 0.382813,-0.23828 -0.09766,-0.10937 -0.285157,0.34765 0.382813,-0.23828 -0.148438,0.0937 0.15625,-0.0781 -0.0078,-0.0156 -0.148438,0.0937 0.15625,-0.0781 c -0.01953,-0.0312 -0.109375,-0.26563 -0.226562,-0.59375 -0.898438,-2.51954 -3.835938,-11.66407 -6.546875,-20.16016 -1.355469,-4.25 -2.65625,-8.339844 -3.617188,-11.371094 -0.480468,-1.515625 -0.875,-2.761718 -1.152343,-3.632812 -0.273438,-0.871094 -0.429688,-1.359375 -0.429688,-1.363281 -0.08203,-0.261719 -0.363281,-0.40625 -0.625,-0.324219 -0.265625,0.08203 -0.410156,0.363281 -0.328125,0.628906"
             style="fill:#000000;fill-opacity:1;fill-rule:nonzero;stroke:none"
             id="path15945"
             inkscape:connector-curvature="0" /><path
             d="M 87.308594,52.796875 72.867188,42.738281 72.292969,43.558594 86.738281,53.617188"
             style="fill:#000000;fill-opacity:1;fill-rule:nonzero;stroke:none"
             id="path15947"
             inkscape:connector-curvature="0" /><path
             d="M 82.519531,61.289063 68.183594,51.59375 67.625,52.425781 81.960938,62.117188"
             style="fill:#000000;fill-opacity:1;fill-rule:nonzero;stroke:none"
             id="path15949"
             inkscape:connector-curvature="0" /><path
             d="m 102.02734,3.621094 c 0,0 0.13672,0.023437 0.41016,0.078125 2.05078,0.4218752 11.39844,2.660156 20.19531,9.503906 8.79297,6.851563 17.0586,18.253906 17.06641,37.199219 0,4.496094 -0.46875,9.417969 -1.50781,14.808594 -0.0547,0.269531 0.125,0.53125 0.39453,0.582031 0.27343,0.05469 0.53515,-0.125 0.58593,-0.394531 1.05469,-5.445313 1.52735,-10.429688 1.52735,-14.996094 0.0117,-20.535156 -9.63281,-32.539063 -19.25391,-39.324219 -9.62109,-6.7929692 -19.20703,-8.433594 -19.25,-8.441406 -0.26953,-0.046875 -0.53125,0.132812 -0.57812,0.40625 -0.043,0.273437 0.13672,0.53125 0.41015,0.578125"
             style="fill:#000000;fill-opacity:1;fill-rule:nonzero;stroke:none"
             id="path15951"
             inkscape:connector-curvature="0" /><path
             d="m 94.027344,234.91797 -29.84375,8.45703 c -0.265625,0.0742 -0.417969,0.35156 -0.34375,0.61719 0.07422,0.26562 0.351562,0.42187 0.617187,0.34375 l 29.84375,-8.45313 c 0.265625,-0.0781 0.417969,-0.35547 0.34375,-0.61718 -0.07422,-0.26954 -0.351562,-0.42188 -0.617187,-0.34766"
             style="fill:#000000;fill-opacity:1;fill-rule:nonzero;stroke:none"
             id="path15953"
             inkscape:connector-curvature="0" /><path
             d="m 195.50781,136.45312 c 4.53125,-16.65624 11.66407,-33.33203 17.125,-34.16406 3.14063,-0.48047 4.71875,3.3125 1.72266,12.58203 0,0 4.01172,-18.37109 12.30469,-17.554684 3.32422,0.328125 2.47265,9.664064 0,18.878904 0,0 5.45703,-22.812497 12.34765,-22.285154 5.34375,0.410157 2.79688,12.269534 0,24.992184 0,0 4.67578,-15.84375 10.08985,-14.36718 4.625,1.26562 0.90234,20.59375 -2.35938,35.96875 0,0 -54.64453,8.5 -51.23047,-4.05079"
             style="fill:#ff314e;fill-opacity:1;fill-rule:nonzero;stroke:none"
             id="path15955"
             inkscape:connector-curvature="0" /><path
             d="m 215.125,109.9375 -6.375,22.10937 c -0.0781,0.26563 0.0742,0.54297 0.33984,0.6211 0.26563,0.0742 0.54297,-0.0781 0.6211,-0.34375 l 6.375,-22.10938 c 0.0781,-0.26562 -0.0742,-0.54297 -0.33985,-0.62109 -0.26562,-0.0742 -0.54296,0.0781 -0.62109,0.34375"
             style="fill:#000000;fill-opacity:1;fill-rule:nonzero;stroke:none"
             id="path15957"
             inkscape:connector-curvature="0" /><path
             d="m 227.74219,110.50781 -4.72656,21.57031 c -0.0625,0.26954 0.10937,0.53907 0.3789,0.59766 0.26953,0.0586 0.53906,-0.11328 0.59766,-0.38281 l 4.73047,-21.57031 c 0.0586,-0.26953 -0.11328,-0.53516 -0.38282,-0.59375 -0.26953,-0.0625 -0.53515,0.10937 -0.59765,0.3789"
             style="fill:#000000;fill-opacity:1;fill-rule:nonzero;stroke:none"
             id="path15959"
             inkscape:connector-curvature="0" /><path
             d="m 239.13672,116.89844 -3.65234,15.95703 c -0.0586,0.26562 0.10937,0.53515 0.375,0.59765 0.26953,0.0625 0.53906,-0.10546 0.60156,-0.375 l 3.65234,-15.95703 c 0.0625,-0.26953 -0.10547,-0.53515 -0.3789,-0.59765 -0.26563,-0.0625 -0.53516,0.10547 -0.59766,0.375"
             style="fill:#000000;fill-opacity:1;fill-rule:nonzero;stroke:none"
             id="path15961"
             inkscape:connector-curvature="0" /><path
             d="M 323.05469,55.035156 221.73438,47.351563 c -0.1875,-0.01563 -0.37891,-0.02344 -0.56641,-0.02344 -2.48828,0 -4.82813,1.242188 -6.22266,3.328125 L 160.17969,132.6875 c -0.15625,0.23047 -0.0937,0.53906 0.13672,0.69531 0.23046,0.15235 0.53906,0.0898 0.69531,-0.14062 l 54.76562,-82.031254 c 1.20704,-1.808594 3.23438,-2.882813 5.39063,-2.882813 0.16016,0 0.32422,0.0078 0.48828,0.01953 l 101.32031,7.683594 c 0.27735,0.01953 0.51563,-0.1875 0.53907,-0.460937 0.0195,-0.277344 -0.1875,-0.515625 -0.46094,-0.535157"
             style="fill:#000000;fill-opacity:1;fill-rule:nonzero;stroke:none"
             id="path15963"
             inkscape:connector-curvature="0" /><path
             d="m 247.66797,136.52344 -2.20703,9.69922 c -0.0625,0.26953 0.10547,0.53906 0.375,0.59765 0.26953,0.0625 0.53906,-0.10547 0.59765,-0.375 l 2.20704,-9.70312 c 0.0625,-0.26563 -0.10547,-0.53516 -0.375,-0.59766 -0.26954,-0.0586 -0.53907,0.10938 -0.59766,0.37891"
             style="fill:#000000;fill-opacity:1;fill-rule:nonzero;stroke:none"
             id="path15965"
             inkscape:connector-curvature="0" /><path
             d="m 211.41406,114.81641 -0.0508,-0.4961 c -0.21875,0.0234 -0.42187,0.0312 -0.60547,0.0312 -0.90234,-0.004 -1.40234,-0.23437 -1.69531,-0.53515 -0.29297,-0.30469 -0.43359,-0.74219 -0.4375,-1.29297 -0.0117,-1.13281 0.65625,-2.6211 1.26563,-3.33985 0.86328,-1.03906 1.57421,-1.32031 2.05078,-1.3164 0.30468,0 0.55078,0.10547 0.75781,0.26953 0.20312,0.16406 0.35547,0.39844 0.42187,0.61328 0.0859,0.26953 0.14063,0.67188 0.13672,1.125 0.004,0.92969 -0.20703,2.08203 -0.58203,2.97266 -0.1875,0.44531 -0.41015,0.82421 -0.64453,1.07812 -0.23437,0.25391 -0.45703,0.375 -0.66797,0.39453 l 0.0508,0.4961 0.0508,0.5 c 0.52344,-0.0547 0.96094,-0.34375 1.30079,-0.71485 0.51562,-0.5625 0.87109,-1.34375 1.11718,-2.18359 0.2461,-0.83984 0.375,-1.73828 0.375,-2.54297 0,-0.52344 -0.0547,-1.01172 -0.18359,-1.42578 -0.12891,-0.40625 -0.38281,-0.78906 -0.74219,-1.08594 -0.35937,-0.29687 -0.84375,-0.5 -1.39062,-0.49609 -0.88282,0 -1.85547,0.50781 -2.82032,1.67969 -0.75781,0.92578 -1.48046,2.49218 -1.49609,3.97656 0,0.71484 0.19141,1.4414 0.71875,1.98828 0.52734,0.54687 1.34375,0.84375 2.41406,0.83984 0.22266,0 0.45703,-0.0117 0.70703,-0.0352 l -0.0508,-0.5"
             style="fill:#000000;fill-opacity:1;fill-rule:nonzero;stroke:none"
             id="path15967"
             inkscape:connector-curvature="0" /><path
             d="m 222.51953,104.04688 0.41016,0.28125 c 0.65625,-0.97266 1.83594,-1.65626 2.70312,-1.64063 0.44532,0.004 0.79297,0.14063 1.07813,0.48437 0.28125,0.34766 0.51172,0.95704 0.51562,1.94141 v -0.004 0.0703 c 0,0.95703 -0.15234,2.34765 -0.48437,3.53125 -0.16406,0.58984 -0.375,1.1289 -0.61719,1.53125 -0.24219,0.40234 -0.50781,0.64844 -0.73828,0.73047 -0.26172,0.10156 -0.625,0.16015 -1.01563,0.16015 -0.57031,0 -1.19921,-0.11718 -1.71093,-0.32422 -0.51563,-0.20312 -0.89063,-0.5039 -1.00782,-0.7539 -0.1875,-0.36328 -0.28906,-0.83594 -0.28906,-1.38282 -0.004,-1.22656 0.51953,-2.82031 1.56641,-4.34374 l -0.41016,-0.28125 -0.41406,-0.28516 c -1.13672,1.66406 -1.73828,3.41015 -1.74219,4.91015 0,0.67188 0.1211,1.29688 0.39844,1.83594 0.30859,0.58985 0.88281,0.96485 1.52344,1.22657 0.64843,0.25781 1.38281,0.39843 2.08593,0.39843 0.48438,0 0.95313,-0.0664 1.3711,-0.22656 0.53906,-0.20703 0.92969,-0.64062 1.23828,-1.14844 0.46094,-0.77343 0.76172,-1.76562 0.96094,-2.76953 0.19531,-1.0039 0.28515,-2.01562 0.28515,-2.80859 v -0.0742 c -0.008,-1.125 -0.26172,-1.97266 -0.74218,-2.56641 -0.47657,-0.58984 -1.17188,-0.85937 -1.85157,-0.85156 -1.32812,0.0117 -2.6875,0.86719 -3.52734,2.07422 l 0.41406,0.28516"
             style="fill:#000000;fill-opacity:1;fill-rule:nonzero;stroke:none"
             id="path15969"
             inkscape:connector-curvature="0" /><path
             d="m 235.00391,101.67969 0.4414,0.23437 c 0.27344,-0.51953 0.8086,-1.08984 1.41797,-1.5039 0.60938,-0.421879 1.29297,-0.679691 1.82422,-0.675785 0.41797,0.0078 0.72266,0.128906 0.98438,0.453125 0.26171,0.32813 0.48046,0.93359 0.49218,1.92969 v 0.1289 c 0,0.82813 -0.10937,2.04297 -0.37109,3.15235 -0.25,1.10937 -0.69531,2.10547 -1.17188,2.47656 -0.36328,0.30469 -0.95312,0.48047 -1.59375,0.48047 -0.5,0 -1.02343,-0.10547 -1.47265,-0.29297 -0.44922,-0.19141 -0.82031,-0.46094 -1.03516,-0.76953 -0.14844,-0.19531 -0.25,-0.59375 -0.25,-1.10547 -0.008,-1.32813 0.63672,-3.28516 1.17578,-4.27344 l -0.4414,-0.23437 -0.44141,-0.23828 c -0.60937,1.15234 -1.28125,3.13281 -1.29297,4.74609 0.004,0.62109 0.0977,1.21094 0.4336,1.6875 0.36328,0.50391 0.88281,0.86328 1.46484,1.10938 0.57812,0.24218 1.22266,0.36718 1.85937,0.36718 0.8086,0 1.61719,-0.20312 2.23047,-0.70312 0.79688,-0.67578 1.21875,-1.82031 1.50782,-3.01953 0.28515,-1.20703 0.39843,-2.47266 0.39843,-3.38282 v -0.14453 c -0.0156,-1.125 -0.2539,-1.95312 -0.70703,-2.531247 -0.44922,-0.585938 -1.12109,-0.84375 -1.76953,-0.835938 -0.83203,0.0039 -1.66016,0.355469 -2.39062,0.851563 -0.72657,0.500002 -1.35547,1.152342 -1.73438,1.855472 l 0.44141,0.23828"
             style="fill:#000000;fill-opacity:1;fill-rule:nonzero;stroke:none"
             id="path15971"
             inkscape:connector-curvature="0" /><path
             d="M 249.58984,109.5 250,109.21484 c -0.41797,-0.60156 -1.10937,-0.98437 -1.875,-0.98046 -0.80078,-0.004 -1.64453,0.41015 -2.33203,1.26171 -0.69531,0.85547 -1.25781,2.14454 -1.57813,3.98047 -0.0352,0.20703 -0.0547,0.41016 -0.0547,0.60938 -0.004,0.78906 0.30859,1.5 0.85937,1.97265 0.55078,0.47657 1.30469,0.71485 2.16016,0.71485 0.52734,0 1.09375,-0.0898 1.69531,-0.27344 0.36719,-0.11328 0.65234,-0.36328 0.875,-0.65625 0.65625,-0.89062 0.95313,-2.3125 0.96094,-3.70312 -0.008,-1.09766 -0.1875,-2.16016 -0.71094,-2.92579 l -0.82031,0.57032 c 0.33203,0.46093 0.53906,1.38671 0.53125,2.35547 0,0.82031 -0.13281,1.67578 -0.36328,2.32031 -0.11719,0.32422 -0.25391,0.59375 -0.39453,0.77734 -0.14063,0.1875 -0.27344,0.27735 -0.3711,0.30469 -0.51953,0.16016 -0.98828,0.23047 -1.40234,0.23047 -0.67188,0 -1.17969,-0.1875 -1.50391,-0.47266 -0.32422,-0.28515 -0.51172,-0.66797 -0.51562,-1.21484 0,-0.13672 0.0156,-0.28125 0.0391,-0.4375 0.30078,-1.71875 0.82031,-2.84766 1.36719,-3.51953 0.55078,-0.67188 1.10547,-0.89453 1.55859,-0.89453 0.43359,0 0.80859,0.20703 1.05469,0.55078 L 249.58984,109.5"
             style="fill:#000000;fill-opacity:1;fill-rule:nonzero;stroke:none"
             id="path15973"
             inkscape:connector-curvature="0" /></g></g></g><g
       id="g15975"><g
         id="g15977"
         clip-path="url(#clipPath15981)"><g
           id="g15983"
           transform="matrix(2.4457703,0,0,2.4438071,2389.1899,1166.2329)"><path
             d="m 290.91797,426.41016 -33.63672,-86.57422 20.91016,86.58984 12.72656,-0.0156 z"
             style="fill:#000000;fill-opacity:1;fill-rule:nonzero;stroke:none"
             id="path15985"
             inkscape:connector-curvature="0" /></g></g></g><g
       id="g15987"><g
         id="g15989"
         clip-path="url(#clipPath15993)"><g
           id="g15995"
           transform="matrix(2.4457703,0,0,2.4438071,2389.1899,1166.2329)"><path
             d="m 251.03906,321.25 -7.85937,-19.02344 c -0.10547,-0.2539 -0.39844,-0.375 -0.65235,-0.26953 -0.25781,0.10547 -0.3789,0.39844 -0.27343,0.65235 l 7.86328,19.02343 c 0.10547,0.25391 0.39844,0.375 0.65234,0.26953 0.25391,-0.10546 0.375,-0.39843 0.26953,-0.65234"
             style="fill:#000000;fill-opacity:1;fill-rule:nonzero;stroke:none"
             id="path15997"
             inkscape:connector-curvature="0" /><path
             d="m 36.585938,129.21094 c 0.0078,0.004 7.003906,3.07031 16.511718,6.14062 9.507813,3.06641 21.515625,6.14453 31.609375,6.14453 3.152344,0 6.121094,-0.30078 8.777344,-1.0039 0.777344,-0.21094 1.761719,-0.73047 2.597656,-1.53125 0.832032,-0.80078 1.519532,-1.91016 1.523438,-3.26953 0,-0.94532 -0.339844,-1.96875 -1.121094,-3.02344 -0.164062,-0.22266 -0.476562,-0.26953 -0.699219,-0.10547 -0.222656,0.16406 -0.269531,0.47656 -0.105468,0.69922 0.679687,0.92187 0.921875,1.72656 0.925781,2.42969 0,1.0039 -0.511719,1.86718 -1.214844,2.54687 -0.699219,0.67578 -1.589844,1.13672 -2.164062,1.28516 -2.542969,0.67578 -5.429688,0.97265 -8.519532,0.97265 -9.894531,0.004 -21.847656,-3.04297 -31.300781,-6.09765 -4.730469,-1.52735 -8.835937,-3.05469 -11.761719,-4.19922 -1.460937,-0.57031 -2.625,-1.05078 -3.425781,-1.38281 -0.800781,-0.33204 -1.230469,-0.52344 -1.230469,-0.52344 -0.253906,-0.10938 -0.550781,0.004 -0.660156,0.25781 -0.109375,0.25391 0.0039,0.54688 0.257813,0.66016"
             style="fill:#000000;fill-opacity:1;fill-rule:nonzero;stroke:none"
             id="path15999"
             inkscape:connector-curvature="0" /><path
             d="m 212.96094,202.08594 c -5.9961,1.63672 -13.89063,3.8164 -22.92578,6.33594 0.004,0 22.3164,-1.72657 33.27734,27.84765 17.74219,-14.8164 29.55859,-25.72656 29.55859,-25.72656 -11.93359,-15.83984 -30.07031,-11.13672 -39.91015,-8.45703"
             style="fill:#ff314e;fill-opacity:1;fill-rule:nonzero;stroke:none"
             id="path16001"
             inkscape:connector-curvature="0" /><path
             d="m 79.378906,188.88672 c 5.753907,16.98828 10.695313,34.98437 14.304688,46.66016 0.08203,0.26171 0.355469,0.40625 0.617187,0.33593 8.179689,-2.3164 32.144529,-9.0625 54.070309,-15.22656 21.92188,-6.16797 41.80079,-11.75391 41.80079,-11.75391 0.26562,-0.0742 0.41796,-0.35156 0.34375,-0.61718 -0.0742,-0.26563 -0.35157,-0.41797 -0.61719,-0.34375 0,0 -79.50781,22.34765 -95.871096,26.97656 l 0.136719,0.48047 0.476562,-0.14453 c -3.601562,-11.65235 -8.546875,-29.66407 -14.316406,-46.6875 -0.08984,-0.26172 -0.371094,-0.40235 -0.632813,-0.3125 -0.261718,0.0859 -0.402343,0.37109 -0.3125,0.63281"
             style="fill:#000000;fill-opacity:1;fill-rule:nonzero;stroke:none"
             id="path16003"
             inkscape:connector-curvature="0" /><path
             d="M 69.949219,314.87109 C 54.515625,310.05859 42.839844,296.70313 34.375,281.25 25.90625,265.80469 20.65625,248.29297 18.003906,235.30078 c -0.05469,-0.26953 -0.320312,-0.44531 -0.589843,-0.39062 -0.269532,0.0547 -0.445313,0.32031 -0.390625,0.58984 2.671875,13.07031 7.9375,30.65625 16.472656,46.23047 8.535156,15.56641 20.34375,29.15234 36.152344,34.09766 0.265625,0.082 0.546875,-0.0664 0.628906,-0.32813 0.08203,-0.26562 -0.06641,-0.54687 -0.328125,-0.62891"
             style="fill:#000000;fill-opacity:1;fill-rule:nonzero;stroke:none"
             id="path16005"
             inkscape:connector-curvature="0" /></g></g></g><g
       id="g16007"><g
         id="g16009"
         clip-path="url(#clipPath16013)"><g
           id="g16015"
           transform="matrix(2.4457703,0,0,2.4438071,2389.1899,1166.2329)"><path
             d="m 401.14844,425.82031 -15.26172,-8.18359 c -0.24609,-0.13281 -0.54688,-0.0391 -0.67969,0.20312 -0.1289,0.24219 -0.0391,0.54688 0.20313,0.67579 l 15.26562,8.18359 c 0.24219,0.13281 0.54688,0.0391 0.67578,-0.20313 0.13282,-0.24609 0.0391,-0.54687 -0.20312,-0.67578"
             style="fill:#000000;fill-opacity:1;fill-rule:nonzero;stroke:none"
             id="path16017"
             inkscape:connector-curvature="0" /></g></g></g><g
       id="g16019"><g
         id="g16021"
         clip-path="url(#clipPath16025)"><g
           id="g16027"
           transform="matrix(2.4457703,0,0,2.4438071,2389.1899,1166.2329)"><path
             d="m 158.42969,217.16406 -25.00782,-40.41797 c -0.14843,-0.23437 -0.45312,-0.30859 -0.6914,-0.16406 -0.23438,0.14844 -0.30469,0.45313 -0.16016,0.69141 l 25.00781,40.41797 c 0.14844,0.23437 0.45313,0.30468 0.69141,0.16015 0.23438,-0.14453 0.30469,-0.45312 0.16016,-0.6875"
             style="fill:#000000;fill-opacity:1;fill-rule:nonzero;stroke:none"
             id="path16029"
             inkscape:connector-curvature="0" /><path
             d="m 176.6875,201.78125 -3.03516,10.97656 c -0.0742,0.26563 0.082,0.54297 0.35157,0.61328 0.26562,0.0742 0.53906,-0.082 0.61328,-0.34765 l 3.03515,-10.97266 c 0.0703,-0.26953 -0.0859,-0.54297 -0.35156,-0.61719 -0.26562,-0.0742 -0.53906,0.082 -0.61328,0.34766"
             style="fill:#000000;fill-opacity:1;fill-rule:nonzero;stroke:none"
             id="path16031"
             inkscape:connector-curvature="0" /><path
             d="m 186.52344,168.03906 c 0.0312,0.0117 16.57031,6.70703 34.5625,6.71094 7.39062,-0.004 15.03125,-1.13281 21.87109,-4.34766 0.25,-0.11718 0.35938,-0.41406 0.24219,-0.66406 -0.12109,-0.25 -0.41797,-0.35547 -0.66797,-0.24219 -6.66016,3.13282 -14.15625,4.25391 -21.44531,4.25391 -8.875,0 -17.42969,-1.66016 -23.76172,-3.32031 -3.16797,-0.82813 -5.77734,-1.66016 -7.59375,-2.28125 -0.91016,-0.3125 -1.61719,-0.57032 -2.10156,-0.75391 -0.48047,-0.17969 -0.73047,-0.28125 -0.73047,-0.28125 -0.25781,-0.10156 -0.54688,0.0234 -0.65235,0.27734 -0.10156,0.25782 0.0195,0.54688 0.27735,0.65235"
             style="fill:#000000;fill-opacity:1;fill-rule:nonzero;stroke:none"
             id="path16033"
             inkscape:connector-curvature="0" /><path
             d="m 177.10938,212.51172 c 0,0 0.0898,0.008 0.27734,0.0391 1.40625,0.21485 7.94141,1.41797 15.28906,5.96875 7.34766,4.55469 15.51563,12.4375 20.25,26.07813 0.0898,0.26172 0.375,0.39843 0.63672,0.30859 0.25781,-0.0898 0.39844,-0.375 0.30859,-0.63281 -5.13281,-14.79688 -14.29296,-23.00781 -22.15625,-27.48828 -7.87109,-4.48438 -14.44531,-5.26172 -14.48828,-5.26953 -0.27343,-0.0312 -0.52343,0.16406 -0.55468,0.4375 -0.0312,0.27734 0.16406,0.52343 0.4375,0.55859"
             style="fill:#000000;fill-opacity:1;fill-rule:nonzero;stroke:none"
             id="path16035"
             inkscape:connector-curvature="0" /></g></g></g></g></svg>