<?xml version="1.0" encoding="UTF-8" standalone="no"?>
<!-- Created with Inkscape (http://www.inkscape.org/) -->

<svg
   xmlns:dc="http://purl.org/dc/elements/1.1/"
   xmlns:cc="http://creativecommons.org/ns#"
   xmlns:rdf="http://www.w3.org/1999/02/22-rdf-syntax-ns#"
   xmlns:svg="http://www.w3.org/2000/svg"
   xmlns="http://www.w3.org/2000/svg"
   xmlns:sodipodi="http://sodipodi.sourceforge.net/DTD/sodipodi-0.dtd"
   xmlns:inkscape="http://www.inkscape.org/namespaces/inkscape"
   version="1.1"
   id="svg15471"
   xml:space="preserve"
   width="483.94781"
   height="279.87161"
   viewBox="0 0 483.94781 279.87161"
   sodipodi:docname="digital-services-illustration5.svg"
   inkscape:version="0.92.5 (2060ec1f9f, 2020-04-08)"><metadata
     id="metadata15477"><rdf:RDF><cc:Work
         rdf:about=""><dc:format>image/svg+xml</dc:format><dc:type
           rdf:resource="http://purl.org/dc/dcmitype/StillImage" /><dc:title></dc:title></cc:Work></rdf:RDF></metadata><defs
     id="defs15475"><clipPath
       clipPathUnits="userSpaceOnUse"
       id="clipPath15487"><path
         d="M 0,0 H 6000 V 3406.25 H 0 Z"
         id="path15485"
         inkscape:connector-curvature="0"
         style="clip-rule:evenodd" /></clipPath><clipPath
       clipPathUnits="userSpaceOnUse"
       id="clipPath15501"><path
         d="M 0,0 H 6000 V 3375 H 0 Z"
         id="path15499"
         inkscape:connector-curvature="0"
         style="clip-rule:evenodd" /></clipPath><clipPath
       clipPathUnits="userSpaceOnUse"
       id="clipPath15513"><path
         d="m 2239.627,1243.7186 h 1520.7031 v 887.5002 H 2239.627 Z"
         id="path15511"
         inkscape:connector-curvature="0"
         style="clip-rule:evenodd" /></clipPath><clipPath
       clipPathUnits="userSpaceOnUse"
       id="clipPath15549"><path
         d="m 2241.6138,1685.9562 h 159.1147 v 423.4833 h -159.1147 z"
         id="path15547"
         inkscape:connector-curvature="0"
         style="clip-rule:evenodd" /></clipPath><clipPath
       clipPathUnits="userSpaceOnUse"
       id="clipPath15561"><path
         d="m 2239.627,1243.7186 h 1520.7031 v 887.5002 H 2239.627 Z"
         id="path15559"
         inkscape:connector-curvature="0"
         style="clip-rule:evenodd" /></clipPath><clipPath
       clipPathUnits="userSpaceOnUse"
       id="clipPath15573"><path
         d="m 2337.1533,1988.4443 h 399.6143 v 142.5947 h -399.6143 z"
         id="path15571"
         inkscape:connector-curvature="0"
         style="clip-rule:evenodd" /></clipPath><clipPath
       clipPathUnits="userSpaceOnUse"
       id="clipPath15585"><path
         d="m 2239.627,1243.7186 h 1520.7031 v 887.5002 H 2239.627 Z"
         id="path15583"
         inkscape:connector-curvature="0"
         style="clip-rule:evenodd" /></clipPath></defs><sodipodi:namedview
     pagecolor="#ffffff"
     bordercolor="#666666"
     borderopacity="1"
     objecttolerance="10"
     gridtolerance="10"
     guidetolerance="10"
     inkscape:pageopacity="0"
     inkscape:pageshadow="2"
     inkscape:window-width="1366"
     inkscape:window-height="705"
     id="namedview15473"
     showgrid="false"
     inkscape:zoom="0.21851852"
     inkscape:cx="242.67986"
     inkscape:cy="141.93249"
     inkscape:window-x="-8"
     inkscape:window-y="-8"
     inkscape:window-maximized="1"
     inkscape:current-layer="g15479" /><g
     id="g15479"
     inkscape:groupmode="layer"
     inkscape:label="Panx Services Catalogue (4)"
     transform="matrix(0.31999998,0,0,0.31999998,-717.32014,-402.06083)"><g
       id="g15507"><g
         id="g15509"
         clip-path="url(#clipPath15513)"><g
           id="g15515"
           transform="matrix(-3.0273783,0,0,3.0248809,3753.9666,1256.4231)"><path
             d="m 105.46094,21.089844 0.0742,0.113281 c 0.76172,1.203125 6.99218,11.546875 6.98828,25.378906 0,7.667969 -1.90235,16.40625 -7.70313,25.3125 l 0.83594,0.546875 c 5.91406,-9.074218 7.87109,-18.027343 7.86719,-25.859375 -0.004,-15.078125 -7.19922,-26 -7.22656,-26.042968 l -0.83204,0.550781"
             style="fill:#000000;fill-opacity:1;fill-rule:nonzero;stroke:none"
             id="path15517"
             inkscape:connector-curvature="0" /><path
             d="m 109.97656,28.222656 c 6.90625,17.921875 -1.20312,34.128907 -3.79687,38.585938 C 101.52344,74.804688 89.898438,43.636719 92.582031,32.386719 95.242188,21.246094 108.32422,23.9375 109.97656,28.222656"
             style="fill:#000000;fill-opacity:1;fill-rule:nonzero;stroke:none"
             id="path15519"
             inkscape:connector-curvature="0" /><path
             d="M 21.113281,63.675781 40.769531,127.52344 87.132813,116.24609 79.789063,92.355469 21.113281,63.675781"
             style="fill:#fcd780;fill-opacity:1;fill-rule:nonzero;stroke:none"
             id="path15521"
             inkscape:connector-curvature="0" /><path
             d="m 63.203125,14.148438 c 18.492188,-3.882813 40.722655,6.695312 42.000005,37.515625 0.34765,8.328125 1.23046,24.984375 1.14843,33.320312 -0.12109,12.15625 -3.01953,27.105465 -32.492185,28.988285 L 31.027344,76.023438 c 0,0 -5.746094,-53.914063 32.175781,-61.875"
             style="fill:#fcd780;fill-opacity:1;fill-rule:nonzero;stroke:none"
             id="path15523"
             inkscape:connector-curvature="0" /><path
             d="m 83.1875,69.683594 0.800781,15.453125 1,-0.05078 -0.804687,-15.453125"
             style="fill:#000000;fill-opacity:1;fill-rule:nonzero;stroke:none"
             id="path15525"
             inkscape:connector-curvature="0" /><path
             d="m 65.875,74.066406 c -0.03516,1.707032 0.867188,3.183594 2.019531,3.300782 1.148438,0.121093 2.117188,-1.167969 2.152344,-2.875 0.03906,-1.703125 -0.863281,-3.183594 -2.015625,-3.300782 -1.152344,-0.121093 -2.117187,1.167969 -2.15625,2.875"
             style="fill:#000000;fill-opacity:1;fill-rule:nonzero;stroke:none"
             id="path15527"
             inkscape:connector-curvature="0" /><path
             d="m 88.359375,73.261719 c -0.03516,1.707031 0.867188,3.183594 2.019531,3.304687 1.152344,0.117188 2.117188,-1.171875 2.152344,-2.875 0.03906,-1.707031 -0.863281,-3.1875 -2.015625,-3.304687 -1.152344,-0.117188 -2.117187,1.167969 -2.15625,2.875"
             style="fill:#000000;fill-opacity:1;fill-rule:nonzero;stroke:none"
             id="path15529"
             inkscape:connector-curvature="0" /><path
             d="m 70.792969,91.4375 c 0.0078,0.04297 0.152344,1.117188 0.90625,2.230469 0.375,0.554687 0.90625,1.117187 1.648437,1.539062 0.742188,0.425782 1.683594,0.699219 2.851563,0.695313 0.730469,0 1.550781,-0.105469 2.472656,-0.34375 l -0.253906,-0.96875 c -0.851563,0.222656 -1.585938,0.3125 -2.21875,0.3125 -1.011719,0 -1.769531,-0.230469 -2.355469,-0.5625 -0.878906,-0.5 -1.394531,-1.257813 -1.695312,-1.902344 C 72,92.113281 71.90625,91.820313 71.851563,91.613281 c -0.02734,-0.101562 -0.04687,-0.1875 -0.05469,-0.242187 l -0.01172,-0.05859 -0.0039,-0.01172 -0.988281,0.136719"
             style="fill:#000000;fill-opacity:1;fill-rule:nonzero;stroke:none"
             id="path15531"
             inkscape:connector-curvature="0" /><path
             d="m 178.07813,279.32422 48.52734,-121.28516 c 0,0 -71.10547,-30.65234 -87.42969,-37.51172 -16.375,-6.88281 -31.84375,-12.10156 -52.601561,-6.88281 l -53.035156,16.59766 c 0.523437,-0.043 -14.292969,100.30859 20.105468,129.18359 31.886719,26.76953 124.433599,19.89844 124.433599,19.89844"
             style="fill:#ff314e;fill-opacity:1;fill-rule:nonzero;stroke:none"
             id="path15533"
             inkscape:connector-curvature="0" /><path
             d="m 184.07813,119.74609 c 0,0 -3.21094,-3.70703 3.42187,-10.46093 4.41406,-4.49219 34.90625,-23.648441 34.90625,-23.648441 0,0 -23.375,37.363281 -30.40234,37.183591 -7.03125,-0.17968 -7.92578,-3.07422 -7.92578,-3.07422"
             style="fill:#000000;fill-opacity:1;fill-rule:nonzero;stroke:none"
             id="path15535"
             inkscape:connector-curvature="0" /><path
             d="m 213.85938,66.945313 c 0,0 28.97656,61.542967 35.72265,83.542967 10.21094,33.30469 -29.01562,35.50781 -40.33594,17.08594 -11.32031,-18.42188 -34.05078,-98.601564 -34.05078,-98.601564 l 38.66407,-2.027343"
             style="fill:#fcd780;fill-opacity:1;fill-rule:nonzero;stroke:none"
             id="path15537"
             inkscape:connector-curvature="0" /><path
             d="m 222.40625,85.636719 c 0,0 -19.55078,34.496091 -38.32812,34.109371 l 22.45312,60.38282 c 0,0 15.21094,3.40234 28.84375,-1.01563 13.63281,-4.41797 18.54688,-12.00781 16.64453,-23.35937 -1.90234,-11.35547 -29.61328,-70.117191 -29.61328,-70.117191"
             style="fill:#ff314e;fill-opacity:1;fill-rule:nonzero;stroke:none"
             id="path15539"
             inkscape:connector-curvature="0" /><path
             d="m 219.46875,160.76562 15.66016,10.16797 c 0,0 74.26562,-50.08593 88.53515,-59.36328 15.77735,-10.26172 33.12891,-16.996091 48.03907,-11.624997 22.65625,8.164057 24.79687,23.441407 27.50781,31.769527 2.71094,8.33203 8.32812,61.01954 8.32812,61.01954 l 48.04297,0.96875 -7.9414,85.62109 H 139.17578 l 80.29297,-118.5586"
             style="fill:#2e99b0;fill-opacity:1;fill-rule:nonzero;stroke:none"
             id="path15541"
             inkscape:connector-curvature="0" /></g></g></g><g
       id="g15543"><g
         id="g15545"
         clip-path="url(#clipPath15549)"><g
           id="g15551"
           transform="matrix(-3.0273783,0,0,3.0248809,3753.9666,1256.4231)"><path
             d="m 455.58203,193.70313 c 0,0 13.36719,0.1289 18.66016,-21.69532 5.29687,-21.82422 9.03906,-29.70312 25.3125,-29.70312 l -13.02344,138.69922 -38.89062,-1.67969 7.9414,-85.62109"
             style="fill:#ff314e;fill-opacity:1;fill-rule:nonzero;stroke:none"
             id="path15553"
             inkscape:connector-curvature="0" /></g></g></g><g
       id="g15555"><g
         id="g15557"
         clip-path="url(#clipPath15561)"><g
           id="g15563"
           transform="matrix(-3.0273783,0,0,3.0248809,3753.9666,1256.4231)"><path
             d="m 164.61719,234.64844 c 0,0 20.17187,-0.0156 29.38672,-0.0195 10.83593,0 14.27343,6.29297 14.27343,6.29297 0,0 11.88672,-0.94922 14.90625,3.61328 2.55469,3.86718 0.20313,8.48828 0.20313,8.48828 0,0 1.96094,4.66015 -1.87891,9.92969 0,0 3.52344,6.78515 -0.80859,10.4414 0,0 3.67578,11.35156 -13.61328,11.57031 -15.98438,0.20313 -58.51953,0.29297 -58.51953,0.29297 l 16.05078,-50.60937"
             style="fill:#fcd780;fill-opacity:1;fill-rule:nonzero;stroke:none"
             id="path15565"
             inkscape:connector-curvature="0" /></g></g></g><g
       id="g15567"><g
         id="g15569"
         clip-path="url(#clipPath15573)"><g
           id="g15575"
           transform="matrix(-3.0273783,0,0,3.0248809,3753.9666,1256.4231)"><path
             d="m 336.83594,259.17969 3.875,29.96094 126.30078,-4.64844 c 0,0 -0.77344,-16.27344 -21.95313,-18.59766 -21.17968,-2.32422 -26.08984,-2.32422 -31.125,-23.76172 l -77.09765,17.04688"
             style="fill:#ff314e;fill-opacity:1;fill-rule:nonzero;stroke:none"
             id="path15577"
             inkscape:connector-curvature="0" /></g></g></g><g
       id="g15579"><g
         id="g15581"
         clip-path="url(#clipPath15585)"><g
           id="g15587"
           transform="matrix(-3.0273783,0,0,3.0248809,3753.9666,1256.4231)"><path
             d="m 131.35547,62.757813 -4.21875,42.179687 c -0.57813,5.79297 4.78125,10.40234 10.42187,8.95703 l 54.9336,-14.05078 c 3.45703,-0.882812 5.97656,-3.859375 6.27734,-7.410156 l 3.33985,-39.0625 c 0.48046,-5.574219 -4.53125,-10.042969 -10.01563,-8.933594 l -54.05859,10.933594 c -3.60547,0.730469 -6.3125,3.726562 -6.67969,7.386719"
             style="fill:#ff314e;fill-opacity:1;fill-rule:nonzero;stroke:none"
             id="path15589"
             inkscape:connector-curvature="0" /><path
             d="m 206.33203,52.96875 c -2.91797,-3.980469 -8.86719,-11.320312 -15.32812,-12.4375 -5.10547,-0.882812 -23.125,-0.175781 -24.52735,4.03125 -1.40234,4.203125 6.21875,4.378906 10.77344,4.289063 4.55469,-0.08594 11.21484,0.363281 11.21484,0.363281 0,0 -23.84765,11.820312 -21.28906,16.894531 1.48047,2.929688 9.54688,0.589844 14.45313,-1.402344 4.91015,-1.992187 7.79687,-3.679687 7.79687,-3.679687 0,0 -16.11719,12.085937 -15.5039,15.152344 0.61328,3.066406 4.55468,4.292968 9.63671,1.578125 5.07813,-2.714844 10.16016,-5.253907 10.16016,-5.253907 0,0 -16.41406,9.285157 -13.66406,13.226563 3,4.296875 15.24219,-1.226563 15.24219,-1.226563 0,0 6.19531,14.394532 14.71484,10.773438 8.44922,-3.59375 9.95703,-14.109375 5.35937,-24.863281 -3.30078,-7.722657 -6.13671,-13.484375 -9.03906,-17.445313"
             style="fill:#fcd780;fill-opacity:1;fill-rule:nonzero;stroke:none"
             id="path15591"
             inkscape:connector-curvature="0" /><path
             d="m 149.92969,82.210938 -0.48828,-0.105469 c -0.125,0.5625 -0.1836,1.105469 -0.1836,1.617187 0.004,0.9375 0.19531,1.765625 0.59375,2.398438 0.39063,0.636719 1.05469,1.074219 1.82813,1.070312 0.98437,-0.01172 1.875,-0.621093 2.60156,-1.496093 0.73047,-0.878907 1.30859,-2.0625 1.59766,-3.378907 0.125,-0.5625 0.18359,-1.105468 0.18359,-1.621093 -0.004,-0.933594 -0.19531,-1.761719 -0.59375,-2.398438 -0.39453,-0.632812 -1.05469,-1.074219 -1.82813,-1.066406 -0.98437,0.0078 -1.875,0.621094 -2.60156,1.492187 -0.73047,0.882813 -1.30859,2.066407 -1.59765,3.382813 l 0.97656,0.210937 c 0.2539,-1.160156 0.77734,-2.214843 1.39062,-2.953125 0.61328,-0.75 1.3086,-1.140625 1.83203,-1.132812 0.41016,0.0078 0.70704,0.1875 0.98047,0.601562 0.26563,0.414063 0.44141,1.070313 0.44141,1.863282 0,0.4375 -0.0508,0.910156 -0.16016,1.410156 -0.2539,1.160156 -0.77343,2.214844 -1.39062,2.953125 -0.61328,0.75 -1.3086,1.140625 -1.83203,1.132812 -0.40625,-0.0078 -0.70703,-0.1875 -0.98047,-0.601562 -0.26563,-0.414063 -0.44141,-1.070313 -0.44141,-1.867188 0,-0.433593 0.0508,-0.90625 0.16016,-1.40625 z m -12.11719,29.378902 -0.0273,-0.0195 c -0.14844,-0.125 -0.86719,-0.75 -1.53516,-1.64062 -0.67188,-0.89063 -1.26953,-2.04297 -1.26563,-3.1836 0,-0.23046 0.043,-0.90625 0.125,-1.8789 0.57422,-6.847659 2.9375,-29.019534 4.01954,-39.08594 0.30078,-2.796875 2.3789,-5.066406 5.13671,-5.613281 l 33.93751,-6.738281 -0.19532,-0.980469 -33.9375,6.738281 c -3.18359,0.632813 -5.58984,3.253906 -5.9375,6.488281 -0.61719,5.75 -1.65234,15.457032 -2.53515,24 -0.44141,4.269532 -0.84375,8.25 -1.13672,11.304689 -0.14844,1.52344 -0.26563,2.82031 -0.34766,3.80078 -0.082,0.98828 -0.12891,1.64844 -0.12891,1.96484 0.004,1.58594 0.82813,2.97266 1.61329,3.97657 0.78906,1.0039 1.5664,1.6289 1.58593,1.64453 l 0.62891,-0.77735"
             style="fill:#000000;fill-opacity:1;fill-rule:nonzero;stroke:none"
             id="path15593"
             inkscape:connector-curvature="0" /><path
             d="m 34.246094,136.16016 -2.515625,-20.22657 c 0,0 7.117187,-4.52343 15.726562,-3.375 8.609375,1.14844 20.113282,6.77344 20.113282,6.77344 l -33.324219,16.82813"
             style="fill:#ff314e;fill-opacity:1;fill-rule:nonzero;stroke:none"
             id="path15595"
             inkscape:connector-curvature="0" /><path
             d="M 44.367188,126.79688 86.714844,114.125 86.429688,113.16406 44.082031,125.83984"
             style="fill:#000000;fill-opacity:1;fill-rule:nonzero;stroke:none"
             id="path15597"
             inkscape:connector-curvature="0" /><path
             d="m 313.1875,177.66406 c 0.008,0.0312 0.625,2.98047 2.55469,6.39844 1.92187,3.41406 5.17969,7.31641 10.45312,9.14453 l 0.32813,-0.94531 c -4.96875,-1.71875 -8.05469,-5.40234 -9.91016,-8.69141 -0.92578,-1.64062 -1.54297,-3.17578 -1.92187,-4.29687 -0.19141,-0.5625 -0.32422,-1.01953 -0.40625,-1.33594 -0.043,-0.15625 -0.0742,-0.27734 -0.0937,-0.35937 l -0.0274,-0.1211 -0.97656,0.20703"
             style="fill:#000000;fill-opacity:1;fill-rule:nonzero;stroke:none"
             id="path15599"
             inkscape:connector-curvature="0" /><path
             d="m 235.12891,199.24219 h 92.625 v -1 h -92.625 z"
             style="fill:#000000;fill-opacity:1;fill-rule:nonzero;stroke:none"
             id="path15601"
             inkscape:connector-curvature="0" /><path
             d="m 414.42969,242.06641 -6.39453,-49.39453 -0.98828,0.1289 6.39062,49.39453"
             style="fill:#000000;fill-opacity:1;fill-rule:nonzero;stroke:none"
             id="path15603"
             inkscape:connector-curvature="0" /><path
             d="m 324.05078,165.63672 v 113.6875 h 15.39063 z"
             style="fill:#000000;fill-opacity:1;fill-rule:nonzero;stroke:none"
             id="path15605"
             inkscape:connector-curvature="0" /><path
             d="m 192.65625,143.95703 42.19922,27.39453 0.54687,-0.83984 -42.20312,-27.39453"
             style="fill:#000000;fill-opacity:1;fill-rule:nonzero;stroke:none"
             id="path15607"
             inkscape:connector-curvature="0" /><path
             d="m 226.95703,96.234375 c 0,0 -0.043,0.109375 -0.13281,0.324219 -0.67188,1.609375 -3.92969,8.984376 -10.17578,16.640626 -6.25391,7.65625 -15.48047,15.58203 -28.09375,18.3789 l 0.21484,0.97657 c 13.77735,-3.05469 23.55078,-12.0625 29.87891,-20.27344 6.32812,-8.21484 9.22656,-15.65625 9.23828,-15.683594 l -0.92969,-0.363281"
             style="fill:#000000;fill-opacity:1;fill-rule:nonzero;stroke:none"
             id="path15609"
             inkscape:connector-curvature="0" /><path
             d="m 400.78906,245.03906 c 0.004,0.0156 0.81641,3.61328 2.46875,7.9375 1.66016,4.32813 4.14063,9.38672 7.59766,12.35157 3.46875,2.95703 8.96094,4.5625 13.59766,5.47656 4.64062,0.91015 8.42578,1.09765 8.4375,1.09765 l 0.0508,-0.99609 c 0,0 -0.22657,-0.0117 -0.64844,-0.043 -1.46875,-0.10937 -5.26172,-0.46484 -9.39063,-1.41015 -4.1289,-0.9375 -8.59765,-2.48438 -11.39843,-4.88672 -3.21875,-2.73828 -5.6875,-7.6875 -7.3125,-11.94532 -0.8125,-2.1289 -1.41797,-4.08203 -1.82422,-5.5039 -0.20313,-0.70703 -0.35156,-1.28516 -0.45313,-1.6836 -0.0976,-0.39843 -0.14843,-0.61328 -0.14843,-0.61328 l -0.97657,0.21875"
             style="fill:#000000;fill-opacity:1;fill-rule:nonzero;stroke:none"
             id="path15611"
             inkscape:connector-curvature="0" /><path
             d="m 448.82422,266.99219 c 0,0 0.043,0.004 0.14453,0.008 0.74609,0.0312 4.25391,0.29297 7.86719,2.0625 3.61328,1.77344 7.32031,5 8.64453,11.07813 l 0.49219,-0.10547 -0.0156,-0.5 -125.96875,3.6289 0.0274,1 126.57031,-3.64453 -0.125,-0.58984 c -1.48047,-6.83985 -5.92578,-10.36719 -9.94531,-12.11719 -4.02344,-1.76172 -7.63672,-1.81641 -7.67579,-1.81641 l -0.0156,1"
             style="fill:#000000;fill-opacity:1;fill-rule:nonzero;stroke:none"
             id="path15613"
             inkscape:connector-curvature="0" /><path
             d="m 438.35156,264.77734 c -0.0234,0.0195 -2.20312,1.625 -4.53125,4.44141 -2.33203,2.8125 -4.82422,6.84766 -5.41797,11.72656 l 0.99219,0.1211 c 0.5586,-4.60547 2.9375,-8.48828 5.19531,-11.21094 1.125,-1.36328 2.21875,-2.43359 3.03125,-3.16406 0.40235,-0.36719 0.73829,-0.64453 0.96875,-0.83203 0.11329,-0.0937 0.20704,-0.16407 0.26563,-0.20704 l 0.0859,-0.0703 -0.58985,-0.80469"
             style="fill:#000000;fill-opacity:1;fill-rule:nonzero;stroke:none"
             id="path15615"
             inkscape:connector-curvature="0" /><path
             d="m 370.73047,251.68359 c 0.17969,0.80469 0.27344,1.64063 0.27344,2.50391 0,3.19141 -1.29297,6.07422 -3.38672,8.16797 -2.08985,2.08984 -4.97656,3.38281 -8.16797,3.38281 -5.52344,0 -10.14453,-3.88281 -11.28516,-9.0625 l -0.97656,0.21485 c 1.23828,5.63281 6.25781,9.84765 12.26172,9.84765 6.93359,0 12.55469,-5.62109 12.55469,-12.55078 0,-0.93359 -0.10157,-1.84375 -0.29688,-2.71875 l -0.97656,0.21484"
             style="fill:#000000;fill-opacity:1;fill-rule:nonzero;stroke:none"
             id="path15617"
             inkscape:connector-curvature="0" /><path
             d="m 454.96484,201.14453 c 0.0234,0 2.55079,-0.13281 5.92188,-1 3.37109,-0.86719 7.59375,-2.46094 10.98828,-5.42578 3.42578,-3.00781 5.80859,-8.20703 7.38672,-12.66406 1.56641,-4.46094 2.30078,-8.17578 2.30469,-8.19141 l -0.98047,-0.19531 c 0,0 -0.0469,0.22266 -0.13672,0.63672 -0.32031,1.4375 -1.21875,5.13672 -2.75,9.08984 -1.52344,3.94922 -3.70313,8.14844 -6.48438,10.57422 -3.21093,2.80859 -7.29296,4.36719 -10.57421,5.20703 -1.64063,0.42188 -3.07813,0.66406 -4.10157,0.80078 -0.51172,0.0703 -0.92187,0.11328 -1.20312,0.13672 -0.14063,0.0117 -0.2461,0.0195 -0.31641,0.0273 l -0.10937,0.004 0.0547,1"
             style="fill:#000000;fill-opacity:1;fill-rule:nonzero;stroke:none"
             id="path15619"
             inkscape:connector-curvature="0" /><path
             d="m 493.89453,142.24609 -15.71875,138.22657 0.99219,0.11328 15.71875,-138.22657"
             style="fill:#000000;fill-opacity:1;fill-rule:nonzero;stroke:none"
             id="path15621"
             inkscape:connector-curvature="0" /><path
             d="m 475.30469,167.43359 c 0.0117,0.0234 1.28515,2.41016 3.73437,5.125 2.44922,2.71094 6.07813,5.75782 10.82422,7.05079 l 0.26172,-0.96485 c -4.47656,-1.21484 -7.97266,-4.1289 -10.34375,-6.75781 -1.18359,-1.3125 -2.08594,-2.55078 -2.69141,-3.45703 -0.30078,-0.45313 -0.53125,-0.82422 -0.67968,-1.07813 -0.0781,-0.1289 -0.13282,-0.22656 -0.17188,-0.29297 l -0.0547,-0.0977 -0.8789,0.47265"
             style="fill:#000000;fill-opacity:1;fill-rule:nonzero;stroke:none"
             id="path15623"
             inkscape:connector-curvature="0" /><path
             d="m 451.92188,232.44922 c 0.82031,0.0742 1.64453,0.23828 2.46484,0.49609 4.92187,1.5625 8.0625,6.11328 8.0625,11.01172 0,1.15625 -0.17578,2.33203 -0.54688,3.4961 -1.55859,4.92187 -6.10937,8.0625 -11.00781,8.0625 -0.34765,0 -0.69531,-0.0156 -1.04687,-0.0469 l -0.0859,0.99609 c 0.37891,0.0312 0.75391,0.0508 1.13281,0.0508 5.32422,0 10.26563,-3.41407 11.96485,-8.75782 0.39843,-1.26172 0.58984,-2.54297 0.58984,-3.80078 0,-5.32422 -3.41406,-10.26562 -8.76172,-11.96484 -0.88672,-0.28125 -1.78516,-0.45703 -2.67578,-0.53906 l -0.0898,0.99609"
             style="fill:#000000;fill-opacity:1;fill-rule:nonzero;stroke:none"
             id="path15625"
             inkscape:connector-curvature="0" /><path
             d="m 185.34766,77.945313 c 0,0 0.20312,-0.125 0.57031,-0.347657 1.28906,-0.777343 4.57812,-2.730468 8.00781,-4.527343 1.71094,-0.898438 3.46094,-1.761719 5.00391,-2.417969 1.53906,-0.65625 2.89062,-1.101563 3.72656,-1.179688 l -0.0977,-0.996093 c -1.19531,0.125 -2.83984,0.726562 -4.71093,1.558593 -5.58203,2.484375 -13.01563,7.050782 -13.02344,7.058594 l 0.52344,0.851563"
             style="fill:#000000;fill-opacity:1;fill-rule:nonzero;stroke:none"
             id="path15627"
             inkscape:connector-curvature="0" /><path
             d="m 182.55469,65.761719 c 0,0 0.1914,-0.113281 0.53906,-0.316406 1.21094,-0.703125 4.30859,-2.480469 7.56641,-4.121094 1.625,-0.820313 3.29297,-1.609375 4.77734,-2.210938 1.48047,-0.601562 2.79297,-1.015625 3.63672,-1.097656 l -0.0977,-0.992187 c -1.1875,0.121093 -2.78125,0.679687 -4.57812,1.4375 -5.35938,2.28125 -12.34375,6.4375 -12.35547,6.441406 l 0.51172,0.859375"
             style="fill:#000000;fill-opacity:1;fill-rule:nonzero;stroke:none"
             id="path15629"
             inkscape:connector-curvature="0" /><path
             d="m 185.84375,50.191406 c 0,0 0.0469,-0.01172 0.14063,-0.03516 0.64843,-0.164062 3.49609,-0.824219 6.33984,-0.820312 0.92969,0 1.85547,0.06641 2.69531,0.242187 l 0.20313,-0.980469 c -0.9336,-0.191406 -1.91797,-0.261718 -2.89844,-0.261718 -3.41797,0 -6.71484,0.886718 -6.73828,0.890625 l 0.25781,0.96875"
             style="fill:#000000;fill-opacity:1;fill-rule:nonzero;stroke:none"
             id="path15631"
             inkscape:connector-curvature="0" /><path
             d="m 168.30469,62.464844 c 0.0469,0.05078 1.1914,1.195312 3.28125,1.199219 0.1289,0 0.25781,-0.0039 0.39062,-0.01172 1.14453,-0.08203 2.15625,-0.4375 2.90625,-0.980469 0.7461,-0.542969 1.26172,-1.308594 1.26172,-2.179687 0.004,-0.546875 -0.21094,-1.105469 -0.62109,-1.59375 -0.41406,-0.496094 -1.01563,-0.933594 -1.82813,-1.320313 l -0.42578,0.902344 c 0.71485,0.339844 1.19531,0.710937 1.48438,1.054687 0.28906,0.351563 0.39062,0.664063 0.39062,0.957032 0.004,0.453125 -0.27344,0.949218 -0.84765,1.367187 -0.57032,0.417969 -1.41016,0.730469 -2.38672,0.792969 -0.10938,0.0078 -0.21875,0.01172 -0.32422,0.01172 -0.85547,0 -1.5,-0.234375 -1.9375,-0.464844 -0.21875,-0.117188 -0.38281,-0.230469 -0.49219,-0.3125 l -0.11328,-0.09766 -0.0234,-0.02344 h -0.004 l -0.71094,0.699219"
             style="fill:#000000;fill-opacity:1;fill-rule:nonzero;stroke:none"
             id="path15633"
             inkscape:connector-curvature="0" /><path
             d="m 180.48438,82.308594 c 0.043,0.02344 1.78906,1.378906 4.11328,1.390625 1.08593,-0.0039 2.125,-0.386719 2.91797,-1.007813 0.78515,-0.621093 1.34765,-1.503906 1.35156,-2.511718 0,-0.632813 -0.23438,-1.289063 -0.71875,-1.882813 -0.48828,-0.59375 -1.21485,-1.136719 -2.21875,-1.613281 L 185.5,77.589844 c 0.91016,0.425781 1.51172,0.894531 1.87109,1.339844 0.36329,0.445312 0.4961,0.859375 0.4961,1.25 0.004,0.613281 -0.35547,1.242187 -0.97266,1.726562 -0.60937,0.480469 -1.45312,0.792969 -2.29687,0.792969 -0.95703,0 -1.84375,-0.296875 -2.48828,-0.597656 -0.32032,-0.152344 -0.58204,-0.300782 -0.75782,-0.414063 l -0.19922,-0.132812 -0.0508,-0.03516 -0.0117,-0.0078 -0.60546,0.796875"
             style="fill:#000000;fill-opacity:1;fill-rule:nonzero;stroke:none"
             id="path15635"
             inkscape:connector-curvature="0" /><path
             d="m 168.70313,42.738281 c 1.16015,1.839844 2.98828,2.679688 4.55468,2.679688 0.76953,0 1.48828,-0.199219 2.04297,-0.621094 0.5586,-0.414062 0.92188,-1.082031 0.91797,-1.859375 0,-0.648437 -0.23047,-1.351562 -0.70312,-2.101562 l -0.84766,0.527343 c 0.40234,0.640625 0.55078,1.171875 0.55078,1.574219 -0.008,0.480469 -0.19141,0.804688 -0.52344,1.066406 -0.33203,0.253907 -0.84375,0.414063 -1.4375,0.414063 -1.21875,0 -2.73437,-0.664063 -3.70703,-2.210938 l -0.84765,0.53125"
             style="fill:#000000;fill-opacity:1;fill-rule:nonzero;stroke:none"
             id="path15637"
             inkscape:connector-curvature="0" /><path
             d="m 174.85156,73.917969 c 1.01563,0.972656 2.20703,1.382812 3.32813,1.382812 1.1875,-0.0039 2.29297,-0.445312 3.11719,-1.109375 0.8164,-0.660156 1.39062,-1.558593 1.39843,-2.539062 v -0.0078 l -0.42968,0.0039 0.42578,0.05078 0.004,-0.05469 -0.42968,0.0039 0.42578,0.05078 0.004,-0.03125 v -0.03125 c -0.008,-0.773438 -0.35547,-1.441406 -0.82812,-1.976563 -0.47266,-0.539062 -1.07813,-0.972656 -1.67969,-1.316406 l -0.5,0.867188 c 0.54297,0.308593 1.0625,0.6875 1.42969,1.105468 0.36719,0.421875 0.57422,0.859375 0.57812,1.328125 l 0.5,-0.0039 -0.49609,-0.05859 -0.004,0.0625 v 0.01172 l 0.25782,-0.0039 h -0.25782 v 0.0039 l 0.25782,-0.0039 h -0.25782 c 0.004,0.558594 -0.36718,1.234375 -1.02734,1.761719 -0.65234,0.527343 -1.55469,0.886718 -2.48828,0.886718 -0.88281,-0.0039 -1.79297,-0.304687 -2.63672,-1.105468 l -0.69141,0.722656"
             style="fill:#000000;fill-opacity:1;fill-rule:nonzero;stroke:none"
             id="path15639"
             inkscape:connector-curvature="0" /><path
             d="m 195.33203,85.609375 c 1.24219,-0.574219 3.78906,-1.316406 5.99219,-1.894531 1.10156,-0.292969 2.125,-0.546875 2.87109,-0.726563 0.7461,-0.183593 1.21094,-0.289062 1.21485,-0.289062 l -0.22657,-0.976563 c 0,0.0039 -1.89062,0.4375 -4.11328,1.023438 -2.23047,0.59375 -4.76953,1.320312 -6.15625,1.957031 l 0.41797,0.910156"
             style="fill:#000000;fill-opacity:1;fill-rule:nonzero;stroke:none"
             id="path15641"
             inkscape:connector-curvature="0" /><path
             d="m 197.74609,90.730469 c 0.043,0.02344 2.1875,1.507812 5.07032,1.515625 1.30078,0 2.7539,-0.316406 4.18359,-1.21875 l -0.53516,-0.84375 c -1.25781,0.792969 -2.5039,1.0625 -3.64843,1.0625 -1.26563,0 -2.40235,-0.335938 -3.21485,-0.675781 -0.41015,-0.167969 -0.73828,-0.339844 -0.96093,-0.464844 -0.10938,-0.0625 -0.19532,-0.117188 -0.25,-0.152344 l -0.0625,-0.03906 -0.0156,-0.0078 -0.56641,0.824219"
             style="fill:#000000;fill-opacity:1;fill-rule:nonzero;stroke:none"
             id="path15643"
             inkscape:connector-curvature="0" /><path
             d="m 223.25781,252.53906 -7.88672,2.10547 0.26172,0.96485 7.88282,-2.10157"
             style="fill:#000000;fill-opacity:1;fill-rule:nonzero;stroke:none"
             id="path15645"
             inkscape:connector-curvature="0" /><path
             d="m 222.10156,262.48047 -7.74218,2.47656 0.30468,0.95313 7.74219,-2.47657"
             style="fill:#000000;fill-opacity:1;fill-rule:nonzero;stroke:none"
             id="path15647"
             inkscape:connector-curvature="0" /><path
             d="m 220.55469,272.91797 -6.57813,1.98437 0.28907,0.96094 6.57812,-1.98828"
             style="fill:#000000;fill-opacity:1;fill-rule:nonzero;stroke:none"
             id="path15649"
             inkscape:connector-curvature="0" /><path
             d="m 192.66797,241.33984 15.60547,0.082 0.004,-1 -15.60546,-0.082"
             style="fill:#000000;fill-opacity:1;fill-rule:nonzero;stroke:none"
             id="path15651"
             inkscape:connector-curvature="0" /><path
             d="m 69.648438,233.75391 c 0,0 0.515625,-33.50391 0.488281,-44.67578 C 69.988281,128.22266 40.601563,128.39062 33.539063,130.24219 24.894531,132.50391 19,142.10547 14.597656,154.31641 c -8.9687497,24.8789 -15.730468,89.10937 -14.4375,99.4375 1.289063,10.33203 11.621094,27.12109 33.316407,30.99609 21.695312,3.87109 134.308597,0.50781 134.308597,0.50781 l 1.54297,-50.45703 -99.679692,-1.04687"
             style="fill:#ff314e;fill-opacity:1;fill-rule:nonzero;stroke:none"
             id="path15653"
             inkscape:connector-curvature="0" /><path
             d="m 110.41406,29.484375 c 2.8711,8.652344 1.57032,27.816406 -19.203122,31.769531 l 0.550781,-16.015625 c 0,0 -5.617188,18.792969 -27.570313,19.765625 L 63.03125,49.976563 c 0,0 -2.792969,20.363281 -17.652344,22.210937 -2.546875,0.316406 -10.257812,-0.285156 -10.257812,-0.285156 l -3.394531,9.527344 0.6875,9.574218 c 0,0 0.398437,8.171875 -7.683594,11.386724 0,0 -5.566406,-18.628911 -8.128907,-24.570317 C 9.0234385,60.269531 2.417969,22.433594 40.699219,5.2539058 60.914063,-3.816406 99.230469,-4.21875 110.41406,29.484375"
             style="fill:#000000;fill-opacity:1;fill-rule:nonzero;stroke:none"
             id="path15655"
             inkscape:connector-curvature="0" /><path
             d="m 45.378906,72.1875 c 0,0 -2.976562,-16.316406 -15.222656,-10.191406 -5.355469,2.675781 -7.945312,13.5 1.570313,19.433594 L 45.378906,72.1875"
             style="fill:#fcd780;fill-opacity:1;fill-rule:nonzero;stroke:none"
             id="path15657"
             inkscape:connector-curvature="0" /><path
             d="M 41.105469,75.039063 30.546875,61.683594 29.761719,62.304688 40.320313,75.65625"
             style="fill:#000000;fill-opacity:1;fill-rule:nonzero;stroke:none"
             id="path15659"
             inkscape:connector-curvature="0" /><path
             d="m 13.121094,35.027344 c -0.01563,0.04297 -3.5703127,8.226562 -3.5703127,19.832031 -0.00391,9.191406 2.2343747,20.53125 10.2382817,31.617188 l 0.808593,-0.585938 C 12.738281,75 10.550781,63.890625 10.550781,54.859375 c 0,-5.699219 0.875,-10.566406 1.75,-14.003906 0.4375,-1.71875 0.871094,-3.082031 1.199219,-4.011719 0.164063,-0.464844 0.300781,-0.820312 0.394531,-1.058594 0.04687,-0.121093 0.08203,-0.210937 0.109375,-0.269531 l 0.03515,-0.08594 -0.917967,-0.398438"
             style="fill:#000000;fill-opacity:1;fill-rule:nonzero;stroke:none"
             id="path15661"
             inkscape:connector-curvature="0" /><path
             d="m 91.261719,45.21875 -0.0039,0.04297 c -0.03125,0.507812 -0.449219,5.191406 -3.835938,9.707031 -3.390625,4.507813 -9.71875,8.917969 -21.84375,8.925781 -0.222656,0 -0.445312,0 -0.671875,-0.0039 l -0.0078,1 c 0.226562,0.0039 0.453125,0.0039 0.679687,0.0039 12.761719,0.01172 19.511719,-4.871093 22.976563,-9.789062 3.472656,-4.910156 3.699218,-9.789063 3.707031,-9.839844 l -1,-0.04687"
             style="fill:#000000;fill-opacity:1;fill-rule:nonzero;stroke:none"
             id="path15663"
             inkscape:connector-curvature="0" /><path
             d="m 169.33594,234.30078 -102.80469,-1.04687 -0.0078,0.5 0.5,0.008 c 0,-0.004 0.492187,-31.76953 0.492187,-43.75781 0,-0.32422 -0.0039,-0.63282 -0.0039,-0.92578 l -1,0.004 c 0,0.29297 0.0039,0.60156 0.0039,0.92188 0,5.98437 -0.125,16.92187 -0.246094,26.35937 -0.0625,4.71875 -0.121093,9.06641 -0.167968,12.23047 -0.04687,3.16406 -0.07813,5.14453 -0.07813,5.15234 l -0.0078,0.5 103.308595,1.05469 0.0117,-1"
             style="fill:#000000;fill-opacity:1;fill-rule:nonzero;stroke:none"
             id="path15665"
             inkscape:connector-curvature="0" /><path
             d="m 33.609375,130.73437 0.101563,-0.0117 c 0.222656,-0.0234 0.78125,-0.0742 1.605468,-0.0742 3.027344,0 9.566407,0.68359 15.910157,5.85547 6.339843,5.17187 12.542968,14.85937 14.800781,33.03515 L 67.019531,169.418 C 64.746094,151.07034 58.4375,141.09378 51.859375,135.7305 c -6.578125,-5.36328 -13.375,-6.08203 -16.542969,-6.08203 -1.152343,0 -1.828125,0.0937 -1.847656,0.0977 l 0.140625,0.98828"
             style="fill:#000000;fill-opacity:1;fill-rule:nonzero;stroke:none"
             id="path15667"
             inkscape:connector-curvature="0" /><path
             d="m 334.98828,245.42188 77.32813,-16.07422 -0.20313,-0.98047 -77.32812,16.07422"
             style="fill:#000000;fill-opacity:1;fill-rule:nonzero;stroke:none"
             id="path15669"
             inkscape:connector-curvature="0" /><path
             d="m 440.00781,193.35156 -6.73047,70.79688 0.99219,0.0937 6.73438,-70.79688"
             style="fill:#000000;fill-opacity:1;fill-rule:nonzero;stroke:none"
             id="path15671"
             inkscape:connector-curvature="0" /><path
             d="m 224.375,250.6875 h 111.23047 v -1 H 224.375 Z"
             style="fill:#000000;fill-opacity:1;fill-rule:nonzero;stroke:none"
             id="path15673"
             inkscape:connector-curvature="0" /><path
             d="m 154.57422,234.78906 -1.10938,50.83985 1,0.0234 1.10938,-50.83984"
             style="fill:#000000;fill-opacity:1;fill-rule:nonzero;stroke:none"
             id="path15675"
             inkscape:connector-curvature="0" /><path
             d="m 44.226563,234.25391 h 25.421875 v -1 H 44.226563 Z"
             style="fill:#000000;fill-opacity:1;fill-rule:nonzero;stroke:none"
             id="path15677"
             inkscape:connector-curvature="0" /><path
             d="m 85.875,111.87891 -12.082031,1.59765 0.132812,0.99219 12.082032,-1.60156"
             style="fill:#000000;fill-opacity:1;fill-rule:nonzero;stroke:none"
             id="path15679"
             inkscape:connector-curvature="0" /><path
             d="m 71.351563,118.71484 c 2.070312,-0.26562 4.234375,-0.39453 6.480468,-0.39453 15.578125,-0.004 35.234379,6.23828 57.554689,16.61328 22.32422,10.3711 47.31641,24.86328 73.61719,41.31641 l 0.53125,-0.84766 c -26.32032,-16.46484 -51.33985,-30.97265 -73.72657,-41.375 -22.38671,-10.39843 -42.136715,-16.70312 -57.976559,-16.70703 -2.285156,0 -4.488281,0.13282 -6.609375,0.40235 l 0.128907,0.99218"
             style="fill:#000000;fill-opacity:1;fill-rule:nonzero;stroke:none"
             id="path15681"
             inkscape:connector-curvature="0" /></g></g></g></g></svg>