<?xml version="1.0" encoding="UTF-8" standalone="no"?>
<!-- Created with Inkscape (http://www.inkscape.org/) -->

<svg
   xmlns:dc="http://purl.org/dc/elements/1.1/"
   xmlns:cc="http://creativecommons.org/ns#"
   xmlns:rdf="http://www.w3.org/1999/02/22-rdf-syntax-ns#"
   xmlns:svg="http://www.w3.org/2000/svg"
   xmlns="http://www.w3.org/2000/svg"
   xmlns:sodipodi="http://sodipodi.sourceforge.net/DTD/sodipodi-0.dtd"
   xmlns:inkscape="http://www.inkscape.org/namespaces/inkscape"
   version="1.1"
   id="svg14761"
   xml:space="preserve"
   width="765.37738"
   height="671.64117"
   viewBox="0 0 765.37738 671.64117"
   sodipodi:docname="digital-services-illustration2.svg"
   inkscape:version="0.92.5 (2060ec1f9f, 2020-04-08)"><metadata
     id="metadata14767"><rdf:RDF><cc:Work
         rdf:about=""><dc:format>image/svg+xml</dc:format><dc:type
           rdf:resource="http://purl.org/dc/dcmitype/StillImage" /><dc:title></dc:title></cc:Work></rdf:RDF></metadata><defs
     id="defs14765"><clipPath
       clipPathUnits="userSpaceOnUse"
       id="clipPath14777"><path
         d="M 0,0 H 6000 V 3406.25 H 0 Z"
         id="path14775"
         inkscape:connector-curvature="0"
         style="clip-rule:evenodd" /></clipPath><clipPath
       clipPathUnits="userSpaceOnUse"
       id="clipPath14791"><path
         d="M 0,0 H 6000 V 3375 H 0 Z"
         id="path14789"
         inkscape:connector-curvature="0"
         style="clip-rule:evenodd" /></clipPath><clipPath
       clipPathUnits="userSpaceOnUse"
       id="clipPath14803"><path
         d="M 1757.358,580.41895 H 4241.733 V 2796.044 H 1757.358 Z"
         id="path14801"
         inkscape:connector-curvature="0"
         style="clip-rule:evenodd" /></clipPath><clipPath
       clipPathUnits="userSpaceOnUse"
       id="clipPath14823"><path
         d="m 2995.958,2693.0918 h 349.2036 v 58.9954 H 2995.958 Z"
         id="path14821"
         inkscape:connector-curvature="0"
         style="clip-rule:evenodd" /></clipPath><clipPath
       clipPathUnits="userSpaceOnUse"
       id="clipPath14835"><path
         d="m 3326.0271,1591.7438 h 588.3843 v 1160.3433 h -588.3843 z"
         id="path14833"
         inkscape:connector-curvature="0"
         style="clip-rule:evenodd" /></clipPath><clipPath
       clipPathUnits="userSpaceOnUse"
       id="clipPath14847"><path
         d="M 1757.358,580.41895 H 4241.733 V 2796.044 H 1757.358 Z"
         id="path14845"
         inkscape:connector-curvature="0"
         style="clip-rule:evenodd" /></clipPath><clipPath
       clipPathUnits="userSpaceOnUse"
       id="clipPath14927"><path
         d="m 1862.2419,2745.7649 h 2377.4553 v 6.3223 H 1862.2419 Z"
         id="path14925"
         inkscape:connector-curvature="0"
         style="clip-rule:evenodd" /></clipPath><clipPath
       clipPathUnits="userSpaceOnUse"
       id="clipPath14939"><path
         d="M 1757.358,580.41895 H 4241.733 V 2796.044 H 1757.358 Z"
         id="path14937"
         inkscape:connector-curvature="0"
         style="clip-rule:evenodd" /></clipPath></defs><sodipodi:namedview
     pagecolor="#ffffff"
     bordercolor="#666666"
     borderopacity="1"
     objecttolerance="10"
     gridtolerance="10"
     guidetolerance="10"
     inkscape:pageopacity="0"
     inkscape:pageshadow="2"
     inkscape:window-width="1366"
     inkscape:window-height="705"
     id="namedview14763"
     showgrid="false"
     inkscape:zoom="0.21851852"
     inkscape:cx="368.6744"
     inkscape:cy="340.6679"
     inkscape:window-x="-8"
     inkscape:window-y="-8"
     inkscape:window-maximized="1"
     inkscape:current-layer="g14769" /><g
     id="g14769"
     inkscape:groupmode="layer"
     inkscape:label="Panx Services Catalogue (1)"
     transform="matrix(0.31999998,0,0,0.31999998,-591.3256,-209.02669)"><g
       id="g14797"><g
         id="g14799"
         clip-path="url(#clipPath14803)"><g
           id="g14805"
           transform="matrix(4.7836118,0,0,4.7884698,1847.8911,653.20367)"><path
             d="m 339.11328,40.28125 c 0,0 63.89844,16.285156 34.22266,97.03906 -14.38672,39.15625 -45.30469,125.87891 -28.28516,164.44532 l -40.01562,7.4414 c 0,0 -50.26953,-155.90625 34.07812,-268.92578"
             style="fill:#000000;fill-opacity:1;fill-rule:nonzero;stroke:none"
             id="path14807"
             inkscape:connector-curvature="0" /><path
             d="m 333.5625,50.273438 c 2.98438,5.421875 9.79688,7.402343 15.21875,4.417968 5.42188,-2.980468 7.40234,-9.796875 4.41797,-15.21875 -2.98047,-5.425781 -9.79688,-7.402343 -15.21875,-4.421875 -5.42188,2.984375 -7.40234,9.796875 -4.41797,15.222657"
             style="fill:#ff2f4c;fill-opacity:1;fill-rule:nonzero;stroke:none"
             id="path14809"
             inkscape:connector-curvature="0" /><path
             d="m 342.59766,63.144531 c 2.98437,5.421875 9.79687,7.402344 15.21875,4.417969 5.42578,-2.984375 7.40234,-9.796875 4.42187,-15.21875 -2.98437,-5.425781 -9.79687,-7.402344 -15.21875,-4.417969 -5.42578,2.980469 -7.40234,9.792969 -4.42187,15.21875"
             style="fill:#2f9ab1;fill-opacity:1;fill-rule:nonzero;stroke:none"
             id="path14811"
             inkscape:connector-curvature="0" /><path
             d="m 186.52734,144.51562 c 0,0 -62.20703,-119.906245 57.14063,-143.132808 29.55859,-5.7539058 91.26172,4.585938 100.06641,67.042969 L 186.52734,144.51562"
             style="fill:#000000;fill-opacity:1;fill-rule:nonzero;stroke:none"
             id="path14813"
             inkscape:connector-curvature="0" /><path
             d="M 51.851563,437.82031 166.66406,196.76563 h 142.46875 l 64.20313,241.05468 H 51.851563"
             style="fill:#ff2f4c;fill-opacity:1;fill-rule:nonzero;stroke:none"
             id="path14815"
             inkscape:connector-curvature="0" /></g></g></g><g
       id="g14817"><g
         id="g14819"
         clip-path="url(#clipPath14823)"><g
           id="g14825"
           transform="matrix(4.7836118,0,0,4.7884698,1847.8911,653.20367)"><path
             d="m 240.96484,426.25 71.19532,5.97656 v 5.97266 H 240.96484 V 426.25"
             style="fill:#000000;fill-opacity:1;fill-rule:nonzero;stroke:none"
             id="path14827"
             inkscape:connector-curvature="0" /></g></g></g><g
       id="g14829"><g
         id="g14831"
         clip-path="url(#clipPath14835)"><g
           id="g14837"
           transform="matrix(4.7836118,0,0,4.7884698,1847.8911,653.20367)"><path
             d="m 309.13281,196.76563 c 0,0 27.69532,-3.77344 71.12891,78.94531 0,0 90.64062,150.22265 30.84375,162.10937 l -66.26563,0.37891 -35.70703,-241.43359"
             style="fill:#ff2f4c;fill-opacity:1;fill-rule:nonzero;stroke:none"
             id="path14839"
             inkscape:connector-curvature="0" /></g></g></g><g
       id="g14841"><g
         id="g14843"
         clip-path="url(#clipPath14847)"><g
           id="g14849"
           transform="matrix(4.7836118,0,0,4.7884698,1847.8911,653.20367)"><path
             d="m 190.24219,118.83203 -9.0625,52.5625 c -1.19531,23.41406 88.29297,106.69141 88.21484,33.33594 -0.008,-8.00391 0,-41.96485 0,-41.96485 l -79.15234,-43.93359"
             style="fill:#fcd880;fill-opacity:1;fill-rule:nonzero;stroke:none"
             id="path14851"
             inkscape:connector-curvature="0" /><path
             d="m 270.88672,9.6601563 c 36.72656,-1.8515621 76.25,25.2382817 69.34766,84.8710937 -1.86329,16.11328 -6.69922,48.22656 -7.91407,64.40234 -0.98437,13.19141 -4.70703,39.08594 -29.5664,43.88672 -10.2461,1.98047 -18.26953,2.55078 -41.69141,1.97657 l -25.45703,-1.51172 C 204.88281,201.46094 182.29688,173.75 186.70313,143.28906 l 3.53906,-24.45703 c 0,0 5.32812,-105.378905 80.64453,-109.1718737"
             style="fill:#fcd880;fill-opacity:1;fill-rule:nonzero;stroke:none"
             id="path14853"
             inkscape:connector-curvature="0" /><path
             d="m 298.05859,123.01172 -3.14843,29.95703 0.99609,0.10156 3.14844,-29.95312"
             style="fill:#000000;fill-opacity:1;fill-rule:nonzero;stroke:none"
             id="path14855"
             inkscape:connector-curvature="0" /><path
             d="m 267.21094,126.52734 c -0.59375,3.26563 0.6914,6.38282 2.87109,6.96094 2.17969,0.57813 4.42578,-1.60547 5.01563,-4.87109 0.59375,-3.26953 -0.69532,-6.38672 -2.8711,-6.96485 -2.17968,-0.57421 -4.42578,1.60547 -5.01562,4.875"
             style="fill:#000000;fill-opacity:1;fill-rule:nonzero;stroke:none"
             id="path14857"
             inkscape:connector-curvature="0" /><path
             d="m 310.67578,131.80469 c -0.58984,3.26953 0.69531,6.38672 2.875,6.96484 2.17578,0.57422 4.42188,-1.60547 5.01563,-4.87109 0.58984,-3.26953 -0.69532,-6.38672 -2.875,-6.96485 -2.17578,-0.57422 -4.42188,1.60547 -5.01563,4.8711"
             style="fill:#000000;fill-opacity:1;fill-rule:nonzero;stroke:none"
             id="path14859"
             inkscape:connector-curvature="0" /><path
             d="m 262.48047,160.53125 v 0.0547 c 0.004,0.32812 0.0391,2.75781 1.47266,5.16797 0.71484,1.20312 1.78906,2.39843 3.37109,3.28125 1.58203,0.88672 3.66016,1.45703 6.36328,1.45703 0.68359,0 1.40625,-0.0352 2.16797,-0.11328 l -0.0977,-0.99219 c -0.73437,0.0703 -1.42187,0.10547 -2.07031,0.10547 -2.56641,0 -4.46094,-0.53906 -5.875,-1.32813 -2.11719,-1.1875 -3.19141,-2.96484 -3.75391,-4.52344 -0.55468,-1.55859 -0.57812,-2.88281 -0.57812,-3.05468 l -1,-0.0547"
             style="fill:#000000;fill-opacity:1;fill-rule:nonzero;stroke:none"
             id="path14861"
             inkscape:connector-curvature="0" /><path
             d="m 346.49609,120.53125 c 0,0 -19.74218,-1.72656 -44.13281,-4.5625 l 2.53516,-30.953125 -8.36719,27.953125 c 0,0 -19.62109,-2.26562 -44.65625,-5.67969 l -2.03125,-28.363279 c 0,0 -4.3125,28.363279 -30.08594,28.769529 -7.14453,0.11328 -26.5625,-10.550779 -26.5625,-10.550779 0,0 -5.71093,-112.390625 91.42969,-93.90625 58.75781,11.183594 76.08984,50.0625 61.87109,117.292969"
             style="fill:#000000;fill-opacity:1;fill-rule:nonzero;stroke:none"
             id="path14863"
             inkscape:connector-curvature="0" /><path
             d="m 219.75781,107.69531 c 0,0 -2.51172,-31.898435 -26.17187,-24.218747 -8.44531,2.742187 -20.5586,17.460937 -3.34375,35.355467 l 29.51562,-11.13672"
             style="fill:#fcd880;fill-opacity:1;fill-rule:nonzero;stroke:none"
             id="path14865"
             inkscape:connector-curvature="0" /><path
             d="m 210.78516,111.01953 -14.51953,-28.210936 -0.88672,0.460937 14.51953,28.207029"
             style="fill:#000000;fill-opacity:1;fill-rule:nonzero;stroke:none"
             id="path14867"
             inkscape:connector-curvature="0" /><path
             d="m 156.17187,150.0625 c -20.03125,-6.04297 -49.84374,-5.45313 -83.722651,58.87109 -24.863281,47.21094 -63.2226575,153.85938 -70.25,184.66797 -10.949219,48.00782 85.332031,53.84375 101.941411,32.00391 15.21874,-20.01172 40.80078,-81.53516 58.6289,-141.42969 18.65235,-62.65234 28.47656,-123.53906 -6.59766,-134.11328"
             style="fill:#fcd880;fill-opacity:1;fill-rule:nonzero;stroke:none"
             id="path14869"
             inkscape:connector-curvature="0" /><path
             d="m 241.75,203.45703 41.11328,1.46094 -4.34765,10.75781 z"
             style="fill:#000000;fill-opacity:1;fill-rule:nonzero;stroke:none"
             id="path14871"
             inkscape:connector-curvature="0" /><path
             d="m 456.42578,437.82031 c -2.45312,-54.89843 -111.375,-210.1289 -111.375,-210.1289 l -68.5,15.15625 c 0,0 50.08203,152.95703 81.94531,194.97265 h 97.92969"
             style="fill:#fcd880;fill-opacity:1;fill-rule:nonzero;stroke:none"
             id="path14873"
             inkscape:connector-curvature="0" /><path
             d="m 333.25,235.72266 c 24.08594,-14.64844 35.37891,-30.16407 37.07031,-49.76563 1.31641,-15.21094 3.79688,-49.89453 -11.30859,-48.63672 0,0 -1.21484,-18.48828 -9.86719,-11.33203 0,0 -7.33203,-7.15625 -10.23047,5.98047 0,0 -12.39843,-6.87891 -15.73437,18.25391 -1.23047,9.25 -3.14063,22.51562 -6.65235,25.82031 -8.08984,7.60937 -48.02343,23.1875 -40.54687,65.09766 2.37109,13.3125 43.16406,3.16406 57.26953,-5.41797"
             style="fill:#fcd880;fill-opacity:1;fill-rule:nonzero;stroke:none"
             id="path14875"
             inkscape:connector-curvature="0" /><path
             d="m 358.51953,137.40625 c 0,0 0.0508,0.28125 0.13672,0.8125 0.61328,3.70703 3.07031,19.50781 3.06641,34.26953 0,5.64453 -0.35938,11.14063 -1.3086,15.73047 -1.22656,5.92578 -2.75,10.17969 -3.96093,12.94531 -0.60547,1.38672 -1.13672,2.39453 -1.50782,3.0586 -0.1875,0.33203 -0.33984,0.57422 -0.4375,0.73437 l -0.11718,0.17578 -0.0352,0.0508 0.82031,0.57422 c 0.0352,-0.0508 3.73828,-5.34375 6.21875,-17.33593 0.96875,-4.69532 1.32813,-10.2461 1.32813,-15.9336 0,-16.99219 -3.21485,-35.24219 -3.21875,-35.25391 l -0.98438,0.17188"
             style="fill:#000000;fill-opacity:1;fill-rule:nonzero;stroke:none"
             id="path14877"
             inkscape:connector-curvature="0" /><path
             d="m 348.64844,126.0625 c 0,0 0.043,0.27344 0.11328,0.78906 0.5,3.59766 2.49609,18.98438 2.49609,34.07813 0,8.41015 -0.625,16.73437 -2.44922,22.83984 -1.32031,4.41797 -3.32031,8.83985 -4.99218,12.15625 -0.83594,1.65625 -1.58985,3.03516 -2.13282,4 -0.27343,0.48047 -0.49218,0.85938 -0.64453,1.11719 -0.15234,0.25781 -0.23437,0.39062 -0.23437,0.39062 l 0.85547,0.51954 c 0.0117,-0.0195 5.41406,-8.89063 8.10547,-17.89844 1.87109,-6.27735 2.48828,-14.66406 2.49218,-23.125 -0.004,-17.34766 -2.61718,-35 -2.61718,-35.01563 l -0.99219,0.14844"
             style="fill:#000000;fill-opacity:1;fill-rule:nonzero;stroke:none"
             id="path14879"
             inkscape:connector-curvature="0" /><path
             d="m 338.41406,131.98828 c 0,0.004 0.0508,1.27734 0.10157,3.4375 0.0508,2.16406 0.0976,5.20703 0.0976,8.74219 0,5.61719 -0.125,12.47265 -0.57812,18.95703 -0.45313,6.48047 -1.23828,12.59766 -2.53125,16.70313 -1.3711,4.35937 -3.8086,8.52343 -5.91016,11.58593 -1.04687,1.53125 -2.01172,2.78907 -2.71094,3.66016 -0.34765,0.4375 -0.63281,0.77734 -0.82812,1.00781 -0.19531,0.23047 -0.30078,0.34766 -0.30078,0.34766 l 0.74609,0.66797 c 0.0195,-0.0273 7.11719,-7.96485 9.95703,-16.96875 1.33594,-4.25782 2.11719,-10.41407 2.57422,-16.9375 0.45703,-6.51563 0.58203,-13.39063 0.58203,-19.02344 0,-7.08594 -0.19922,-12.21485 -0.19922,-12.21875 l -1,0.0391"
             style="fill:#000000;fill-opacity:1;fill-rule:nonzero;stroke:none"
             id="path14881"
             inkscape:connector-curvature="0" /><path
             d="m 339.30078,135.23828 c -0.0391,-0.0117 -0.54297,-0.21094 -1.28515,-0.21484 -0.70704,0 -1.65235,0.19531 -2.52735,0.9375 -0.875,0.73437 -1.65625,1.98047 -2.15234,3.98828 -0.17578,0.71484 -0.39453,1.99219 -0.39453,3.40625 0.004,1.39453 0.20703,2.92578 0.9414,4.17187 0.36719,0.61719 0.87891,1.16407 1.55078,1.54688 0.67579,0.38281 1.50391,0.59765 2.48829,0.59375 0.38671,0 0.79687,-0.0312 1.23437,-0.0977 l -0.14844,-0.98828 c -0.39453,0.0586 -0.7539,0.0859 -1.08593,0.0859 -0.84375,0 -1.48438,-0.17578 -1.99219,-0.46485 -0.75781,-0.42968 -1.25,-1.1289 -1.5625,-1.99609 -0.3125,-0.86328 -0.42578,-1.88281 -0.42578,-2.85156 0,-1.3086 0.20703,-2.53125 0.36718,-3.16797 0.46094,-1.87109 1.15235,-2.89844 1.82422,-3.46484 0.67188,-0.5625 1.34766,-0.69532 1.88282,-0.69922 0.28125,0 0.51562,0.0391 0.67968,0.0781 l 0.1875,0.0508 0.043,0.0156 h 0.008 l 0.0547,-0.14844 -0.0586,0.14844 h 0.004 l 0.0547,-0.14844 -0.0586,0.14844 0.37109,-0.92969"
             style="fill:#000000;fill-opacity:1;fill-rule:nonzero;stroke:none"
             id="path14883"
             inkscape:connector-curvature="0" /><path
             d="m 349.75391,129.1875 c -0.0274,-0.008 -0.33594,-0.082 -0.80078,-0.082 -0.63672,0 -1.58985,0.14062 -2.46485,0.83203 -0.8789,0.69141 -1.625,1.90234 -1.91406,3.87891 -0.0859,0.58984 -0.17578,1.35546 -0.17578,2.1914 0,1.36328 0.23828,2.9375 1.20312,4.21875 0.96875,1.28516 2.66016,2.17969 5.29297,2.21485 l 0.0156,-1 c -2.4336,-0.0469 -3.74219,-0.8125 -4.51172,-1.81641 -0.76953,-1.01172 -1.00391,-2.36328 -1,-3.61719 0,-0.76172 0.082,-1.48047 0.16797,-2.04297 0.26953,-1.80468 0.89843,-2.73437 1.53906,-3.24218 0.64453,-0.50782 1.35547,-0.61719 1.84766,-0.61719 0.17968,0 0.32812,0.0156 0.42578,0.0273 l 0.10937,0.0195 0.0274,0.004 0.23828,-0.96875"
             style="fill:#000000;fill-opacity:1;fill-rule:nonzero;stroke:none"
             id="path14885"
             inkscape:connector-curvature="0" /><path
             d="m 357.63281,129.01172 c -0.0312,-0.008 -0.16797,-0.043 -0.38281,-0.043 -0.41016,-0.004 -1.125,0.14062 -1.77734,0.80859 -0.65235,0.66797 -1.23438,1.80469 -1.55078,3.74219 -0.082,0.48047 -0.125,1.04688 -0.125,1.66016 0.004,1.47656 0.2539,3.22656 0.97265,4.66797 0.36328,0.71875 0.84766,1.36718 1.4961,1.83984 0.64453,0.47266 1.45703,0.75391 2.39453,0.75 0.36718,0 0.7539,-0.0391 1.16406,-0.125 l -0.20703,-0.98047 c -0.34766,0.0742 -0.66406,0.10547 -0.95703,0.10547 -0.74219,0 -1.32032,-0.20703 -1.80469,-0.55859 -0.73047,-0.52735 -1.25781,-1.42188 -1.58984,-2.46485 -0.33204,-1.04297 -0.46875,-2.21484 -0.46875,-3.23437 0,-0.5625 0.043,-1.08203 0.10937,-1.5 0.29688,-1.8125 0.82422,-2.73828 1.28125,-3.19922 0.45703,-0.46094 0.85156,-0.50781 1.0625,-0.51172 l 0.11719,0.008 0.0234,0.004 0.0312,-0.16406 -0.0391,0.16015 0.008,0.004 0.0312,-0.16406 -0.0391,0.16015 0.25,-0.96484"
             style="fill:#000000;fill-opacity:1;fill-rule:nonzero;stroke:none"
             id="path14887"
             inkscape:connector-curvature="0" /><path
             d="m 367.32422,141.45703 c -0.0391,-0.0156 -0.34766,-0.13672 -0.80469,-0.13672 -0.55859,-0.008 -1.37109,0.21485 -1.96875,1.03125 -0.59375,0.8086 -0.98437,2.11328 -0.98828,4.26953 0,0.35157 0.0117,0.73047 0.0352,1.12891 0.0664,1.13281 0.40625,2.88672 1.25781,4.42187 0.42969,0.76172 0.99219,1.47657 1.73437,2.00391 0.73829,0.52734 1.65625,0.85938 2.73047,0.85547 0.47266,0 0.96875,-0.0586 1.4961,-0.19141 l -0.23828,-0.96875 c -0.45704,0.10938 -0.875,0.16016 -1.25782,0.16016 -0.87109,0 -1.5625,-0.25391 -2.15234,-0.67188 -0.87891,-0.62109 -1.51172,-1.64843 -1.92578,-2.72656 -0.41406,-1.07422 -0.60547,-2.19531 -0.64453,-2.9375 -0.0234,-0.38672 -0.0352,-0.74219 -0.0352,-1.07422 0,-2.03906 0.38672,-3.13281 0.79297,-3.67578 0.40625,-0.53515 0.82031,-0.61718 1.16406,-0.625 0.13672,0 0.25391,0.0195 0.33594,0.0391 l 0.0898,0.0234 0.0195,0.008 0.0312,-0.10156 -0.0351,0.0977 0.004,0.004 0.0312,-0.10156 -0.0351,0.0977 0.36328,-0.92969"
             style="fill:#000000;fill-opacity:1;fill-rule:nonzero;stroke:none"
             id="path14889"
             inkscape:connector-curvature="0" /><path
             d="m 339.15625,131.53125 c -0.043,-0.0195 -1.66016,-0.91797 -3.94531,-0.92188 -2.08985,-0.008 -4.74219,0.78907 -7.07031,3.64844 -2.33204,2.85938 -4.3711,7.72656 -5.45704,15.90235 -0.61328,4.61718 -1.39843,10.23828 -2.46093,15.09765 -0.53125,2.42578 -1.13672,4.66407 -1.81641,6.48438 -0.67578,1.8164 -1.44531,3.21094 -2.22266,3.9375 -1.23046,1.16015 -3.3125,2.57031 -5.90234,4.25781 -7.76953,5.08203 -20.14453,12.75391 -28.85937,25.23828 l 0.82031,0.57031 c 5.71094,-8.18359 13.05469,-14.29687 19.62109,-18.96484 3.28125,-2.33594 6.3711,-4.30859 8.96485,-6.00391 2.60156,-1.69921 4.69921,-3.11328 6.03906,-4.37109 0.98047,-0.92578 1.76953,-2.42969 2.47656,-4.31641 2.10938,-5.65234 3.40625,-14.85547 4.33203,-21.80078 1.06641,-8.0664 3.07813,-12.75781 5.23828,-15.39844 2.16407,-2.63281 4.44922,-3.27343 6.29688,-3.28125 1.00781,0 1.88281,0.20313 2.5039,0.40625 0.3086,0.10157 0.55469,0.20313 0.71875,0.27344 l 0.1836,0.0898 0.0547,0.0273 0.48437,-0.875"
             style="fill:#000000;fill-opacity:1;fill-rule:nonzero;stroke:none"
             id="path14891"
             inkscape:connector-curvature="0" /><path
             d="m 456.42578,437.82031 c -0.39062,-8.72656 -3.48047,-20 -8.38672,-32.77343 l -103.57812,9.75781 c 4.90234,9.3164 9.64453,17.22265 14.03515,23.01562 h 97.92969"
             style="fill:#000000;fill-opacity:1;fill-rule:nonzero;stroke:none"
             id="path14893"
             inkscape:connector-curvature="0" /><path
             d="m 67.417969,356.50781 c -76.3945315,-4.30859 -85.925782,81.3125 -38.402344,81.3125 34.667969,0 202.058595,0 202.058595,0 v -71.36328 c 0,0 -93.54688,-5.99219 -163.656251,-9.94922"
             style="fill:#fcd880;fill-opacity:1;fill-rule:nonzero;stroke:none"
             id="path14895"
             inkscape:connector-curvature="0" /><path
             d="m 231.07422,366.45703 c 3.73828,-6.17187 7.6875,-13.26562 14.58594,-24.91406 4.17578,-7.05469 15.28125,-26.07813 21.60937,-24.65625 5.23047,1.17578 4.30078,10.38672 -1.25781,21.40234 0,0 8.84375,-11.08984 14.79297,-10.38672 14.19531,1.67579 30.41797,5.9961 44.57422,7.96485 4.2539,0.58984 20.69531,4.17187 11.33203,12.90234 -4.00781,3.73828 -10.9375,5.25 -17.82422,5.09766 l 12.89844,7.29297 c 0,0 13.35156,8.30468 5.03515,14.16406 -3.46093,2.4375 -12.03125,6.08203 -38.39062,-11.85547 0,0 14.45312,23.41797 19.12109,34 1.69141,3.83984 7.04688,20.52344 -7.78906,14.87109 -4.95703,-1.89062 -8.64453,-8.72656 -13.0625,-18.97265 0,0 -13.27344,0 -18.25391,9.28515 -13.99609,26.07032 -18.41015,34.78125 -47.37109,35.16797 -13.33984,0.17969 -13.53125,-49.01562 0,-71.36328"
             style="fill:#fcd880;fill-opacity:1;fill-rule:nonzero;stroke:none"
             id="path14897"
             inkscape:connector-curvature="0" /><path
             d="m 296.69922,393.36719 c 0,0 31.53516,1.91406 31.08594,-9.51953 -0.29297,-7.55469 -15.92578,-7.26563 -27.9375,-7.94922 h -16.9961"
             style="fill:#fcd880;fill-opacity:1;fill-rule:nonzero;stroke:none"
             id="path14899"
             inkscape:connector-curvature="0" /><path
             d="m 300.72266,365.28125 c -0.008,-0.0156 -1.61719,-2.82422 -4.0625,-5.69531 -1.21875,-1.4375 -2.64844,-2.89063 -4.20703,-4.01953 -1.5586,-1.12891 -3.25,-1.94141 -5.01172,-2.03907 l -0.26563,-0.008 c -1.15625,0.004 -2.4414,0.37891 -3.83594,1.00781 -4.86328,2.20704 -11.1289,7.59375 -16.23828,12.44141 -5.10156,4.84375 -9.00781,9.14453 -9.01172,9.14844 l 0.73829,0.67578 c 0,-0.004 0.3164,-0.34766 0.88671,-0.96094 2,-2.14062 7.125,-7.5 12.64454,-12.30859 2.75781,-2.40625 5.62109,-4.67578 8.22265,-6.33203 2.59766,-1.66016 4.96094,-2.6836 6.59375,-2.67188 l 0.21094,0.004 c 1.47656,0.0781 3.01562,0.78906 4.47656,1.85156 2.19922,1.58984 4.21094,3.94922 5.66016,5.90625 0.72265,0.97656 1.30859,1.85547 1.71094,2.48438 0.20312,0.3164 0.35937,0.57031 0.46484,0.74609 0.10547,0.17578 0.15625,0.26562 0.15625,0.26562 l 0.86719,-0.49609"
             style="fill:#000000;fill-opacity:1;fill-rule:nonzero;stroke:none"
             id="path14901"
             inkscape:connector-curvature="0" /><path
             d="m 256.78516,359.24219 c 0,0 0.0508,-0.0742 0.15234,-0.21485 0.75781,-1.05859 4.3125,-5.875 9.16016,-10.5039 4.83984,-4.64063 10.98828,-9.05469 16.78515,-9.42188 0.17969,-0.0117 0.36719,-0.0156 0.5625,-0.0156 2.42578,-0.004 5.89063,0.92969 9.66016,2.35547 5.66406,2.13281 12.05078,5.35156 17.01562,8.03125 2.48438,1.33984 4.61329,2.54687 6.11719,3.41797 0.75391,0.4375 1.35156,0.78906 1.76172,1.03125 0.41016,0.24218 0.62891,0.375 0.62891,0.375 l 0.51953,-0.85547 c -0.008,-0.004 -6.32813,-3.83203 -13.9336,-7.66016 -3.80468,-1.91797 -7.92968,-3.83203 -11.75781,-5.27344 -3.82812,-1.4414 -7.34375,-2.41797 -10.01172,-2.42187 -0.21484,0 -0.42578,0.008 -0.6289,0.0195 -6.66407,0.45312 -13.32422,5.625 -18.375,10.63281 -5.04688,5.01953 -8.46485,9.91797 -8.47657,9.92969 l 0.82032,0.57422"
             style="fill:#000000;fill-opacity:1;fill-rule:nonzero;stroke:none"
             id="path14903"
             inkscape:connector-curvature="0" /><path
             d="m 251.29297,356.85938 16.57422,-20.51563 -0.77735,-0.625 -16.57421,20.51172"
             style="fill:#000000;fill-opacity:1;fill-rule:nonzero;stroke:none"
             id="path14905"
             inkscape:connector-curvature="0" /><path
             d="m 320.53906,334.90625 c -0.0156,0.0352 -0.40625,0.91406 -0.41015,2.09375 0,0.80859 0.19531,1.77344 0.85547,2.64453 0.66015,0.8711 1.76953,1.61719 3.48437,2.05469 1.00391,0.25781 2.76563,0.48047 4.60156,0.48047 1.47266,0 2.98047,-0.14063 4.1836,-0.5625 0.59765,-0.21485 1.1289,-0.5 1.53515,-0.91016 0.40235,-0.41015 0.65625,-0.96875 0.65235,-1.59375 0,-0.20703 -0.0234,-0.41797 -0.0742,-0.63672 l -0.97266,0.22266 c 0.0352,0.15234 0.0469,0.28906 0.0469,0.41406 -0.004,0.3711 -0.1211,0.63281 -0.3711,0.89453 -0.36718,0.38672 -1.08593,0.70703 -1.98437,0.89844 -0.89844,0.19531 -1.96485,0.27344 -3.01563,0.27344 -1.75,0.004 -3.47656,-0.21875 -4.35156,-0.44531 -1.5625,-0.40235 -2.43359,-1.03516 -2.9375,-1.69532 -0.5,-0.66015 -0.64844,-1.38281 -0.65234,-2.03906 0,-0.47656 0.0859,-0.90625 0.16797,-1.21484 0.0391,-0.15625 0.082,-0.27735 0.11328,-0.35938 l 0.0351,-0.0937 0.008,-0.0195 v -0.004 l -0.91407,-0.40234"
             style="fill:#000000;fill-opacity:1;fill-rule:nonzero;stroke:none"
             id="path14907"
             inkscape:connector-curvature="0" /><path
             d="m 322.5625,356.15234 c -0.0195,0.0195 -0.48437,0.39063 -0.96094,1.01563 -0.47265,0.62891 -0.97656,1.52734 -0.98047,2.60937 -0.004,0.81641 0.3086,1.71485 1.07032,2.5625 0.76172,0.84766 1.96093,1.66407 3.76953,2.42969 1.36719,0.57422 3.15625,0.91797 4.8125,0.91797 1.125,0 2.1875,-0.15625 3.03125,-0.55859 0.42187,-0.20313 0.79297,-0.47266 1.05859,-0.83594 0.27344,-0.36328 0.42578,-0.81641 0.42188,-1.30859 h -1 c 0,0.29687 -0.0781,0.51171 -0.22266,0.71093 -0.21875,0.30078 -0.63672,0.5625 -1.21484,0.73438 -0.57813,0.17187 -1.30078,0.25781 -2.07422,0.25781 -1.51563,0.004 -3.21485,-0.32812 -4.42578,-0.83984 -1.71875,-0.72657 -2.78907,-1.48047 -3.41016,-2.17578 -0.62109,-0.69922 -0.8125,-1.32032 -0.81641,-1.89454 -0.004,-0.7539 0.3711,-1.47265 0.77735,-2.0039 0.19922,-0.26563 0.40234,-0.47656 0.55078,-0.625 l 0.17969,-0.16406 0.0469,-0.0391 0.0117,-0.0117 -0.625,-0.78125"
             style="fill:#000000;fill-opacity:1;fill-rule:nonzero;stroke:none"
             id="path14909"
             inkscape:connector-curvature="0" /><path
             d="m 311.80078,376.44922 c -0.008,0.0312 -0.14062,0.54297 -0.14453,1.28906 0,0.86719 0.1875,2.07422 1.03516,3.13281 0.84375,1.0625 2.32812,1.91407 4.72265,2.13672 0.44141,0.043 1,0.0742 1.61719,0.0742 1.23438,-0.004 2.69922,-0.125 3.92578,-0.61328 0.60938,-0.24219 1.16797,-0.58594 1.58203,-1.07422 0.42188,-0.48828 0.67578,-1.13672 0.67188,-1.8789 l -0.008,-0.1875 -0.9961,0.0469 0.004,0.14063 c -0.004,0.53125 -0.16016,0.90625 -0.4336,1.23046 -0.40625,0.48829 -1.14062,0.84375 -2.01171,1.05079 -0.8711,0.21484 -1.86329,0.28515 -2.73438,0.28515 -0.58203,0 -1.10937,-0.0312 -1.51953,-0.0703 -2.21875,-0.21484 -3.38672,-0.94922 -4.03906,-1.76563 -0.65625,-0.8125 -0.81641,-1.77734 -0.81641,-2.50781 0,-0.30859 0.0312,-0.57422 0.0586,-0.75781 0.0156,-0.0937 0.0274,-0.16406 0.0391,-0.21094 l 0.0117,-0.0508 0.004,-0.0117 -0.96875,-0.25781"
             style="fill:#000000;fill-opacity:1;fill-rule:nonzero;stroke:none"
             id="path14911"
             inkscape:connector-curvature="0" /><path
             d="m 316.03516,393.875 c -0.0352,0.008 -1.03907,0.11719 -2.09375,0.70313 -0.52344,0.29687 -1.0625,0.71875 -1.47266,1.32031 -0.41406,0.59765 -0.6875,1.3789 -0.68359,2.32812 0,0.66016 0.125,1.40235 0.41406,2.23828 0.9375,2.73047 3.42969,4.63282 6.11719,4.64063 0.47265,0 0.94531,-0.0586 1.41406,-0.18359 l -0.25391,-0.96485 c -0.38672,0.10156 -0.77343,0.14844 -1.16015,0.14844 -2.19922,0.008 -4.3711,-1.60938 -5.17188,-3.96484 -0.25781,-0.75 -0.35937,-1.38282 -0.35937,-1.91407 0,-0.76172 0.20703,-1.32031 0.50781,-1.76562 0.44922,-0.66016 1.16016,-1.07031 1.77344,-1.30469 0.30468,-0.11719 0.58203,-0.19141 0.78125,-0.23437 0.0976,-0.0195 0.17578,-0.0352 0.22656,-0.043 l 0.0586,-0.008 0.0156,-0.004 -0.11328,-0.99219"
             style="fill:#000000;fill-opacity:1;fill-rule:nonzero;stroke:none"
             id="path14913"
             inkscape:connector-curvature="0" /><path
             d="m 306.78516,375.40234 c -0.77344,-0.043 -5.03125,-0.26171 -9.9961,-0.26171 -3.01172,0 -6.28125,0.0781 -9.19922,0.33203 -2.92578,0.2539 -5.48046,0.66797 -7.14453,1.38672 -3.55078,1.55859 -7.80078,5.23437 -11.21484,8.53125 -3.41016,3.29687 -5.94922,6.21484 -5.95703,6.21875 l 0.7539,0.66015 c 0,-0.004 0.15625,-0.17969 0.44532,-0.5 1.01172,-1.1289 3.63672,-3.99219 6.7539,-6.89453 3.10938,-2.90234 6.72657,-5.84375 9.6211,-7.09766 1.4414,-0.63671 3.95703,-1.0625 6.82812,-1.30859 2.8711,-0.25 6.1211,-0.32812 9.11328,-0.32812 4.9336,0 9.17578,0.21875 9.94532,0.25781 l 0.0508,-0.9961"
             style="fill:#000000;fill-opacity:1;fill-rule:nonzero;stroke:none"
             id="path14915"
             inkscape:connector-curvature="0" /><path
             d="m 315.61719,392.42969 -19.53516,0.89062 0.0469,0.9961 19.53125,-0.88672"
             style="fill:#000000;fill-opacity:1;fill-rule:nonzero;stroke:none"
             id="path14917"
             inkscape:connector-curvature="0" /><path
             d="M 491.88672,418.87891 H 293.39453 v 18.9414 h 198.49219 v -18.9414"
             style="fill:#1e1548;fill-opacity:1;fill-rule:nonzero;stroke:none"
             id="path14919"
             inkscape:connector-curvature="0" /></g></g></g><g
       id="g14921"><g
         id="g14923"
         clip-path="url(#clipPath14927)"><g
           id="g14929"
           transform="matrix(4.7836118,0,0,4.7884698,1847.8911,653.20367)"><path
             d="M 3.496094,438.32031 H 500 v -1 H 3.496094 Z"
             style="fill:#000000;fill-opacity:1;fill-rule:nonzero;stroke:none"
             id="path14931"
             inkscape:connector-curvature="0" /></g></g></g><g
       id="g14933"><g
         id="g14935"
         clip-path="url(#clipPath14939)"><g
           id="g14941"
           transform="matrix(4.7836118,0,0,4.7884698,1847.8911,653.20367)"><path
             d="m 345.08594,227.69922 -12.10156,7.60156 0.53125,0.84766 12.10156,-7.60156"
             style="fill:#000000;fill-opacity:1;fill-rule:nonzero;stroke:none"
             id="path14943"
             inkscape:connector-curvature="0" /><path
             d="m 205.64844,259.60547 h -78.97657 l 25.6211,-110.58594 c 0,0 41.79687,16.17188 53.35547,110.58594"
             style="fill:#ff2f4c;fill-opacity:1;fill-rule:nonzero;stroke:none"
             id="path14945"
             inkscape:connector-curvature="0" /><path
             d="m 260.06641,320.8125 0.0234,0.0195 c 0.125,0.1211 0.76563,0.76953 1.36329,1.79688 0.60156,1.02734 1.16015,2.42578 1.16015,4.07812 0,1.54688 -0.48047,3.32422 -1.92187,5.28906 -0.67969,0.91797 -1.8086,1.46094 -3.17578,1.46485 -1.57813,0 -3.46094,-0.73828 -5.19532,-2.5 l -0.71093,0.70312 c 1.88671,1.91797 4.01953,2.79688 5.90625,2.79688 1.63281,0.004 3.09375,-0.66406 3.98046,-1.8711 1.55469,-2.10937 2.1211,-4.125 2.11719,-5.88281 0,-2.0039 -0.71875,-3.66015 -1.42969,-4.80469 -0.71093,-1.15234 -1.41406,-1.80468 -1.4375,-1.82421 l -0.67968,0.73437"
             style="fill:#000000;fill-opacity:1;fill-rule:nonzero;stroke:none"
             id="path14947"
             inkscape:connector-curvature="0" /><path
             d="m 308.57422,333.39063 c 5.72266,1.14453 11.37109,2.22656 16.73828,2.97265 1.62891,0.22266 5.15234,0.91406 8.21094,2.17188 1.53125,0.625 2.94531,1.39453 3.94531,2.28906 1.00781,0.90234 1.57813,1.88281 1.57813,2.99219 0.004,1.22265 -0.71094,2.75 -2.67969,4.58984 -3.66016,3.42969 -10.05078,4.98047 -16.55078,4.97266 -0.30469,0 -0.61328,-0.004 -0.91797,-0.0117 l -1.98047,-0.0391 14.62109,8.26953 0.2461,-0.4375 -0.25391,0.43359 0.0781,0.043 c 0.39062,0.23828 2.21093,1.38672 3.91406,3.03906 0.84765,0.82813 1.66797,1.78125 2.26172,2.79297 0.59765,1.01563 0.97265,2.08594 0.97265,3.16406 -0.008,1.37891 -0.58984,2.81641 -2.26953,4.31641 -1.13672,1.00781 -3.41015,2.30859 -7.80859,2.3125 -0.66406,0 -1.3711,-0.0312 -2.12891,-0.0937 l -0.0859,0.99609 c 0.78516,0.0664 1.52344,0.0977 2.21485,0.0977 4.59765,0.004 7.15625,-1.38672 8.47265,-2.56641 1.83985,-1.625 2.60938,-3.3789 2.60547,-5.0625 -0.004,-1.39843 -0.51172,-2.71484 -1.24609,-3.89453 -2.20313,-3.52344 -6.44531,-5.98437 -6.47266,-6.00781 l -0.008,-0.004 -12.89844,-7.29297 -0.24609,0.4336 -0.008,0.5 c 0.3125,0.008 0.625,0.0117 0.9375,0.0117 6.64843,-0.008 13.24609,-1.53907 17.23437,-5.24219 2.07031,-1.92969 2.99219,-3.69141 2.9961,-5.32031 0.004,-1.48047 -0.78125,-2.73438 -1.91016,-3.73828 -1.70313,-1.51172 -4.23047,-2.57813 -6.66016,-3.33594 -2.42578,-0.75781 -4.75,-1.19141 -6.02734,-1.3711 -5.33203,-0.73828 -10.96484,-1.8164 -16.67578,-2.96093 l -0.19922,0.98047"
             style="fill:#000000;fill-opacity:1;fill-rule:nonzero;stroke:none"
             id="path14949"
             inkscape:connector-curvature="0" /><path
             d="m 363.80859,58.171875 0.0469,0.02734 c 0.52734,0.332031 5.32031,3.4375 9.97266,10.234375 4.64843,6.800781 9.17187,17.289062 9.17578,32.45313 0,13.14844 -3.41016,29.82422 -13.13672,50.64062 -0.11328,0.25 -0.008,0.55078 0.24219,0.66797 0.25,0.11328 0.54687,0.008 0.66406,-0.24219 9.77344,-20.92187 13.23047,-37.74218 13.23047,-51.0664 0,-15.85938 -4.89844,-26.757818 -9.8125,-33.675786 -4.91407,-6.921875 -9.82813,-9.871094 -9.8711,-9.898438 -0.23437,-0.140625 -0.54297,-0.0625 -0.68359,0.171875 -0.14063,0.238281 -0.0664,0.546875 0.17187,0.6875"
             style="fill:#000000;fill-opacity:1;fill-rule:nonzero;stroke:none"
             id="path14951"
             inkscape:connector-curvature="0" /><path
             d="m 203.52344,115.42188 c 0,2.34375 -1.89844,4.24218 -4.24219,4.24218 -2.34375,0 -4.24219,-1.89843 -4.24219,-4.24218 0,-2.34375 1.89844,-4.24219 4.24219,-4.24219 2.34375,0 4.24219,1.89844 4.24219,4.24219"
             style="fill:#ff2f4c;fill-opacity:1;fill-rule:nonzero;stroke:none"
             id="path14953"
             inkscape:connector-curvature="0" /><path
             d="m 293.39453,419.37891 h 198.49219 v -1 H 293.39453 Z"
             style="fill:#000000;fill-opacity:1;fill-rule:nonzero;stroke:none"
             id="path14955"
             inkscape:connector-curvature="0" /><path
             d="m 409.38281,428.84766 h 19.28125 v -1 h -19.28125 z"
             style="fill:#000000;fill-opacity:1;fill-rule:nonzero;stroke:none"
             id="path14957"
             inkscape:connector-curvature="0" /><path
             d="M 390.26953,428.84766 H 400.25 v -1 h -9.98047 z"
             style="fill:#000000;fill-opacity:1;fill-rule:nonzero;stroke:none"
             id="path14959"
             inkscape:connector-curvature="0" /><path
             d="m 439.14063,437.82031 h 1 v -18.9414 h -1 z"
             style="fill:#000000;fill-opacity:1;fill-rule:nonzero;stroke:none"
             id="path14961"
             inkscape:connector-curvature="0" /><path
             d="m 41.089844,280.13281 c 0,0 -18.019531,11.62891 -9.179688,19.26563 6.171875,5.32422 24.523438,5.24219 30.445313,-11.67188 0,0 0.617187,19.70703 22.832031,17.25391 4.234375,-0.46875 11.164063,-1.97266 11.671875,-12.40625 0,0 1.800781,16.25391 18.679685,16.63281 5.36328,0.1211 14.64063,-2.875 15.82422,-14.50781 0,0 0.16797,19.24219 20.92969,17.89062 5.60937,-0.36718 13.97656,-3.25 10.47656,-19.89062 0,0 50.67969,-125.54297 -6.59766,-142.63672 0,0 -69.121089,-29.53125 -115.082026,130.07031"
             style="fill:#ff2f4c;fill-opacity:1;fill-rule:nonzero;stroke:none"
             id="path14963"
             inkscape:connector-curvature="0" /><path
             d="m 136.28516,360.05859 -46.292972,-2.75781 -0.05859,1 46.292962,2.75391"
             style="fill:#000000;fill-opacity:1;fill-rule:nonzero;stroke:none"
             id="path14965"
             inkscape:connector-curvature="0" /><path
             d="m 153.91797,312.91797 c 2.29687,-0.34766 4.85156,-1.20313 6.83594,-3.21094 1.98828,-2.00781 3.35156,-5.14844 3.34765,-9.88281 0,-2.07813 -0.26172,-4.47266 -0.83984,-7.23047 l -0.49219,0.10547 0.46484,0.1875 c 0.004,-0.0156 6.94532,-17.20313 12.79297,-39.74219 0.0703,-0.26953 -0.0898,-0.54297 -0.35937,-0.60937 -0.26563,-0.0703 -0.53906,0.0898 -0.60938,0.35547 -2.91406,11.23828 -6.10546,21.14843 -8.5625,28.24609 -1.23047,3.54687 -2.27734,6.39062 -3.01953,8.34766 -0.36719,0.98046 -0.66015,1.73828 -0.86328,2.25 -0.19922,0.51171 -0.30469,0.77734 -0.30469,0.77734 -0.0391,0.0898 -0.0469,0.19141 -0.0273,0.28906 0.57031,2.70313 0.82031,5.02735 0.82031,7.02344 -0.004,4.55469 -1.28515,7.37891 -3.05859,9.17969 -1.77735,1.80078 -4.10156,2.59765 -6.27344,2.92578 -0.27344,0.043 -0.46094,0.29687 -0.42187,0.57031 0.043,0.27344 0.29687,0.46094 0.57031,0.41797"
             style="fill:#000000;fill-opacity:1;fill-rule:nonzero;stroke:none"
             id="path14967"
             inkscape:connector-curvature="0" /><path
             d="M 186.70313,143.28906 C 163.78125,123.32031 137.45312,58.375 195.82031,22.023438 c 0,0 -38.07031,-28.5976568 -75.11328,15.523437 -14.41406,17.167969 -26.636717,64.210935 5.96484,89.476565 40.55469,31.42187 93.08594,76.43359 76.41016,190.44531 l 30.83594,-0.38672 c 2.34375,-10.19531 5.16016,-27.13672 4.33984,-47.45312 0,0 5.39453,19.04297 2.17188,47.375 l 15.14062,-0.19141 c 0,0 24.70313,-92.00391 -68.86718,-173.52344"
             style="fill:#000000;fill-opacity:1;fill-rule:nonzero;stroke:none"
             id="path14969"
             inkscape:connector-curvature="0" /><path
             d="m 198.42578,29.792969 c -3.13672,5.339844 -10.0039,7.121094 -15.33984,3.988281 -5.33594,-3.132812 -7.1211,-10 -3.98828,-15.339844 3.13672,-5.335937 10.0039,-7.121093 15.33984,-3.984375 5.33594,3.132813 7.12109,10 3.98828,15.335938"
             style="fill:#ff2f4c;fill-opacity:1;fill-rule:nonzero;stroke:none"
             id="path14971"
             inkscape:connector-curvature="0" /><path
             d="m 187.21875,43.914063 c -3.13672,5.335937 -10.00391,7.121093 -15.33984,3.988281 -5.33985,-3.136719 -7.1211,-10.003906 -3.98828,-15.339844 3.13281,-5.335937 10,-7.121094 15.33984,-3.988281 5.33594,3.136719 7.12109,10.003906 3.98828,15.339844"
             style="fill:#2f9ab1;fill-opacity:1;fill-rule:nonzero;stroke:none"
             id="path14973"
             inkscape:connector-curvature="0" /><path
             d="m 202.74219,161.49219 c 0,0 0.23437,0.21875 0.68359,0.65234 6.72656,6.51563 60.67188,61.16797 60.65235,133.26563 0,6.95703 -0.5,14.07422 -1.59375,21.32812 l 0.99218,0.14844 c 1.09766,-7.30469 1.60157,-14.47266 1.60157,-21.47656 0,-38.72266 -15.42188,-72.37891 -30.82813,-96.35547 -15.40625,-23.97266 -30.80859,-38.27344 -30.82812,-38.29297 l -0.67969,0.73047"
             style="fill:#000000;fill-opacity:1;fill-rule:nonzero;stroke:none"
             id="path14975"
             inkscape:connector-curvature="0" /><path
             d="m 128.97656,30.09375 c -5.3125,4.761719 -12.00781,13.457031 -17.40234,24.070313 -5.38672,10.617187 -9.46875,23.152343 -9.46875,35.578125 -0.0117,14.730472 5.78125,29.320312 21.875,40.140622 14.26562,9.59766 27.55078,16.33985 47.04687,34.0625 0.20313,0.1836 0.51954,0.16797 0.70704,-0.0352 0.1875,-0.20313 0.17187,-0.51954 -0.0352,-0.70704 -19.57031,-17.78906 -32.96485,-24.59375 -47.16016,-34.14843 -15.82422,-10.66016 -21.42187,-24.83985 -21.43359,-39.312502 -0.004,-12.207032 4.02344,-24.609375 9.36328,-35.125 5.33203,-10.511719 11.99219,-19.140625 17.17578,-23.777344 0.20313,-0.183594 0.22266,-0.5 0.0391,-0.707031 -0.18359,-0.203125 -0.5,-0.222657 -0.70703,-0.03906"
             style="fill:#000000;fill-opacity:1;fill-rule:nonzero;stroke:none"
             id="path14977"
             inkscape:connector-curvature="0" /><path
             d="m 168.85938,46.566406 c -2.63282,7.554688 -6.58985,18.804688 -6.58985,33.386719 0,18.191406 6.16406,41.546875 28.57813,69.378905 0.17578,0.21484 0.48828,0.25 0.70312,0.0742 0.21485,-0.17188 0.25,-0.48828 0.0781,-0.70313 -22.30078,-27.69531 -28.35547,-50.789057 -28.35938,-68.749995 0,-14.402344 3.90234,-25.507812 6.53516,-33.058594 0.0898,-0.261718 -0.0469,-0.546875 -0.3086,-0.636718 -0.26171,-0.08984 -0.54687,0.04687 -0.63671,0.308593"
             style="fill:#000000;fill-opacity:1;fill-rule:nonzero;stroke:none"
             id="path14979"
             inkscape:connector-curvature="0" /><path
             d="m 187.40234,186.01563 c 0,0 0.0547,0.125 0.16797,0.375 1.65625,3.77734 15.02344,35.51171 15.01953,76.03906 0,12.73828 -1.32031,26.34765 -4.73437,40.23047 -0.0664,0.26953 0.0977,0.53906 0.36719,0.60547 0.26562,0.0664 0.53906,-0.0977 0.60547,-0.36719 3.4375,-13.97266 4.76171,-27.66406 4.76171,-40.46875 0,-43.46485 -15.26562,-76.79297 -15.28125,-76.83203 -0.11328,-0.25 -0.41015,-0.35938 -0.66015,-0.2461 -0.25391,0.11719 -0.36328,0.41407 -0.2461,0.66407"
             style="fill:#000000;fill-opacity:1;fill-rule:nonzero;stroke:none"
             id="path14981"
             inkscape:connector-curvature="0" /><path
             d="m 41.09375,280.63281 c 0,0 0.05078,0 0.15625,0 3.019531,0 49.109375,0.20703 121.4375,12.5586 0.27344,0.0469 0.53125,-0.13672 0.57812,-0.41016 0.0469,-0.26953 -0.13671,-0.52734 -0.41015,-0.57812 C 90.460938,279.84375 44.3125,279.63281 41.25,279.63281 c -0.105469,0 -0.160156,0 -0.164062,0 -0.273438,0.004 -0.496094,0.22657 -0.496094,0.50391 0.0039,0.27734 0.226562,0.5 0.503906,0.49609"
             style="fill:#000000;fill-opacity:1;fill-rule:nonzero;stroke:none"
             id="path14983"
             inkscape:connector-curvature="0" /></g></g></g></g></svg>