<?xml version="1.0" encoding="UTF-8" standalone="no"?>
<!-- Created with Inkscape (http://www.inkscape.org/) -->

<svg
   xmlns:dc="http://purl.org/dc/elements/1.1/"
   xmlns:cc="http://creativecommons.org/ns#"
   xmlns:rdf="http://www.w3.org/1999/02/22-rdf-syntax-ns#"
   xmlns:svg="http://www.w3.org/2000/svg"
   xmlns="http://www.w3.org/2000/svg"
   xmlns:sodipodi="http://sodipodi.sourceforge.net/DTD/sodipodi-0.dtd"
   xmlns:inkscape="http://www.inkscape.org/namespaces/inkscape"
   version="1.1"
   id="svg14985"
   xml:space="preserve"
   width="622.76257"
   height="717.26477"
   viewBox="0 0 622.76257 717.26477"
   sodipodi:docname="digital-services-illustration3.svg"
   inkscape:version="0.92.5 (2060ec1f9f, 2020-04-08)"><metadata
     id="metadata14991"><rdf:RDF><cc:Work
         rdf:about=""><dc:format>image/svg+xml</dc:format><dc:type
           rdf:resource="http://purl.org/dc/dcmitype/StillImage" /><dc:title></dc:title></cc:Work></rdf:RDF></metadata><defs
     id="defs14989"><clipPath
       clipPathUnits="userSpaceOnUse"
       id="clipPath15001"><path
         d="M 0,0 H 6000 V 3406.25 H 0 Z"
         id="path14999"
         inkscape:connector-curvature="0"
         style="clip-rule:evenodd" /></clipPath><clipPath
       clipPathUnits="userSpaceOnUse"
       id="clipPath15015"><path
         d="M 0,0 H 6000 V 3375 H 0 Z"
         id="path15013"
         inkscape:connector-curvature="0"
         style="clip-rule:evenodd" /></clipPath><clipPath
       clipPathUnits="userSpaceOnUse"
       id="clipPath15027"><path
         d="m 1960.4218,491.33267 h 2078.125 V 2885.0827 h -2078.125 z"
         id="path15025"
         inkscape:connector-curvature="0"
         style="clip-rule:evenodd" /></clipPath><clipPath
       clipPathUnits="userSpaceOnUse"
       id="clipPath15045"><path
         d="M 2233.4019,1463.4965 H 3797.6658 V 2863.1318 H 2233.4019 Z"
         id="path15043"
         inkscape:connector-curvature="0"
         style="clip-rule:evenodd" /></clipPath><clipPath
       clipPathUnits="userSpaceOnUse"
       id="clipPath15057"><path
         d="m 1960.4218,491.33267 h 2078.125 V 2885.0827 h -2078.125 z"
         id="path15055"
         inkscape:connector-curvature="0"
         style="clip-rule:evenodd" /></clipPath><clipPath
       clipPathUnits="userSpaceOnUse"
       id="clipPath15077"><path
         d="m 3417.9023,1526.8591 h 580.8064 v 1258.201 h -580.8064 z"
         id="path15075"
         inkscape:connector-curvature="0"
         style="clip-rule:evenodd" /></clipPath><clipPath
       clipPathUnits="userSpaceOnUse"
       id="clipPath15089"><path
         d="m 1960.4218,491.33267 h 2078.125 V 2885.0827 h -2078.125 z"
         id="path15087"
         inkscape:connector-curvature="0"
         style="clip-rule:evenodd" /></clipPath><clipPath
       clipPathUnits="userSpaceOnUse"
       id="clipPath15175"><path
         d="m 3033.6177,1897.9832 h 965.0911 v 927.8101 h -965.0911 z"
         id="path15173"
         inkscape:connector-curvature="0"
         style="clip-rule:evenodd" /></clipPath><clipPath
       clipPathUnits="userSpaceOnUse"
       id="clipPath15187"><path
         d="m 1960.4218,491.33267 h 2078.125 V 2885.0827 h -2078.125 z"
         id="path15185"
         inkscape:connector-curvature="0"
         style="clip-rule:evenodd" /></clipPath></defs><sodipodi:namedview
     pagecolor="#ffffff"
     bordercolor="#666666"
     borderopacity="1"
     objecttolerance="10"
     gridtolerance="10"
     guidetolerance="10"
     inkscape:pageopacity="0"
     inkscape:pageshadow="2"
     inkscape:window-width="1366"
     inkscape:window-height="705"
     id="namedview14987"
     showgrid="false"
     inkscape:zoom="0.43703704"
     inkscape:cx="372.89052"
     inkscape:cy="361.26104"
     inkscape:window-x="-8"
     inkscape:window-y="-8"
     inkscape:window-maximized="1"
     inkscape:current-layer="g14993" /><g
     id="g14993"
     inkscape:groupmode="layer"
     inkscape:label="Panx Services Catalogue (2)"
     transform="matrix(0.31999998,0,0,0.31999998,-656.82002,-198.93733)"><g
       id="g15021"><g
         id="g15023"
         clip-path="url(#clipPath15027)"><g
           id="g15029"
           transform="matrix(4.5209942,0,0,4.5259023,2052.562,621.67865)"><path
             d="m 114.92969,200.63281 c -23.449221,9 -57.542971,52 -78.433596,91.46094 -24.546875,46.36719 -53.351563,147.94531 -24.28125,179.20703 18.183594,19.55078 83.453125,10.57031 106.437496,-58.22265 20.48828,-61.32032 66.9375,-239.57032 -3.72265,-212.44532"
             style="fill:#ff2f4c;fill-opacity:1;fill-rule:nonzero;stroke:none"
             id="path15031"
             inkscape:connector-curvature="0" /><path
             d="M 12.449219,353.51172 H 51.289063 L 40.933594,367.72656 Z"
             style="fill:#000000;fill-opacity:1;fill-rule:nonzero;stroke:none"
             id="path15033"
             inkscape:connector-curvature="0" /><path
             d="M 114.92969,200.63281 C 58.640625,216.32813 12.433594,305.78125 1.375,353.51172 l 102.85938,0.0586 c 31.97656,-72.16406 60.23046,-166.75 10.69531,-152.9375"
             style="fill:#1e1548;fill-opacity:1;fill-rule:nonzero;stroke:none"
             id="path15035"
             inkscape:connector-curvature="0" /><path
             d="m 118.26172,71.058594 c 0,0 -19.320314,34.667966 15.40234,39.394536 l -2.61328,-39.394536 h -12.78906"
             style="fill:#2f9ab1;fill-opacity:1;fill-rule:nonzero;stroke:none"
             id="path15037"
             inkscape:connector-curvature="0" /></g></g></g><g
       id="g15039"><g
         id="g15041"
         clip-path="url(#clipPath15045)"><g
           id="g15047"
           transform="matrix(4.5209942,0,0,4.5259023,2052.562,621.67865)"><path
             d="m 114.92969,200.63281 c 22.48047,-9.3125 57.33203,-14.08984 57.33203,-14.08984 l 80.66406,0.30469 c 0,0 51.20313,9.3164 64.89453,13.78515 L 385.64844,495.25 H 40.933594 L 114.92969,200.63281"
             style="fill:#1e1548;fill-opacity:1;fill-rule:nonzero;stroke:none"
             id="path15049"
             inkscape:connector-curvature="0" /></g></g></g><g
       id="g15051"><g
         id="g15053"
         clip-path="url(#clipPath15057)"><g
           id="g15059"
           transform="matrix(4.5209942,0,0,4.5259023,2052.562,621.67865)"><path
             d="m 127.64453,197.84375 c -5.26953,-15.12109 14.74219,-47.79688 99.64063,-48.78125 25.12109,-0.28906 93.14843,9.32812 75.28515,47.67969 -12.14453,26.07031 -60.98047,47.21484 -99.67968,48.96875 -22.26954,1.00781 -61.75782,-9.16016 -75.2461,-47.86719"
             style="fill:#1e1548;fill-opacity:1;fill-rule:nonzero;stroke:none"
             id="path15061"
             inkscape:connector-curvature="0" /><path
             d="m 90.800781,302.39453 c 6.46875,-10.38672 41.335939,-58.46094 46.320309,-64.16406 27.75,-31.75781 34.42579,42.0625 -5.28515,46.88281 -20.49219,2.48438 -43.871096,21.82813 -41.035159,17.28125"
             style="fill:#fcd880;fill-opacity:1;fill-rule:nonzero;stroke:none"
             id="path15063"
             inkscape:connector-curvature="0" /><path
             d="m 215.68359,214.71875 h -73.66406 l -6.67969,6.91797 10.55078,102.95312 h 73.66407 l 6.68359,-6.92187 -10.55469,-102.94922"
             style="fill:#000000;fill-opacity:1;fill-rule:nonzero;stroke:none"
             id="path15065"
             inkscape:connector-curvature="0" /><path
             d="m 135.33984,222.13672 h 73.21094 l 10.50781,102.50391 0.99219,-0.10157 -10.59765,-103.40234 h -74.11329 v 1"
             style="fill:#ff2f4c;fill-opacity:1;fill-rule:nonzero;stroke:none"
             id="path15067"
             inkscape:connector-curvature="0" /><path
             d="m 180.19531,242.96094 -0.49609,0.0469 c 0.0117,0.125 0.0156,0.25 0.0156,0.3711 -0.008,1.95312 -1.46875,3.44531 -3.47656,3.45312 -2.14062,0.0117 -4.09375,-1.77344 -4.28906,-3.92187 -0.0117,-0.125 -0.0156,-0.25 -0.0156,-0.3711 0.008,-1.95312 1.46485,-3.4414 3.47266,-3.44922 2.14453,-0.0117 4.09766,1.76954 4.29297,3.91797 l 0.49609,-0.0469 0.4961,-0.0508 c -0.26172,-2.67969 -2.59766,-4.8125 -5.28516,-4.82032 -1.26172,-0.004 -2.39062,0.48438 -3.19141,1.28907 -0.80468,0.80468 -1.28515,1.92578 -1.28125,3.16015 0,0.15625 0.004,0.3125 0.0195,0.46875 0.26562,2.67969 2.60156,4.8125 5.28515,4.82422 1.26563,0 2.39453,-0.48828 3.19531,-1.29297 0.80469,-0.80468 1.28125,-1.92187 1.28125,-3.16015 0,-0.15235 -0.008,-0.3086 -0.0234,-0.46875 l -0.4961,0.0508"
             style="fill:#ff2f4c;fill-opacity:1;fill-rule:nonzero;stroke:none"
             id="path15069"
             inkscape:connector-curvature="0" /></g></g></g><g
       id="g15071"><g
         id="g15073"
         clip-path="url(#clipPath15077)"><g
           id="g15079"
           transform="matrix(4.5209942,0,0,4.5259023,2052.562,621.67865)"><path
             d="m 317.82031,200.63281 c 13.2461,4.21485 53.40235,14.5 83.30078,96.0625 14.15625,38.61719 31.01954,99.21875 29.125,144.97657 -1.95703,47.39062 -85.84375,56.54687 -113.24218,-30.5586 -15.57813,-49.52344 -22.91797,-218.03906 0.8164,-210.48047"
             style="fill:#ff2f4c;fill-opacity:1;fill-rule:nonzero;stroke:none"
             id="path15081"
             inkscape:connector-curvature="0" /></g></g></g><g
       id="g15083"><g
         id="g15085"
         clip-path="url(#clipPath15089)"><g
           id="g15091"
           transform="matrix(4.5209942,0,0,4.5259023,2052.562,621.67865)"><path
             d="m 317.82031,200.63281 c -22.26172,-4.33593 -27.88281,86.61328 -19.11328,152.9375 H 428.28906 C 395.93359,238.91406 366.48047,210.11328 317.82031,200.63281"
             style="fill:#1e1548;fill-opacity:1;fill-rule:nonzero;stroke:none"
             id="path15093"
             inkscape:connector-curvature="0" /><path
             d="m 249.55469,111.58594 5.24609,74.5 -84.23047,0.45703 v -33.55078 l 78.98438,-41.40625"
             style="fill:#fcd880;fill-opacity:1;fill-rule:nonzero;stroke:none"
             id="path15095"
             inkscape:connector-curvature="0" /><path
             d="m 267.21875,181.64453 c 0,0 -20.10937,10.0586 -26.67969,13.66797 -9.57422,5.26172 -37.66797,22.15234 -37.66797,22.15234 0,0 -14.14453,-14.30468 -19.13281,-18.78125 -5,-4.48828 -20.78516,-17.03906 -20.78516,-17.03906 h 104.26563"
             style="fill:#fcd880;fill-opacity:1;fill-rule:nonzero;stroke:none"
             id="path15097"
             inkscape:connector-curvature="0" /><path
             d="m 189.78906,16.472656 c -30.99609,-4.46875 -66.65234,15.382813 -65.50781,66.496094 0.3125,13.808594 1.875,41.42188 1.625,55.23437 -0.20312,11.26563 0.91016,33.51954 21.60937,39.55469 8.53516,2.48438 15.29297,3.60157 35.19922,4.96485 l 66.83985,-67.30469 c 0,0 3.80078,-89.781251 -59.76563,-98.945314"
             style="fill:#fcd880;fill-opacity:1;fill-rule:nonzero;stroke:none"
             id="path15099"
             inkscape:connector-curvature="0" /><path
             d="m 156.87109,110.46094 0.30469,25.64843 1,-0.0117 -0.30469,-25.64844"
             style="fill:#000000;fill-opacity:1;fill-rule:nonzero;stroke:none"
             id="path15101"
             inkscape:connector-curvature="0" /><path
             d="m 187.31641,119.97656 c 0.24609,2.82032 -1.09375,5.35938 -2.98438,5.67578 -1.89453,0.32032 -3.6289,-1.70703 -3.87109,-4.52343 -0.24219,-2.82032 1.09375,-5.35938 2.98437,-5.67969 1.89453,-0.31641 3.62891,1.71094 3.8711,4.52734"
             style="fill:#000000;fill-opacity:1;fill-rule:nonzero;stroke:none"
             id="path15103"
             inkscape:connector-curvature="0" /><path
             d="m 150.03906,121.02344 c 0.2461,2.8164 -1.09375,5.35937 -2.98437,5.67578 -1.89453,0.32031 -3.625,-1.70703 -3.8711,-4.52735 -0.24218,-2.8164 1.09375,-5.35937 2.98828,-5.67578 1.89063,-0.3164 3.625,1.71094 3.86719,4.52735"
             style="fill:#000000;fill-opacity:1;fill-rule:nonzero;stroke:none"
             id="path15105"
             inkscape:connector-curvature="0" /><path
             d="m 184.08203,145.01953 -0.008,0.0625 c -0.0352,0.35156 -0.28516,2.0625 -1.39063,3.63672 -1.10937,1.57031 -3.0039,3.04687 -6.58593,3.05859 -0.90235,0 -1.91016,-0.0977 -3.03516,-0.3164 l -0.19141,0.98047 c 1.1836,0.23046 2.25391,0.33593 3.22657,0.33593 2.0625,0 3.67968,-0.47265 4.92968,-1.19531 1.875,-1.08984 2.88672,-2.71875 3.42579,-4.05469 0.54296,-1.33593 0.62109,-2.39843 0.625,-2.43359 l -0.9961,-0.0742"
             style="fill:#000000;fill-opacity:1;fill-rule:nonzero;stroke:none"
             id="path15107"
             inkscape:connector-curvature="0" /><path
             d="m 233.10938,25.980469 c 0,0 -65.04297,-54.800782 -100.23047,-5.222656 -4.25782,6 -8.625,16.769531 -8.625,16.769531 0,0 -36.019535,0.113281 -27.925785,25.699219 4.726565,14.941406 30.546875,29.761718 61.347655,12.878906 0,0 -3.5625,22.546875 51.08985,7.445312 0,0 -2.21485,21.914059 16.64062,20.093749 3.87891,-0.375 14.97266,-4.351561 14.97266,-4.351561 l 9.17578,16.125001 1.41797,22.64453 c 0,0 10.09765,-16.87109 15.57812,-26.27344 15.05469,-25.824216 29.54297,-94.859372 -33.4414,-85.808591"
             style="fill:#2f9ab1;fill-opacity:1;fill-rule:nonzero;stroke:none"
             id="path15109"
             inkscape:connector-curvature="0" /><path
             d="m 225.40625,103.64453 c 0,0 4.64844,-26.855467 24.10547,-18.472655 6.94531,2.992188 16.05469,16.429685 0.043,30.246095 l -24.14844,-11.77344"
             style="fill:#fcd880;fill-opacity:1;fill-rule:nonzero;stroke:none"
             id="path15111"
             inkscape:connector-curvature="0" /><path
             d="M 233.53125,107.66797 248.07031,84.894531 247.23047,84.355469 232.6875,107.12891"
             style="fill:#000000;fill-opacity:1;fill-rule:nonzero;stroke:none"
             id="path15113"
             inkscape:connector-curvature="0" /><path
             d="M 23.867188,384.65234 C 72.726563,326.10938 132.67187,239.28125 169.14063,244.12891 c 9.08984,1.20703 25.73437,10.71875 32.61328,16.78125 2.43359,2.14843 7.83203,9.11328 -0.96094,12.94922 0,0 11.82812,9.91015 2.07812,17.42187 0,0 12.78907,11.83203 0.80079,18.22656 0,0 12.58593,11.30469 -1.63282,15.73047 -7.13281,2.22266 -29.66015,0.57422 -29.66015,0.57422 0,0 -43.0625,128.61719 -110.109379,153.20313 -57.5234372,21.08984 -82.515625,-41.51172 -38.402343,-94.36329"
             style="fill:#fcd880;fill-opacity:1;fill-rule:nonzero;stroke:none"
             id="path15115"
             inkscape:connector-curvature="0" /><path
             d="m 155.19141,267.91016 c 0.004,0 0.17187,-0.082 0.48046,-0.23438 1.07422,-0.52734 3.83204,-1.84765 6.75,-3.03515 1.45704,-0.59375 2.95704,-1.15235 4.30469,-1.5586 1.33985,-0.41015 2.53907,-0.66015 3.33203,-0.66015 h 0.0195 v -0.0195 0.0195 -0.0195 0.0195 l 0.0117,0.004 h 0.008 c 1.94531,0.0117 4.87109,0.75391 8.10937,1.8711 4.86328,1.67187 10.45703,4.17578 14.83203,6.25781 2.1836,1.04297 4.06641,1.98047 5.40235,2.65625 1.33203,0.67578 2.11718,1.08984 2.11718,1.08984 l 0.46875,-0.88281 c -0.008,-0.004 -5.6289,-2.97266 -12.28906,-5.95313 -3.33203,-1.48828 -6.92187,-2.98437 -10.20703,-4.11328 -3.28906,-1.1289 -6.25391,-1.90234 -8.42578,-1.92578 l -0.004,0.5 0.0273,-0.5 -0.0703,-0.004 c -1.125,0.004 -2.59375,0.36718 -4.22656,0.89062 -4.875,1.58203 -11.07422,4.70313 -11.08984,4.70703 l 0.45312,0.89063"
             style="fill:#000000;fill-opacity:1;fill-rule:nonzero;stroke:none"
             id="path15117"
             inkscape:connector-curvature="0" /><path
             d="m 155.38672,285.9375 -0.24219,-0.16016 0.20313,0.20704 0.0391,-0.0469 -0.24219,-0.16016 0.20313,0.20704 -0.0352,-0.0352 0.0312,0.0391 0.004,-0.004 -0.0352,-0.0352 0.0312,0.0391 c 0.008,-0.0117 0.0937,-0.0703 0.21875,-0.14062 0.47266,-0.26953 1.51953,-0.75 2.85156,-1.29688 2.00391,-0.82031 4.6836,-1.8125 7.25781,-2.60156 2.57032,-0.79297 5.05469,-1.37891 6.57032,-1.41016 h 0.18359 c 1.97266,-0.004 4.89063,0.6836 8.10938,1.73047 4.83203,1.57031 10.36718,3.9375 14.6875,5.91016 2.16015,0.98437 4.01562,1.875 5.33203,2.51562 1.3164,0.64063 2.08984,1.03125 2.08984,1.03516 l 0.45313,-0.89063 c -0.004,-0.004 -5.54688,-2.82031 -12.13282,-5.64062 -3.29687,-1.41016 -6.85546,-2.81641 -10.12109,-3.87891 -3.26953,-1.0625 -6.23047,-1.78125 -8.41797,-1.78125 h -0.20312 c -1.25782,0.0312 -2.92188,0.36328 -4.75,0.85157 -2.73438,0.73046 -5.82422,1.80859 -8.28125,2.77343 -1.22657,0.48047 -2.29688,0.92969 -3.08594,1.29688 -0.39453,0.17969 -0.71875,0.33984 -0.96485,0.47656 -0.125,0.0703 -0.23046,0.13281 -0.32031,0.19531 -0.0898,0.0664 -0.16406,0.10547 -0.26562,0.25 l 0.83203,0.55469"
             style="fill:#000000;fill-opacity:1;fill-rule:nonzero;stroke:none"
             id="path15119"
             inkscape:connector-curvature="0" /><path
             d="m 159.25,303.07422 c 0,0 0.16016,-0.082 0.46094,-0.23438 1.03906,-0.52734 3.70312,-1.84765 6.53125,-3.03515 1.41406,-0.58985 2.86719,-1.14844 4.17187,-1.5586 1.30469,-0.40625 2.46875,-0.65625 3.24219,-0.65625 h 0.0625 c 1.90625,0.0274 4.76953,0.80469 7.92969,1.96485 4.75,1.74609 10.19922,4.34375 14.45703,6.5039 2.12891,1.08204 3.96094,2.05079 5.25781,2.75391 1.29688,0.69922 2.0586,1.12891 2.0625,1.12891 l 0.48828,-0.8711 c -0.004,-0.004 -5.47265,-3.07812 -11.96484,-6.17187 -3.24609,-1.55078 -6.74609,-3.10156 -9.95313,-4.28125 -3.21484,-1.17578 -6.12109,-1.98828 -8.26171,-2.02735 l -0.008,0.5 0.0195,-0.49609 -0.0898,-0.004 c -1.10547,0.004 -2.53906,0.36719 -4.125,0.89063 -4.73828,1.58203 -10.73047,4.70312 -10.74609,4.70703 l 0.46484,0.88672"
             style="fill:#000000;fill-opacity:1;fill-rule:nonzero;stroke:none"
             id="path15121"
             inkscape:connector-curvature="0" /><path
             d="m 193.69922,255.10547 c -0.008,0.0352 -1.46484,2.99609 -1.47266,5.81641 0,0.85546 0.13672,1.71093 0.52735,2.46875 0.38672,0.7539 1.04687,1.39453 1.99218,1.76562 0.91797,0.36328 2.62891,0.84375 4.32422,0.84766 1.04297,0 2.08985,-0.17969 2.92969,-0.76563 0.84375,-0.58594 1.38672,-1.60547 1.375,-2.99609 l -0.004,-0.21875 -1,0.0351 0.004,0.1836 c -0.0117,1.15625 -0.38672,1.76562 -0.95312,2.17969 -0.57032,0.40625 -1.42579,0.58593 -2.35157,0.58203 -1.5,0.004 -3.15234,-0.45313 -3.95312,-0.77344 -0.73828,-0.29688 -1.17969,-0.74219 -1.47656,-1.30078 -0.29297,-0.5625 -0.41797,-1.25781 -0.41407,-2.00781 -0.004,-1.23829 0.33594,-2.59766 0.6836,-3.63672 0.17578,-0.51953 0.34765,-0.95703 0.47656,-1.26563 0.0664,-0.15625 0.12109,-0.27734 0.15625,-0.35937 l 0.0586,-0.1211 -0.90234,-0.43359"
             style="fill:#000000;fill-opacity:1;fill-rule:nonzero;stroke:none"
             id="path15123"
             inkscape:connector-curvature="0" /><path
             d="m 191.98828,273.11328 -0.10156,-0.48828 c -0.41797,0.0859 -0.78516,0.3125 -1.09375,0.61328 -0.91016,0.91406 -1.42188,2.50391 -1.42969,4.21875 0,1.16797 0.25,2.40235 0.85938,3.4961 0.60547,1.09375 1.58203,2.03906 2.97265,2.58984 1.07813,0.42578 3.5,1.04687 5.74219,1.05078 1.09766,-0.004 2.15625,-0.14844 3.00781,-0.60937 0.42188,-0.23047 0.79297,-0.55079 1.05078,-0.96875 0.25782,-0.41797 0.39844,-0.92969 0.39454,-1.50391 0,-0.625 -0.15625,-1.32813 -0.48047,-2.13281 -0.57032,-1.41016 -1.87891,-3.09375 -3.59375,-4.46485 -1.71094,-1.36718 -3.83985,-2.42578 -6.07422,-2.42968 -0.44922,0 -0.90235,0.043 -1.35547,0.14062 l 0.10156,0.48828 0.10547,0.48828 c 0.37891,-0.0781 0.76563,-0.11718 1.14844,-0.11718 1.90234,-0.004 3.85937,0.93359 5.45312,2.21093 1.59375,1.26953 2.82032,2.87891 3.28907,4.05469 0.28906,0.72266 0.40625,1.30469 0.40625,1.76172 0,0.42187 -0.0937,0.72656 -0.2461,0.98047 -0.23047,0.37109 -0.625,0.64453 -1.1875,0.83203 -0.55859,0.1875 -1.26562,0.26953 -2.01953,0.26953 -2.04687,0.004 -4.44922,-0.60937 -5.375,-0.98047 -1.17187,-0.46875 -1.95312,-1.23437 -2.46484,-2.14844 -0.50782,-0.91406 -0.73438,-1.98437 -0.73438,-3.00781 0,-1.0039 0.21485,-1.96094 0.5586,-2.66406 0.16796,-0.35156 0.36718,-0.64063 0.57031,-0.83984 0.20703,-0.19922 0.41015,-0.3125 0.60156,-0.35157 l -0.10547,-0.48828"
             style="fill:#000000;fill-opacity:1;fill-rule:nonzero;stroke:none"
             id="path15125"
             inkscape:connector-curvature="0" /><path
             d="m 194.6875,291.73828 -0.0781,-0.49219 c -0.45313,0.0703 -0.84766,0.31641 -1.17579,0.64063 -0.97265,0.98828 -1.55468,2.76562 -1.5664,4.59766 0,0.95703 0.16797,1.93359 0.57812,2.80468 0.40625,0.8711 1.06641,1.64063 2.01172,2.125 0.60547,0.3125 1.60156,0.67188 2.77344,0.96485 1.17187,0.29297 2.50391,0.51562 3.75391,0.51562 1.0664,-0.004 2.08203,-0.15625 2.88671,-0.63281 0.40235,-0.23828 0.75,-0.56641 0.98829,-0.98828 0.24218,-0.41797 0.36328,-0.92188 0.36328,-1.48828 0,-0.54688 -0.10938,-1.15235 -0.33985,-1.83203 -0.25781,-0.76172 -0.79687,-1.52735 -1.49609,-2.28516 -1.05078,-1.13281 -2.48047,-2.23047 -3.95313,-3.0625 -1.48046,-0.82422 -2.98437,-1.39453 -4.27343,-1.40234 -0.1875,0 -0.3711,0.0117 -0.55469,0.043 l 0.082,0.49219 0.0781,0.49219 c 0.12109,-0.0156 0.2539,-0.0273 0.39453,-0.0273 0.65625,-0.004 1.50781,0.21484 2.40625,0.59375 1.35156,0.57031 2.8164,1.5039 4.0039,2.51953 1.19141,1.01172 2.09766,2.13281 2.36328,2.95312 0.20313,0.60547 0.28907,1.10938 0.28907,1.51563 0,0.42187 -0.0859,0.74218 -0.23047,0.99609 -0.21875,0.375 -0.57813,0.64844 -1.10156,0.83594 -0.51563,0.1914 -1.1836,0.27734 -1.90625,0.27734 -1.12891,0 -2.39844,-0.20703 -3.51172,-0.48437 -1.10938,-0.27735 -2.07032,-0.62891 -2.5586,-0.88282 -0.73047,-0.3789 -1.23047,-0.95703 -1.5625,-1.66406 -0.33203,-0.70312 -0.48437,-1.53906 -0.48437,-2.3789 0,-1.07032 0.24609,-2.14454 0.63281,-2.94141 0.1875,-0.39844 0.41406,-0.72266 0.63672,-0.94531 0.22656,-0.22657 0.44141,-0.33594 0.62891,-0.36328 l -0.0781,-0.4961"
             style="fill:#000000;fill-opacity:1;fill-rule:nonzero;stroke:none"
             id="path15127"
             inkscape:connector-curvature="0" /><path
             d="m 193.17578,304.01563 c -0.008,0.0156 -0.48437,0.88671 -0.96094,2.16015 -0.47656,1.27735 -0.96093,2.94922 -0.96484,4.60156 0,0.85938 0.13281,1.71094 0.48438,2.49219 0.35156,0.78516 0.92968,1.48438 1.77343,2 0.8125,0.4961 1.9961,0.95703 3.33594,1.3086 1.33984,0.35156 2.82813,0.58593 4.22266,0.58593 1.30859,0 2.54297,-0.19922 3.51172,-0.76562 0.48046,-0.28125 0.89453,-0.66406 1.17968,-1.15625 0.28907,-0.48828 0.44141,-1.07813 0.44141,-1.74219 -0.004,-0.78516 -0.20703,-1.68359 -0.64063,-2.71875 l -0.92187,0.38672 c 0.39844,0.94922 0.5625,1.72266 0.5625,2.33203 -0.004,0.51563 -0.11328,0.91406 -0.30469,1.23828 -0.28125,0.48438 -0.76172,0.83594 -1.42578,1.07813 -0.66406,0.23828 -1.5,0.35156 -2.40234,0.34765 -1.28516,0.004 -2.69922,-0.21875 -3.96875,-0.55078 -1.26563,-0.33203 -2.39063,-0.78125 -3.07032,-1.19922 -0.67187,-0.41406 -1.10156,-0.9375 -1.38281,-1.55468 -0.27734,-0.61329 -0.39453,-1.32813 -0.39453,-2.08204 -0.004,-1.45312 0.44531,-3.03906 0.89844,-4.25 0.23047,-0.60546 0.45703,-1.11718 0.625,-1.47265 0.0859,-0.17969 0.15625,-0.32031 0.20703,-0.41797 0.0469,-0.0937 0.0742,-0.14063 0.0742,-0.14063 l -0.87891,-0.48046"
             style="fill:#000000;fill-opacity:1;fill-rule:nonzero;stroke:none"
             id="path15129"
             inkscape:connector-curvature="0" /><path
             d="m 138.78906,253.86328 -13.97265,12.75 0.67187,0.73828 13.97266,-12.74609"
             style="fill:#000000;fill-opacity:1;fill-rule:nonzero;stroke:none"
             id="path15131"
             inkscape:connector-curvature="0" /><path
             d="m 228.75781,230.32031 c -5.75,-8.99609 -17.90625,-15.86328 -16.07422,2.34375 1.23438,12.27344 9.86329,38.23047 9.86329,38.23047 0,0 -21.75391,-6.6914 -49.35157,2.08985 -6.09375,1.9414 -15.24609,7.8125 -7.35937,14.84765 0,0 -12.41016,7.25781 2.94922,17.97266 0,0 -13.81641,17.22656 36.91406,23.68359 4.05078,0.51563 82.71094,96.17969 135.12891,132.94141 33.36718,23.39844 98.26171,25.21094 77.07421,-40.69531 -15.05078,-46.80469 -92.65625,-82.53516 -153.91796,-141.69532 -21.8711,-21.11718 -25.38672,-34.32812 -35.22657,-49.71875"
             style="fill:#fcd880;fill-opacity:1;fill-rule:nonzero;stroke:none"
             id="path15133"
             inkscape:connector-curvature="0" /><path
             d="m 244.66016,257.28516 c 2.64453,-4.17188 16.96093,-16.85938 19.7539,0 1.71485,10.35156 3.46094,41.83203 3.46094,41.83203 0,0 -36.88281,-20.29297 -23.21484,-41.83203"
             style="fill:#fcd880;fill-opacity:1;fill-rule:nonzero;stroke:none"
             id="path15135"
             inkscape:connector-curvature="0" /><path
             d="m 168.26172,306.30469 c 0.004,0 1.35547,-0.0234 3.61328,-0.0234 4.375,0 12.12891,0.0859 19.88281,0.59375 7.75,0.50391 15.53125,1.44531 19.85547,3.09766 3.11719,1.1875 6.71485,3.21484 9.51953,4.94531 1.39844,0.86719 2.60547,1.65625 3.46094,2.23047 0.42578,0.28515 0.76563,0.51953 0.99609,0.67969 0.23438,0.16015 0.35547,0.25 0.35547,0.25 l 0.58203,-0.81641 c -0.0195,-0.008 -8.11718,-5.76563 -14.55468,-8.22266 -4.55469,-1.72656 -12.35157,-2.64843 -20.14844,-3.16015 -7.79297,-0.51172 -15.55859,-0.59766 -19.94922,-0.59766 -2.26562,0 -3.62891,0.0234 -3.62891,0.0234 l 0.0156,1"
             style="fill:#000000;fill-opacity:1;fill-rule:nonzero;stroke:none"
             id="path15137"
             inkscape:connector-curvature="0" /><path
             d="m 165.08594,288.39844 c 0,0 0.53125,-0.0195 1.49218,-0.0508 2.87501,-0.0859 9.57813,-0.26172 17.13672,-0.26172 10.21094,-0.004 22.01954,0.32422 27.97266,1.60937 4.73828,1.01172 9.89063,3.82032 13.83984,6.37891 1.97266,1.27734 3.64844,2.49219 4.82813,3.38672 0.58984,0.44922 1.05469,0.8164 1.375,1.07031 0.31641,0.25391 0.48437,0.39453 0.48437,0.39453 l 0.64454,-0.76562 c -0.0117,-0.008 -2.78907,-2.33594 -6.78907,-4.92578 -4.0039,-2.58985 -9.22265,-5.45313 -14.17187,-6.51954 -6.14844,-1.3125 -17.9375,-1.6289 -28.1836,-1.6289 -10.10156,0 -18.66406,0.3125 -18.66406,0.3125 l 0.0352,1"
             style="fill:#000000;fill-opacity:1;fill-rule:nonzero;stroke:none"
             id="path15139"
             inkscape:connector-curvature="0" /><path
             d="m 222.32422,271.34375 c 4.94922,2.43359 8.93359,5.33984 11.67187,7.63281 1.3711,1.14844 2.42969,2.14063 3.14844,2.84766 0.35547,0.35156 0.62891,0.63281 0.8086,0.82422 0.0937,0.0976 0.16015,0.17187 0.20312,0.21875 l 0.0664,0.0742 0.74609,-0.66797 c -0.0273,-0.0274 -6.12109,-6.86719 -16.20312,-11.82813 l -0.44141,0.89844"
             style="fill:#000000;fill-opacity:1;fill-rule:nonzero;stroke:none"
             id="path15141"
             inkscape:connector-curvature="0" /><path
             d="m 265.39453,266.13281 -0.0234,0.004 c -0.12109,0.0312 -0.74218,0.17969 -1.52734,0.17969 -0.93359,0 -2.07031,-0.20703 -2.95312,-0.97266 -0.87891,-0.76562 -1.60157,-2.125 -1.60547,-4.68359 v -0.23438 c 0.008,-0.58203 0.23437,-1.70703 0.73047,-2.61328 0.24218,-0.45312 0.55078,-0.85156 0.90625,-1.125 0.35937,-0.27344 0.75,-0.42969 1.24218,-0.43359 0.48828,0 1.09375,0.16406 1.83594,0.62109 l 0.52344,-0.85156 c -0.85547,-0.52735 -1.64063,-0.76953 -2.35938,-0.76953 -0.72265,0 -1.35547,0.2539 -1.85156,0.64062 -0.75391,0.58594 -1.23828,1.44141 -1.55469,2.27344 -0.3164,0.83984 -0.46093,1.65234 -0.47265,2.23828 v 0.25391 c -0.008,2.73437 0.80468,4.45312 1.95312,5.4414 1.14453,0.98828 2.53906,1.21485 3.60547,1.21485 1.03906,-0.004 1.79297,-0.21485 1.82031,-0.22266 l -0.26953,-0.96094"
             style="fill:#000000;fill-opacity:1;fill-rule:nonzero;stroke:none"
             id="path15143"
             inkscape:connector-curvature="0" /><path
             d="m 224.32031,224.61328 c -0.0352,0.0117 -1.41797,0.30078 -2.83593,1.23828 -0.71094,0.46485 -1.4336,1.09766 -1.98047,1.94922 -0.55078,0.84766 -0.91407,1.91797 -0.91407,3.20313 0,1.42187 0.44141,3.10156 1.51954,5.08593 0.45703,0.83985 1.27734,1.65625 2.33593,2.27735 1.05469,0.62109 2.35938,1.04687 3.77735,1.04687 2.03125,0.008 4.28515,-0.89453 6.26562,-3.23828 l -0.76172,-0.64844 c -1.83593,2.15625 -3.76562,2.88282 -5.5039,2.88672 -1.21875,0 -2.35157,-0.36328 -3.27344,-0.90625 -0.91797,-0.53906 -1.62109,-1.25781 -1.96094,-1.89453 -1.01953,-1.8789 -1.39844,-3.39453 -1.39844,-4.60937 0,-1.09766 0.30079,-1.95703 0.75391,-2.66016 0.67578,-1.05469 1.72266,-1.75391 2.60938,-2.17969 0.44531,-0.21093 0.84375,-0.35547 1.13281,-0.44531 0.14062,-0.0469 0.25781,-0.0781 0.33594,-0.10156 l 0.0859,-0.0195 0.0234,-0.004 -0.21094,-0.98047"
             style="fill:#000000;fill-opacity:1;fill-rule:nonzero;stroke:none"
             id="path15145"
             inkscape:connector-curvature="0" /><path
             d="m 170.23828,273.73047 c -0.0117,0.0312 -1.09375,2.23437 -1.09765,4.57422 0,1.02344 0.21484,2.09765 0.88281,2.99219 0.66406,0.89843 1.77344,1.55859 3.38281,1.80468 0.33594,0.0508 0.69922,0.0781 1.07813,0.0781 1.62109,0 3.58593,-0.48828 5.18359,-1.76953 1.60156,-1.27735 2.78125,-3.38282 2.77734,-6.42969 0,-1.24219 -0.1914,-2.64063 -0.61718,-4.21484 l -0.96485,0.26171 c 0.40625,1.50391 0.58203,2.81641 0.58203,3.95313 -0.008,2.79687 -1.03515,4.53906 -2.40625,5.65234 -1.36718,1.10547 -3.13281,1.55078 -4.55468,1.54688 -0.33204,0 -0.64454,-0.0234 -0.92579,-0.0664 -1.42578,-0.22265 -2.23828,-0.75781 -2.73437,-1.41406 -0.49609,-0.66016 -0.68359,-1.50391 -0.68359,-2.39453 -0.004,-1.01563 0.24609,-2.0625 0.5,-2.84375 0.125,-0.39453 0.2539,-0.72266 0.34765,-0.94922 0.0469,-0.11328 0.0859,-0.20313 0.11328,-0.26172 l 0.0391,-0.0859 -0.90235,-0.43359"
             style="fill:#000000;fill-opacity:1;fill-rule:nonzero;stroke:none"
             id="path15147"
             inkscape:connector-curvature="0" /><path
             d="m 169.86328,287.44141 c -0.008,0.0156 -0.48828,0.78125 -0.97265,1.92578 -0.48047,1.14453 -0.97266,2.66015 -0.97266,4.21484 -0.004,1.14453 0.27734,2.32422 1.0625,3.32422 0.78125,0.99609 2.04687,1.76953 3.90234,2.18359 0.64453,0.14454 1.42578,0.23047 2.28125,0.23047 1.92969,-0.004 4.2461,-0.42968 6.12891,-1.71093 1.89062,-1.26954 3.29687,-3.45313 3.28906,-6.71094 0,-1.04297 -0.14062,-2.19141 -0.4414,-3.46094 l -0.97266,0.22656 c 0.28516,1.20703 0.41406,2.28125 0.41406,3.23438 -0.0117,2.97656 -1.20703,4.7539 -2.85156,5.88672 -1.64453,1.12109 -3.78516,1.53515 -5.56641,1.53515 -0.78906,0 -1.5039,-0.082 -2.0625,-0.20703 -1.69922,-0.38281 -2.72265,-1.04687 -3.33593,-1.82812 -0.61719,-0.78125 -0.84766,-1.71094 -0.84766,-2.70313 -0.004,-1.33984 0.44141,-2.75781 0.89453,-3.82812 0.22656,-0.53516 0.45313,-0.98438 0.62109,-1.29688 0.0859,-0.15625 0.15625,-0.28125 0.20704,-0.36328 l 0.0703,-0.12109 -0.84766,-0.53125"
             style="fill:#000000;fill-opacity:1;fill-rule:nonzero;stroke:none"
             id="path15149"
             inkscape:connector-curvature="0" /><path
             d="m 174.13281,305.59375 c -0.0156,0.0352 -0.69922,1.49219 -0.70312,3.36328 0,1.17969 0.28515,2.54297 1.22656,3.75 0.9375,1.21094 2.50781,2.23047 4.96484,2.80469 0.60157,0.14062 1.33204,0.23047 2.13282,0.23047 1.59765,0 3.46484,-0.36328 4.97656,-1.51563 1.51172,-1.15234 2.58984,-3.11328 2.58203,-6.05859 0,-0.60547 -0.043,-1.25 -0.13281,-1.94141 l -0.99219,0.13282 c 0.0859,0.65234 0.125,1.2539 0.125,1.80859 -0.008,2.71875 -0.9375,4.29297 -2.19141,5.26562 -1.25781,0.96875 -2.91796,1.3125 -4.36718,1.3125 -0.72266,0 -1.38672,-0.0859 -1.90625,-0.20703 -2.29688,-0.54297 -3.62891,-1.44922 -4.40235,-2.44531 -0.77343,-0.99609 -1.01172,-2.10937 -1.01562,-3.13672 0,-0.8125 0.15625,-1.55469 0.30859,-2.09375 0.0781,-0.26953 0.15625,-0.48437 0.21094,-0.63281 l 0.0703,-0.16797 0.0156,-0.0391 0.004,-0.008 -0.90625,-0.42188"
             style="fill:#000000;fill-opacity:1;fill-rule:nonzero;stroke:none"
             id="path15151"
             inkscape:connector-curvature="0" /><path
             d="m 244.22656,257.53516 c 0.0117,0.0156 5.83203,10.0664 14.17969,19.73047 l 0.75781,-0.65235 c -4.14062,-4.79297 -7.66015,-9.6914 -10.14453,-13.39062 -1.24219,-1.84766 -2.22265,-3.39844 -2.89844,-4.48438 -0.33593,-0.54297 -0.59375,-0.96875 -0.76562,-1.26172 -0.17188,-0.28906 -0.26172,-0.4414 -0.26172,-0.4414 l -0.86719,0.5"
             style="fill:#000000;fill-opacity:1;fill-rule:nonzero;stroke:none"
             id="path15153"
             inkscape:connector-curvature="0" /><path
             d="m 6.890625,335.05469 h 57.375 v -1 h -57.375 z"
             style="fill:#000000;fill-opacity:1;fill-rule:nonzero;stroke:none"
             id="path15155"
             inkscape:connector-curvature="0" /><path
             d="m 341.66406,335.05469 h 81.04688 v -1 h -81.04688 z"
             style="fill:#000000;fill-opacity:1;fill-rule:nonzero;stroke:none"
             id="path15157"
             inkscape:connector-curvature="0" /><path
             d="m 159.87109,79.40625 c 0.004,0.06641 0.2461,3.179688 3.08985,6.289063 2.84375,3.117187 8.26562,6.160156 18.41797,6.15625 7.83593,0 18.50781,-1.800782 33.07812,-6.753907 l -0.32031,-0.949218 c -14.50391,4.933593 -25.07422,6.703125 -32.75781,6.703125 -9.96485,-0.0078 -15.04688,-2.953125 -17.67969,-5.828125 -1.31641,-1.441407 -2.02344,-2.878907 -2.40625,-3.949219 -0.1875,-0.535156 -0.29688,-0.980469 -0.35547,-1.285156 -0.0312,-0.152344 -0.0469,-0.273438 -0.0586,-0.351563 l -0.008,-0.08594 -0.004,-0.01953 -0.9961,0.07422"
             style="fill:#2f9ab1;fill-opacity:1;fill-rule:nonzero;stroke:none"
             id="path15159"
             inkscape:connector-curvature="0" /><path
             d="m 95.890625,57.789063 v 0.08203 c 0.0039,0.8125 0.09766,7.714844 3.648438,14.484375 1.773437,3.386719 4.421877,6.734375 8.359377,9.234375 3.93359,2.5 9.14453,4.136719 16,4.136719 8.75781,0 20.20312,-2.660157 35.21093,-9.582032 l -0.42187,-0.90625 c -14.91797,6.882813 -26.23438,9.488282 -34.78906,9.488282 -6.69922,0 -11.70313,-1.589844 -15.46485,-3.980469 -5.64062,-3.582031 -8.531246,-9 -10.007809,-13.695313 -1.480468,-4.691406 -1.535156,-8.636718 -1.535156,-9.179687 v -0.0625 l -1,-0.01953"
             style="fill:#2f9ab1;fill-opacity:1;fill-rule:nonzero;stroke:none"
             id="path15161"
             inkscape:connector-curvature="0" /><path
             d="m 233.23828,26.464844 c 0,0 0.0937,-0.02734 0.28125,-0.07031 1.3125,-0.320312 7.07422,-1.609375 14.17969,-1.609375 7.21875,0 15.80469,1.335938 22.54297,6.292969 6.73437,4.953125 11.71484,13.511719 11.72265,28.257813 0,4.109375 -0.39062,8.703125 -1.24218,13.824218 -1.95313,11.75 -9.16016,30.121091 -19.15235,43.835931 l 0.8086,0.58985 c 10.10156,-13.87891 17.33203,-32.304687 19.32812,-44.261718 0.86328,-5.167969 1.25781,-9.8125 1.25781,-13.988281 0.0117,-14.957032 -5.11718,-23.925782 -12.1289,-29.066407 -7.00781,-5.140625 -15.80469,-6.480468 -23.13672,-6.480468 -8.25781,0 -14.69141,1.703125 -14.71484,1.707031 l 0.2539,0.96875"
             style="fill:#2f9ab1;fill-opacity:1;fill-rule:nonzero;stroke:none"
             id="path15163"
             inkscape:connector-curvature="0" /><path
             d="m 122.625,41.425781 c 0,0 0.0156,-0.144531 0.0586,-0.4375 0.30079,-2.175781 2,-12.105468 8.45703,-21.445312 C 137.60548,10.207031 148.75782,1.4375 168.19142,1.429688 V 0.42968801 c -10.52735,0 -18.73047,2.55078099 -25.08594,6.39062399 -9.53906,5.761719 -14.90235,14.394532 -17.88281,21.566407 -2.98047,7.175781 -3.58594,12.902344 -3.58985,12.9375 l 0.99219,0.101562"
             style="fill:#2f9ab1;fill-opacity:1;fill-rule:nonzero;stroke:none"
             id="path15165"
             inkscape:connector-curvature="0" /><path
             d="m 205.62891,268.01563 c -1.08203,-0.0391 -2.21094,-0.0625 -3.375,-0.0586 -8.15235,-0.004 -18.21875,1.05469 -29.20703,4.55078 -2.25782,0.71875 -4.90235,1.95313 -7.01954,3.60157 -1.05859,0.82421 -1.98828,1.7539 -2.66015,2.79296 -0.67188,1.03516 -1.08985,2.1875 -1.08985,3.41797 0,1.89063 0.98047,3.88282 3.22657,5.88282 l 0.33203,-0.3711 -0.25,-0.43359 c -0.0273,0.0156 -1.2461,0.73047 -2.48438,2.05859 -1.23047,1.32422 -2.5,3.28516 -2.5039,5.78906 0,1.54297 0.49218,3.26172 1.72656,5.09766 1.23437,1.83594 3.20312,3.79688 6.17187,5.87109 l 0.28907,-0.41015 -0.39063,-0.3125 c -0.0312,0.043 -1.82031,2.26172 -1.82812,5.51172 -0.008,2.36718 0.99609,5.25 4.24218,8.04297 3.25,2.80078 8.71875,5.55468 17.74219,7.83984 l 0.2461,-0.97266 c -8.9336,-2.25781 -14.26563,-4.97265 -17.33204,-7.625 -3.0664,-2.65234 -3.89062,-5.19922 -3.89843,-7.28515 0,-1.4336 0.40625,-2.66407 0.8125,-3.53516 0.20312,-0.43359 0.40625,-0.77734 0.55859,-1.01172 0.0742,-0.11328 0.13672,-0.20312 0.17578,-0.26172 l 0.0469,-0.0625 0.0156,-0.0156 0.33203,-0.41797 -0.4375,-0.30469 c -2.89844,-2.02344 -4.77344,-3.90625 -5.91406,-5.60937 -1.14063,-1.69922 -1.55469,-3.21094 -1.55859,-4.53907 0,-2.14453 1.09765,-3.88671 2.23828,-5.10937 0.5664,-0.60938 1.13672,-1.08203 1.55859,-1.39844 0.21484,-0.16015 0.39063,-0.28125 0.51172,-0.35937 l 0.14062,-0.0899 0.043,-0.0273 0.59375,-0.34766 -0.51172,-0.45703 c -2.11718,-1.89062 -2.89453,-3.60937 -2.89453,-5.13672 0,-1.0039 0.33594,-1.96093 0.92578,-2.875 0.88672,-1.37109 2.35938,-2.62109 4.01954,-3.64062 1.66406,-1.02735 3.50781,-1.82813 5.125,-2.34375 10.875,-3.46094 20.83984,-4.50391 28.90625,-4.50781 1.15234,0 2.26562,0.0234 3.33984,0.0625 l 0.0352,-1"
             style="fill:#000000;fill-opacity:1;fill-rule:nonzero;stroke:none"
             id="path15167"
             inkscape:connector-curvature="0" /></g></g></g><g
       id="g15169"><g
         id="g15171"
         clip-path="url(#clipPath15175)"><g
           id="g15177"
           transform="matrix(4.5209942,0,0,4.5259023,2052.562,621.67865)"><path
             d="m 429.55859,423.375 c -4.95703,-35.81641 -101.59375,-82.99609 -162.64453,-140.53906 6.41797,14.75 3.46094,29.98047 -1.38281,38.23437 -19.14062,32.60547 -48.41797,19.82422 -48.41797,19.82422 11.48047,17.83203 65.38281,93.00391 117.70313,129.86719 41.28125,29.08984 103.92968,18.95703 94.74218,-47.38672"
             style="fill:#ff2f4c;fill-opacity:1;fill-rule:nonzero;stroke:none"
             id="path15179"
             inkscape:connector-curvature="0" /></g></g></g><g
       id="g15181"><g
         id="g15183"
         clip-path="url(#clipPath15187)"><g
           id="g15189"
           transform="matrix(4.5209942,0,0,4.5259023,2052.562,621.67865)"><path
             d="M 132.13672,332.51172 C 95.398438,311.10547 109.19922,275.94141 109.19922,275.94141 100.96484,287.42578 45.035156,359.28906 23.867188,384.65234 -20.246094,437.50391 4.7460938,500.10547 62.269531,479.01563 129.31641,454.42969 172.37891,325.82031 172.37891,325.8125 c -9.5625,13.36719 -31.42969,11.83203 -40.24219,6.69922"
             style="fill:#ff2f4c;fill-opacity:1;fill-rule:nonzero;stroke:none"
             id="path15191"
             inkscape:connector-curvature="0" /><path
             d="m 358.98438,353.57031 13.67968,10.3086 45.23828,-10.3086 z"
             style="fill:#000000;fill-opacity:1;fill-rule:nonzero;stroke:none"
             id="path15193"
             inkscape:connector-curvature="0" /><path
             d="m 360.35547,354.52344 44.32812,35.15625 0.6211,-0.78516 -44.32813,-35.15234"
             style="fill:#000000;fill-opacity:1;fill-rule:nonzero;stroke:none"
             id="path15195"
             inkscape:connector-curvature="0" /><path
             d="m 47.292969,354.10938 -25.996094,34.8789 0.800781,0.59766 25.996094,-34.87891"
             style="fill:#000000;fill-opacity:1;fill-rule:nonzero;stroke:none"
             id="path15197"
             inkscape:connector-curvature="0" /><path
             d="m 343.24219,342.25781 -7.11328,-51.04297 -0.99219,0.13672 7.11328,51.04297"
             style="fill:#000000;fill-opacity:1;fill-rule:nonzero;stroke:none"
             id="path15199"
             inkscape:connector-curvature="0" /><path
             d="m 274.65625,177.88672 c -26.85156,10.76562 -72.03516,39.14844 -72.05078,39.15625 l 0.26562,0.42187 0.36329,-0.34375 c -0.0117,-0.008 -23.16407,-24.58593 -40.66797,-36.34375 l -0.5586,0.82813 c 8.66407,5.82031 18.80469,14.875 26.75782,22.47266 3.98046,3.79687 7.41796,7.23046 9.85546,9.71484 1.22266,1.24219 2.19532,2.24609 2.85938,2.94141 0.66797,0.6914 1.02734,1.07421 1.02734,1.07421 l 0.28125,0.30079 0.34766,-0.21875 c 0.004,-0.004 0.70703,-0.44532 1.99219,-1.23829 9.0039,-5.57421 46.54687,-28.48046 69.89843,-37.83593 l -0.37109,-0.92969"
             style="fill:#000000;fill-opacity:1;fill-rule:nonzero;stroke:none"
             id="path15201"
             inkscape:connector-curvature="0" /><path
             d="m 302.11328,196.53906 -0.0273,0.0625 c -0.64844,1.34766 -12.25781,24.69922 -57.58985,40.48438 l 0.32813,0.94531 c 47.05078,-16.375 58.16016,-40.98047 58.19922,-41.08203 l -0.91016,-0.41016"
             style="fill:#000000;fill-opacity:1;fill-rule:nonzero;stroke:none"
             id="path15203"
             inkscape:connector-curvature="0" /><path
             d="m 126.75391,196.32031 c 0,0.11328 0.92578,9.61328 14.99218,18.81641 l 0.54688,-0.83594 c -6.90625,-4.52344 -10.53516,-9.07031 -12.44922,-12.47265 -0.95313,-1.69922 -1.48047,-3.11329 -1.76563,-4.09375 -0.14453,-0.49219 -0.22656,-0.875 -0.27343,-1.13282 -0.0234,-0.1289 -0.0391,-0.22265 -0.0469,-0.28515 l -0.008,-0.0703 -0.004,-0.0156 -0.99218,0.0898"
             style="fill:#000000;fill-opacity:1;fill-rule:nonzero;stroke:none"
             id="path15205"
             inkscape:connector-curvature="0" /><path
             d="m 227.38672,228.62891 c 10.76172,-3.85547 23.42969,-11.46094 23.44531,-11.46875 l -0.51562,-0.85938 c 0,0 -0.19532,0.11719 -0.5586,0.33203 -2.55859,1.5 -13.41797,7.73047 -22.70703,11.05469 l 0.33594,0.94141"
             style="fill:#000000;fill-opacity:1;fill-rule:nonzero;stroke:none"
             id="path15207"
             inkscape:connector-curvature="0" /><path
             d="m 159.4375,204.10547 c 8.35156,7.75781 15.12891,11.47266 15.15234,11.48828 l 0.48047,-0.875 c 0,0 -0.0977,-0.0547 -0.29297,-0.16797 -1.38281,-0.80078 -7.42187,-4.45312 -14.66015,-11.17969 l -0.67969,0.73438"
             style="fill:#000000;fill-opacity:1;fill-rule:nonzero;stroke:none"
             id="path15209"
             inkscape:connector-curvature="0" /><path
             d="m 137.45703,173.17969 c 3.05859,2.11719 7.02344,4.20703 9.92188,5.05469 8.5664,2.5 15.39062,3.625 35.30078,4.98828 l 0.0664,-1 c -19.90234,-1.36328 -26.59765,-2.47266 -35.08984,-4.94532 -2.71484,-0.78906 -6.66016,-2.85937 -9.62891,-4.92187 l -0.57031,0.82422"
             style="fill:#000000;fill-opacity:1;fill-rule:nonzero;stroke:none"
             id="path15211"
             inkscape:connector-curvature="0" /><path
             d="m 94.664063,293.92578 c -0.0078,0.0274 -1.546875,5.30078 -1.546875,12.83985 0,6.02734 0.984375,13.5039 4.535156,20.89843 3.550786,7.39453 9.679686,14.69141 19.906246,20.32032 5.42188,2.98046 13.3711,5.33593 22.16797,5.33984 8.27735,0 17.3086,-2.09766 25.6211,-7.75781 l -0.5625,-0.82422 c -8.12891,5.53125 -16.94532,7.58203 -25.0586,7.58203 -8.61719,0 -16.42968,-2.32031 -21.6875,-5.21875 -10.05078,-5.53516 -16.01562,-12.65625 -19.484372,-19.875 -3.46875,-7.21875 -4.4375,-14.54688 -4.4375,-20.46484 0,-3.70313 0.378906,-6.85157 0.757812,-9.07032 0.1875,-1.10547 0.378906,-1.98437 0.519531,-2.58203 0.07031,-0.30078 0.128907,-0.52734 0.167969,-0.68359 0.03906,-0.15235 0.0625,-0.22656 0.0625,-0.22656 l -0.960937,-0.27735"
             style="fill:#000000;fill-opacity:1;fill-rule:nonzero;stroke:none"
             id="path15213"
             inkscape:connector-curvature="0" /><path
             d="m 227.07422,356.07031 c 0.0312,0.008 5.59766,1.70313 13.36328,1.70703 5.81641,0 12.875,-0.95703 19.74219,-4.3125 6.87109,-3.35546 13.53515,-9.12109 18.53906,-18.67968 3.08984,-5.90625 6.625,-13.71485 6.62109,-23.83985 0,-4.26562 -0.625,-8.9375 -2.16796,-14.04297 l -0.95704,0.28907 c 1.51563,5.01562 2.125,9.58593 2.125,13.7539 0,9.88672 -3.4414,17.51172 -6.50781,23.37891 -4.91406,9.375 -11.39844,14.96875 -18.08984,18.24219 -6.69141,3.26953 -13.59375,4.21093 -19.30469,4.21093 -3.80859,0 -7.08594,-0.41796 -9.40625,-0.83593 -1.16016,-0.20703 -2.07812,-0.41797 -2.70703,-0.57422 -0.31641,-0.0742 -0.55859,-0.14063 -0.71875,-0.1836 -0.16406,-0.0469 -0.24219,-0.0703 -0.24219,-0.0703 l -0.28906,0.95703"
             style="fill:#000000;fill-opacity:1;fill-rule:nonzero;stroke:none"
             id="path15215"
             inkscape:connector-curvature="0" /></g></g></g></g></svg>