<?xml version="1.0" encoding="UTF-8" standalone="no"?>
<!-- Created with Inkscape (http://www.inkscape.org/) -->

<svg
   xmlns:dc="http://purl.org/dc/elements/1.1/"
   xmlns:cc="http://creativecommons.org/ns#"
   xmlns:rdf="http://www.w3.org/1999/02/22-rdf-syntax-ns#"
   xmlns:svg="http://www.w3.org/2000/svg"
   xmlns="http://www.w3.org/2000/svg"
   xmlns:sodipodi="http://sodipodi.sourceforge.net/DTD/sodipodi-0.dtd"
   xmlns:inkscape="http://www.inkscape.org/namespaces/inkscape"
   version="1.1"
   id="svg16"
   width="462.93332"
   height="462.93332"
   viewBox="0 0 462.93332 462.93332"
   sodipodi:docname="panxicon2020.svg"
   inkscape:version="0.92.5 (2060ec1f9f, 2020-04-08)">
  <metadata
     id="metadata22">
    <rdf:RDF>
      <cc:Work
         rdf:about="">
        <dc:format>image/svg+xml</dc:format>
        <dc:type
           rdf:resource="http://purl.org/dc/dcmitype/StillImage" />
        <dc:title></dc:title>
      </cc:Work>
    </rdf:RDF>
  </metadata>
  <defs
     id="defs20" />
  <sodipodi:namedview
     pagecolor="#ffffff"
     bordercolor="#666666"
     borderopacity="1"
     objecttolerance="10"
     gridtolerance="10"
     guidetolerance="10"
     inkscape:pageopacity="0"
     inkscape:pageshadow="2"
     inkscape:window-width="1366"
     inkscape:window-height="705"
     id="namedview18"
     showgrid="false"
     inkscape:zoom="1.1621544"
     inkscape:cx="216.97635"
     inkscape:cy="230.27115"
     inkscape:window-x="-8"
     inkscape:window-y="-8"
     inkscape:window-maximized="1"
     inkscape:current-layer="svg16" />
  <g
     id="g30"
     transform="translate(-1.0674661e-6,0.3023505)">
    <path
       style="fill:#fefefe;stroke-width:1.0666666"
       d="M 0,231.46666 V 0 H 231.46666 462.93332 V 231.46666 462.93332 H 231.46666 0 Z"
       id="path46"
       inkscape:connector-curvature="0" />
    <path
       style="fill:#fbde9a;stroke-width:1.0666666"
       d="m 219.21628,409.62635 c -0.35362,-0.57218 9.93806,-19.47509 22.87039,-42.00647 12.93233,-22.53139 23.51332,-41.47999 23.51332,-42.108 0,-0.62801 -10.54406,-19.47671 -23.43126,-41.886 -12.88719,-22.40929 -23.17887,-41.15255 -22.87038,-41.6517 0.72843,-1.17862 178.26741,-1.19066 178.99578,-0.0122 0.30437,0.49247 -10.04137,19.43073 -22.99051,42.08502 l -23.54391,41.18963 6.65509,12.58165 c 7.94698,15.02401 29.45433,53.30637 35.81768,63.75428 2.49202,4.09161 4.30084,7.81161 4.0196,8.26666 -0.77353,1.25162 -178.26112,1.0405 -179.0358,-0.21295 z m -163.482948,-1.84581 -2.4,-0.46226 v -85.37327 c 0,-71.10796 0.239902,-85.2812 1.435736,-84.82232 0.789656,0.30302 14.589655,10.3449 30.666666,22.31528 41.846526,31.15745 51.054766,37.56485 52.257296,36.36232 0.57071,-0.57071 1.32916,-13.44943 1.70478,-28.94754 l 0.67665,-27.91942 h 11.92575 c 6.55916,0 19.9224,-0.31538 29.69609,-0.70085 l 17.77036,-0.70084 v 85.50084 85.50084 L 128.8,408.38806 c -38.866669,-0.0799 -71.746668,-0.35328 -73.066668,-0.60752 z M 52.989986,223.30109 C 51.816993,222.1281 52.125929,57.042374 53.306931,53.936105 l 1.040265,-2.736106 42.4264,0.06711 c 55.388044,0.08762 57.186154,0.270654 71.227544,7.250409 27.96962,13.90327 43.30161,41.074412 39.96132,70.818922 -1.68361,14.99203 -7.63113,27.38146 -18.85699,39.28147 -11.80612,12.51511 -25.82137,19.77154 -43.49369,22.519 l -7.95689,1.23704 -0.29412,15.54635 -0.29411,15.54636 -41.676676,0.27888 c -22.922173,0.15338 -42.002172,-0.0466 -42.399998,-0.44445 z m 145.802104,-0.88452 c -0.33951,-0.88475 2.35067,-6.65031 6.09683,-13.06667 22.98829,-39.37393 97.31724,-164.251607 98.44191,-165.389095 0.74639,-0.754891 2.04229,-1.106393 2.87979,-0.78112 0.83749,0.325275 4.93728,6.222911 9.11064,13.10586 4.17335,6.882949 20.6919,34.114452 36.70787,60.514455 61.63085,101.58948 63.09134,104.08924 61.75496,105.69947 -1.92973,2.3252 -214.09932,2.24338 -214.992,-0.0829 z"
       id="path44"
       inkscape:connector-curvature="0" />
    <path
       style="fill:#fbd67e;stroke-width:1.0666666"
       d="m 219.21628,409.62635 c -0.35362,-0.57218 9.93806,-19.47509 22.87039,-42.00647 12.93233,-22.53139 23.51332,-41.48367 23.51332,-42.11618 0,-0.6325 -10.32,-19.08426 -22.93333,-41.0039 -12.61333,-21.91965 -22.93333,-40.65923 -22.93333,-41.64352 0,-1.66076 6.41317,-1.78962 89.06666,-1.78962 82.22057,0 89.06667,0.13589 89.06667,1.76799 0,0.97239 -10.38761,19.93103 -23.08357,42.1303 l -23.08356,40.3623 3.51607,6.66971 c 6.37657,12.09588 29.85116,54.11159 36.31036,64.98967 3.48738,5.87318 6.3407,11.35384 6.3407,12.17926 0,1.27792 -13.21606,1.50076 -89.00371,1.50076 -56.68176,0 -89.23721,-0.37779 -89.64667,-1.0403 z m -161.082948,-3.09238 -3.2,-0.68814 -0.27334,-82.06292 c -0.150336,-45.1346 0.112026,-82.44827 0.583026,-82.91927 0.471002,-0.471 11.874004,7.35936 25.340006,17.40081 27.632186,20.605 52.409126,38.50703 55.825256,40.33529 1.80204,0.96442 2.40808,0.91796 2.844,-0.21804 0.30469,-0.79399 0.89756,-14.13469 1.31751,-29.646 l 0.76354,-28.20237 27.2,-0.7943 c 14.96,-0.43685 27.80293,-0.57079 28.53984,-0.29764 1.06291,0.394 1.28338,17.75489 1.06666,83.99429 l -0.27317,83.49764 -68.26666,0.1444 c -37.546669,0.0794 -69.706668,-0.16527 -71.466668,-0.54375 z m -4.8,-267.24673 c 0,-46.005354 0.291354,-84.405353 0.647455,-85.333335 0.576207,-1.501571 5.418114,-1.680911 43.999998,-1.629727 53.321635,0.07074 56.936565,0.394683 69.000435,6.183337 19.90426,9.550731 32.46333,24.075699 38.41296,44.425815 2.88863,9.88023 2.6113,28.74977 -0.56436,38.4 -3.24026,9.84656 -5.76755,14.74421 -11.37625,22.04616 -11.29982,14.71121 -29.28004,24.88025 -47.85357,27.06445 -3.52,0.41394 -7,1.23217 -7.73334,1.81828 -0.95142,0.76042 -1.33333,5.30567 -1.33333,15.86838 v 14.80273 H 94.933331 53.333332 Z m 146.456528,81.45872 c 1.35706,-5.18939 103.39645,-176.396088 105.35735,-176.773723 1.12376,-0.216415 3.9371,3.42388 8.64554,11.186809 30.51785,50.315594 84.24315,139.014814 91.42606,150.942334 4.84728,8.0491 8.5077,15.1291 8.13426,15.73333 -0.4585,0.74187 -35.33675,1.09862 -107.40711,1.09862 H 199.21785 Z"
       id="path42"
       inkscape:connector-curvature="0" />
    <path
       style="fill:#f27489;stroke-width:1.0666666"
       d="m 219.21628,409.62635 c -0.35362,-0.57218 9.93806,-19.47509 22.87039,-42.00647 12.93233,-22.53139 23.51332,-41.48367 23.51332,-42.11618 0,-0.6325 -10.32,-19.08426 -22.93333,-41.0039 -12.61333,-21.91965 -22.93333,-40.65923 -22.93333,-41.64352 0,-1.66076 6.41317,-1.78962 89.06666,-1.78962 82.22057,0 89.06667,0.13589 89.06667,1.76799 0,0.97239 -10.38761,19.93103 -23.08357,42.1303 l -23.08356,40.3623 3.51607,6.66971 c 6.37657,12.09588 29.85116,54.11159 36.31036,64.98967 3.48738,5.87318 6.3407,11.35384 6.3407,12.17926 0,1.27792 -13.21606,1.50076 -89.00371,1.50076 -56.68176,0 -89.23721,-0.37779 -89.64667,-1.0403 z M 53.333332,139.28724 c 0,-46.005354 0.291354,-84.405353 0.647455,-85.333335 0.576207,-1.501571 5.418114,-1.680911 43.999998,-1.629727 53.321635,0.07074 56.936565,0.394683 69.000435,6.183337 19.90426,9.550731 32.46333,24.075699 38.41296,44.425815 2.88863,9.88023 2.6113,28.74977 -0.56436,38.4 -3.24026,9.84656 -5.76755,14.74421 -11.37625,22.04616 -11.29982,14.71121 -29.28004,24.88025 -47.85357,27.06445 -3.52,0.41394 -7,1.23217 -7.73334,1.81828 -0.95142,0.76042 -1.33333,5.30567 -1.33333,15.86838 v 14.80273 H 94.933331 53.333332 Z m 146.456528,81.45872 c 1.35706,-5.18939 103.39645,-176.396088 105.35735,-176.773723 1.12376,-0.216415 3.9371,3.42388 8.64554,11.186809 30.51785,50.315594 84.24315,139.014814 91.42606,150.942334 4.84728,8.0491 8.5077,15.1291 8.13426,15.73333 -0.4585,0.74187 -35.33675,1.09862 -107.40711,1.09862 H 199.21785 Z"
       id="path40"
       inkscape:connector-curvature="0" />
    <path
       style="fill:#2f99b0;stroke-width:1.0666666"
       d="m 219.21628,409.62635 c -0.35362,-0.57218 9.93806,-19.47509 22.87039,-42.00647 12.93233,-22.53139 23.51332,-41.48367 23.51332,-42.11618 0,-0.6325 -10.32,-19.08426 -22.93333,-41.0039 -12.61333,-21.91965 -22.93333,-40.65923 -22.93333,-41.64352 0,-1.66076 6.41317,-1.78962 89.06666,-1.78962 82.22057,0 89.06667,0.13589 89.06667,1.76799 0,0.97239 -10.38761,19.93103 -23.08357,42.1303 l -23.08356,40.3623 3.51607,6.66971 c 6.37657,12.09588 29.85116,54.11159 36.31036,64.98967 3.48738,5.87318 6.3407,11.35384 6.3407,12.17926 0,1.27792 -13.21606,1.50076 -89.00371,1.50076 -56.68176,0 -89.23721,-0.37779 -89.64667,-1.0403 z M 53.333332,139.28724 c 0,-46.005354 0.291354,-84.405353 0.647455,-85.333335 0.576115,-1.501334 5.365426,-1.679845 43.466665,-1.620124 53.652598,0.0841 57.568448,0.424784 69.154868,6.016611 16.40522,7.91747 26.42157,17.504622 34.06983,32.609953 4.80567,9.491195 6.55814,17.889285 6.50504,31.172985 -0.0383,9.59032 -0.54986,13.30717 -2.80064,20.3503 -4.89503,15.31754 -14.52033,27.76313 -28.31579,36.61254 -9.33039,5.98519 -17.52113,9.06313 -29.00258,10.89865 -4.322,0.69096 -8.45818,1.72355 -9.19152,2.29467 -0.95273,0.74198 -1.33333,5.26385 -1.33333,15.84111 v 14.80273 H 94.933331 53.333332 Z m 147.893438,81.7718 c -0.44831,-0.72536 21.07257,-37.50403 82.22803,-140.525709 11.14418,-18.773333 20.92583,-34.263068 21.737,-34.421632 0.92074,-0.179983 8.33154,11.041312 19.72464,29.866666 10.03737,16.58523 33.50802,55.333255 52.15698,86.106725 18.64896,30.77348 34.13254,56.81347 34.40795,57.86667 0.47923,1.83252 -4.02174,1.9149 -104.62735,1.9149 -57.82047,0 -105.35274,-0.36342 -105.62725,-0.80762 z"
       id="path38"
       inkscape:connector-curvature="0" />
    <path
       style="fill:#fe2e4c;stroke-width:1.0666666"
       d="m 53.333332,139.28724 c 0,-46.005354 0.291354,-84.405353 0.647455,-85.333335 0.576115,-1.501334 5.365426,-1.679845 43.466665,-1.620124 53.652598,0.0841 57.568448,0.424784 69.154868,6.016611 16.40522,7.91747 26.42157,17.504622 34.06983,32.609953 4.80567,9.491195 6.55814,17.889285 6.50504,31.172985 -0.0383,9.59032 -0.54986,13.30717 -2.80064,20.3503 -4.89503,15.31754 -14.52033,27.76313 -28.31579,36.61254 -9.33039,5.98519 -17.52113,9.06313 -29.00258,10.89865 -4.322,0.69096 -8.45818,1.72355 -9.19152,2.29467 -0.95273,0.74198 -1.33333,5.26385 -1.33333,15.84111 v 14.80273 H 94.933331 53.333332 Z m 147.893438,81.7718 c -0.44831,-0.72536 21.07257,-37.50403 82.22803,-140.525709 11.14418,-18.773333 20.92583,-34.263068 21.737,-34.421632 0.92074,-0.179983 8.33154,11.041312 19.72464,29.866666 10.03737,16.58523 33.50802,55.333255 52.15698,86.106725 18.64896,30.77348 34.13254,56.81347 34.40795,57.86667 0.47923,1.83252 -4.02174,1.9149 -104.62735,1.9149 -57.82047,0 -105.35274,-0.36342 -105.62725,-0.80762 z"
       id="path36"
       inkscape:connector-curvature="0" />
    <path
       style="fill:#6c6687;stroke-width:1.0666666"
       d="m 53.333332,139.28724 c 0,-46.005354 0.291354,-84.405353 0.647455,-85.333335 0.576115,-1.501334 5.365426,-1.679845 43.466665,-1.620124 53.652598,0.0841 57.568448,0.424784 69.154868,6.016611 16.40522,7.91747 26.42157,17.504622 34.06983,32.609953 4.80567,9.491195 6.55814,17.889285 6.50504,31.172985 -0.0383,9.59032 -0.54986,13.30717 -2.80064,20.3503 -4.89503,15.31754 -14.52033,27.76313 -28.31579,36.61254 -9.33039,5.98519 -17.52113,9.06313 -29.00258,10.89865 -4.322,0.69096 -8.45818,1.72355 -9.19152,2.29467 -0.95273,0.74198 -1.33333,5.26385 -1.33333,15.84111 v 14.80273 H 94.933331 53.333332 Z"
       id="path34"
       inkscape:connector-curvature="0" />
    <path
       style="fill:#1d1447;stroke-width:1.0666666"
       d="m 55.123901,221.16835 c -0.398146,-0.39816 -0.723903,-37.51216 -0.723903,-82.4756 0,-65.789632 0.273322,-82.125465 1.399854,-83.666089 1.319364,-1.804338 4.125312,-1.887084 48.799998,-1.439074 44.93857,0.450656 47.72006,0.592381 53.56047,2.729042 11.71398,4.285462 19.23454,9.085245 28.10629,17.938036 13.69901,13.669739 19.65698,27.991825 19.7109,47.382075 0.0373,13.41661 -4.29347,27.69597 -11.20431,36.94263 -13.56371,18.14814 -27.78771,26.70185 -50.79959,30.54872 L 136,190.46103 l -0.53334,15.43615 -0.53333,15.43615 -39.542763,0.27945 c -21.748519,0.15371 -39.868518,-0.0463 -40.266666,-0.44443 z"
       id="path32"
       inkscape:connector-curvature="0" />
  </g>
</svg>
