<?xml version="1.0" encoding="UTF-8" standalone="no"?>
<!-- Created with Inkscape (http://www.inkscape.org/) -->

<svg
   xmlns:dc="http://purl.org/dc/elements/1.1/"
   xmlns:cc="http://creativecommons.org/ns#"
   xmlns:rdf="http://www.w3.org/1999/02/22-rdf-syntax-ns#"
   xmlns:svg="http://www.w3.org/2000/svg"
   xmlns="http://www.w3.org/2000/svg"
   xmlns:sodipodi="http://sodipodi.sourceforge.net/DTD/sodipodi-0.dtd"
   xmlns:inkscape="http://www.inkscape.org/namespaces/inkscape"
   width="166.04301mm"
   height="173.99844mm"
   viewBox="0 0 166.04301 173.99844"
   version="1.1"
   id="svg7164"
   sodipodi:docname="space-solution-illustration.svg"
   inkscape:version="0.92.5 (2060ec1f9f, 2020-04-08)">
  <defs
     id="defs7158">
    <clipPath
       id="clip3-5">
      <path
         inkscape:connector-curvature="0"
         d="M 301,295 H 409 V 426.73047 H 301 Z m 0,0"
         id="path8-8" />
    </clipPath>
    <clipPath
       id="clip2-2">
      <path
         inkscape:connector-curvature="0"
         d="m 156,349 h 101 v 77.73047 H 156 Z m 0,0"
         id="path5-0" />
    </clipPath>
  </defs>
  <sodipodi:namedview
     id="base"
     pagecolor="#ffffff"
     bordercolor="#666666"
     borderopacity="1.0"
     inkscape:pageopacity="0.0"
     inkscape:pageshadow="2"
     inkscape:zoom="0.35"
     inkscape:cx="197.07117"
     inkscape:cy="552.19983"
     inkscape:document-units="mm"
     inkscape:current-layer="layer1"
     showgrid="false"
     inkscape:window-width="460"
     inkscape:window-height="403"
     inkscape:window-x="78"
     inkscape:window-y="78"
     inkscape:window-maximized="0" />
  <metadata
     id="metadata7161">
    <rdf:RDF>
      <cc:Work
         rdf:about="">
        <dc:format>image/svg+xml</dc:format>
        <dc:type
           rdf:resource="http://purl.org/dc/dcmitype/StillImage" />
      </cc:Work>
    </rdf:RDF>
  </metadata>
  <g
     inkscape:label="Layer 1"
     inkscape:groupmode="layer"
     id="layer1"
     transform="translate(-27.601745,-35.413112)">
    <path
       style="fill:#3d3d3d;fill-opacity:1;fill-rule:nonzero;stroke:none;stroke-width:1.39586914"
       d="m 160.89563,98.385373 c -1.09599,2.906217 -1.18866,4.242117 -1.25956,5.316267 -0.0158,0.24532 -0.0277,0.45803 -0.0546,0.67613 -0.10366,0.82879 0.11989,1.40676 0.33277,1.77755 -0.0237,0.0317 -0.0435,0.0708 -0.0708,0.10921 -1.44494,2.17014 -1.86479,6.1451 -1.41768,8.58241 0.21248,1.18866 0.56709,1.76667 0.88878,2.20286 -0.0119,0.11436 -0.0396,0.32723 -0.11435,0.68702 -0.0237,0.0819 -0.0435,0.16381 -0.0601,0.24532 -0.0119,0.0198 -0.0198,0.0396 -0.0316,0.0601 -0.18557,0.37075 -0.35967,0.77968 -0.5071,1.22138 -0.13097,0.44162 -0.23978,0.92146 -0.25086,1.41222 -0.0277,0.49072 0.0396,0.9651 0.14719,1.39588 0.0119,0.0435 0.0277,0.0819 0.0396,0.12543 0.10367,0.89969 0.40897,1.93024 1.06327,3.20073 0.64341,1.23772 1.2105,2.43185 1.76667,3.58778 0.81244,1.71215 1.58671,3.33155 2.54089,5.02189 0.81791,1.45036 1.45586,2.8299 1.97931,4.2803 h 2.45915 c -0.0602,-0.36007 -0.11435,-0.71428 -0.16896,-1.06327 -0.10881,-0.69248 -0.21802,-1.35223 -0.32723,-1.92478 -0.10881,-0.57251 -0.20733,-1.06327 -0.28884,-1.40676 -0.0819,-0.34899 -0.14165,-0.55617 -0.14165,-0.55617 0,0 -0.11436,0.18004 -0.26155,0.51256 -0.14719,0.33238 -0.33276,0.81241 -0.47984,1.40676 -0.0396,0.13097 -0.0653,0.27817 -0.0981,0.41986 -0.36521,-0.80699 -0.77426,-1.6249 -1.24864,-2.47003 -1.58126,-2.79722 -2.70451,-5.50173 -4.28031,-8.5606 -0.21248,-0.40898 -0.38183,-0.77977 -0.51252,-1.12872 -0.11435,-0.54525 -0.2291,-1.14506 -0.2564,-1.73937 -0.0158,-0.32168 -0.004,-0.63795 0.0396,-0.9433 0.0435,-0.30546 0.11435,-0.62707 0.2291,-0.95968 0.0981,-0.33276 0.23463,-0.67614 0.36521,-1.03055 0.14165,-0.35967 0.27816,-0.71428 0.40893,-1.05234 0.2564,-0.69248 0.50165,-1.34678 0.71428,-1.90841 0.2018,-0.57254 0.3763,-1.06327 0.48531,-1.41226 0.11435,-0.35452 0.16895,-0.5725 0.16895,-0.5725 0,0 -0.19626,0.1092 -0.49622,0.33276 -0.29993,0.22356 -0.71428,0.56709 -1.15594,1.03055 -0.18003,0.18518 -0.35967,0.39805 -0.54525,0.62707 -0.16341,-0.25086 -0.33791,-0.62707 -0.46349,-1.33047 -0.40894,-2.24101 0.0491,-5.70886 1.17231,-7.38829 0.0491,-0.0764 0.0871,-0.14165 0.13097,-0.20733 0.1199,0.32169 0.23979,0.60523 0.34345,0.85059 0.27263,0.62707 0.45804,0.97056 0.45804,0.97056 0,0 -0.0119,-0.39251 -0.0653,-1.06869 -0.0435,-0.67613 -0.13651,-1.63578 -0.15274,-2.75357 -0.0119,-1.11233 0.0708,-2.38282 0.49619,-3.57694 0.21248,-0.59977 0.51798,-1.19955 0.87239,-1.810237 0.35967,-0.61069 0.76338,-1.22684 1.18866,-1.86479 0.41444,-0.64342 0.81791,-1.25411 1.2323,-1.79394 0.41986,-0.53978 0.86152,-0.9651 1.37408,-1.324967 0.39801,-0.2837 0.83425,-0.51256 1.27591,-0.71974 l -1.84331,-1.4944 c -2.51368,1.37403 -4.48752,3.037077 -5.6162,6.008787"
       id="path865-2"
       inkscape:connector-curvature="0" />
    <path
       style="fill:#3d3d3d;fill-opacity:1;fill-rule:nonzero;stroke:none;stroke-width:1.39586914"
       d="m 175.58496,129.76516 c -2.64995,0.4798 -0.33791,2.03926 -1.3577,3.9422 -0.13097,0.25086 -0.28884,0.41443 -0.45804,0.52348 0.0708,0.34345 0.10367,0.69248 0.1472,1.03055 0.0708,0.77426 0.0819,1.50492 0.0119,2.1265 -0.0198,0.30546 -0.0653,0.58889 -0.11435,0.83425 -0.004,0.0277 -0.0119,0.0435 -0.0158,0.0653 h 1.83207 l 2.48095,-8.68058 c -1.00874,0.0435 -0.41985,-0.21802 -2.52455,0.15827"
       id="path867-5"
       inkscape:connector-curvature="0" />
    <path
       style="fill:#3d3d3d;fill-opacity:1;fill-rule:nonzero;stroke:none;stroke-width:1.39586914"
       d="m 173.22398,137.40427 c -0.0871,-0.58889 -0.22356,-1.25957 -0.37075,-1.97385 -0.0819,-0.36007 -0.1745,-0.71974 -0.27263,-1.09053 -0.0819,-0.37075 -0.20733,-0.74154 -0.31614,-1.11233 -0.1199,-0.36522 -0.2291,-0.73613 -0.3763,-1.096 -0.13097,-0.35453 -0.26194,-0.70882 -0.39805,-1.04689 -0.15273,-0.32722 -0.27262,-0.66521 -0.41986,-0.9651 -0.0158,-0.0316 -0.0277,-0.0601 -0.0435,-0.0926 -0.5289,-0.63249 -1.07415,-1.05235 -1.53761,-1.31409 -0.71974,-0.41985 -1.24865,-0.48526 -1.54857,-0.51252 -0.30547,-0.0119 -0.41436,0.0198 -0.41436,0.0198 0,0 0.0653,0.10367 0.27817,0.29993 0.20179,0.21248 0.54524,0.51256 0.97056,1.05235 0.43073,0.53436 0.9433,1.30863 1.37403,2.47549 0.21802,0.58889 0.38698,1.25956 0.50165,2.06109 0.10881,0.80699 0.15827,1.73391 0.14719,2.80264 -0.0119,0.47984 -0.0198,0.93242 -0.0317,1.37403 h 2.58453 c 0,-0.0277 -0.004,-0.0491 -0.0119,-0.0764 -0.0277,-0.23978 -0.0653,-0.51256 -0.11435,-0.80703"
       id="path869-0"
       inkscape:connector-curvature="0" />
    <path
       style="fill:#3d3d3d;fill-opacity:1;fill-rule:nonzero;stroke:none;stroke-width:1.39586914"
       d="m 179.82712,115.49565 c -0.2018,0.16342 -0.50711,0.21248 -0.73067,0.0764 -0.14165,-0.0819 -0.22355,-0.23978 -0.23463,-0.39805 0.004,0.004 0.0119,0.0119 0.0158,0.0158 0.22356,0.13651 0.52891,0.0871 0.73067,-0.0764 0.20733,-0.16342 0.311,-0.42532 0.33276,-0.68156 0,-0.004 0,-0.004 0,-0.004 0.0708,0.0277 0.13097,0.0601 0.1745,0.11989 0.0491,0.0764 0.0491,0.1745 0.0435,0.26155 -0.0237,0.26194 -0.13097,0.52344 -0.33276,0.68706 z m -1.57584,0.47984 c -0.20179,0.69248 -0.747,1.34132 -1.46128,1.43949 -0.27816,0.0396 -0.61615,-0.0435 -0.71974,-0.30547 -0.0277,-0.0764 -0.0317,-0.16341 -0.0277,-0.24532 0.13651,0.0546 0.29993,0.0764 0.45258,0.0546 0.71428,-0.0981 1.25953,-0.747 1.46674,-1.43948 0.0317,-0.11989 0.0546,-0.2564 0.0546,-0.38183 0.0546,0.0277 0.10367,0.0546 0.14719,0.0981 0.19626,0.19626 0.16896,0.51798 0.087,0.77973 z m -8.21707,4.34025 c -0.0435,0.0435 -0.0926,0.0819 -0.14719,0.0926 -0.0653,0.0198 -0.13651,0.0119 -0.2018,-0.0119 -0.21802,-0.0764 -0.38698,-0.2837 -0.40894,-0.51802 0,-0.0277 0,-0.0491 0,-0.0764 0.0764,0.0926 0.16896,0.16342 0.28371,0.2018 0.0653,0.0158 0.13651,0.0277 0.20179,0.0119 0.0546,-0.0158 0.10367,-0.0546 0.14166,-0.0926 0.14165,-0.14165 0.19625,-0.35453 0.18557,-0.55617 0,-0.0601 -0.0158,-0.12543 -0.0277,-0.19072 0.0119,0.004 0.0237,0.004 0.0317,0.004 0.0601,0.19072 0.11435,0.38183 0.12543,0.58343 0.004,0.19626 -0.0491,0.40898 -0.18558,0.55071 z m 9.30215,-11.13968 c -0.15828,0.0237 -0.32723,0.0491 -0.50711,0.0764 0.2018,0.0435 0.40898,0.0764 0.61069,0.10881 0.77431,0.10921 1.51039,0.15273 2.14835,0.15827 0.64341,0 1.1832,-0.0317 1.57037,-0.0708 0.38697,-0.0317 0.61069,-0.0546 0.61069,-0.0546 0,0 -0.19072,0.12543 -0.55071,0.28885 -0.35453,0.16895 -0.88335,0.38183 -1.54857,0.53436 -0.66521,0.15273 -1.46674,0.25086 -2.32825,0.21248 -0.43074,-0.0237 -0.87786,-0.0601 -1.32498,-0.14165 -0.44711,-0.0926 -0.89969,-0.21248 -1.33589,-0.35453 -0.43624,-0.16342 -0.86151,-0.34899 -1.27045,-0.55071 -0.40351,-0.20733 -0.77426,-0.458 -1.12871,-0.70882 -0.19072,-0.13097 -0.36521,-0.27262 -0.53437,-0.41985 -0.0653,-0.11436 -0.13651,-0.23979 -0.21248,-0.3763 -0.23464,-0.34898 -0.52344,-0.747 -0.84513,-1.17231 -0.34899,-0.39802 -0.73612,-0.80695 -1.1396,-1.19955 -0.43077,-0.36521 -0.87789,-0.71432 -1.30863,-1.01966 -0.44711,-0.2837 -0.87243,-0.53433 -1.24322,-0.73062 -0.38698,-0.18004 -0.71428,-0.31615 -0.9433,-0.40352 -0.23464,-0.0764 -0.36521,-0.11989 -0.36521,-0.11989 0,0 0.10366,0.0926 0.28884,0.2564 0.19072,0.15273 0.45804,0.37075 0.76885,0.64884 0.32722,0.25086 0.68702,0.56708 1.06869,0.90515 0.39251,0.32723 0.79611,0.68702 1.18324,1.06327 0.12543,0.10367 0.23978,0.21248 0.35967,0.32169 -0.85605,-0.51256 -1.52673,-0.83971 -2.03383,-1.05235 -1.04689,-0.43074 -1.43402,-0.37075 -1.43402,-0.37075 0,0 0.0491,0.38697 0.76334,1.27045 0.35453,0.43623 0.87244,1.00328 1.63578,1.70122 0.37629,0.34899 0.81791,0.73608 1.33043,1.15052 0.39806,0.32168 0.82879,0.68702 1.36862,1.06327 -1.41768,0.21248 -3.05346,0.67609 -3.99676,0.99782 -1.57579,0.54525 0.88332,3.42425 -0.34899,3.9477 -1.2323,0.52886 -2.40462,0.11435 -5.28905,2.01199 -2.88988,1.90298 0.39806,2.75903 0.82337,4.64017 0.42528,1.87572 2.13196,1.76667 5.09817,1.95751 0.52891,0.0317 1.28683,0.087 2.08836,0.15827 -0.21287,-0.0653 -0.43077,-0.12543 -0.64887,-0.18518 -0.56705,-0.1745 -1.13414,-0.33277 -1.6685,-0.47438 -0.53979,-0.13651 -1.03601,-0.2837 -1.47221,-0.38698 -0.43074,-0.1092 -0.78515,-0.20179 -1.04143,-0.26708 -0.25086,-0.0653 -0.39251,-0.10367 -0.39251,-0.10367 0,0 0.14719,0.0119 0.40893,0.0277 0.2564,0.0277 0.6325,0.0491 1.07415,0.11989 0.4417,0.0708 0.95422,0.14719 1.50493,0.26708 0.54529,0.12543 1.12326,0.26709 1.70123,0.42528 0.56708,0.1745 1.13413,0.36521 1.66304,0.55071 0.15827,0.0546 0.311,0.11435 0.45803,0.17449 1.22139,0.13097 2.29008,0.2837 2.55728,0.43624 0.56159,0.32169 1.52673,-0.31101 1.89748,-1.9139 0.29993,-1.29771 1.70123,-0.0317 2.68817,0.0819 l 0.51252,-1.79393 c -0.0546,-0.19072 -0.11435,-0.38697 -0.15273,-0.59981 -0.10367,-0.56705 -0.14165,-1.19954 -0.0396,-1.82661 0.11435,-0.62158 0.37075,-1.19959 0.67068,-1.69577 0.29992,-0.50164 0.6598,-0.89969 0.95968,-1.24318 0.0491,-0.0491 0.087,-0.087 0.13651,-0.13651 l 1.97381,-6.90845 c -0.43074,-0.0491 -0.8942,-0.12543 -1.39584,-0.19071 -0.7252,-0.0981 -2.0611,0.39251 -3.42425,0.91603"
       id="path871-2"
       inkscape:connector-curvature="0" />
    <path
       style="fill:#3d3d3d;fill-opacity:1;fill-rule:nonzero;stroke:none;stroke-width:1.39586914"
       d="m 180.86312,118.28195 c 0.20734,-0.40351 0.50707,-0.81791 0.83968,-1.24869 l 0.3106,-1.09595 c -0.20733,0.29439 -0.41985,0.61615 -0.62157,0.97602 -0.23464,0.41986 -0.42531,0.88332 -0.5289,1.36862"
       id="path873-8"
       inkscape:connector-curvature="0" />
    <path
       style="fill:#3d3d3d;fill-opacity:1;fill-rule:nonzero;stroke:none;stroke-width:1.39586914"
       d="m 170.24143,96.122513 c -0.40898,0.83972 -0.98149,2.59546 0.26708,2.90081 0.65975,0.16342 1.39038,0.0491 1.97381,-0.30546 0.33276,-0.20734 0.61615,-0.49619 0.83429,-0.82337 l -2.72089,-2.20287 c -0.14166,0.11435 -0.26709,0.25086 -0.35453,0.43078"
       id="path875-8"
       inkscape:connector-curvature="0" />
    <path
       style="fill:#3d3d3d;fill-opacity:1;fill-rule:nonzero;stroke:none;stroke-width:1.39586914"
       d="m 175.90122,103.67437 c -0.12543,0.40352 -0.0926,0.8779 0.1745,1.20505 0.26708,0.33276 0.71974,0.45803 1.1396,0.54524 0.65429,0.13612 1.33589,0.24532 1.99018,0.10367 0.64888,-0.14165 1.27591,-0.58885 1.45587,-1.23226 0.0396,-0.13097 0.0491,-0.27263 0.0435,-0.40352 l -2.62272,-2.13196 c -0.55071,0.0435 -1.07961,0.29993 -1.52127,0.83425 -0.27262,0.32723 -0.5289,0.67068 -0.65975,1.07961"
       id="path877-8"
       inkscape:connector-curvature="0" />
    <path
       style="fill:#3d3d3d;fill-opacity:1;fill-rule:nonzero;stroke:none;stroke-width:1.39586914"
       d="m 165.47582,108.9307 c -0.17449,-0.40894 -0.35453,-0.28885 -0.47984,0.0491 -0.15827,0.42532 -0.33277,0.85606 -0.46892,1.28683 -0.13611,0.41986 -0.20179,0.86694 -0.0981,1.29771 0.0277,0.11989 0.0926,0.2564 0.21248,0.27816 0.13097,0.0198 0.23978,-0.0926 0.31615,-0.20179 0.46346,-0.67068 0.86697,-1.90294 0.51802,-2.70993"
       id="path879-5"
       inkscape:connector-curvature="0" />
    <path
       style="fill:#3d3d3d;fill-opacity:1;fill-rule:nonzero;stroke:none;stroke-width:1.39586914"
       d="m 165.0287,114.24155 c 0.0119,0.0764 0.0396,0.16341 0.10921,0.19626 0.0981,0.0435 0.20734,-0.0396 0.27816,-0.1199 0.30547,-0.33276 1.25411,-2.33371 0.36522,-2.37736 -0.75247,-0.0316 -0.84517,1.83754 -0.75247,2.301"
       id="path881-0"
       inkscape:connector-curvature="0" />
    <path
       style="fill:#3d3d3d;fill-opacity:1;fill-rule:nonzero;stroke:none;stroke-width:1.39586914"
       d="m 165.0069,129.35619 c 0.087,0.19072 0.18518,0.38697 0.33277,0.53982 0.15273,0.15274 0.35967,0.26709 0.57251,0.25086 0.0926,-0.30546 0.0653,-0.62707 0.0277,-0.9433 -0.10366,-0.88877 -0.27262,-1.79935 -0.7252,-2.57365 -0.10366,-0.18004 -0.23463,-0.35968 -0.43073,-0.44166 -0.74155,-0.32169 -0.52345,0.69248 -0.4362,1.05235 0.16895,0.7252 0.35453,1.43406 0.65976,2.11562"
       id="path883-1"
       inkscape:connector-curvature="0" />
    <path
       style="fill:#3d3d3d;fill-opacity:1;fill-rule:nonzero;stroke:none;stroke-width:1.39586914"
       d="m 165.89568,126.89162 c 0.17449,-0.53437 0.20179,-1.1178 0.0819,-1.6685 -0.0317,-0.15273 -0.0764,-0.30547 -0.17449,-0.43074 -0.0926,-0.12543 -0.24532,-0.21248 -0.40352,-0.19626 -0.40893,0.0491 0.29439,1.95205 0.35453,2.12654 0.0198,0.0764 0.0653,0.16342 0.14166,0.16896"
       id="path885-8"
       inkscape:connector-curvature="0" />
    <path
       style="fill:#3d3d3d;fill-opacity:1;fill-rule:nonzero;stroke:none;stroke-width:1.39586914"
       d="m 175.36686,128.76188 c 0.21248,0.0316 0.38697,-0.15827 0.4853,-0.34345 0.31615,-0.57797 0.34899,-1.30317 0.0926,-1.90844 -0.16342,-0.38183 -0.26708,-0.84514 -0.76885,-0.77969 -0.29438,0.0317 -0.40351,0.16895 -0.44711,0.44712 -0.10367,0.64883 0.0435,1.64666 0.29992,2.23555 0.0653,0.15273 0.1745,0.31615 0.33791,0.34899"
       id="path887-3"
       inkscape:connector-curvature="0" />
    <path
       style="fill:#3d3d3d;fill-opacity:1;fill-rule:nonzero;stroke:none;stroke-width:1.39586914"
       d="m 178.51849,124.57428 c -0.41986,-0.10367 -0.88332,-0.0435 -1.24865,0.18004 -0.78519,0.47984 -0.73612,1.56491 -0.54529,2.36098 0.10367,0.42531 0.3763,0.83425 0.78519,0.9869 0.30547,0.10921 0.64888,0.0653 0.9651,-0.0277 0.0277,-0.004 0.0546,-0.0237 0.0819,-0.0316 l 0.84517,-2.95533 c -0.23978,-0.25086 -0.54529,-0.4362 -0.88332,-0.51253"
       id="path889-6"
       inkscape:connector-curvature="0" />
    <path
       style="fill:#3d3d3d;fill-opacity:1;fill-rule:nonzero;stroke:none;stroke-width:1.39586914"
       d="m 164.36349,102.81832 c 0.0119,0.23464 0.11435,0.52891 0.34345,0.51256 0.14165,-0.004 0.23978,-0.13097 0.31615,-0.24532 0.53436,-0.83421 0.82879,-1.82661 0.83425,-2.81352 0,-0.15273 -0.0158,-0.327217 -0.13612,-0.414427 -0.88877,-0.65976 -1.37949,2.540927 -1.35769,2.960787"
       id="path891-2"
       inkscape:connector-curvature="0" />
    <path
       style="fill:#3d3d3d;fill-opacity:1;fill-rule:nonzero;stroke:none;stroke-width:1.39586914"
       d="m 168.31118,125.22312 c 0.2837,0.0819 0.61615,0.18003 0.97056,0.2837 0.36522,0.0764 0.74701,0.15827 1.13414,0.24532 0.38697,0.0435 0.77973,0.087 1.14506,0.13097 0.37075,0.0158 0.71974,0.0277 1.0142,0.0435 0.29993,-0.0158 0.55071,-0.0277 0.73062,-0.0317 0.1745,-0.0237 0.27817,-0.0316 0.27817,-0.0316 0,0 -0.0926,-0.0491 -0.2564,-0.12543 -0.16342,-0.0653 -0.39806,-0.15274 -0.67614,-0.26155 -0.2837,-0.0871 -0.61611,-0.18557 -0.97602,-0.28884 -0.35968,-0.0764 -0.74155,-0.15828 -1.12868,-0.23979 -0.39251,-0.0435 -0.77972,-0.0926 -1.15052,-0.13096 -0.37075,-0.0158 -0.71428,-0.0317 -1.01416,-0.0435 -0.29993,0.0119 -0.55071,0.0237 -0.7252,0.0317 -0.1745,0.0237 -0.27817,0.0317 -0.27817,0.0317 0,0 0.0926,0.0435 0.25087,0.11989 0.16341,0.0653 0.39805,0.15827 0.68159,0.26708"
       id="path893-7"
       inkscape:connector-curvature="0" />
    <path
       style="fill:#3d3d3d;fill-opacity:1;fill-rule:nonzero;stroke:none;stroke-width:1.39586914"
       d="m 169.56529,96.329693 c -0.0158,0.16896 0.0119,0.30547 0.0277,0.39806 0.0198,0.0926 0.0396,0.14165 0.0396,0.14165 0,0 0.0119,-0.0491 0.0396,-0.13651 0.0158,-0.0926 0.0708,-0.21248 0.11989,-0.34899 0.0491,-0.14165 0.14166,-0.2837 0.23464,-0.4362 0.0926,-0.15273 0.21248,-0.29992 0.34899,-0.41985 0.004,-0.004 0.0119,-0.004 0.0119,-0.0119 l -0.31615,-0.2564 c -0.14719,0.15827 -0.26708,0.33791 -0.35453,0.51798 -0.0981,0.19072 -0.12543,0.39252 -0.14719,0.55071"
       id="path895-8"
       inkscape:connector-curvature="0" />
    <path
       style="fill:#3d3d3d;fill-opacity:1;fill-rule:nonzero;stroke:none;stroke-width:1.39586914"
       d="m 166.78445,95.555433 c -0.28884,0.2837 -0.51802,0.58343 -0.70886,0.83971 -0.19071,0.2564 -0.31061,0.50164 -0.40347,0.65975 -0.0764,0.16896 -0.12543,0.26709 -0.12543,0.26709 0,0 0.0708,-0.0819 0.19626,-0.22356 0.11435,-0.14165 0.29438,-0.33277 0.51252,-0.55617 0.20733,-0.2291 0.4853,-0.46892 0.76884,-0.7252 0.28885,-0.2564 0.61612,-0.5071 0.95418,-0.73608 0.33791,-0.23978 0.68702,-0.452577 1.03055,-0.632537 0.0119,-0.0119 0.0198,-0.0158 0.0317,-0.0198 l -0.29993,-0.23978 c -0.32723,0.16341 -0.66522,0.34899 -0.99236,0.556167 -0.34899,0.2564 -0.67614,0.53436 -0.9651,0.81244"
       id="path897-9"
       inkscape:connector-curvature="0" />
    <path
       style="fill:#3d3d3d;fill-opacity:1;fill-rule:nonzero;stroke:none;stroke-width:1.39586914"
       d="m 172.61329,105.64276 c 0.16341,0.26154 0.35967,0.56163 0.61069,0.85609 0.25086,0.29439 0.53982,0.58885 0.84517,0.86694 0.31615,0.2564 0.65429,0.50164 0.98144,0.70886 0.32723,0.20179 0.65434,0.34899 0.93788,0.46892 0.2837,0.12543 0.52887,0.18517 0.70336,0.23978 0.16896,0.0396 0.27262,0.0653 0.27262,0.0653 0,0 -0.0926,-0.0546 -0.24532,-0.14165 -0.15827,-0.0819 -0.37075,-0.21802 -0.62703,-0.37075 -0.26154,-0.14165 -0.53983,-0.35453 -0.85063,-0.56159 -0.30547,-0.21248 -0.61611,-0.45804 -0.91058,-0.71978 -0.29992,-0.25086 -0.58889,-0.52344 -0.84513,-0.79061 -0.25086,-0.27262 -0.50168,-0.51798 -0.68706,-0.75792 -0.18518,-0.2291 -0.35453,-0.41986 -0.458,-0.56159 -0.10881,-0.14165 -0.17449,-0.22356 -0.17449,-0.22356 0,0 0.0435,0.0981 0.10881,0.26155 0.0764,0.15827 0.17449,0.39805 0.33791,0.65975"
       id="path899-5"
       inkscape:connector-curvature="0" />
    <path
       style="fill:#3d3d3d;fill-opacity:1;fill-rule:nonzero;stroke:none;stroke-width:1.39586914"
       d="m 176.34834,102.16945 c -0.0653,0.13651 -0.0981,0.21802 -0.0981,0.21802 0,0 0.0546,-0.0708 0.16342,-0.1745 0.0981,-0.10881 0.26708,-0.23978 0.46892,-0.38183 0.20734,-0.14165 0.46892,-0.2564 0.75246,-0.34899 0.0277,-0.0119 0.0546,-0.0119 0.0819,-0.0158 l -0.31615,-0.2564 c -0.26154,0.12543 -0.4853,0.28885 -0.65976,0.4417 -0.19625,0.19072 -0.31614,0.38183 -0.39251,0.51798"
       id="path901-7"
       inkscape:connector-curvature="0" />
    <path
       style="fill:#3d3d3d;fill-opacity:1;fill-rule:nonzero;stroke:none;stroke-width:1.39586914"
       d="m 172.4879,131.00289 c -0.10367,-0.2564 -0.23979,-0.55617 -0.43078,-0.84513 -0.19072,-0.28885 -0.41986,-0.58343 -0.66522,-0.86156 -0.26708,-0.26154 -0.5507,-0.50164 -0.83425,-0.70336 -0.2837,-0.20179 -0.57251,-0.34899 -0.82333,-0.46896 -0.24532,-0.11989 -0.47438,-0.18003 -0.62161,-0.22356 -0.15827,-0.0435 -0.24532,-0.0601 -0.24532,-0.0601 0,0 0.0764,0.0435 0.21248,0.13097 0.13651,0.0764 0.32169,0.20734 0.54528,0.35453 0.22356,0.14165 0.46346,0.34345 0.71975,0.54525 0.2564,0.20733 0.51252,0.44711 0.75246,0.7034 0.24532,0.25086 0.47438,0.51798 0.67068,0.78514 0.19071,0.26709 0.38697,0.51257 0.51252,0.74701 0.14165,0.22909 0.26154,0.41985 0.33277,0.5562 0.0764,0.14166 0.12543,0.21802 0.12543,0.21802 0,0 -0.0237,-0.0871 -0.0491,-0.24532 -0.0435,-0.15273 -0.0926,-0.38183 -0.20179,-0.63253"
       id="path903-8"
       inkscape:connector-curvature="0" />
    <path
       style="fill:#3d3d3d;fill-opacity:1;fill-rule:nonzero;stroke:none;stroke-width:1.39586914"
       d="m 57.421373,125.80655 c -0.0819,0.0158 -0.17449,0.0198 -0.24532,-0.0158 -0.10366,-0.0546 -0.14719,-0.17449 -0.14719,-0.28885 0.0237,-0.45257 0.62703,-1.36861 1.01417,-1.62489 0.61069,-0.39806 0.46892,0.49618 0.33276,0.85605 -0.18003,0.46892 -0.46892,0.9651 -0.95418,1.07419 z m -1.34135,6.29233 c -0.18003,0.56159 -0.4362,1.09595 -0.7688,1.58671 -0.2291,0.34345 -0.50165,0.6761 -0.8779,0.8506 -0.10921,0.0491 -0.2291,0.0819 -0.34899,0.0653 -0.10367,-0.0158 -0.19071,-0.0764 -0.27262,-0.14719 -0.38698,-0.33277 -0.5071,-0.92696 -0.31615,-1.4068 0.0491,0.27262 0.18004,0.52349 0.38698,0.7034 0.0764,0.0708 0.16895,0.12543 0.27262,0.14719 0.11435,0.0237 0.23978,-0.0158 0.34899,-0.0653 0.37075,-0.1745 0.64883,-0.50711 0.87785,-0.85063 0.26194,-0.38698 0.47438,-0.80153 0.64342,-1.23227 0.0819,0.0491 0.11989,0.15827 0.0546,0.34899 z m 2.38278,1.34677 c 0.004,-0.27262 -0.0316,-0.52344 -0.0819,-0.83425 -0.0601,-0.32168 -0.0237,-0.7252 0.0926,-1.036 0.1092,-0.31615 0.25086,-0.60524 0.39805,-0.87786 0.30546,-0.55071 0.60523,-1.05781 0.77427,-1.60305 0.0819,-0.26709 0.11989,-0.53437 0.11989,-0.82337 -0.004,-0.28885 -0.0317,-0.6107 -0.0396,-0.93784 -0.004,-0.32723 0,-0.65976 0.0277,-0.99237 0.0316,-0.32168 0.0708,-0.64341 0.10366,-0.96514 0.0491,-0.59977 0.0277,-1.24318 -0.004,-1.89202 -0.0653,-1.29775 -0.12543,-2.65544 0.0158,-4.00768 0.0546,-0.58343 0.1472,-1.16144 0.2564,-1.73395 -1.22138,0.9215 -2.69904,0.74701 -3.48965,0.79611 -1.01421,0.0602 -1.87026,0.0708 -3.30432,1.30859 -0.0708,-0.89419 -0.10367,-1.67392 -0.13097,-2.33914 -0.0316,-1.06873 -0.0601,-1.87025 -0.0981,-2.45914 -0.0396,-0.59431 -0.0926,-0.98149 -0.14719,-1.22139 -0.0546,-0.23978 -0.10367,-0.32722 -0.10367,-0.32722 0,0 -0.0874,0.0546 -0.23978,0.25086 -0.15273,0.19625 -0.37075,0.5289 -0.61615,1.10141 -0.23979,0.57255 -0.50165,1.39042 -0.68156,2.53547 -0.1745,1.15052 -0.26155,2.63361 -0.0277,4.48206 0.11435,0.92692 0.28885,1.74483 0.49072,2.46457 0.2018,0.71974 0.40898,1.29225 0.55617,1.77755 0.30546,0.97057 0.39251,1.63032 0.39251,2.16469 0,0.32168 -0.0277,0.56708 -0.0601,0.7688 -0.16341,0.0601 -0.35967,0.0981 -0.59977,0.13097 -1.39588,0.16342 -3.16251,-2.09382 -4.6947,-0.25086 -1.526727,1.84842 1.45041,3.05346 0.62704,3.95858 -0.81787,0.91061 -0.6325,0.20733 -3.756862,-1.45583 -0.256401,-0.13611 -0.485262,-0.26154 -0.6979,-0.38697 l 2.071976,7.24651 h 12.039376 c 0.19072,-1.29229 0.38698,-2.64452 0.71974,-4.02948 0.0491,-0.26708 0.0874,-0.53978 0.0874,-0.81245"
       id="path905-5"
       inkscape:connector-curvature="0" />
    <path
       style="fill:#3d3d3d;fill-opacity:1;fill-rule:nonzero;stroke:none;stroke-width:1.39586914"
       d="m 60.322143,132.46417 c -0.0119,-0.0708 -0.0237,-0.16341 -0.0237,-0.19072 0,0 0.0316,-0.20179 0.41986,-0.85605 1.02508,-1.72302 1.06327,-2.59546 1.00874,-3.72959 -0.0277,-0.44166 -0.0491,-0.89424 0.0546,-1.63032 0.14166,-0.98695 0.0981,-1.93567 0.0546,-2.94987 -0.0875,-1.79935 -0.18004,-3.83865 0.73066,-6.88119 0.46892,-1.56491 0.89966,-2.49187 1.24319,-3.23887 0.89969,-1.94658 1.12867,-2.91169 0.19071,-6.03605 -1.71756,-5.73067 -2.98801,-9.607487 -3.99676,-11.232387 -0.89969,-1.434017 -1.89206,-2.884427 -3.70233,-4.612907 l -1.03051,0.83429 c 0.50707,0.46892 1.00871,0.95964 1.48309,1.48855 0.83425,0.92695 1.55399,1.979257 2.22467,3.075257 0.65975,1.16685 1.07961,2.38278 1.53219,3.620537 0.44165,1.23777 0.85059,2.49729 1.24864,3.7732 0.40352,1.27591 0.80153,2.55182 1.1832,3.85499 0.18558,0.66525 0.37075,1.33047 0.41986,2.06655 0.0158,0.36521 0.0119,0.75247 -0.0819,1.12326 -0.0819,0.36521 -0.21248,0.71428 -0.35453,1.03054 -0.58889,1.24865 -1.09595,2.42639 -1.48854,3.72414 -0.39806,1.25953 -0.6816,2.55728 -0.81245,3.84953 -0.14719,1.30317 -0.10367,2.59546 -0.0435,3.90409 0.0277,0.65975 0.0491,1.31405 -0.0119,2.00111 -0.0316,0.31614 -0.0708,0.63249 -0.1092,0.94872 -0.0277,0.30546 -0.0317,0.61073 -0.0317,0.91607 0.004,0.30547 0.0317,0.61616 0.0317,0.95418 0,0.34345 -0.0491,0.7034 -0.15828,1.03055 -0.20179,0.64888 -0.55616,1.20504 -0.85063,1.71757 -0.14719,0.2564 -0.27816,0.51256 -0.37075,0.76338 -0.0926,0.26155 -0.11989,0.47438 -0.0819,0.74154 0.0396,0.27817 0.0874,0.61616 0.0708,0.93242 -0.004,0.32169 -0.0601,0.62704 -0.11435,0.93238 -0.35453,1.33044 -0.57255,2.63361 -0.78519,3.89863 h 1.39588 c 0.18004,-1.13959 0.34899,-2.21921 0.56705,-3.07526 0.34899,-1.36861 0.2837,-2.1102 0.18557,-2.74815"
       id="path907-3"
       inkscape:connector-curvature="0" />
    <path
       style="fill:#3d3d3d;fill-opacity:1;fill-rule:nonzero;stroke:none;stroke-width:1.39586914"
       d="m 42.715673,113.72356 c -0.403514,0.40348 -0.970562,0.63796 -1.543111,0.6325 -0.572508,0 -1.139596,-0.23978 -1.53761,-0.64888 -0.09259,-0.0981 -0.180034,-0.20733 -0.234638,-0.32722 -0.109208,-0.2564 -0.06014,-0.56709 0.08191,-0.80699 0.0546,-0.087 0.11989,-0.16342 0.196257,-0.2291 -0.01187,0.12543 0,0.2564 0.0546,0.37075 0.04906,0.12543 0.13651,0.23464 0.234638,0.32723 0.398014,0.40897 0.965102,0.64887 1.53219,0.65433 0.550707,0 1.090493,-0.21802 1.488546,-0.59435 0.004,0.0546 0.004,0.10367 0,0.15827 -0.03165,0.18004 -0.147193,0.33277 -0.272623,0.4635 z m -4.552926,-2.21378 c -0.07637,-0.10367 -0.109207,-0.24532 -0.06529,-0.36521 0.01583,-0.0435 0.04353,-0.0764 0.07083,-0.11436 0.01187,0.0198 0.02374,0.0435 0.03957,0.0653 0.223559,0.31061 0.725161,0.29439 1.046888,0.0764 0.13097,-0.0819 0.239782,-0.19626 0.310609,-0.32723 0.02374,0.0653 0.03165,0.14165 0.0277,0.21248 -0.03165,0.21802 -0.190717,0.40893 -0.376291,0.53436 -0.327227,0.21248 -0.82333,0.2291 -1.052349,-0.0819 z m 14.367636,-8.66966 c 0.0119,0.0158 0.0158,0.0396 0.0277,0.0601 0.0316,0.0546 0.0819,0.1092 0.14719,0.13651 0.0546,0.0198 0.11435,0.0277 0.16896,0.0198 0.20179,-0.0198 0.37629,-0.15273 0.49618,-0.31061 0.0708,-0.0871 0.11989,-0.18557 0.16895,-0.2837 0.0491,0.0491 0.10367,0.0926 0.15274,0.14165 -0.0764,0.18518 -0.15274,0.37075 -0.27817,0.52891 -0.11989,0.15827 -0.29438,0.28884 -0.49618,0.311 -0.0546,0.004 -0.11435,0 -0.16895,-0.0237 -0.0653,-0.0277 -0.11436,-0.0819 -0.1472,-0.14165 -0.0819,-0.13097 -0.10367,-0.29439 -0.0708,-0.4417 z m 2.29554,1.63032 c 0.32722,-0.11989 0.60523,-0.33791 0.85605,-0.57797 0.2564,-0.24532 0.4853,-0.5289 0.58343,-0.86693 0.10366,0.18557 0.14719,0.40347 0.0981,0.64337 -0.0764,0.37629 -0.33277,0.69252 -0.6107,0.95968 -0.25086,0.24533 -0.53436,0.458 -0.86151,0.57797 -0.32723,0.11989 -0.7034,0.12543 -1.00874,-0.0396 -0.31101,-0.16342 -0.51799,-0.52349 -0.45258,-0.86698 0.0119,-0.0546 0.0316,-0.11435 0.0601,-0.17449 0.0819,0.11989 0.19072,0.23464 0.32169,0.30546 0.30546,0.16381 0.68702,0.15827 1.01416,0.0396 z m -12.535566,16.3306 c -0.567048,-2.12108 1.499467,-1.13959 2.530014,-3.26067 1.030547,-2.11558 1.455863,-3.82773 2.24647,-6.31956 0.790642,-2.48641 1.793932,-2.1974 3.233412,-2.82448 1.43948,-0.62703 2.15376,2.5464 4.64017,3.87137 2.48641,1.31955 2.11562,-1.05781 1.99019,-2.15376 -0.12543,-1.10145 0.8997,-3.52242 1.41768,-6.21601 0.51257,-2.69359 0.62162,-1.97384 -1.85387,-4.198507 -2.47549,-2.23009 -5.10364,-1.51039 -7.26832,-1.39042 -0.22356,0.0158 -0.43078,0.0708 -0.62161,0.15827 0.0237,0.19072 0.0491,0.38183 0.0764,0.58343 0.0277,0.29439 0.0764,0.58885 0.1199,0.88878 0.0435,0.294377 0.0764,0.594307 0.13097,0.888767 0.0435,0.29439 0.0819,0.58343 0.12543,0.86147 0.087,0.56709 0.16895,1.09054 0.23978,1.54858 0.0708,0.45257 0.12543,0.84517 0.16341,1.12325 0.0317,0.27262 0.0435,0.4362 0.0435,0.4362 0,0 -0.10921,-0.11989 -0.27263,-0.34899 -0.16341,-0.2291 -0.38697,-0.56167 -0.59981,-0.99241 -0.22909,-0.42531 -0.43619,-0.94876 -0.62157,-1.5158 -0.0819,-0.28885 -0.18557,-0.58347 -0.24532,-0.89424 -0.0708,-0.30546 -0.11989,-0.62161 -0.17449,-0.93784 -0.0317,-0.321687 -0.0653,-0.637987 -0.0871,-0.954217 -0.0277,-0.30546 -0.0119,-0.61069 -0.0119,-0.90512 l -1.875723,1.52127 c 0.07083,0.452537 0.158272,0.921497 0.267083,1.406757 0.648836,2.8299 0.58343,4.30757 0.501643,5.26179 -0.03165,0.35453 -0.06014,0.62157 -0.07637,0.81791 -0.234243,0.20733 -0.561588,0.39801 -1.008706,0.59977 -1.739407,0.7688 -4.694697,-0.80699 -6.275991,-0.73613 -0.747003,0.0317 -1.29225,-0.19071 -1.782971,-0.5507 l -0.556167,0.44712 2.00653,7.02295 c 0.004,0.004 0.01187,0.0119 0.02374,0.0158 0.327227,0.20179 0.687058,0.39805 1.057809,0.5507 0.365212,0.16896 0.752464,0.29439 1.123255,0.36522 0.370752,0.0708 0.719741,0.11435 1.025087,0.10366 0.305465,-0.0119 0.561627,-0.0396 0.736122,-0.0819 0.180034,-0.0317 0.283702,-0.0653 0.283702,-0.0653 0,0 -0.08705,0.0546 -0.2564,0.14166 -0.168955,0.0764 -0.419856,0.18557 -0.741583,0.23463 -0.316147,0.0435 -0.703359,0.0764 -1.106873,0.0158 -0.403475,-0.0601 -0.82333,-0.17449 -1.226844,-0.33791 -0.272623,-0.13097 -0.528905,-0.27816 -0.774266,-0.43074 l 2.660866,9.30215 c 0.997824,-1.24864 1.297749,-1.18866 0.796107,-3.05346"
       id="path909-5"
       inkscape:connector-curvature="0" />
    <path
       style="fill:#3d3d3d;fill-opacity:1;fill-rule:nonzero;stroke:none;stroke-width:1.39586914"
       d="m 55.998233,93.587046 c -0.39251,-0.4362 -0.80152,-0.85059 -1.21592,-1.24865 l -0.0874,0.0708 c 0.0926,0.0819 0.19071,0.16342 0.27816,0.24532 0.35967,0.32723 0.7034,0.64342 1.02509,0.93238"
       id="path911-7"
       inkscape:connector-curvature="0" />
    <path
       style="fill:#3d3d3d;fill-opacity:1;fill-rule:nonzero;stroke:none;stroke-width:1.39586914"
       d="m 45.676424,119.77596 c -0.550707,0.59435 -0.926919,1.65212 -1.17774,2.4155 -0.419856,1.27045 0.185178,2.11016 1.194121,2.84628 0.207336,0.15273 0.436197,0.31061 0.692478,0.31615 0.46346,0.0158 0.79607,-0.44712 0.99782,-0.86697 0.39252,-0.81787 0.6543,-1.68485 0.91058,-2.55728 0.21802,-0.73062 0.73612,-2.26827 0.11989,-2.94983 -0.63249,-0.7034 -2.230126,0.24532 -2.737229,0.79607"
       id="path913-0"
       inkscape:connector-curvature="0" />
    <path
       style="fill:#3d3d3d;fill-opacity:1;fill-rule:nonzero;stroke:none;stroke-width:1.39586914"
       d="m 48.228283,115.87187 c -0.43624,0.4853 -0.80699,1.23776 -0.98695,1.85933 -0.0491,0.18558 -0.0601,0.42532 0.10367,0.51803 0.0708,0.0396 0.15827,0.0317 0.23978,0.0198 0.48526,-0.0601 0.91058,-0.38697 1.16686,-0.80699 0.2564,-0.41985 0.35453,-0.91603 0.36521,-1.40676 0.0158,-0.64341 -0.58889,-0.51252 -0.88877,-0.18517"
       id="path915-3"
       inkscape:connector-curvature="0" />
    <path
       style="fill:#3d3d3d;fill-opacity:1;fill-rule:nonzero;stroke:none;stroke-width:1.39586914"
       d="m 60.158573,111.22081 c 0.33791,-0.62161 0.49618,-1.32501 0.64887,-2.01203 0.0926,-0.41985 0.18557,-0.84517 0.27816,-1.27045 0.14166,-0.61615 0.2564,-1.33589 -0.13611,-1.78847 -1.01421,-1.1832 -1.90844,2.57366 -2.03383,3.17889 -0.21802,1.06327 -0.22356,2.18103 0.17449,3.14617 0.4362,-0.33277 0.80699,-0.76339 1.06869,-1.25411"
       id="path917-0"
       inkscape:connector-curvature="0" />
    <path
       style="fill:#3d3d3d;fill-opacity:1;fill-rule:nonzero;stroke:none;stroke-width:1.39586914"
       d="m 60.861973,112.64395 c -0.0546,-0.29438 -0.24533,-0.62707 -0.53983,-0.59981 -0.2837,0.0198 -0.40893,0.36007 -0.47438,0.63796 -0.0158,0.0601 -0.0277,0.12543 -0.0435,0.18557 l -0.0875,0.29993 c -0.32169,0.64883 -0.33277,1.44494 -0.0277,2.10469 0.8779,-0.5289 1.36862,-1.62489 1.17232,-2.62814"
       id="path919-5"
       inkscape:connector-curvature="0" />
    <path
       style="fill:#3d3d3d;fill-opacity:1;fill-rule:nonzero;stroke:none;stroke-width:1.39586914"
       d="m 55.338483,97.153063 c 0.10367,0.10921 0.21802,0.21802 0.35453,0.2837 0.14165,0.0601 0.311,0.0653 0.43619,-0.0237 0.1745,-0.13611 0.16896,-0.39801 0.11436,-0.61611 -0.2018,-0.82337 -0.80153,-1.47766 -1.3795,-2.099277 -0.4635,-0.49072 -0.98694,-0.99782 -1.64124,-1.09595 l -0.52344,0.42528 c 0.21801,0.899687 2.31187,2.797207 2.63906,3.124357"
       id="path921-0"
       inkscape:connector-curvature="0" />
    <path
       style="fill:#3d3d3d;fill-opacity:1;fill-rule:nonzero;stroke:none;stroke-width:1.39586914"
       d="m 51.003653,113.23826 c -0.16895,0.31615 -0.34899,0.69248 -0.53436,1.10688 -0.15274,0.41985 -0.29993,0.87789 -0.4362,1.33589 -0.0926,0.46892 -0.1745,0.9433 -0.2291,1.39042 -0.0277,0.44712 -0.0435,0.86697 -0.0396,1.22684 0.0237,0.35967 0.0546,0.65976 0.0819,0.86698 0.0396,0.20733 0.0601,0.32722 0.0601,0.32722 0,0 0.0396,-0.11435 0.0981,-0.31615 0.0491,-0.20733 0.11435,-0.49072 0.21248,-0.83425 0.0708,-0.34345 0.16896,-0.73608 0.2837,-1.15593 0.0875,-0.41986 0.19626,-0.8724 0.32169,-1.30864 0.0926,-0.45253 0.2018,-0.89965 0.31615,-1.31409 0.0926,-0.42527 0.19072,-0.82333 0.28884,-1.15593 0.0708,-0.34899 0.14166,-0.6325 0.19072,-0.83426 0.0435,-0.20733 0.0653,-0.32722 0.0653,-0.32722 0,0 -0.0764,0.0926 -0.20734,0.26154 -0.11989,0.16896 -0.2837,0.4199 -0.47438,0.73066"
       id="path923-5"
       inkscape:connector-curvature="0" />
    <path
       style="fill:#3d3d3d;fill-opacity:1;fill-rule:nonzero;stroke:none;stroke-width:1.39586914"
       d="m 44.45504,102.16403 c 0.01187,0.36006 0.004,0.7252 -0.01187,1.06323 -0.02374,0.33791 -0.01583,0.65975 -0.03957,0.93241 -0.02374,0.27263 -0.02374,0.50165 -0.03166,0.66522 -0.01187,0.15827 -0.01187,0.25086 -0.01187,0.25086 0,0 0.03165,-0.087 0.08745,-0.23978 0.04353,-0.15273 0.125431,-0.37075 0.185574,-0.64337 0.0546,-0.27263 0.12543,-0.59435 0.163416,-0.93788 0.03165,-0.34899 0.0546,-0.71974 0.06529,-1.0905 -0.01187,-0.37075 -0.03957,-0.74158 -0.07083,-1.09053 -0.02374,-0.19626 -0.0546,-0.38183 -0.09259,-0.55617 l -0.272623,0.22356 c 0,0.11435 0.004,0.23464 0.01187,0.35968 0.02374,0.33791 0.0277,0.7034 0.01583,1.06327"
       id="path925-1"
       inkscape:connector-curvature="0" />
    <path
       style="fill:#3d3d3d;fill-opacity:1;fill-rule:nonzero;stroke:none;stroke-width:1.39586914"
       d="m 54.307933,93.559786 c 0.15273,0.15273 0.31101,0.35453 0.49618,0.55074 0.18004,0.19626 0.36522,0.41982 0.53979,0.643377 0.19072,0.21802 0.37075,0.44166 0.5289,0.65429 0.15828,0.22356 0.32169,0.41444 0.44712,0.59435 0.12543,0.18004 0.24532,0.32169 0.31615,0.42532 0.0764,0.10367 0.12543,0.16342 0.12543,0.16342 0,0 -0.0237,-0.0708 -0.0546,-0.19626 -0.0435,-0.12543 -0.0926,-0.30547 -0.19072,-0.5071 -0.0926,-0.2018 -0.2018,-0.44166 -0.34899,-0.6761 -0.15273,-0.23464 -0.32723,-0.47984 -0.5071,-0.719777 -0.19626,-0.22356 -0.40348,-0.4362 -0.60523,-0.6325 -0.2018,-0.19071 -0.4144,-0.34345 -0.59435,-0.47434 -0.18004,-0.13097 -0.34899,-0.21802 -0.458,-0.2837 -0.0435,-0.0237 -0.0708,-0.0317 -0.0981,-0.0491 l -0.0277,0.0198 c 0.0237,0.0277 0.0435,0.0546 0.0764,0.0871 0.0926,0.0926 0.20733,0.23978 0.35452,0.39805"
       id="path927-3"
       inkscape:connector-curvature="0" />
    <path
       style="fill:#3d3d3d;fill-opacity:1;fill-rule:nonzero;stroke:none;stroke-width:1.39586914"
       d="m 59.536993,99.694003 c 0.13097,0.327217 0.25086,0.719697 0.40894,1.134127 0.15273,0.4144 0.29992,0.85606 0.4362,1.30863 0.15273,0.44166 0.29438,0.88878 0.41439,1.30863 0.11435,0.42528 0.25086,0.81787 0.33791,1.1614 0.0926,0.33791 0.1745,0.62704 0.2291,0.82333 0.0601,0.2018 0.0926,0.31615 0.0926,0.31615 0,0 -0.004,-0.11989 -0.0119,-0.32723 -0.0237,-0.20733 -0.0317,-0.5071 -0.0874,-0.86155 -0.0546,-0.34899 -0.11435,-0.76334 -0.21802,-1.19954 -0.1092,-0.43624 -0.23463,-0.89424 -0.37075,-1.35228 -0.15827,-0.44711 -0.32723,-0.89423 -0.49618,-1.30863 -0.16896,-0.40893 -0.36521,-0.779717 -0.52891,-1.095947 -0.16341,-0.31615 -0.32722,-0.56709 -0.43619,-0.747 -0.11435,-0.1745 -0.18004,-0.27263 -0.18004,-0.27263 0,0 0.0396,0.10921 0.10921,0.31061 0.0708,0.19072 0.1745,0.46892 0.29993,0.80157"
       id="path929-9"
       inkscape:connector-curvature="0" />
    <path
       style="fill:#3d3d3d;fill-opacity:1;fill-rule:nonzero;stroke:none;stroke-width:1.39586914"
       d="m 55.469333,98.325383 c -0.27816,-0.15273 -0.61069,-0.32723 -0.98148,-0.46892 -0.37076,-0.13651 -0.77973,-0.26154 -1.18866,-0.37075 -0.41986,-0.0819 -0.83972,-0.14165 -1.23231,-0.18003 -0.39801,-0.0277 -0.7688,-0.0158 -1.08507,0 -0.31615,0.0158 -0.57797,0.0653 -0.75788,0.0981 -0.18004,0.0396 -0.28371,0.0546 -0.28371,0.0546 0,0 0.10367,0.0119 0.28885,0.0198 0.18003,0.004 0.44166,0.0317 0.747,0.0546 0.31061,0.0158 0.67068,0.0764 1.05235,0.12543 0.38183,0.0491 0.77973,0.12543 1.17774,0.22355 0.40352,0.0819 0.79611,0.19072 1.16686,0.30547 0.36007,0.12543 0.70886,0.22356 0.99782,0.34345 0.28885,0.11435 0.53437,0.19626 0.69794,0.27262 0.1745,0.0708 0.27263,0.10881 0.27263,0.10881 0,0 -0.0875,-0.0653 -0.23464,-0.18003 -0.14719,-0.10367 -0.35967,-0.26194 -0.63795,-0.40894"
       id="path931-5"
       inkscape:connector-curvature="0" />
    <path
       style="fill:#3d3d3d;fill-opacity:1;fill-rule:nonzero;stroke:none;stroke-width:1.39586914"
       d="m 130.35555,162.21138 c 0.10921,-0.10367 0.21802,-0.20734 0.32169,-0.32723 0.22909,-0.26154 0.45253,-0.56709 0.62157,-0.9215 0.16895,-0.35452 0.2837,-0.75792 0.32723,-1.16685 0.0119,-0.10367 0.0158,-0.20734 0.0237,-0.30547 0,-0.14165 0,-0.19626 -0.0119,-0.32169 -0.0237,-0.24532 -0.0764,-0.45257 -0.16342,-0.66525 -0.18003,-0.41436 -0.47438,-0.75243 -0.77973,-1.01963 -0.29992,-0.27816 -0.62703,-0.48526 -0.93783,-0.68702 -0.31061,-0.19625 -0.61616,-0.37075 -0.90512,-0.5289 -0.28885,-0.16342 -0.56709,-0.31615 -0.81791,-0.45258 -0.5071,-0.27816 -0.92696,-0.5071 -1.22138,-0.68156 -0.29439,-0.16895 -0.458,-0.26708 -0.458,-0.26708 0,0 0.52344,0.58339 1.46128,1.28679 0.2291,0.17449 0.48526,0.36521 0.75792,0.5507 0.26709,0.19072 0.55071,0.39252 0.84514,0.59981 0.2837,0.20734 0.57254,0.43074 0.82337,0.67064 0.26154,0.23978 0.47438,0.5071 0.60523,0.79611 0.0653,0.14165 0.1092,0.311 0.12543,0.44712 0.004,0.0653 0.0158,0.20733 0.0119,0.2564 0,0.0926 -0.004,0.17449 -0.0119,0.26154 -0.0198,0.34899 -0.0926,0.6816 -0.21802,0.98694 -0.12543,0.30547 -0.27816,0.59432 -0.46892,0.84514 -0.18518,0.2564 -0.38183,0.49076 -0.57255,0.69794 -0.38697,0.42531 -0.73062,0.76338 -0.9651,1.00874 -0.21248,0.2291 -0.33791,0.36521 -0.35967,0.38698 -1.26499,1.02508 -3.15705,1.88113 -5.4417,2.53001 0.29438,-0.13651 0.5289,-0.27816 0.68701,-0.44166 1.37408,-1.41226 3.16251,-2.47003 3.16251,-3.92043 0,-0.84517 -1.0087,-1.54311 -1.11775,-2.40462 -0.2018,-1.64124 -3.05892,-1.77755 -5.62166,-3.00982 -1.39588,-0.67614 -3.03166,-1.25956 -5.36537,-1.17232 -0.84517,0.0317 -1.61398,0 -2.42097,-0.0708 l 0.004,0.004 c 0,0 -0.13097,0 -0.35453,-0.004 -0.22356,-0.004 -0.53983,-0.004 -0.9215,-0.0237 -0.38183,-0.0119 -0.82333,-0.0396 -1.29771,-0.0653 -0.47438,-0.0277 -0.98148,-0.0546 -1.48858,-0.0819 -0.50165,-0.0317 -1.00871,-0.0653 -1.48309,-0.0926 -0.47438,-0.0277 -0.91604,-0.0546 -1.29771,-0.0708 -0.38183,-0.0237 -0.69794,-0.0435 -0.9215,-0.0491 -0.21802,-0.0119 -0.34899,-0.0237 -0.34899,-0.0237 0,0 0.12543,-0.0237 0.34899,-0.0435 0.22356,-0.0277 0.53979,-0.0653 0.9215,-0.0871 0.38183,-0.0198 0.82879,-0.0317 1.30859,-0.0317 0.47438,0.004 0.98694,0.0237 1.49405,0.0546 0.0653,0.004 0.12543,0.0119 0.19071,0.0119 -0.46349,-0.70882 -1.20504,-1.6685 -2.21924,-2.46457 0.13651,-0.0237 0.27816,-0.0396 0.41985,-0.0601 0.4635,-0.0491 0.95422,-0.1199 1.46133,-0.16342 0.2564,-0.0237 0.51798,-0.0435 0.77972,-0.0708 0.26155,-0.0158 0.52345,-0.0316 0.79607,-0.0546 0.53436,-0.0396 1.07961,-0.0546 1.6249,-0.0764 0.54524,-0.0277 1.09595,-0.0158 1.63032,-0.0198 0.53982,-0.004 1.06869,0.0158 1.58671,0.0277 0.51252,0.0119 1.00328,0.0546 1.47766,0.0764 0.46892,0.0198 0.91058,0.0708 1.32498,0.10881 0.40893,0.0396 0.78518,0.0653 1.11779,0.11436 0.32723,0.0435 0.61615,0.0819 0.85605,0.11435 0.47984,0.0601 0.75247,0.0981 0.75247,0.0981 0,0 -0.27263,-0.0546 -0.74155,-0.1472 -0.23978,-0.0491 -0.52348,-0.10881 -0.85063,-0.17449 -0.33276,-0.0708 -0.70336,-0.11435 -1.11233,-0.18558 -0.40894,-0.0653 -0.85059,-0.14719 -1.31951,-0.19625 -0.47438,-0.0546 -0.96514,-0.13097 -1.48313,-0.1745 -0.44166,-0.0396 -0.89423,-0.0871 -1.35769,-0.11989 5.4417,0.19072 10.43086,1.28679 13.36981,3.12437 2.70451,1.68484 5.50168,2.93348 5.50168,5.03276 0,1.3795 -0.70886,2.0556 -1.68484,2.75354 z m -8.48974,-4.18217 c -0.5289,-0.25087 -0.95422,-0.50161 -1.23772,-0.68702 -0.14166,-0.0981 -0.25087,-0.18004 -0.32169,-0.23464 -0.0708,-0.0546 -0.10921,-0.087 -0.10921,-0.087 0,0 0.18003,0.0819 0.49072,0.2018 0.31615,0.11989 0.76881,0.27816 1.31409,0.44707 0.27817,0.0871 0.57797,0.1745 0.8942,0.27263 0.31615,0.10367 0.65433,0.21248 1.00328,0.37075 0.33791,0.15827 0.73067,0.34899 1.01421,0.75246 0.0653,0.10367 0.11989,0.21248 0.16342,0.33277 0.0491,0.14719 0.0546,0.2291 0.0764,0.32723 0.0277,0.13097 0.0926,0.26708 0.18004,0.41985 0.16895,0.30547 0.43073,0.60523 0.61069,1.02509 0.0237,0.0491 0.0396,0.10921 0.0546,0.16341 0.0158,0.0602 0.0277,0.13612 0.0396,0.2018 0.004,0.0316 0.004,0.0491 0.004,0.0764 l 0.004,0.0926 c -0.004,0.0546 -0.004,0.10881 -0.0158,0.16341 -0.0277,0.21802 -0.0874,0.42532 -0.16342,0.61069 -0.15827,0.37075 -0.38183,0.67068 -0.59435,0.93784 -0.21802,0.26709 -0.44712,0.49072 -0.6543,0.69248 -0.21248,0.20734 -0.41439,0.38183 -0.59435,0.53437 -0.18003,0.15827 -0.33791,0.2837 -0.46892,0.39251 -0.26708,0.21248 -0.41985,0.33791 -0.41985,0.33791 0,0 0.11989,-0.15827 0.32723,-0.42532 0.21248,-0.26154 0.51802,-0.63249 0.88331,-1.08507 0.18003,-0.22356 0.35967,-0.46892 0.53983,-0.73612 0.18003,-0.26154 0.34345,-0.55617 0.45257,-0.85605 0.0546,-0.15273 0.0874,-0.30547 0.0981,-0.458 0,-0.0317 0,-0.0653 0,-0.0981 v -0.0277 l -0.004,-0.0317 c -0.004,-0.0237 -0.004,-0.0546 -0.0119,-0.0653 -0.0119,-0.0277 -0.0119,-0.0435 -0.0237,-0.0764 -0.0158,-0.0317 -0.0198,-0.0653 -0.0396,-0.10367 -0.11989,-0.2837 -0.37075,-0.57255 -0.59435,-0.93242 -0.10921,-0.18004 -0.20734,-0.39252 -0.25086,-0.64338 l -0.0277,-0.14165 c -0.004,-0.0546 -0.0158,-0.0601 -0.0198,-0.0926 -0.0237,-0.0601 -0.0491,-0.12543 -0.0874,-0.18003 -0.15273,-0.2291 -0.4362,-0.42528 -0.73612,-0.58339 -0.29993,-0.15827 -0.62158,-0.29439 -0.92146,-0.42532 -0.30547,-0.13097 -0.59435,-0.2564 -0.85609,-0.38183 z m -3.46785,6.46682 c -0.24532,0 -0.44712,-0.0546 -0.44712,-0.11989 0,-0.0653 0.2018,-0.11989 0.44712,-0.11989 0.24532,0 0.44165,0.0546 0.44165,0.11989 0,0.0653 -0.19625,0.11989 -0.44165,0.11989 z m -0.88878,-6.1233 c -0.24532,0 -0.44166,-0.0546 -0.44166,-0.11989 0,-0.0653 0.19626,-0.11989 0.44166,-0.11989 0.24532,0 0.44166,0.0546 0.44166,0.11989 0,0.0653 -0.19626,0.11989 -0.44166,0.11989 z m -0.4635,6.48317 c -0.34899,0 -0.62703,-0.0764 -0.62703,-0.16895 0,-0.0926 0.27816,-0.16896 0.62703,-0.16896 0.34899,0 0.62708,0.0764 0.62708,0.16896 0,0.0926 -0.27817,0.16895 -0.62708,0.16895 z m -1.15594,-4.3021 c -0.24532,0 -0.44711,-0.0546 -0.44711,-0.11989 0,-0.0653 0.20179,-0.11989 0.44711,-0.11989 0.24533,0 0.44166,0.0546 0.44166,0.11989 0,0.0653 -0.19626,0.11989 -0.44166,0.11989 z m -1.07415,-1.25957 c 0,-0.19072 0.56163,-0.34345 1.25953,-0.34345 0.69248,0 1.25411,0.15273 1.25411,0.34345 0,0.18558 -0.56163,0.33791 -1.25411,0.33791 -0.6979,0 -1.25953,-0.15273 -1.25953,-0.33791 z m -25.899907,0.28885 c 0,0.0653 0.0119,0.11989 0.0158,0.18557 0.0119,0.11989 0.0435,0.25086 0.0653,0.37629 0.0653,0.25086 0.15828,0.49615 0.26709,0.73063 0.46892,0.93783 1.23226,1.70668 2.02837,2.32283 0.80153,0.61611 1.64124,1.10141 2.44277,1.49943 1.60305,0.80157 3.02619,1.29229 4.02948,1.60855 0.50164,0.15828 0.89965,0.27263 1.17232,0.34899 0.27262,0.0764 0.41981,0.11436 0.41981,0.11436 0,0 -0.15273,-0.0277 -0.43073,-0.0819 -0.27263,-0.0601 -0.6816,-0.13651 -1.19412,-0.26708 -1.01963,-0.2564 -2.49184,-0.63796 -4.1658,-1.36862 -0.83425,-0.36521 -1.72302,-0.81787 -2.59546,-1.41768 -0.86151,-0.60523 -1.73936,-1.36858 -2.32279,-2.44277 -0.14166,-0.27262 -0.26155,-0.55616 -0.34899,-0.86151 -0.0396,-0.15273 -0.0819,-0.29992 -0.10367,-0.46892 -0.0119,-0.0819 -0.0198,-0.16895 -0.0317,-0.24532 l -0.0119,-0.21802 c -0.0316,-0.66522 0.13612,-1.31955 0.44166,-1.89752 0.29993,-0.57797 0.70882,-1.08507 1.16686,-1.52673 0.458,-0.44166 0.95964,-0.82333 1.48313,-1.16686 0.5289,-0.33791 1.07415,-0.63795 1.62485,-0.90515 0.56163,-0.25641 1.12326,-0.49619 1.69031,-0.69244 1.13959,-0.40352 2.27919,-0.71978 3.39152,-0.97603 2.224667,-0.5071 4.329367,-0.79064 6.134217,-0.96514 1.80482,-0.17449 3.31516,-0.2291 4.36751,-0.23978 0.52891,-0.004 0.9433,-0.004 1.22685,0 0.2837,0 0.43077,0 0.43077,0 0,0 -0.14719,0.0119 -0.43077,0.0277 -0.28371,0.0237 -0.69248,0.0491 -1.21593,0.0926 -0.5289,0.0435 -1.16139,0.10881 -1.89206,0.19071 -0.7252,0.0819 -1.54853,0.18558 -2.4373,0.32169 -1.77755,0.27816 -3.84411,0.6816 -5.992447,1.30317 -1.07415,0.31615 -2.17014,0.67614 -3.24429,1.1178 -0.53979,0.22356 -1.07962,0.44711 -1.60306,0.70886 -0.52891,0.25086 -1.04693,0.52344 -1.53765,0.82879 -0.98148,0.59435 -1.9084,1.33589 -2.43731,2.26827 -0.26194,0.46346 -0.41439,0.98148 -0.40893,1.47766 z m 44.760487,1.43948 c 0.0119,-0.0491 0.0119,-0.0926 0.0237,-0.13611 0.0819,0.0491 0.16896,0.0981 0.2564,0.14165 0.13097,0.0653 0.25086,0.13611 0.37629,0.19626 0.24532,0.11989 0.47438,0.22356 0.67614,0.30546 0.19626,0.087 0.36521,0.14165 0.4798,0.19072 0.11435,0.0435 0.18003,0.0653 0.18003,0.0653 0,0 -0.0435,-0.0491 -0.13097,-0.14166 -0.0819,-0.0926 -0.20733,-0.21248 -0.34345,-0.37629 -0.14165,-0.15827 -0.29438,-0.34345 -0.45253,-0.55074 -0.0819,-0.0981 -0.15828,-0.21248 -0.23464,-0.32169 -0.0819,-0.10367 -0.15273,-0.22356 -0.2291,-0.33277 -0.14719,-0.22356 -0.2837,-0.458 -0.39251,-0.67068 -0.0871,-0.16895 -0.15274,-0.32168 -0.21248,-0.46345 -0.10367,-0.50711 -0.30547,-0.99783 -0.59981,-1.47221 -0.0764,-0.19626 -0.16342,-0.39251 -0.26709,-0.59435 -0.37075,-0.73062 -0.91058,-1.47766 -1.58671,-2.15376 -0.67064,-0.67614 -1.47763,-1.29775 -2.37732,-1.81574 -0.11436,-0.0653 -0.22356,-0.13097 -0.33791,-0.19625 -0.11436,-0.0601 -0.23464,-0.11989 -0.34899,-0.18004 -0.23464,-0.11989 -0.46892,-0.24532 -0.71428,-0.35453 -0.49077,-0.20733 -0.98695,-0.44169 -1.50493,-0.61073 -0.2564,-0.0926 -0.51256,-0.18557 -0.77427,-0.27816 -0.26708,-0.0764 -0.53436,-0.15273 -0.80153,-0.23464 -0.5289,-0.16895 -1.07965,-0.2837 -1.62489,-0.41985 -1.10142,-0.25086 -2.21921,-0.44166 -3.34247,-0.59435 -0.56158,-0.0871 -1.12321,-0.13097 -1.67938,-0.19072 -0.2837,-0.0317 -0.56163,-0.0601 -0.83425,-0.0871 -0.2837,-0.0158 -0.56163,-0.0316 -0.83425,-0.0546 -1.10687,-0.0871 -2.19194,-0.11436 -3.23887,-0.1472 -0.52891,-0.0158 -1.04143,-0.004 -1.54853,-0.0119 -0.50165,0 -0.99783,-0.0119 -1.47767,0.004 -0.95964,0.0277 -1.8648,0.0396 -2.70451,0.0764 -0.83421,0.0491 -1.59759,0.0871 -2.27919,0.11989 -0.6761,0.0435 -1.26499,0.0981 -1.75029,0.13097 -0.97056,0.0764 -1.52673,0.11435 -1.52673,0.11435 0,0 0.55617,0.004 1.52673,0.0119 0.49076,0.0119 1.07965,0.004 1.75575,0.0237 0.67614,0.0198 1.44494,0.0435 2.27373,0.0708 0.83425,0.0277 1.73395,0.0926 2.68817,0.14165 0.38183,0.0237 0.77426,0.0601 1.17232,0.0926 -0.27262,0 -0.54529,-0.004 -0.82337,-0.004 -12.093897,0 -22.066727,3.60417 -23.462607,8.25526 -0.0237,0.0435 -0.0435,0.0981 -0.0708,0.14719 -0.15828,0.35453 -0.41982,0.82333 -0.71428,1.28137 -0.29993,0.458 -0.62704,0.91058 -0.88332,1.24319 -0.26154,0.32722 -0.44166,0.54528 -0.44166,0.54528 0,0 0.2564,-0.10921 0.64342,-0.29438 0.38697,-0.18518 0.88877,-0.45258 1.39042,-0.75247 0.0158,-0.004 0.0316,-0.0158 0.0491,-0.0277 1.29225,4.68923 11.31418,8.3425 23.489827,8.3425 3.93135,0 7.63368,-0.38183 10.8889,-1.05235 -0.11989,0.0317 -0.23978,0.0602 -0.35967,0.0926 -0.4853,0.12543 -0.97603,0.21802 -1.46675,0.31615 -0.24532,0.0546 -0.49076,0.10367 -0.73612,0.15273 -0.24532,0.0435 -0.49072,0.0819 -0.73608,0.11989 -0.4853,0.0764 -0.9706,0.16896 -1.45586,0.2291 -0.48531,0.0601 -0.95969,0.11989 -1.43403,0.18004 -0.46896,0.0653 -0.93788,0.0926 -1.39041,0.14165 -0.45258,0.0435 -0.8997,0.0926 -1.3359,0.11989 -0.87243,0.0546 -1.69576,0.11989 -2.45368,0.15273 -0.76339,0.0277 -1.46133,0.0546 -2.0829,0.0764 -0.62161,0.0237 -1.1614,0.0158 -1.60852,0.0277 -0.89423,0.004 -1.40134,0.0119 -1.40134,0.0119 0,0 0.50711,0.0435 1.39588,0.11435 0.44712,0.0317 0.98691,0.0819 1.60852,0.11989 0.62161,0.0396 1.32497,0.0764 2.08836,0.11435 0.76334,0.0396 1.59759,0.0491 2.47549,0.0764 0.44165,0.0119 0.89423,0 1.35223,0 0.46346,-0.004 0.93784,0.0119 1.41768,-0.0119 0.4853,-0.0158 0.97056,-0.0396 1.46674,-0.0546 0.49623,-0.0158 0.99783,-0.0601 1.50493,-0.0926 0.2564,-0.0237 0.5071,-0.0317 0.76339,-0.0546 0.2564,-0.0317 0.51252,-0.0601 0.7688,-0.087 0.51256,-0.0546 1.02509,-0.10921 1.53765,-0.19072 0.51799,-0.0819 1.03055,-0.14719 1.54307,-0.2564 0.51257,-0.10367 1.01967,-0.19626 1.52131,-0.33277 0.25086,-0.0601 0.5016,-0.12543 0.75242,-0.18557 0.25087,-0.0708 0.49623,-0.15273 0.74159,-0.22356 0.49072,-0.14165 0.97056,-0.32722 1.43948,-0.50164 0.23978,-0.0819 0.46892,-0.19072 0.69794,-0.29439 0.22356,-0.10366 0.45258,-0.19625 0.67613,-0.311 0.4362,-0.2291 0.8724,-0.45258 1.27045,-0.71974 0.81245,-0.51802 1.54853,-1.10145 2.14288,-1.76121 0.59977,-0.6543 1.06327,-1.36316 1.38496,-2.05017 0.32169,-0.68706 0.50164,-1.34136 0.58889,-1.89752"
       id="path961-2"
       inkscape:connector-curvature="0" />
    <path
       style="fill:#3d3d3d;fill-opacity:1;fill-rule:nonzero;stroke:none;stroke-width:1.39586914"
       d="m 112.7763,197.23033 c -0.27262,-0.004 -0.56709,-0.0158 -0.87785,-0.0317 -0.30547,-0.004 -0.63254,-0.0158 -0.96515,-0.0277 -0.67609,-0.0237 -1.41221,-0.0396 -2.18102,-0.0819 -0.77427,-0.0396 -1.58671,-0.0653 -2.42643,-0.13612 -0.41985,-0.0277 -0.84513,-0.0601 -1.2759,-0.0926 -0.21802,-0.0119 -0.43074,-0.0396 -0.64888,-0.0601 -0.21802,-0.0237 -0.4362,-0.0435 -0.65429,-0.0653 -0.21802,-0.0237 -0.44166,-0.0435 -0.65976,-0.0653 l -0.33277,-0.0317 -0.33276,-0.0435 c -0.43624,-0.0653 -0.88336,-0.12543 -1.32501,-0.19072 -0.44166,-0.0491 -0.87786,-0.14719 -1.314057,-0.22356 -0.21802,-0.0396 -0.43623,-0.0764 -0.65433,-0.11435 -0.21802,-0.0491 -0.43074,-0.0981 -0.64342,-0.14719 -0.21248,-0.0546 -0.42527,-0.10367 -0.63795,-0.15274 -0.21248,-0.0435 -0.41986,-0.0926 -0.62703,-0.15273 -0.4144,-0.11989 -0.81791,-0.23464 -1.22139,-0.34345 -0.39251,-0.13651 -0.77972,-0.27816 -1.16139,-0.40351 -0.3763,-0.12543 -0.73613,-0.28885 -1.09054,-0.43074 -0.36007,-0.13097 -0.68705,-0.30546 -1.0142,-0.45804 -0.16342,-0.0764 -0.32723,-0.14719 -0.48526,-0.22356 -0.15274,-0.0764 -0.30547,-0.16341 -0.45258,-0.23978 -0.28885,-0.16341 -0.57797,-0.30546 -0.83971,-0.46346 -0.26709,-0.15273 -0.51799,-0.29992 -0.75247,-0.44165 -0.46346,-0.28885 -0.86151,-0.55071 -1.19412,-0.76339 -0.65429,-0.44712 -1.03054,-0.69794 -1.03054,-0.69794 0,0 0.0819,0.0764 0.23978,0.21802 0.15273,0.14165 0.38183,0.35967 0.67613,0.62161 0.30547,0.25086 0.67068,0.57251 1.11234,0.90512 0.22356,0.16896 0.458,0.34345 0.70882,0.52891 0.25086,0.18557 0.53436,0.35452 0.81791,0.54528 0.14719,0.0926 0.28884,0.19072 0.44165,0.2837 0.15828,0.0871 0.31615,0.1745 0.47438,0.26709 0.32169,0.18003 0.6543,0.37629 1.01421,0.53436 0.35967,0.16896 0.71974,0.35967 1.10141,0.51253 0.38183,0.15827 0.77973,0.30546 1.17778,0.46349 0.40894,0.13097 0.82879,0.26709 1.24865,0.40348 0.41985,0.14165 0.85605,0.2291 1.29225,0.34345 0.21802,0.0546 0.44166,0.10881 0.65975,0.15827 0.22356,0.0435 0.44712,0.087 0.67068,0.13057 0.447117,0.0764 0.894237,0.18558 1.346817,0.24533 0.45253,0.0546 0.90511,0.11435 1.35769,0.17449 l 0.33791,0.0435 0.33277,0.0277 c 0.2291,0.0198 0.45258,0.0435 0.67613,0.0602 0.44712,0.0396 0.88878,0.0819 1.32498,0.0981 0.44165,0.0158 0.87243,0.0317 1.29771,0.0491 0.85063,0.0435 1.67396,0.0158 2.45368,0.0119 0.38698,-0.004 0.76881,0 1.13414,-0.0237 0.36521,-0.0158 0.71974,-0.0396 1.05781,-0.0546 0.6816,-0.0396 1.30317,-0.0601 1.85388,-0.11435 0.54528,-0.0491 1.02512,-0.0981 1.42314,-0.14165 0.78518,-0.0819 1.2323,-0.13611 1.2323,-0.13611 0,0 -0.45258,-0.0237 -1.24318,-0.0435 -0.39252,-0.0119 -0.87244,-0.0237 -1.42314,-0.0277"
       id="path963-3"
       inkscape:connector-curvature="0" />
    <path
       style="fill:#3d3d3d;fill-opacity:1;fill-rule:nonzero;stroke:none;stroke-width:1.39586914"
       d="m 146.29352,191.54869 c -0.24532,-0.0396 -0.51257,-0.0819 -0.79607,-0.11989 -0.27816,-0.0396 -0.57797,-0.0764 -0.87789,-0.13651 -0.29993,-0.0601 -0.61612,-0.10881 -0.9215,-0.17449 -0.31101,-0.0819 -0.62703,-0.14166 -0.93238,-0.23464 l -0.45258,-0.14165 -0.2291,-0.0708 c -0.0708,-0.0277 -0.13611,-0.0546 -0.20733,-0.0871 -0.14166,-0.0601 -0.28371,-0.11435 -0.41986,-0.16895 -0.13611,-0.0601 -0.2564,-0.13097 -0.38697,-0.19626 l -0.18558,-0.0981 -0.16341,-0.10881 c -0.10921,-0.0764 -0.2291,-0.14166 -0.32169,-0.21802 -0.0926,-0.0819 -0.18003,-0.15827 -0.27262,-0.23464 -0.0819,-0.0764 -0.1472,-0.15827 -0.22356,-0.23464 -0.0764,-0.0708 -0.12543,-0.15273 -0.18558,-0.2291 -0.0546,-0.0708 -0.1092,-0.14719 -0.14719,-0.21801 -0.0871,-0.13612 -0.14165,-0.26709 -0.19072,-0.37076 -0.087,-0.21287 -0.1092,-0.34345 -0.1092,-0.34345 0,0 -0.0491,0.11435 -0.0546,0.34345 0.004,0.11435 0.0119,0.25086 0.0601,0.4144 0,0.004 0,0.0119 0,0.0158 -0.004,0.0764 -0.0158,0.15827 -0.0317,0.24532 -0.0198,0.14719 -0.0708,0.30546 -0.12543,0.458 -0.11435,0.30546 -0.28884,0.59977 -0.43074,0.81244 -0.14719,0.21802 -0.27262,0.34899 -0.27262,0.34899 0,0 0.16896,-0.0981 0.39252,-0.27262 0.22355,-0.17449 0.5071,-0.42532 0.73612,-0.71428 0.0317,-0.0435 0.0653,-0.0819 0.0981,-0.13097 0.0158,0.0277 0.0317,0.0491 0.0491,0.0708 0.0819,0.0981 0.1745,0.20179 0.26708,0.30546 0.0926,0.0981 0.21802,0.19072 0.33277,0.28885 0.0546,0.0491 0.11435,0.10367 0.18003,0.14719 0.0653,0.0435 0.13651,0.087 0.2018,0.13097 0.14165,0.0819 0.2837,0.17449 0.43074,0.2564 0.15273,0.0708 0.311,0.14719 0.47438,0.21802 0.0764,0.0317 0.15827,0.0708 0.23978,0.10367 l 0.25086,0.087 0.50164,0.16341 c 0.34345,0.0981 0.68702,0.15827 1.02509,0.23464 0.33791,0.0764 0.67614,0.0926 0.9924,0.13611 0.27263,0.0396 0.52345,0.0491 0.77427,0.0546 0.0158,0.16895 0.0317,0.35453 0.0317,0.54524 0.004,0.29439 -0.0158,0.59435 -0.0491,0.81245 -0.0277,0.22356 -0.0653,0.37076 -0.0653,0.37076 0,0 0.0871,-0.13097 0.19072,-0.33277 0.10921,-0.2018 0.23464,-0.47984 0.33277,-0.76885 0.0708,-0.20733 0.13097,-0.41985 0.16895,-0.61069 0.11989,0.004 0.23978,0.004 0.35453,0.004 0.25086,0 0.47438,-0.0237 0.6761,-0.0396 0.20179,-0.0119 0.37629,-0.0277 0.51802,-0.0435 0.2837,-0.0277 0.44712,-0.0491 0.44712,-0.0491 0,0 -0.1745,-0.0317 -0.46896,-0.0708 -0.29439,-0.0435 -0.70882,-0.0981 -1.205,-0.15274"
       id="path965-8"
       inkscape:connector-curvature="0" />
    <path
       style="fill:#3d3d3d;fill-opacity:1;fill-rule:nonzero;stroke:none;stroke-width:1.39586914"
       d="m 123.54068,183.55424 c -0.7252,0.18004 -1.47767,0.45258 -2.12108,0.88878 -0.30547,0.2291 -0.61615,0.47984 -0.82879,0.81245 -0.21248,0.33276 -0.36521,0.68155 -0.31615,1.17778 0.0119,0.0981 0.0317,0.16895 0.0491,0.2564 l 0.0119,0.0653 0.0119,0.0491 0.0158,0.0316 0.0119,0.0396 0.0708,0.15273 c 0.0396,0.10921 0.0981,0.21288 0.16896,0.31101 0.0653,0.0981 0.12543,0.20179 0.21248,0.28884 0.311,0.38183 0.72516,0.68156 1.15593,0.93784 0.88332,0.50164 1.843,0.79065 2.78084,0.97602 0.9433,0.19072 1.84846,0.23979 2.74265,0.23425 0.23464,0 0.42532,-0.0158 0.62707,-0.0237 0.10921,-0.0119 0.18004,-0.004 0.31615,-0.0198 l 0.30547,-0.0396 c 0.20733,-0.0158 0.40347,-0.0435 0.59977,-0.0819 0.19071,-0.0277 0.38697,-0.0601 0.56709,-0.10367 0.74154,-0.15273 1.40129,-0.38183 1.95746,-0.64341 1.12326,-0.52345 1.75029,-1.28133 1.87026,-1.87568 0.0601,-0.29439 0.0158,-0.54525 -0.0317,-0.7034 -0.0546,-0.15273 -0.087,-0.23978 -0.087,-0.23978 0,0 0.004,0.087 0.0158,0.24532 0,0.15827 -0.0435,0.37075 -0.16341,0.62161 -0.13097,0.24532 -0.37075,0.50706 -0.71428,0.75792 -0.34345,0.24533 -0.79611,0.46892 -1.34136,0.6543 -0.54524,0.18557 -1.17778,0.32723 -1.86479,0.41986 -0.16896,0.0277 -0.34899,0.0435 -0.52891,0.0601 -0.18003,0.0198 -0.36521,0.0317 -0.55071,0.0396 h -0.004 c -1.12326,-0.36007 -2.77538,-1.07965 -3.18431,-2.62273 -0.29993,-1.12325 1.205,-2.06109 1.52127,-2.48641 0.27262,-0.0277 0.53436,-0.0435 0.78514,-0.0491 0.52349,-0.0158 0.98695,-0.0119 1.37408,0.0158 0.7688,0.0491 1.22138,0.12543 1.22138,0.12543 0,0 -0.10921,-0.0317 -0.31061,-0.0981 -0.20733,-0.0601 -0.50706,-0.15273 -0.89965,-0.23424 -0.77973,-0.16342 -1.94659,-0.32169 -3.30428,-0.25086 -0.67614,0.0396 -1.4068,0.11989 -2.13746,0.311"
       id="path967-9"
       inkscape:connector-curvature="0" />
    <path
       style="fill:#3d3d3d;fill-opacity:1;fill-rule:nonzero;stroke:none;stroke-width:1.39586914"
       d="m 75.038773,191.54327 c -0.1745,-0.0317 -0.36007,-0.0601 -0.55617,-0.0871 -0.19626,-0.0237 -0.40351,-0.0546 -0.61069,-0.0926 -0.21248,-0.0435 -0.43078,-0.0764 -0.64888,-0.12543 -0.21248,-0.0546 -0.43619,-0.0981 -0.64883,-0.16341 l -0.47438,-0.1472 c -0.0491,-0.0158 -0.0981,-0.0396 -0.1472,-0.0601 -0.0981,-0.0396 -0.19625,-0.0819 -0.29438,-0.11989 -0.0926,-0.0396 -0.1745,-0.0926 -0.26708,-0.13651 l -0.12544,-0.0653 -0.11989,-0.0819 c -0.0708,-0.0491 -0.15827,-0.0926 -0.22356,-0.14719 -0.0601,-0.0546 -0.12543,-0.11436 -0.18557,-0.16342 -0.0601,-0.0546 -0.10921,-0.10881 -0.15827,-0.16342 -0.0601,-0.0546 -0.087,-0.1092 -0.13097,-0.16381 -0.0396,-0.0491 -0.0764,-0.0981 -0.10367,-0.14719 -0.0601,-0.0981 -0.0981,-0.18557 -0.13097,-0.26154 -0.0601,-0.15274 -0.0819,-0.23979 -0.0819,-0.23979 0,0 -0.0277,0.0819 -0.0317,0.23979 0.004,0.0764 0.004,0.17449 0.0396,0.28884 0,0.004 0,0.004 0.004,0.0119 -0.004,0.0546 -0.0119,0.10921 -0.0277,0.1745 -0.0158,0.0981 -0.0491,0.20733 -0.0871,0.31615 -0.0764,0.21801 -0.19626,0.41985 -0.29993,0.5725 -0.10366,0.1472 -0.19071,0.23979 -0.19071,0.23979 0,0 0.11989,-0.0708 0.27262,-0.19072 0.15827,-0.11989 0.35453,-0.29439 0.51252,-0.49622 0.0277,-0.0317 0.0491,-0.0602 0.0708,-0.0926 0.0119,0.0158 0.0237,0.0317 0.0316,0.0491 0.0602,0.0708 0.12543,0.14165 0.19072,0.21248 0.0653,0.0708 0.14719,0.13097 0.2291,0.2018 0.0435,0.0317 0.0819,0.0708 0.12543,0.10367 0.0491,0.0277 0.0981,0.0601 0.14165,0.0871 0.0981,0.0601 0.19626,0.12543 0.29993,0.18003 0.10921,0.0546 0.21802,0.10367 0.33277,0.15273 0.0546,0.0277 0.1092,0.0491 0.16895,0.0764 l 0.1745,0.0601 0.34898,0.11435 c 0.23979,0.0653 0.47985,0.10921 0.71975,0.16342 0.23463,0.0491 0.46892,0.0653 0.69247,0.0926 0.18558,0.0317 0.36522,0.0396 0.53437,0.0435 0.0158,0.11435 0.0277,0.24532 0.0277,0.37629 0.004,0.20734 -0.0119,0.4144 -0.0317,0.56709 -0.0198,0.15827 -0.0491,0.2564 -0.0491,0.2564 0,0 0.0601,-0.087 0.13611,-0.2291 0.0764,-0.14165 0.16342,-0.33791 0.2291,-0.53982 0.0546,-0.14166 0.0926,-0.28885 0.11989,-0.41986 0.0875,0 0.16896,0 0.24532,0 0.1745,0 0.33277,-0.0158 0.47438,-0.0277 0.14166,-0.004 0.26155,-0.0237 0.35968,-0.0277 0.20179,-0.0237 0.311,-0.0396 0.311,-0.0396 0,0 -0.11989,-0.0198 -0.32169,-0.0491 -0.20733,-0.0317 -0.49618,-0.0653 -0.84517,-0.10366"
       id="path969-5"
       inkscape:connector-curvature="0" />
    <path
       style="fill:#3d3d3d;fill-opacity:1;fill-rule:nonzero;stroke:none;stroke-width:1.39586914"
       d="m 79.864313,188.66427 c 0,0 0.004,0.0601 0.0119,0.16895 0,0.10882 -0.0317,0.2564 -0.11436,0.4362 -0.0926,0.16896 -0.26154,0.35453 -0.49618,0.52891 -0.23978,0.16895 -0.56163,0.32722 -0.93784,0.45803 -0.38183,0.12543 -0.82337,0.22356 -1.30317,0.29439 -0.11989,0.0158 -0.24532,0.0277 -0.37075,0.0396 -0.12543,0.0158 -0.25086,0.0237 -0.38697,0.0277 -0.78519,-0.25087 -1.94113,-0.75789 -2.22467,-1.83208 -0.20734,-0.78515 0.83971,-1.43948 1.06327,-1.73391 0.19071,-0.0237 0.37629,-0.0316 0.5507,-0.0396 0.36522,-0.0119 0.68702,-0.004 0.95418,0.0119 0.53983,0.0396 0.8561,0.0926 0.8561,0.0926 0,0 -0.0764,-0.0277 -0.21802,-0.0708 -0.14166,-0.0435 -0.35453,-0.10367 -0.62708,-0.16342 -0.54524,-0.11435 -1.36315,-0.22356 -2.30645,-0.17449 -0.47438,0.0277 -0.98144,0.0819 -1.49401,0.21248 -0.5071,0.13097 -1.03054,0.31615 -1.47766,0.62703 -0.21802,0.15827 -0.4362,0.33277 -0.58343,0.56163 -0.14719,0.23464 -0.2564,0.47984 -0.21802,0.82879 0.004,0.0653 0.0198,0.11435 0.0316,0.17449 l 0.004,0.0435 0.0119,0.0396 v 0.004 l 0.004,0.0158 0.0158,0.0237 0.0435,0.11435 c 0.0277,0.0708 0.0708,0.14166 0.11989,0.21248 0.0435,0.0708 0.0875,0.14165 0.14719,0.2018 0.21802,0.26708 0.50711,0.47984 0.80699,0.65429 0.61615,0.34899 1.28683,0.55075 1.94113,0.6816 0.65979,0.13651 1.29228,0.16896 1.91932,0.16342 0.16341,0.004 0.29438,-0.0119 0.43623,-0.0158 0.0764,-0.004 0.12544,0 0.22356,-0.0119 l 0.21248,-0.0277 c 0.14166,-0.0119 0.28371,-0.0317 0.4144,-0.0601 0.13611,-0.0158 0.27262,-0.0435 0.39801,-0.0708 0.51803,-0.10921 0.98149,-0.26708 1.36862,-0.45258 0.77972,-0.35967 1.22138,-0.88877 1.30317,-1.30317 0.0435,-0.20733 0.0119,-0.38183 -0.0198,-0.49072 -0.0396,-0.10881 -0.0601,-0.16895 -0.0601,-0.16895"
       id="path971-6"
       inkscape:connector-curvature="0" />
    <path
       style="fill:#3d3d3d;fill-opacity:1;fill-rule:nonzero;stroke:none;stroke-width:1.39586914"
       d="m 137.03497,196.78322 c -0.13097,-0.0198 -0.26708,-0.0435 -0.40893,-0.0653 -0.14719,-0.0158 -0.29993,-0.0396 -0.45258,-0.0708 -0.15273,-0.0277 -0.31615,-0.0546 -0.47438,-0.087 -0.15827,-0.0435 -0.32169,-0.0708 -0.4798,-0.11989 l -0.2291,-0.0708 -0.11989,-0.0396 c -0.0316,-0.0119 -0.0708,-0.0277 -0.10367,-0.0435 -0.0764,-0.0316 -0.14719,-0.0601 -0.21802,-0.087 -0.0708,-0.0317 -0.13097,-0.0708 -0.19625,-0.10367 l -0.0981,-0.0491 -0.0819,-0.0546 c -0.0546,-0.0396 -0.11989,-0.0764 -0.16341,-0.11435 -0.0491,-0.0396 -0.0926,-0.0819 -0.14166,-0.1199 -0.0435,-0.0396 -0.0764,-0.0819 -0.11435,-0.11989 -0.0435,-0.0396 -0.0653,-0.0764 -0.0926,-0.11435 -0.0316,-0.0396 -0.0601,-0.0764 -0.0764,-0.11435 -0.0435,-0.0708 -0.0764,-0.13651 -0.10367,-0.19072 -0.0396,-0.1092 -0.0546,-0.17449 -0.0546,-0.17449 0,0 -0.0198,0.0601 -0.0277,0.17449 0.004,0.0601 0.004,0.13097 0.0317,0.21248 0,0.004 0,0.004 0,0.0119 -0.004,0.0396 -0.0119,0.0819 -0.0158,0.12543 -0.0158,0.0764 -0.0396,0.15274 -0.0653,0.23425 -0.0601,0.15827 -0.14719,0.30546 -0.22356,0.41985 -0.0764,0.10921 -0.13611,0.1745 -0.13611,0.1745 0,0 0.0819,-0.0491 0.20179,-0.14166 0.11435,-0.0871 0.2564,-0.21802 0.37629,-0.35967 0.0158,-0.0277 0.0317,-0.0491 0.0491,-0.0708 0.0119,0.0158 0.0158,0.0277 0.0277,0.0396 0.0396,0.0491 0.0871,0.0981 0.13612,0.15273 0.0491,0.0546 0.10921,0.0981 0.16895,0.15274 0.0317,0.0237 0.0601,0.0491 0.0926,0.0764 0.0396,0.0237 0.0708,0.0396 0.10921,0.0653 0.0708,0.0435 0.14165,0.0871 0.21802,0.13097 0.0764,0.0396 0.15827,0.0764 0.23978,0.10881 0.0435,0.0237 0.0819,0.0396 0.12543,0.0546 l 0.13097,0.0435 0.2564,0.087 c 0.1745,0.0491 0.35453,0.0819 0.52891,0.11989 0.16895,0.0396 0.34345,0.0435 0.50706,0.0708 0.13611,0.0198 0.26708,0.0277 0.39251,0.0277 0.0119,0.0871 0.0237,0.18004 0.0237,0.27817 0,0.15273 -0.0119,0.30546 -0.0277,0.41985 -0.0119,0.11435 -0.0317,0.18558 -0.0317,0.18558 0,0 0.0435,-0.0653 0.0981,-0.16896 0.0546,-0.10367 0.11989,-0.24532 0.16896,-0.39251 0.0396,-0.10921 0.0653,-0.21802 0.0871,-0.31101 0.0653,0 0.12543,0 0.18003,0 0.13097,0 0.24532,-0.0119 0.34899,-0.0237 0.10367,-0.004 0.19072,-0.0158 0.26708,-0.0237 0.1472,-0.0119 0.2291,-0.0237 0.2291,-0.0237 0,0 -0.0871,-0.0158 -0.23978,-0.0396 -0.15273,-0.0198 -0.36521,-0.0491 -0.61615,-0.0764"
       id="path973-0"
       inkscape:connector-curvature="0" />
    <path
       style="fill:#3d3d3d;fill-opacity:1;fill-rule:nonzero;stroke:none;stroke-width:1.39586914"
       d="m 140.57919,194.6676 c 0,0 0,0.0396 0.004,0.12543 0.004,0.0764 -0.0237,0.18557 -0.0819,0.31615 -0.0653,0.12543 -0.19072,0.26154 -0.36522,0.38697 -0.17449,0.12543 -0.40897,0.24532 -0.68705,0.33791 -0.28371,0.0926 -0.60524,0.16896 -0.95965,0.21802 -0.0871,0.0119 -0.18003,0.0198 -0.27262,0.0277 -0.0926,0.0119 -0.18557,0.0158 -0.2837,0.0198 -0.57801,-0.18518 -1.4286,-0.55613 -1.63578,-1.34677 -0.15273,-0.57797 0.62157,-1.05781 0.77973,-1.27591 0.14165,-0.0158 0.27816,-0.0237 0.40347,-0.0277 0.26708,-0.004 0.5071,0 0.7034,0.0119 0.39801,0.0237 0.62703,0.0653 0.62703,0.0653 0,0 -0.0546,-0.0237 -0.15827,-0.0546 -0.10367,-0.0277 -0.26154,-0.0764 -0.46346,-0.11989 -0.39805,-0.0819 -0.99782,-0.16341 -1.6903,-0.12543 -0.34899,0.0158 -0.7252,0.0602 -1.10145,0.15828 -0.37076,0.0926 -0.75789,0.22909 -1.08508,0.45803 -0.15827,0.11436 -0.32168,0.24533 -0.43073,0.4144 -0.10921,0.17449 -0.18558,0.34899 -0.15827,0.60523 0.004,0.0491 0.0158,0.087 0.0237,0.13097 l 0.004,0.0317 0.0119,0.0277 v 0.004 l 0.004,0.0119 0.004,0.0158 0.0396,0.0819 c 0.0158,0.0546 0.0491,0.10921 0.0819,0.15827 0.0396,0.0491 0.0653,0.10367 0.10921,0.1472 0.16341,0.19625 0.37629,0.35453 0.59977,0.48526 0.44712,0.2564 0.9433,0.40351 1.42314,0.49618 0.4853,0.0981 0.94876,0.12543 1.4068,0.11989 0.11989,0.004 0.21802,-0.004 0.32169,-0.0119 0.0601,0 0.0926,0 0.16341,-0.0119 l 0.15827,-0.0158 c 0.10367,-0.0119 0.20734,-0.0277 0.30547,-0.0435 0.10367,-0.0158 0.20179,-0.0277 0.29438,-0.0546 0.38183,-0.0764 0.71974,-0.19071 1.00329,-0.32722 0.57797,-0.27263 0.89965,-0.6598 0.95964,-0.96514 0.0317,-0.15274 0.0119,-0.27817 -0.0158,-0.35968 -0.0277,-0.0819 -0.0435,-0.11989 -0.0435,-0.11989"
       id="path975-7"
       inkscape:connector-curvature="0" />
    <path
       style="fill:#3d3d3d;fill-opacity:1;fill-rule:nonzero;stroke:none;stroke-width:1.39586914"
       d="m 74.515323,182.76999 c 0.0237,-0.0198 0.0396,-0.0435 0.0546,-0.0653 0.004,0.0119 0.0119,0.0277 0.0237,0.0396 0.0435,0.0491 0.0926,0.0981 0.13611,0.15273 0.0491,0.0546 0.11435,0.0981 0.17449,0.15274 0.0277,0.0198 0.0546,0.0491 0.0926,0.0708 0.0317,0.0198 0.0653,0.0491 0.10367,0.0708 0.0708,0.0396 0.14165,0.0871 0.21802,0.13097 0.0819,0.0396 0.15827,0.0764 0.23978,0.10921 0.0435,0.0198 0.0871,0.0396 0.12543,0.0546 l 0.13097,0.0435 0.2564,0.0871 c 0.1745,0.0491 0.35453,0.0819 0.52891,0.11989 0.17449,0.0396 0.34345,0.0435 0.50706,0.0708 0.14165,0.0158 0.27262,0.0237 0.39805,0.0277 0.0119,0.0871 0.0158,0.18003 0.0158,0.27816 0.004,0.15273 -0.004,0.30547 -0.0237,0.41986 -0.0158,0.11435 -0.0316,0.18557 -0.0316,0.18557 0,0 0.0435,-0.0653 0.0926,-0.16895 0.0601,-0.10367 0.11989,-0.24533 0.17449,-0.39252 0.0396,-0.10881 0.0653,-0.21802 0.0871,-0.31615 0.0601,0.004 0.11989,0.004 0.18003,0.004 0.12543,-0.004 0.24533,-0.0158 0.34899,-0.0237 0.10367,-0.004 0.19072,-0.0158 0.26155,-0.0237 0.14719,-0.0119 0.2291,-0.0277 0.2291,-0.0277 0,0 -0.0871,-0.0119 -0.23979,-0.0316 -0.14719,-0.0277 -0.36006,-0.0491 -0.61615,-0.0819 -0.12543,-0.0158 -0.26194,-0.0396 -0.40893,-0.0601 -0.14166,-0.0158 -0.29439,-0.0396 -0.45258,-0.0708 -0.15273,-0.0277 -0.31061,-0.0546 -0.47438,-0.0871 -0.15273,-0.0435 -0.32169,-0.0764 -0.47434,-0.11989 l -0.23464,-0.0764 -0.11435,-0.0317 c -0.0396,-0.0158 -0.0764,-0.0316 -0.10921,-0.0435 -0.0708,-0.0317 -0.14165,-0.0601 -0.21802,-0.087 -0.0653,-0.0317 -0.13097,-0.0708 -0.19625,-0.10367 l -0.0926,-0.0491 -0.0874,-0.0546 c -0.0546,-0.0396 -0.11435,-0.0708 -0.16341,-0.11435 -0.0491,-0.0396 -0.0926,-0.0819 -0.13612,-0.11989 -0.0491,-0.0396 -0.0819,-0.0819 -0.11989,-0.11989 -0.0396,-0.0396 -0.0653,-0.0819 -0.0926,-0.11435 -0.0316,-0.0396 -0.0601,-0.0764 -0.0764,-0.11436 -0.0435,-0.0708 -0.0764,-0.13611 -0.0981,-0.19071 -0.0435,-0.10882 -0.0546,-0.18004 -0.0546,-0.18004 0,0 -0.0277,0.0653 -0.0277,0.18004 0,0.0601 0,0.13097 0.0277,0.21287 0,0 0,0.004 0,0.004 0,0.0435 -0.004,0.0871 -0.0158,0.13097 -0.0119,0.0764 -0.0396,0.15273 -0.0653,0.23464 -0.0546,0.15827 -0.14719,0.30546 -0.22356,0.41985 -0.0708,0.10881 -0.13611,0.1745 -0.13611,0.1745 0,0 0.087,-0.0491 0.20179,-0.14166 0.11435,-0.0871 0.26155,-0.21802 0.37629,-0.36521"
       id="path977-1"
       inkscape:connector-curvature="0" />
    <path
       style="fill:#3d3d3d;fill-opacity:1;fill-rule:nonzero;stroke:none;stroke-width:1.39586914"
       d="m 81.527363,181.54861 c 0,0 0.004,0.0435 0.0119,0.11989 0,0.0819 -0.0277,0.19071 -0.0871,0.32168 -0.0653,0.12543 -0.19072,0.26155 -0.36522,0.38698 -0.17449,0.13097 -0.40893,0.24532 -0.68701,0.33791 -0.27817,0.0981 -0.60524,0.16895 -0.95965,0.21802 -0.087,0.0119 -0.18003,0.0237 -0.27262,0.0277 -0.0874,0.0119 -0.18557,0.0158 -0.27816,0.0237 h -0.004 c -0.57255,-0.18558 -1.42314,-0.55617 -1.63582,-1.34678 -0.15273,-0.57801 0.62162,-1.06327 0.77973,-1.27594 0.14165,-0.0158 0.27816,-0.0198 0.40897,-0.0277 0.26709,-0.004 0.50707,-0.004 0.70336,0.0119 0.39252,0.0237 0.62708,0.0601 0.62708,0.0601 0,0 -0.0546,-0.0158 -0.16342,-0.0491 -0.10367,-0.0277 -0.2564,-0.0764 -0.45804,-0.11435 -0.39801,-0.0871 -0.99782,-0.16896 -1.69576,-0.13097 -0.34899,0.0158 -0.71974,0.0601 -1.09595,0.15827 -0.3763,0.0926 -0.75793,0.2291 -1.09054,0.458 -0.15827,0.11435 -0.31614,0.24532 -0.42531,0.41439 -0.10921,0.16896 -0.19072,0.34899 -0.16342,0.60527 0.004,0.0491 0.0158,0.0871 0.0237,0.13097 l 0.0119,0.0317 0.004,0.0277 v 0.004 l 0.004,0.0119 0.0119,0.0158 0.0316,0.0819 c 0.0198,0.0546 0.0491,0.10921 0.0871,0.15828 0.0317,0.0491 0.0653,0.10366 0.10921,0.14719 0.15827,0.19626 0.37075,0.35453 0.59435,0.47984 0.45258,0.26154 0.9433,0.40893 1.42314,0.5071 0.48526,0.0926 0.95418,0.11989 1.41222,0.11435 0.11989,0.004 0.21802,-0.004 0.32169,-0.0119 0.0546,0 0.0926,0 0.16341,-0.0119 l 0.15827,-0.0158 c 0.10367,-0.0119 0.2018,-0.0198 0.30547,-0.0435 0.0981,-0.0158 0.19626,-0.0317 0.28884,-0.0546 0.38184,-0.0764 0.71975,-0.19072 1.00329,-0.32723 0.57797,-0.27262 0.89966,-0.65976 0.95964,-0.9651 0.0317,-0.14719 0.0119,-0.27816 -0.0119,-0.35967 -0.0316,-0.0764 -0.0491,-0.1199 -0.0491,-0.1199"
       id="path979-4"
       inkscape:connector-curvature="0" />
    <path
       style="fill:#3d3d3d;fill-opacity:1;fill-rule:nonzero;stroke:none;stroke-width:1.39586914"
       d="m 157.4332,79.944612 c 0,1.56492 -0.15827,3.15163 -0.42528,4.721957 l 9.50391,7.710017 1.843,1.494 0.38697,0.31615 0.29992,0.23978 1.02505,0.834247 0.31615,0.2564 0.21248,0.1745 2.72089,2.20287 4.08401,3.315197 0.31614,0.2564 0.36522,0.29438 2.62268,2.13196 3.86044,3.12437 -0.40893,1.43402 -1.97385,6.90848 -0.16895,0.57797 -0.31061,1.09595 -1.09595,3.82777 -0.51257,1.79389 -0.69248,2.43189 -0.84517,2.95529 -0.44711,1.56491 -2.48091,8.68057 h -29.53684 v 32.67205 h 20.20193 l -8.71872,30.5074 H 63.670063 l -8.71871,-30.5074 h 20.20739 V 138.28758 H 45.616439 l -2.071976,-7.24651 -2.050174,-7.18657 -2.660865,-9.30215 -0.141653,-0.51256 -2.00657,-7.02295 0.556167,-0.44712 7.186529,-5.82883 0.272623,-0.22356 0.916077,-0.747007 1.875676,-1.52127 5.20726,-4.220347 0.52345,-0.42528 0.65429,-0.5289 0.0277,-0.0237 0.79065,-0.64338 0.0874,-0.0708 0.49072,-0.39805 1.03055,-0.83425 7.88447,-6.395917 c -0.23464,-1.543107 -0.37075,-3.135247 -0.37075,-4.771067 0,-1.97926 0.18557,-3.82772 0.51798,-5.57255 L 27.601745,104.15428 57.678373,209.41155 H 163.56813 L 193.64476,104.15428 156.8396,74.301232 c 0.38183,1.79935 0.59431,3.67507 0.59431,5.64345"
       id="path981-4"
       inkscape:connector-curvature="0" />
    <path
       style="fill:#37abc8;fill-opacity:1;fill-rule:nonzero;stroke:none;stroke-width:1.39586914"
       d="m 80.191463,55.146122 c 6.62494,-8.68058 15.01105,-12.41014 21.308847,-14.02411 0.22909,-0.0708 0.46892,-0.13651 0.73062,-0.19072 9.78745,-2.09928 -1.39038,2.21375 4.64021,4.11673 1.64666,0.51798 12.93904,1.15048 0.28885,1.77209 0,0 -30.512867,1.19412 -30.512867,29.13875 0,26.625098 27.050427,27.132198 27.050427,27.132198 0,0 -3.844097,-1.07415 -7.639097,-3.151577 6.575827,1.853867 13.348007,2.170137 17.699177,2.410037 10.09279,0.55071 11.98485,1.97931 5.21272,4.37843 -2.45369,0.87243 -4.82559,2.19195 -6.27599,3.62055 0.004,0 0.004,0 0.004,0 0.91062,0.0158 1.85392,0.0317 2.8081,0.0546 0.95968,-0.0237 1.93024,-0.0396 2.90627,-0.0546 1.94658,-0.0981 3.89317,-0.2291 5.71432,-0.46892 1.82661,-0.20734 3.51696,-0.52345 4.96732,-0.81791 2.88989,-0.60523 4.7656,-1.29225 4.7656,-1.29225 0,0 -1.76663,0.95964 -4.58564,2.00111 -1.40676,0.5071 -3.06984,1.08507 -4.88554,1.57037 -1.80481,0.51799 -3.76232,0.9433 -5.7307,1.34132 -0.76881,0.0981 -1.54853,0.18003 -2.35006,0.27816 -0.98149,0.11435 -1.98477,0.16341 -2.98806,0.25086 -2.00656,0.13097 -4.02402,0.18557 -5.91062,0.15827 -1.89206,-0.0198 -3.65873,-0.13097 -5.16365,-0.27816 -3.020737,-0.29439 -5.000047,-0.80695 -5.000047,-0.80695 0,0 1.92479,0.70336 4.934637,1.29225 1.50493,0.29438 3.2661,0.57251 5.17454,0.78518 1.52127,0.16896 3.13525,0.27817 4.76556,0.35453 1.19412,1.08508 3.73506,1.96839 8.16259,2.43185 -2.86808,0.2837 -6.06331,0.43624 -9.66205,0.43624 -26.363377,0 -31.805117,-8.10261 -35.976327,-16.87039 -2.19741,-4.618367 -6.59768,-12.213871 -6.59768,-20.774468 0,-10.58898 6.05786,-16.81586 12.14297,-24.79304 z M 131.6696,87.262029 c 6.4123,-4.831037 5.55621,-15.338187 5.55621,-15.338187 0,0 2.8299,7.54639 -1.16686,15.888897 -3.31516,6.919364 -14.01318,7.644564 -16.64683,5.136357 -2.53001,-2.40459 6.45591,-1.3141 12.25748,-5.687067 z m -23.81156,9.874694 c 0,0 -0.46345,0.004 -1.28136,-0.0237 -0.40894,-0.0158 -0.90512,-0.0317 -1.47221,-0.0601 -0.57251,-0.0277 -1.22138,-0.0158 -1.91386,-0.13097 -1.39588,-0.18558 -3.03712,-0.34899 -4.749217,-0.80157 -0.86152,-0.2018 -1.76121,-0.38698 -2.63907,-0.71428 -0.88331,-0.30547 -1.79393,-0.56709 -2.66632,-0.975977 -0.87244,-0.38698 -1.75029,-0.76339 -2.57366,-1.24869 -0.84513,-0.43074 -1.6194,-0.9651 -2.36098,-1.49401 -0.76334,-0.48526 -1.4013,-1.12867 -2.03383,-1.6685 -0.59431,-0.605227 -1.1614,-1.166857 -1.5976,-1.772087 -0.47984,-0.56163 -0.81791,-1.16686 -1.12867,-1.67942 -0.28885,-0.53983 -0.52349,-1.00871 -0.67614,-1.41222 -0.32169,-0.81245 -0.38697,-1.314087 -0.38697,-1.314087 0,0 0.18003,0.463497 0.61615,1.183237 0.41439,0.73062 1.15594,1.6685 2.14288,2.66086 0.4798,0.51803 1.07961,0.97603 1.67392,1.50493 0.64888,0.463457 1.29229,0.997827 2.03929,1.434017 0.36522,0.2291 0.73609,0.45804 1.11234,0.69252 0.39805,0.20734 0.7906,0.41436 1.19412,0.62157 0.78519,0.45258 1.63578,0.80153 2.48095,1.15594 0.82879,0.40352 1.7121,0.67068 2.5627,0.98149 0.84517,0.32168 1.70122,0.57796 2.53001,0.817897 0.83425,0.2291 1.624897,0.51253 2.404617,0.67068 0.77427,0.19072 1.50493,0.37629 2.17561,0.54525 0.67067,0.18557 1.30317,0.2837 1.85387,0.41439 0.55617,0.11989 1.04143,0.22356 1.43949,0.31101 0.7961,0.17449 1.2541,0.29992 1.2541,0.29992 z m -0.9651,-41.990601 c -12.764577,2.05563 -8.680567,12.84636 -14.002297,19.63488 -3.65873,4.66743 -12.10483,7.5955 -12.65007,-0.0396 -0.39252,-5.4908 1.09049,-13.68062 9.67836,-19.46585 9.28038,-6.24869 20.490927,-7.57912 28.391777,-5.4199 7.33376,2.00657 -0.26154,3.49512 -11.41777,5.28905 z m 19.64031,-8.37519 c 0.42531,0.19071 1.10141,0.37629 1.88113,0.80152 0.39806,0.19626 0.83426,0.41982 1.3141,0.65976 0.45803,0.27816 0.95422,0.58343 1.48858,0.90512 1.04143,0.67613 2.19737,1.50492 3.36427,2.54093 1.1832,1.00875 2.37186,2.23559 3.54418,3.60963 1.12867,1.41768 2.29553,2.95533 3.26067,4.7165 1.01417,1.73394 1.90294,3.63146 2.60088,5.64892 0.71428,2.01749 1.20504,4.1331 1.54853,6.36865 l 0.1472,1.56492 0.0764,0.83425 0.0317,0.80699 c 0.0491,1.06869 0.0653,2.13742 0.0396,3.20615 -0.0435,2.13196 -0.29439,4.24212 -0.74701,6.259567 -0.45254,2.01203 -1.205,3.90951 -2.18102,5.534407 -0.9651,1.64123 -2.20287,2.96075 -3.45698,3.93677 -2.53547,1.984767 -5.0491,2.693627 -6.74487,3.086217 -0.85063,0.20734 -1.54311,0.28885 -2.00111,0.34899 -0.45803,0.0546 -0.70886,0.0871 -0.70886,0.0871 0,0 0.96515,-0.29993 2.55728,-0.97602 1.57583,-0.67614 3.84957,-1.76667 5.91608,-3.800467 1.03055,-1.00874 1.96297,-2.27919 2.70451,-3.751387 0.75792,-1.47767 1.24865,-3.18977 1.59764,-5.01097 0.33276,-1.821187 0.44165,-3.767737 0.45253,-5.757957 0.0119,-0.99783 -0.0198,-2.00657 -0.0819,-3.01528 l -0.0491,-0.76338 -0.0708,-0.72521 -0.1745,-1.55945 c -0.30546,-1.89206 -0.69248,-3.87679 -1.33043,-5.7307 -0.63795,-1.85388 -1.33043,-3.66961 -2.20829,-5.31627 -0.83425,-1.67397 -1.81027,-3.19523 -2.76449,-4.62383 -1.01417,-1.37404 -2.01199,-2.65541 -3.02074,-3.7514 -1.00874,-1.10142 -2.00111,-2.05018 -2.91168,-2.86262 -0.4635,-0.39252 -0.8997,-0.75789 -1.30321,-1.09596 -0.41982,-0.31615 -0.80699,-0.61069 -1.15594,-0.87243 -0.69794,-0.54529 -1.29225,-0.88332 -1.67942,-1.1614 -0.39802,-0.26194 -0.60523,-0.40351 -0.60523,-0.40351 0,0 0.23463,0.0926 0.67067,0.26154 z m 11.10153,4.33478 c 1.07416,1.02513 2.60635,2.53548 4.14942,4.61841 0.79064,1.02509 1.58125,2.19195 2.35556,3.47332 0.77972,1.27587 1.53219,2.67174 2.18648,4.18213 1.32497,3.00986 2.35006,6.41773 2.92261,9.9183 0.5507,3.50058 0.62703,7.0666 0.40347,10.37088 -0.23464,3.309737 -0.83967,6.352274 -1.51035,8.898664 -0.66521,2.551817 -1.4722,4.591107 -2.06655,5.992407 -0.60523,1.39588 -1.02509,2.153797 -1.02509,2.153797 0,0 0.34899,-0.796097 0.86698,-2.224667 0.5289,-1.4286 1.16139,-3.51149 1.74482,-6.057847 1.15594,-5.065487 1.8648,-12.126614 0.71428,-18.980534 -0.51798,-3.42425 -1.48312,-6.76672 -2.74811,-9.73293 -0.63795,-1.47766 -1.30863,-2.88442 -2.03383,-4.16579 -0.71428,-1.28683 -1.45036,-2.47003 -2.19741,-3.5115 -1.45582,-2.11016 -2.85716,-3.72413 -3.87678,-4.80375 -1.02509,-1.08507 -1.6467,-1.66304 -1.6467,-1.66304 0,0 0.67067,0.51253 1.7612,1.53215 z m 13.51155,17.52473 c 0.52348,0.9433 1.06327,2.09927 1.51039,3.40245 0.45804,1.29771 0.80152,2.74811 0.98694,4.22573 0.0764,0.74159 0.13097,1.47771 0.13097,2.22467 0.0237,0.7525 -0.0435,1.42318 -0.10921,2.13746 -0.15273,1.39042 -0.45804,2.64453 -0.79064,3.685947 -0.67614,2.0829 -1.3795,3.33701 -1.3795,3.33701 0,0 0.0546,-0.35968 0.16341,-0.98149 0.12543,-0.61615 0.24533,-1.51034 0.39802,-2.562727 0.14165,-1.05777 0.27262,-2.27916 0.31615,-3.58237 0.0237,-0.62703 0.004,-1.35223 -0.0198,-2.01199 -0.0237,-0.66521 -0.0871,-1.36861 -0.17449,-2.05017 -0.30547,-2.75357 -1.11234,-5.43628 -1.79935,-7.44831 -0.34345,-0.99783 -0.6325,-1.84842 -0.86152,-2.43185 -0.22356,-0.58889 -0.33276,-0.93238 -0.33276,-0.93238 0,0 0.91057,1.09596 1.96292,2.98802 z m -4.45476,47.879378 c 0.458,0.70886 0.91604,1.51039 1.36316,2.38828 0.42527,0.85605 0.89965,1.88114 1.04689,3.00436 0.0546,0.76884 -0.35453,1.31955 -0.71975,1.76667 -0.39251,0.43073 -0.83425,0.79606 -1.29771,1.10687 -0.92149,0.63249 -1.91386,1.14506 -2.91714,1.58671 -2.03383,0.85606 -4.12219,1.48855 -6.08512,2.00657 -1.97384,0.51799 -3.8441,0.82879 -5.44174,1.10142 -1.59759,0.2564 -2.94441,0.39251 -3.88225,0.49072 -0.93784,0.0764 -1.47766,0.12543 -1.47766,0.12543 0,0 0.5289,-0.11435 1.45586,-0.31061 0.92696,-0.16341 2.24101,-0.47984 3.81684,-0.82337 1.5758,-0.34345 3.39695,-0.82879 5.33812,-1.36857 1.93566,-0.55075 3.98037,-1.22139 5.93788,-2.08836 0.98144,-0.4144 1.94112,-0.88882 2.8081,-1.45586 0.83971,-0.53437 1.70664,-1.33044 1.69576,-2.05018 -0.13097,-0.99782 -0.47984,-1.89206 -0.85605,-2.78629 -0.38698,-0.8724 -0.79611,-1.68485 -1.20504,-2.41551 -0.81791,-1.46674 -1.54307,-2.66632 -2.07198,-3.48969 -0.5289,-0.82333 -0.83429,-1.29225 -0.83429,-1.29225 0,0 0.37075,0.41439 0.9706,1.18324 0.58885,0.77968 1.46129,1.87568 2.35552,3.32062 z m -27.39938,3.76778 c -1.7176,0.16895 -3.57148,0.27816 -5.44174,0.30546 -3.7732,-0.004 -7.7863,-0.13097 -11.79944,-0.47984 -4.002217,-0.36007 -8.015357,-0.95964 -11.663117,-2.07743 -3.64235,-1.09053 -6.94121,-2.69905 -9.28581,-4.77649 -2.36644,-2.05563 -3.80592,-4.30214 -4.74922,-5.85613 -0.92696,-1.58126 -1.41768,-2.50818 -1.41768,-2.50818 0,0 0.54524,0.8942 1.57033,2.39913 1.00875,1.49947 2.53001,3.64781 4.92372,5.52353 1.18866,0.93237 2.56819,1.80481 4.12219,2.53001 1.55399,0.73066 3.26063,1.33043 5.06002,1.81023 3.60417,0.95422 7.55732,1.50493 11.526817,1.82666 3.9695,0.30546 7.96625,0.39251 11.69585,0.36007 1.8866,0.0119 3.65869,-0.0601 5.37083,-0.18558 1.70123,-0.11989 3.30428,-0.32722 4.79283,-0.4853 2.96625,-0.35967 5.42536,-0.83425 7.15385,-1.1396 1.72302,-0.32168 2.70993,-0.51252 2.70993,-0.51252 0,0 -0.9433,0.35967 -2.63361,0.86147 -1.68484,0.53437 -4.12761,1.17232 -7.09928,1.73395 -1.48858,0.29439 -3.11344,0.50164 -4.83647,0.67068 z m -5.29451,5.61619 c -4.53112,3.56057 13.25531,4.24758 2.09382,5.14728 -1.6685,0.0708 -3.38064,0.10367 -5.13635,0.10367 -22.437517,0 -38.244637,-5.69252 -37.759377,-9.2367 0.25086,-1.85934 1.71214,-4.48752 3.04258,-6.57042 0.25086,0.26708 0.53978,0.54525 0.87239,0.77973 0.32723,0.27262 0.68706,0.53436 1.07961,0.76338 0.38698,0.26154 0.80157,0.49618 1.23777,0.70882 0.86151,0.458 1.79935,0.84517 2.73719,1.20504 3.7514,1.4231 7.61188,2.0829 7.61188,2.0829 0,0 -3.69145,-1.43406 -6.99027,-3.50058 -0.81787,-0.51802 -1.62486,-1.05235 -2.31191,-1.61943 -0.34899,-0.26709 -0.67068,-0.54529 -0.95418,-0.82333 -0.29993,-0.26155 -0.54529,-0.53437 -0.75247,-0.78519 -0.23464,-0.24532 -0.39805,-0.4853 -0.52348,-0.69248 -0.0158,-0.0277 -0.0317,-0.0491 -0.0491,-0.0764 5.62712,5.14182 14.84748,8.69146 32.426727,8.69146 3.91497,0 7.40463,-0.18003 10.54533,-0.51252 3.09164,0.28884 -5.56167,3.07526 -7.17019,4.33482 z M 64.188053,84.710179 c 0.9924,6.537687 3.78412,12.164804 5.76343,16.145211 0.33276,0.67068 0.64341,1.29771 0.92149,1.88114 1.3359,2.8081 2.81352,5.53441 4.84193,8.01532 -1.4995,2.04476 -4.95098,7.07752 -5.44174,10.70895 -0.13097,0.92696 -0.0277,2.3501 1.17778,3.82776 4.1876,5.12544 21.17249,8.99134 39.504207,8.99134 18.33713,0 35.32203,-3.8659 39.50962,-8.99134 1.20504,-1.47766 1.30863,-2.9008 1.17778,-3.82776 -0.53436,-3.92043 -4.51478,-9.47664 -5.76889,-11.14514 1.85392,-2.36098 3.2443,-4.9346 4.50386,-7.57913 l 0.4635,-0.97602 c 1.99019,-4.143987 5.05457,-10.534444 6.1669,-17.093941 0.26709,-1.570327 0.42528,-3.157037 0.42528,-4.721957 0,-1.96838 -0.21248,-3.8441 -0.59431,-5.64345 -1.66308,-7.85721 -6.57588,-14.25859 -11.35782,-20.48548 l -1.1396,-1.48854 c -12.28474,-16.10159 -29.92939,-16.91403 -33.34272,-16.91403 -0.16342,0 -0.28885,0 -0.37629,0 -0.0874,0 -0.21248,0 -0.37075,0 -3.41333,0 -21.063447,0.81244 -33.348187,16.91403 -0.74154,0.97056 -1.48312,1.91928 -2.2192,2.8517 -4.37301,5.57801 -8.86049,11.31418 -10.34908,19.18776 -0.33277,1.74483 -0.51798,3.59325 -0.51798,5.57255 0,1.63582 0.13611,3.22796 0.37075,4.771027"
       id="path983-7"
       inkscape:connector-curvature="0" />
    <path
       style="fill:#3d3d3d;fill-opacity:1;fill-rule:nonzero;stroke:none;stroke-width:1.39586914"
       d="m 74.951523,66.945592 c -0.34899,1.07962 -0.81791,2.18649 -1.10688,3.39695 -0.31614,1.19958 -0.66521,2.43735 -0.86151,3.7296 -0.26708,1.28137 -0.39805,2.60638 -0.56709,3.92589 -0.0819,1.32501 -0.19625,2.64998 -0.18557,3.95862 -0.0316,1.30863 0.0435,2.595417 0.13097,3.838637 0.0819,1.23772 0.23978,2.43185 0.40897,3.5551 0.18004,1.123217 0.38184,2.181027 0.62704,3.140707 0.43077,1.9302 1.02508,3.473267 1.41222,4.547457 0.44712,1.05235 0.73066,1.63578 0.73066,1.63578 0,0 -0.16342,-0.63249 -0.45804,-1.73391 -0.26708,-1.11233 -0.58885,-2.699037 -0.85605,-4.629287 -0.14719,-0.95968 -0.24532,-2.00657 -0.36007,-3.113437 -0.0926,-1.10688 -0.16342,-2.27373 -0.20734,-3.48424 -0.0119,-0.60523 -0.0198,-1.22138 -0.0396,-1.842947 0.0119,-0.62162 0.0277,-1.24865 0.0396,-1.8866 0,-1.26503 0.13651,-2.55186 0.2291,-3.83319 0.1472,-1.27594 0.25086,-2.56273 0.49618,-3.80596 0.18558,-1.25411 0.4417,-2.46457 0.70886,-3.64231 0.25086,-1.17778 0.61616,-2.28465 0.88878,-3.35338 0.35453,-1.04689 0.68702,-2.03929 0.99782,-2.95533 0.35968,-0.88874 0.69248,-1.70665 0.98149,-2.43185 0.27262,-0.74154 0.62703,-1.33589 0.86151,-1.85387 0.49618,-1.01967 0.76334,-1.61398 0.76334,-1.61398 0,0 -0.37629,0.52344 -1.00328,1.45582 -0.29993,0.47984 -0.7252,1.01421 -1.09049,1.72303 -0.38698,0.69252 -0.83971,1.4722 -1.28137,2.35556 -0.39252,0.89965 -0.85063,1.86476 -1.25957,2.91714"
       id="path985-2"
       inkscape:connector-curvature="0" />
    <path
       style="fill:#3d3d3d;fill-opacity:1;fill-rule:nonzero;stroke:none;stroke-width:1.39586914"
       d="m 143.37418,185.57046 c -0.7252,0.18004 -1.47767,0.45258 -2.12108,0.88878 -0.30547,0.2291 -0.61615,0.47984 -0.82879,0.81245 -0.21248,0.33276 -0.36521,0.68155 -0.31615,1.17778 0.0119,0.0981 0.0317,0.16895 0.0491,0.2564 l 0.0119,0.0653 0.0119,0.0491 0.0158,0.0316 0.0119,0.0396 0.0708,0.15273 c 0.0396,0.10921 0.0981,0.21288 0.16896,0.31101 0.0653,0.0981 0.12543,0.20179 0.21248,0.28884 0.311,0.38183 0.72516,0.68156 1.15593,0.93784 0.88332,0.50164 1.843,0.79065 2.78084,0.97602 0.9433,0.19072 1.84846,0.23979 2.74265,0.23425 0.23464,0 0.42532,-0.0158 0.62707,-0.0237 0.10921,-0.0119 0.18004,-0.004 0.31615,-0.0198 l 0.30547,-0.0396 c 0.20733,-0.0158 0.40347,-0.0435 0.59977,-0.0819 0.19071,-0.0277 0.38697,-0.0601 0.56709,-0.10367 0.74154,-0.15273 1.40129,-0.38183 1.95746,-0.64341 1.12326,-0.52345 1.75029,-1.28133 1.87026,-1.87568 0.0601,-0.29439 0.0158,-0.54525 -0.0317,-0.7034 -0.0546,-0.15273 -0.087,-0.23978 -0.087,-0.23978 0,0 0.004,0.087 0.0158,0.24532 0,0.15827 -0.0435,0.37075 -0.16341,0.62161 -0.13097,0.24532 -0.37075,0.50706 -0.71428,0.75792 -0.34345,0.24533 -0.79611,0.46892 -1.34136,0.6543 -0.54524,0.18557 -1.17778,0.32723 -1.86479,0.41986 -0.16896,0.0277 -0.34899,0.0435 -0.52891,0.0601 -0.18003,0.0198 -0.36521,0.0317 -0.55071,0.0396 h -0.004 c -1.12326,-0.36007 -2.77538,-1.07965 -3.18431,-2.62273 -0.29993,-1.12325 1.205,-2.06109 1.52127,-2.48641 0.27262,-0.0277 0.53436,-0.0435 0.78514,-0.0491 0.52349,-0.0158 0.98695,-0.0119 1.37408,0.0158 0.7688,0.0491 1.22138,0.12543 1.22138,0.12543 0,0 -0.10921,-0.0317 -0.31061,-0.0981 -0.20733,-0.0601 -0.50706,-0.15273 -0.89965,-0.23424 -0.77973,-0.16342 -1.94659,-0.32169 -3.30428,-0.25086 -0.67614,0.0396 -1.4068,0.11989 -2.13746,0.311"
       id="path967-9-9"
       inkscape:connector-curvature="0" />
    <path
       style="fill:#ffe680;stroke:#ffeeaa;stroke-width:2.85714293"
       d="M 137.21289 189.91992 L 129.57031 195.63281 C 109.79156 210.41457 110.71079 208.2858 118.81445 220.53125 C 126.83594 232.65254 140.5 270.21466 140.5 280.14453 C 140.5 283.60029 138.66185 291.6366 136.41602 298.00195 C 134.1702 304.36729 131.60714 320.27911 130.7207 333.36133 C 129.83426 346.44356 127.81444 361.63733 126.23242 367.12695 C 120.41525 387.31262 120.20143 387.14648 151.92773 387.14648 L 180.5 387.14648 L 180.5 450.00391 L 180.5 512.86133 L 143.35742 512.86133 C 122.92884 512.86133 106.21484 513.86555 106.21484 515.09375 C 106.21484 517.1767 119.21469 563.54336 132.23047 607.88281 L 137.89844 627.18945 L 314.07812 626.45312 L 490.25977 625.71875 L 506.43359 569.28906 L 522.60742 512.86133 L 484.41016 512.86133 L 446.21484 512.86133 L 446.21484 450.00391 L 446.21484 387.14648 L 483.38477 387.14648 L 520.55664 387.14648 L 507.28711 360.72266 C 498.46849 343.16371 494.11531 330.94354 494.31445 324.29492 C 494.47841 318.79211 494.54689 312.03906 494.46289 309.28906 C 493.79594 287.46385 494.3617 277.49656 497.23047 260.55273 C 501.00184 238.27793 506.26958 226.5967 515.48438 220.07227 L 521.92773 215.50977 L 507.64258 202.86719 C 499.78544 195.91338 492.6466 190.17368 491.77734 190.11328 C 490.90808 190.05291 487.20775 199.28454 483.55469 210.62695 C 479.9016 221.96936 470.90527 242.97532 463.5625 257.30859 L 450.21094 283.36914 L 459.67969 300.25781 C 478.92769 334.58697 468.60312 349.70989 417.01172 362.75391 C 375.13605 373.34149 322.76266 377.3046 278.35547 373.24805 C 216.69834 367.61574 170.10418 353.09377 162.89062 337.26172 C 158.66999 327.99843 161.81639 313.58846 171.35742 298.49414 L 179.29688 285.93359 L 162.99219 254.39648 C 154.02413 237.05131 144.55421 215.44921 141.94922 206.39062 L 137.21289 189.91992 z M 305.64844 430.08789 C 321.50495 429.97194 341.44029 430.99531 353.27734 433.05664 C 378.90728 437.5199 391.78789 445.78994 401.64844 464.11328 C 407.12744 474.29461 408.52862 478.97809 405.78125 477.92383 C 403.07182 476.88415 400.29775 479.32395 397.81641 484.92969 C 395.10795 491.04852 389.42755 495.62972 378.13672 500.79883 C 364.64522 506.97543 356.92675 508.27032 326.67969 509.43555 C 303.20922 510.33969 291.69966 509.82899 292.87109 507.93359 C 293.93227 506.21657 288.61628 504.35074 279.66602 503.29883 C 258.41682 500.8014 239.03682 493.59786 229.43555 484.62891 C 224.89606 480.3884 219.74327 477.39806 217.98438 477.98438 C 213.22977 479.56922 214.0238 476.81165 221.92773 464.29102 C 229.76283 451.87941 243.65233 443.52781 265.11523 438.32422 C 272.79071 436.46334 280.2923 433.83044 281.78516 432.47266 C 283.4502 430.95827 293.3156 430.17807 305.64844 430.08789 z M 189.22461 546.01562 C 191.43021 545.96505 193.52191 546.40031 195.18359 547.45312 C 198.22073 549.37741 197.97639 549.92468 194.07031 549.95898 C 191.32031 549.98304 189.07031 551.4509 189.07031 553.21875 C 189.07031 555.26638 192.18226 555.81081 197.64258 554.71875 C 208.50025 552.54721 208.5504 554.36277 197.78516 559.92969 C 193.14891 562.32717 188.96895 564.20199 188.49805 564.0957 C 184.73192 563.2451 174.79518 557.35655 174.83008 555.99609 C 174.96617 550.68828 182.60781 546.16734 189.22461 546.01562 z M 370.23633 558.89648 C 371.19189 558.87943 372.17737 558.88304 373.18945 558.90625 C 381.1391 559.08854 385.07059 559.87007 381.92773 560.64258 C 371.08046 563.30887 368.42122 567.40504 373.72852 573.26953 C 379.51239 579.66064 384.98689 579.92359 395.71875 574.32617 C 401.50595 571.30771 403.46752 571.1116 402.63672 573.63086 C 401.99898 575.5646 398.36503 578.73466 394.56055 580.67578 C 379.29753 588.46326 351.68012 582.86929 349.5 571.54883 C 348.02427 563.88603 355.90286 559.15226 370.23633 558.89648 z M 448.05469 565.20312 C 450.57402 565.19267 453.08766 565.4575 455.50977 566.0293 L 464.78516 568.21875 L 456.24805 569.84766 C 446.03434 571.79609 443.49501 579.77551 451.69141 584.16211 C 456.09369 586.51814 460.01883 586.23036 467.79688 582.98047 C 475.29842 579.84613 477.77806 579.63368 476.95898 582.19922 C 476.34126 584.13391 470.13565 587.66454 463.16797 590.04297 C 456.20028 592.4214 448.89202 595.38864 446.92773 596.63867 C 444.96345 597.8887 443.35742 597.69192 443.35742 596.20117 C 443.35742 594.71046 437.66935 591.81259 430.7168 589.75977 C 418.14069 586.04648 418.09647 585.98754 422.0957 578.25391 C 426.12468 570.46271 437.13756 565.24844 448.05469 565.20312 z M 179.41016 570.10156 C 183.24366 570.20112 186.55625 571.10362 187.64258 572.86133 C 188.61378 574.43276 186.65366 575.71875 183.28711 575.71875 C 175.14264 575.71875 177.53322 582.56962 186.11523 583.82422 C 189.743 584.35456 193.80059 583.06858 195.13281 580.9668 C 197.04298 577.95323 197.56511 578.11167 197.59961 581.71289 C 197.62509 584.37257 193.16797 588.00117 186.92773 590.40234 C 177.48271 594.03671 175.16361 594.00303 167.34961 590.12109 C 158.03597 585.49412 157.48145 580.06073 165.66016 573.57422 C 168.69104 571.17043 174.48136 569.97355 179.41016 570.10156 z M 230 590.29297 C 231.30617 590.10481 235.70594 592.1377 245.35547 596.98438 C 260.94629 604.8152 287.0538 609.81006 314.78516 610.26758 C 328.443 610.49289 331.46786 611.17902 326.21484 612.86133 C 315.63678 616.24902 289.79333 615.71642 271.92773 611.74414 C 255.86639 608.17302 233.74034 598.10425 230.52539 592.90234 C 229.54651 591.31848 229.2163 590.40587 230 590.29297 z M 410.47266 596.04883 C 411.18892 596.02005 411.94414 596.02004 412.74219 596.04883 C 417.79405 596.23112 419.67773 596.96884 416.92773 597.6875 C 414.17773 598.40613 411.92773 600.07904 411.92773 601.4043 C 411.92773 605.34164 418.65736 606.56508 424.78516 603.74219 C 429.46347 601.58705 429.27614 602.17398 423.75391 606.98438 C 416.97076 612.89311 415.85097 613.11281 404.07031 610.84375 C 396.74797 609.43341 396.53386 608.84105 400.59961 601.24414 C 402.39846 597.88299 405.4588 596.25026 410.47266 596.04883 z "
       transform="matrix(0.26458333,0,0,0.26458333,27.601745,35.413112)"
       id="path21745" />
    <path
       style="fill:#ffe680;stroke:#ffeeaa;stroke-width:2.85714293"
       d=""
       id="path21748"
       inkscape:connector-curvature="0"
       transform="matrix(0.26458333,0,0,0.26458333,27.601745,35.413112)" />
    <path
       style="fill:#ffe680;stroke:#ffeeaa;stroke-width:2.85714293"
       d=""
       id="path21750"
       inkscape:connector-curvature="0"
       transform="matrix(0.26458333,0,0,0.26458333,27.601745,35.413112)" />
    <path
       style="fill:#ffe680;stroke:#ffeeaa;stroke-width:2.85714293"
       d="m 373.75469,482.85426 c 0.90587,-2.36066 0.87997,-7.34832 -0.0575,-11.08369 -2.15565,-8.58877 -24.44401,-17.78806 -49.49649,-20.42917 -9.7502,-1.0279 -19.22906,-3.678 -21.06412,-5.88911 -2.82318,-3.40172 0.38797,-4.02021 20.87272,-4.02021 28.01386,0 39.47443,3.27013 54.29612,15.49273 12.39611,10.22235 13.29529,15.42057 4.15307,24.00923 -7.71587,7.24869 -11.02897,7.97962 -8.70376,1.92022 z"
       id="path21752"
       inkscape:connector-curvature="0"
       transform="matrix(0.26458333,0,0,0.26458333,27.601745,35.413112)" />
    <path
       style="fill:#ffeeaa;stroke:#ffeeaa;stroke-width:2.85714293"
       d="M 135.82227 192.65039 L 127.44727 198.95898 C 122.84066 202.42843 118.06709 206.11549 116.83984 207.15234 C 115.61259 208.18919 119.09965 218.57592 124.58984 230.23438 C 140.7642 264.58072 142.26048 273.61455 136.91602 304.6875 C 134.38603 319.39697 130.97484 341.30017 129.33594 353.36133 C 127.69705 365.42249 126.0023 376.93842 125.57031 378.95117 C 124.67455 383.12468 142.07887 386.60488 165.5 386.93555 L 180.5 387.14648 L 180.5 449.59961 L 180.5 512.05078 L 145.52539 514.09766 C 126.28952 515.2228 110.00763 516.68572 109.34375 517.34961 C 108.25159 518.44175 132.48636 606.31079 137.65625 620.00391 C 139.78661 625.64645 141.9973 625.70633 313.72461 624.76953 C 409.3757 624.2477 488.169 623.28803 488.82031 622.63672 C 490.12854 621.32849 520.36417 518.43011 520.44727 515.00391 C 520.47581 513.82534 503.78599 512.86133 483.35742 512.86133 L 446.21484 512.86133 L 446.21484 450.00391 L 446.21484 387.14648 L 481.92773 387.14648 C 501.57059 387.14648 517.64258 386.62699 517.64258 385.99219 C 517.64258 385.3574 512.3261 373.75892 505.82812 360.2168 C 491.90559 331.20142 489.35463 311.01943 494.61523 271.48828 C 498.45914 242.60311 502.68959 230.68865 512.32812 221.58984 L 519.07031 215.22461 L 506.45312 203.94727 C 499.51302 197.7446 492.96989 193.67688 491.91406 194.9082 C 490.85821 196.13952 485.74964 208.0745 480.56055 221.43164 C 475.3715 234.78878 466.89819 254.18287 461.73047 264.5293 L 452.33398 283.3418 L 460.70312 299.93164 C 480.18921 338.56307 467.25272 353.09257 400.5 367.54492 C 357.36916 376.88301 272.57358 376.97198 229.99609 367.72461 C 162.92189 353.15682 148.99785 338.01601 168.73438 301.11328 L 176.9668 285.71875 L 164.02148 260.00391 C 156.90091 245.86105 147.6435 224.92118 143.44922 213.4707 L 135.82227 192.65039 z M 315.94336 430.00391 C 367.06111 430.00391 386.00211 437.0731 401.33594 461.875 L 409.49023 475.06641 L 396.93359 487.98828 C 387.89484 497.28848 380.08512 502.18171 369.0625 505.45508 C 352.63095 510.33471 299.28269 511.35218 286.21484 507.03516 C 282.28627 505.73736 270.99911 502.64477 261.13281 500.16211 C 242.54132 495.48394 215.20976 479.78284 214.93945 473.625 C 214.85443 471.68831 220.24916 464.46257 226.92773 457.56836 C 244.57241 439.35398 274.76996 430.00391 315.94336 430.00391 z M 189.85938 544.93164 C 195.48414 544.8452 199.36425 547.16677 194.70508 550.11328 C 191.51235 552.13239 192.39265 552.78331 198.35742 552.81641 C 208.20187 552.87121 208.46932 556.62969 198.9375 560.97266 C 190.14536 564.97857 186.34673 565.02489 179.78516 561.20312 C 172.69354 557.07265 173.59321 550.42369 181.74609 546.70898 C 184.38512 545.50656 187.30266 544.97093 189.85938 544.93164 z M 370.35742 558.63867 C 384.67839 558.70173 384.7377 558.73943 378.2832 563.70703 C 373.14855 567.6588 372.5173 569.44893 375.2832 572.21484 C 379.6103 576.54196 387.59753 576.70766 395.21875 572.62891 C 403.78306 568.04543 405.81994 572.51382 398.04102 578.82031 C 384.39492 589.88339 349.07031 583.81819 349.07031 570.41211 C 349.07031 562.00956 355.28741 558.57237 370.35742 558.63867 z M 449.72461 564.49609 C 453.09534 564.4923 456.45788 564.8965 459.63086 565.75195 L 467.64258 567.91211 L 458.17188 570.51562 C 451.46285 572.36022 448.98735 574.53983 449.67969 577.99023 C 450.72183 583.18389 459.83952 584.18578 471.21484 580.35547 C 475.34892 578.96344 477.64258 579.3342 477.64258 581.39648 C 477.64258 583.16028 470.53531 587.74772 461.84766 591.58984 C 453.15997 595.43192 445.76599 598.44759 445.41797 598.29102 C 445.06991 598.13439 438.67912 595.32393 431.21484 592.04688 C 423.75055 588.76985 417.64258 585.11289 417.64258 583.91992 C 417.64258 582.72692 420.5346 578.42082 424.07031 574.35156 C 429.42593 568.18779 439.61243 564.50749 449.72461 564.49609 z M 178.08594 570.00391 C 190.23877 570.00391 191.52902 571.66643 184.07031 577.71094 C 179.54927 581.3748 179.9612 581.65806 188.35742 580.66406 C 198.56443 579.45566 200.4066 582.9891 192.64258 588.88281 C 184.89833 594.76156 167.95261 593.80391 161.92773 587.14648 C 156.93735 581.63217 156.93735 581.23307 161.92773 575.71875 C 165.39101 571.89187 170.72874 570.00391 178.08594 570.00391 z M 230.66602 590.31836 C 232.91333 590.14206 238.224 592.13061 250.56641 597.06836 C 265.36616 602.98919 304.7539 609.89207 324.24023 609.98047 C 327.08297 609.99335 328.61378 611.2899 327.64258 612.86133 C 325.05921 617.0413 284.35938 615.99613 266.92969 611.30273 C 249.0731 606.49436 229.07031 596.7203 229.07031 592.80273 C 229.07031 591.30944 229.31762 590.42414 230.66602 590.31836 z M 410.87891 595.5957 C 414.32397 595.7014 416.83996 597.34189 415.6543 600.43164 C 414.13333 604.39519 415.15864 604.81531 422.0957 603.07422 C 430.29204 601.01708 430.30927 601.04121 424.97852 606.93164 C 414.35435 618.67121 390.61782 611.9094 400.5293 599.9668 C 403.05934 596.91828 407.43385 595.49001 410.87891 595.5957 z "
       transform="matrix(0.26458333,0,0,0.26458333,27.601745,35.413112)"
       id="path21754" />
    <path
       style="fill:#ffeeaa;stroke:#ffeeaa;stroke-width:2.85714293"
       d=""
       id="path21757"
       inkscape:connector-curvature="0"
       transform="matrix(0.26458333,0,0,0.26458333,27.601745,35.413112)" />
  </g>
</svg>
